<svg width="334" height="185" viewBox="0 0 334 185" fill="none" xmlns="http://www.w3.org/2000/svg">
<path d="M92.4182 92H185C185 109.151 180.278 125.968 171.357 140.592C162.436 155.216 149.663 167.077 134.449 174.864C119.236 182.65 102.176 186.059 85.1543 184.713C68.1328 183.368 51.8133 177.32 38 167.239L92.4182 92Z" fill="#84111E"/>
<path d="M93 92.5L38.336 167C26.4625 158.458 16.7993 147.255 10.1364 134.307C3.47346 121.358 0 107.032 0 92.5C0 77.9677 3.47346 63.6417 10.1364 50.6933C16.7993 37.745 26.4625 26.5419 38.336 18L93 92.5Z" fill="#FF001B"/>
<path d="M92.5 92L38 17.5704C53.8412 6.15066 72.9193 0 92.5 0C112.081 0 131.159 6.15066 147 17.5704L92.5 92Z" fill="#B2323F"/>
<path d="M93 92L146.769 18C162.398 29.3539 174.03 45.3636 180 63.7345L93 92Z" fill="#E73B3B"/>
<path d="M93 92L180.497 64C183.48 73.0428 185 82.4918 185 92H93Z" fill="#E27F7F"/>
<path d="M261 22H241V42H261V22Z" fill="#84111E"/>
<path d="M110.852 138.119C110.29 138.119 109.788 138.023 109.348 137.83C108.911 137.636 108.563 137.368 108.304 137.024C108.048 136.678 107.909 136.276 107.886 135.818H108.96C108.983 136.099 109.08 136.342 109.25 136.547C109.42 136.749 109.643 136.905 109.919 137.016C110.195 137.126 110.5 137.182 110.835 137.182C111.21 137.182 111.543 137.116 111.832 136.986C112.122 136.855 112.349 136.673 112.514 136.44C112.679 136.207 112.761 135.938 112.761 135.631C112.761 135.31 112.682 135.027 112.523 134.783C112.364 134.536 112.131 134.342 111.824 134.203C111.517 134.064 111.142 133.994 110.699 133.994H110V133.057H110.699C111.045 133.057 111.349 132.994 111.611 132.869C111.875 132.744 112.081 132.568 112.229 132.341C112.379 132.114 112.455 131.847 112.455 131.54C112.455 131.244 112.389 130.987 112.259 130.768C112.128 130.55 111.943 130.379 111.705 130.257C111.469 130.135 111.19 130.074 110.869 130.074C110.568 130.074 110.284 130.129 110.017 130.24C109.753 130.348 109.537 130.506 109.369 130.713C109.202 130.918 109.111 131.165 109.097 131.455H108.074C108.091 130.997 108.229 130.597 108.487 130.253C108.746 129.906 109.084 129.636 109.501 129.443C109.922 129.25 110.384 129.153 110.886 129.153C111.426 129.153 111.889 129.263 112.276 129.482C112.662 129.697 112.959 129.983 113.166 130.338C113.374 130.693 113.477 131.077 113.477 131.489C113.477 131.98 113.348 132.399 113.089 132.746C112.834 133.092 112.486 133.332 112.045 133.466V133.534C112.597 133.625 113.027 133.859 113.337 134.237C113.646 134.612 113.801 135.077 113.801 135.631C113.801 136.105 113.672 136.531 113.413 136.909C113.158 137.284 112.808 137.58 112.365 137.795C111.922 138.011 111.418 138.119 110.852 138.119ZM118.271 138.119C117.771 138.119 117.321 138.02 116.92 137.821C116.52 137.622 116.199 137.349 115.957 137.003C115.716 136.656 115.584 136.261 115.561 135.818H116.584C116.624 136.213 116.803 136.54 117.121 136.798C117.442 137.054 117.825 137.182 118.271 137.182C118.629 137.182 118.947 137.098 119.226 136.93C119.507 136.763 119.727 136.533 119.886 136.24C120.048 135.945 120.129 135.611 120.129 135.239C120.129 134.858 120.045 134.518 119.878 134.22C119.713 133.919 119.486 133.682 119.196 133.509C118.906 133.335 118.575 133.247 118.203 133.244C117.936 133.241 117.662 133.283 117.381 133.368C117.099 133.45 116.868 133.557 116.686 133.688L115.697 133.568L116.226 129.273H120.76V130.21H117.112L116.805 132.784H116.857C117.036 132.642 117.26 132.524 117.53 132.43C117.8 132.337 118.081 132.29 118.374 132.29C118.908 132.29 119.384 132.418 119.801 132.673C120.222 132.926 120.551 133.273 120.79 133.713C121.031 134.153 121.152 134.656 121.152 135.222C121.152 135.778 121.027 136.276 120.777 136.713C120.53 137.148 120.189 137.491 119.754 137.744C119.32 137.994 118.825 138.119 118.271 138.119ZM127.294 136.364V135.903C127.294 135.585 127.359 135.294 127.49 135.03C127.623 134.763 127.816 134.55 128.069 134.391C128.325 134.229 128.635 134.148 128.998 134.148C129.368 134.148 129.677 134.229 129.927 134.391C130.177 134.55 130.366 134.763 130.494 135.03C130.622 135.294 130.686 135.585 130.686 135.903V136.364C130.686 136.682 130.62 136.974 130.49 137.241C130.362 137.506 130.172 137.719 129.919 137.881C129.669 138.04 129.362 138.119 128.998 138.119C128.629 138.119 128.318 138.04 128.065 137.881C127.812 137.719 127.62 137.506 127.49 137.241C127.359 136.974 127.294 136.682 127.294 136.364ZM128.163 135.903V136.364C128.163 136.628 128.225 136.865 128.35 137.075C128.475 137.283 128.691 137.386 128.998 137.386C129.297 137.386 129.507 137.283 129.629 137.075C129.754 136.865 129.816 136.628 129.816 136.364V135.903C129.816 135.639 129.757 135.403 129.637 135.196C129.518 134.986 129.305 134.881 128.998 134.881C128.7 134.881 128.485 134.986 128.355 135.196C128.227 135.403 128.163 135.639 128.163 135.903ZM122.947 131.369V130.909C122.947 130.591 123.012 130.3 123.143 130.036C123.277 129.768 123.47 129.555 123.723 129.396C123.978 129.234 124.288 129.153 124.652 129.153C125.021 129.153 125.331 129.234 125.581 129.396C125.831 129.555 126.02 129.768 126.147 130.036C126.275 130.3 126.339 130.591 126.339 130.909V131.369C126.339 131.687 126.274 131.98 126.143 132.247C126.015 132.511 125.825 132.724 125.572 132.886C125.322 133.045 125.015 133.125 124.652 133.125C124.282 133.125 123.971 133.045 123.718 132.886C123.466 132.724 123.274 132.511 123.143 132.247C123.012 131.98 122.947 131.687 122.947 131.369ZM123.816 130.909V131.369C123.816 131.634 123.879 131.871 124.004 132.081C124.129 132.288 124.345 132.392 124.652 132.392C124.95 132.392 125.16 132.288 125.282 132.081C125.407 131.871 125.47 131.634 125.47 131.369V130.909C125.47 130.645 125.41 130.409 125.291 130.202C125.172 129.991 124.958 129.886 124.652 129.886C124.353 129.886 124.139 129.991 124.008 130.202C123.88 130.409 123.816 130.645 123.816 130.909ZM123.271 138L129.271 129.273H130.243L124.243 138H123.271Z" fill="white"/>
<path d="M261 52H241V72H261V52Z" fill="#FF001B"/>
<path d="M32.8523 97.1193C32.2898 97.1193 31.7884 97.0227 31.348 96.8295C30.9105 96.6364 30.5625 96.3679 30.304 96.0241C30.0483 95.6776 29.9091 95.2756 29.8864 94.8182H30.9602C30.983 95.0994 31.0795 95.3423 31.25 95.5469C31.4205 95.7486 31.6435 95.9048 31.919 96.0156C32.1946 96.1264 32.5 96.1818 32.8352 96.1818C33.2102 96.1818 33.5426 96.1165 33.8324 95.9858C34.1222 95.8551 34.3494 95.6733 34.5142 95.4403C34.679 95.2074 34.7614 94.9375 34.7614 94.6307C34.7614 94.3097 34.6818 94.027 34.5227 93.7827C34.3636 93.5355 34.1307 93.3423 33.8239 93.2031C33.517 93.0639 33.142 92.9943 32.6989 92.9943H32V92.0568H32.6989C33.0455 92.0568 33.3494 91.9943 33.6108 91.8693C33.875 91.7443 34.081 91.5682 34.2287 91.3409C34.3793 91.1136 34.4545 90.8466 34.4545 90.5398C34.4545 90.2443 34.3892 89.9872 34.2585 89.7685C34.1278 89.5497 33.9432 89.3793 33.7045 89.2571C33.4688 89.1349 33.1903 89.0739 32.8693 89.0739C32.5682 89.0739 32.2841 89.1293 32.017 89.2401C31.7528 89.348 31.5369 89.5057 31.3693 89.7131C31.2017 89.9176 31.1108 90.1648 31.0966 90.4545H30.0739C30.0909 89.9972 30.2287 89.5966 30.4872 89.2528C30.7457 88.9062 31.0838 88.6364 31.5014 88.4432C31.9219 88.25 32.3835 88.1534 32.8864 88.1534C33.4261 88.1534 33.8892 88.2628 34.2756 88.4815C34.6619 88.6974 34.9588 88.983 35.1662 89.3381C35.3736 89.6932 35.4773 90.0767 35.4773 90.4886C35.4773 90.9801 35.348 91.3991 35.0895 91.7457C34.8338 92.0923 34.4858 92.3324 34.0455 92.4659V92.5341C34.5966 92.625 35.027 92.8594 35.3366 93.2372C35.6463 93.6122 35.8011 94.0767 35.8011 94.6307C35.8011 95.1051 35.6719 95.5312 35.4134 95.9091C35.1577 96.2841 34.8082 96.5795 34.3651 96.7955C33.9219 97.0114 33.4176 97.1193 32.8523 97.1193ZM40.3906 97.1193C39.7486 97.1193 39.2017 96.9446 38.75 96.5952C38.2983 96.2429 37.9531 95.733 37.7145 95.0653C37.4759 94.3949 37.3565 93.5852 37.3565 92.6364C37.3565 91.6932 37.4759 90.8878 37.7145 90.2202C37.956 89.5497 38.3026 89.0384 38.7543 88.6861C39.2088 88.331 39.7543 88.1534 40.3906 88.1534C41.027 88.1534 41.571 88.331 42.0227 88.6861C42.4773 89.0384 42.8239 89.5497 43.0625 90.2202C43.304 90.8878 43.4247 91.6932 43.4247 92.6364C43.4247 93.5852 43.3054 94.3949 43.0668 95.0653C42.8281 95.733 42.483 96.2429 42.0312 96.5952C41.5795 96.9446 41.0327 97.1193 40.3906 97.1193ZM40.3906 96.1818C41.027 96.1818 41.5213 95.875 41.8736 95.2614C42.2259 94.6477 42.402 93.7727 42.402 92.6364C42.402 91.8807 42.321 91.2372 42.1591 90.706C42 90.1747 41.7699 89.7699 41.4688 89.4915C41.1705 89.2131 40.8111 89.0739 40.3906 89.0739C39.7599 89.0739 39.267 89.3849 38.9119 90.0071C38.5568 90.6264 38.3793 91.5028 38.3793 92.6364C38.3793 93.392 38.4588 94.0341 38.6179 94.5625C38.777 95.0909 39.0057 95.4929 39.304 95.7685C39.6051 96.044 39.9673 96.1818 40.3906 96.1818ZM49.4929 95.3636V94.9034C49.4929 94.5852 49.5582 94.294 49.6889 94.0298C49.8224 93.7628 50.0156 93.5497 50.2685 93.3906C50.5241 93.2287 50.8338 93.1477 51.1974 93.1477C51.5668 93.1477 51.8764 93.2287 52.1264 93.3906C52.3764 93.5497 52.5653 93.7628 52.6932 94.0298C52.821 94.294 52.8849 94.5852 52.8849 94.9034V95.3636C52.8849 95.6818 52.8196 95.9744 52.6889 96.2415C52.5611 96.5057 52.3707 96.7187 52.1179 96.8807C51.8679 97.0398 51.5611 97.1193 51.1974 97.1193C50.8281 97.1193 50.517 97.0398 50.2642 96.8807C50.0114 96.7187 49.8196 96.5057 49.6889 96.2415C49.5582 95.9744 49.4929 95.6818 49.4929 95.3636ZM50.3622 94.9034V95.3636C50.3622 95.6278 50.4247 95.8651 50.5497 96.0753C50.6747 96.2827 50.8906 96.3864 51.1974 96.3864C51.4957 96.3864 51.706 96.2827 51.8281 96.0753C51.9531 95.8651 52.0156 95.6278 52.0156 95.3636V94.9034C52.0156 94.6392 51.956 94.4034 51.8366 94.196C51.7173 93.9858 51.5043 93.8807 51.1974 93.8807C50.8991 93.8807 50.6847 93.9858 50.554 94.196C50.4261 94.4034 50.3622 94.6392 50.3622 94.9034ZM45.1463 90.3693V89.9091C45.1463 89.5909 45.2116 89.2997 45.3423 89.0355C45.4759 88.7685 45.669 88.5554 45.9219 88.3963C46.1776 88.2344 46.4872 88.1534 46.8509 88.1534C47.2202 88.1534 47.5298 88.2344 47.7798 88.3963C48.0298 88.5554 48.2188 88.7685 48.3466 89.0355C48.4744 89.2997 48.5384 89.5909 48.5384 89.9091V90.3693C48.5384 90.6875 48.473 90.9801 48.3423 91.2472C48.2145 91.5114 48.0241 91.7244 47.7713 91.8864C47.5213 92.0455 47.2145 92.125 46.8509 92.125C46.4815 92.125 46.1705 92.0455 45.9176 91.8864C45.6648 91.7244 45.473 91.5114 45.3423 91.2472C45.2116 90.9801 45.1463 90.6875 45.1463 90.3693ZM46.0156 89.9091V90.3693C46.0156 90.6335 46.0781 90.8707 46.2031 91.081C46.3281 91.2884 46.544 91.392 46.8509 91.392C47.1491 91.392 47.3594 91.2884 47.4815 91.081C47.6065 90.8707 47.669 90.6335 47.669 90.3693V89.9091C47.669 89.6449 47.6094 89.4091 47.4901 89.2017C47.3707 88.9915 47.1577 88.8864 46.8509 88.8864C46.5526 88.8864 46.3381 88.9915 46.2074 89.2017C46.0795 89.4091 46.0156 89.6449 46.0156 89.9091ZM45.4702 97L51.4702 88.2727H52.4418L46.4418 97H45.4702Z" fill="white"/>
<path d="M261 82H241V102H261V82Z" fill="#B2323F"/>
<path d="M81.9034 46V45.233L84.7841 42.0795C85.1222 41.7102 85.4006 41.3892 85.6193 41.1165C85.8381 40.8409 86 40.5824 86.1051 40.3409C86.2131 40.0966 86.267 39.8409 86.267 39.5739C86.267 39.267 86.1932 39.0014 86.0455 38.777C85.9006 38.5526 85.7017 38.3793 85.4489 38.2571C85.196 38.1349 84.9119 38.0739 84.5966 38.0739C84.2614 38.0739 83.9688 38.1435 83.7188 38.2827C83.4716 38.419 83.2798 38.6108 83.1435 38.858C83.0099 39.1051 82.9432 39.3949 82.9432 39.7273H81.9375C81.9375 39.2159 82.0554 38.767 82.2912 38.3807C82.527 37.9943 82.848 37.6932 83.2543 37.4773C83.6634 37.2614 84.1222 37.1534 84.6307 37.1534C85.142 37.1534 85.5952 37.2614 85.9901 37.4773C86.3849 37.6932 86.6946 37.9844 86.919 38.3509C87.1435 38.7173 87.2557 39.125 87.2557 39.5739C87.2557 39.8949 87.1974 40.2088 87.081 40.5156C86.9673 40.8196 86.7685 41.1591 86.4844 41.5341C86.2031 41.9062 85.8125 42.3608 85.3125 42.8977L83.3523 44.9943V45.0625H87.4091V46H81.9034ZM92.0156 46.1193C91.3736 46.1193 90.8267 45.9446 90.375 45.5952C89.9233 45.2429 89.5781 44.733 89.3395 44.0653C89.1009 43.3949 88.9815 42.5852 88.9815 41.6364C88.9815 40.6932 89.1009 39.8878 89.3395 39.2202C89.581 38.5497 89.9276 38.0384 90.3793 37.6861C90.8338 37.331 91.3793 37.1534 92.0156 37.1534C92.652 37.1534 93.196 37.331 93.6477 37.6861C94.1023 38.0384 94.4489 38.5497 94.6875 39.2202C94.929 39.8878 95.0497 40.6932 95.0497 41.6364C95.0497 42.5852 94.9304 43.3949 94.6918 44.0653C94.4531 44.733 94.108 45.2429 93.6562 45.5952C93.2045 45.9446 92.6577 46.1193 92.0156 46.1193ZM92.0156 45.1818C92.652 45.1818 93.1463 44.875 93.4986 44.2614C93.8509 43.6477 94.027 42.7727 94.027 41.6364C94.027 40.8807 93.946 40.2372 93.7841 39.706C93.625 39.1747 93.3949 38.7699 93.0938 38.4915C92.7955 38.2131 92.4361 38.0739 92.0156 38.0739C91.3849 38.0739 90.892 38.3849 90.5369 39.0071C90.1818 39.6264 90.0043 40.5028 90.0043 41.6364C90.0043 42.392 90.0838 43.0341 90.2429 43.5625C90.402 44.0909 90.6307 44.4929 90.929 44.7685C91.2301 45.044 91.5923 45.1818 92.0156 45.1818ZM101.118 44.3636V43.9034C101.118 43.5852 101.183 43.294 101.314 43.0298C101.447 42.7628 101.641 42.5497 101.893 42.3906C102.149 42.2287 102.459 42.1477 102.822 42.1477C103.192 42.1477 103.501 42.2287 103.751 42.3906C104.001 42.5497 104.19 42.7628 104.318 43.0298C104.446 43.294 104.51 43.5852 104.51 43.9034V44.3636C104.51 44.6818 104.445 44.9744 104.314 45.2415C104.186 45.5057 103.996 45.7187 103.743 45.8807C103.493 46.0398 103.186 46.1193 102.822 46.1193C102.453 46.1193 102.142 46.0398 101.889 45.8807C101.636 45.7187 101.445 45.5057 101.314 45.2415C101.183 44.9744 101.118 44.6818 101.118 44.3636ZM101.987 43.9034V44.3636C101.987 44.6278 102.05 44.8651 102.175 45.0753C102.3 45.2827 102.516 45.3864 102.822 45.3864C103.121 45.3864 103.331 45.2827 103.453 45.0753C103.578 44.8651 103.641 44.6278 103.641 44.3636V43.9034C103.641 43.6392 103.581 43.4034 103.462 43.196C103.342 42.9858 103.129 42.8807 102.822 42.8807C102.524 42.8807 102.31 42.9858 102.179 43.196C102.051 43.4034 101.987 43.6392 101.987 43.9034ZM96.7713 39.3693V38.9091C96.7713 38.5909 96.8366 38.2997 96.9673 38.0355C97.1009 37.7685 97.294 37.5554 97.5469 37.3963C97.8026 37.2344 98.1122 37.1534 98.4759 37.1534C98.8452 37.1534 99.1548 37.2344 99.4048 37.3963C99.6548 37.5554 99.8438 37.7685 99.9716 38.0355C100.099 38.2997 100.163 38.5909 100.163 38.9091V39.3693C100.163 39.6875 100.098 39.9801 99.9673 40.2472C99.8395 40.5114 99.6491 40.7244 99.3963 40.8864C99.1463 41.0455 98.8395 41.125 98.4759 41.125C98.1065 41.125 97.7955 41.0455 97.5426 40.8864C97.2898 40.7244 97.098 40.5114 96.9673 40.2472C96.8366 39.9801 96.7713 39.6875 96.7713 39.3693ZM97.6406 38.9091V39.3693C97.6406 39.6335 97.7031 39.8707 97.8281 40.081C97.9531 40.2884 98.169 40.392 98.4759 40.392C98.7741 40.392 98.9844 40.2884 99.1065 40.081C99.2315 39.8707 99.294 39.6335 99.294 39.3693V38.9091C99.294 38.6449 99.2344 38.4091 99.1151 38.2017C98.9957 37.9915 98.7827 37.8864 98.4759 37.8864C98.1776 37.8864 97.9631 37.9915 97.8324 38.2017C97.7045 38.4091 97.6406 38.6449 97.6406 38.9091ZM97.0952 46L103.095 37.2727H104.067L98.0668 46H97.0952Z" fill="white"/>
<path d="M261 112H241V132H261V112Z" fill="#E73B3B"/>
<path d="M131.972 54.2727V63H130.915V55.3807H130.864L128.733 56.7955V55.7216L130.915 54.2727H131.972ZM137.328 63.1193C136.686 63.1193 136.139 62.9446 135.688 62.5952C135.236 62.2429 134.891 61.733 134.652 61.0653C134.413 60.3949 134.294 59.5852 134.294 58.6364C134.294 57.6932 134.413 56.8878 134.652 56.2202C134.893 55.5497 135.24 55.0384 135.692 54.6861C136.146 54.331 136.692 54.1534 137.328 54.1534C137.964 54.1534 138.509 54.331 138.96 54.6861C139.415 55.0384 139.761 55.5497 140 56.2202C140.241 56.8878 140.362 57.6932 140.362 58.6364C140.362 59.5852 140.243 60.3949 140.004 61.0653C139.766 61.733 139.42 62.2429 138.969 62.5952C138.517 62.9446 137.97 63.1193 137.328 63.1193ZM137.328 62.1818C137.964 62.1818 138.459 61.875 138.811 61.2614C139.163 60.6477 139.339 59.7727 139.339 58.6364C139.339 57.8807 139.259 57.2372 139.097 56.706C138.938 56.1747 138.707 55.7699 138.406 55.4915C138.108 55.2131 137.749 55.0739 137.328 55.0739C136.697 55.0739 136.205 55.3849 135.849 56.0071C135.494 56.6264 135.317 57.5028 135.317 58.6364C135.317 59.392 135.396 60.0341 135.555 60.5625C135.714 61.0909 135.943 61.4929 136.241 61.7685C136.543 62.044 136.905 62.1818 137.328 62.1818ZM146.43 61.3636V60.9034C146.43 60.5852 146.496 60.294 146.626 60.0298C146.76 59.7628 146.953 59.5497 147.206 59.3906C147.462 59.2287 147.771 59.1477 148.135 59.1477C148.504 59.1477 148.814 59.2287 149.064 59.3906C149.314 59.5497 149.503 59.7628 149.631 60.0298C149.759 60.294 149.822 60.5852 149.822 60.9034V61.3636C149.822 61.6818 149.757 61.9744 149.626 62.2415C149.499 62.5057 149.308 62.7187 149.055 62.8807C148.805 63.0398 148.499 63.1193 148.135 63.1193C147.766 63.1193 147.455 63.0398 147.202 62.8807C146.949 62.7187 146.757 62.5057 146.626 62.2415C146.496 61.9744 146.43 61.6818 146.43 61.3636ZM147.3 60.9034V61.3636C147.3 61.6278 147.362 61.8651 147.487 62.0753C147.612 62.2827 147.828 62.3864 148.135 62.3864C148.433 62.3864 148.643 62.2827 148.766 62.0753C148.891 61.8651 148.953 61.6278 148.953 61.3636V60.9034C148.953 60.6392 148.893 60.4034 148.774 60.196C148.655 59.9858 148.442 59.8807 148.135 59.8807C147.837 59.8807 147.622 59.9858 147.491 60.196C147.364 60.4034 147.3 60.6392 147.3 60.9034ZM142.084 56.3693V55.9091C142.084 55.5909 142.149 55.2997 142.28 55.0355C142.413 54.7685 142.607 54.5554 142.859 54.3963C143.115 54.2344 143.425 54.1534 143.788 54.1534C144.158 54.1534 144.467 54.2344 144.717 54.3963C144.967 54.5554 145.156 54.7685 145.284 55.0355C145.412 55.2997 145.476 55.5909 145.476 55.9091V56.3693C145.476 56.6875 145.411 56.9801 145.28 57.2472C145.152 57.5114 144.962 57.7244 144.709 57.8864C144.459 58.0455 144.152 58.125 143.788 58.125C143.419 58.125 143.108 58.0455 142.855 57.8864C142.602 57.7244 142.411 57.5114 142.28 57.2472C142.149 56.9801 142.084 56.6875 142.084 56.3693ZM142.953 55.9091V56.3693C142.953 56.6335 143.016 56.8707 143.141 57.081C143.266 57.2884 143.482 57.392 143.788 57.392C144.087 57.392 144.297 57.2884 144.419 57.081C144.544 56.8707 144.607 56.6335 144.607 56.3693V55.9091C144.607 55.6449 144.547 55.4091 144.428 55.2017C144.308 54.9915 144.095 54.8864 143.788 54.8864C143.49 54.8864 143.276 54.9915 143.145 55.2017C143.017 55.4091 142.953 55.6449 142.953 55.9091ZM142.408 63L148.408 54.2727H149.379L143.379 63H142.408Z" fill="white"/>
<path d="M276.83 30.4545C276.778 30.0227 276.571 29.6875 276.207 29.4489C275.844 29.2102 275.398 29.0909 274.869 29.0909C274.483 29.0909 274.145 29.1534 273.855 29.2784C273.568 29.4034 273.344 29.5753 273.182 29.794C273.023 30.0128 272.943 30.2614 272.943 30.5398C272.943 30.7727 272.999 30.973 273.109 31.1406C273.223 31.3054 273.368 31.4432 273.544 31.554C273.72 31.6619 273.905 31.7514 274.098 31.8224C274.291 31.8906 274.469 31.946 274.631 31.9886L275.517 32.2273C275.744 32.2869 275.997 32.3693 276.276 32.4744C276.557 32.5795 276.825 32.723 277.081 32.9048C277.339 33.0838 277.553 33.3139 277.72 33.5952C277.888 33.8764 277.972 34.2216 277.972 34.6307C277.972 35.1023 277.848 35.5284 277.601 35.9091C277.357 36.2898 276.999 36.5923 276.527 36.8168C276.058 37.0412 275.489 37.1534 274.818 37.1534C274.193 37.1534 273.652 37.0526 273.195 36.8509C272.74 36.6491 272.382 36.3679 272.121 36.0071C271.862 35.6463 271.716 35.2273 271.682 34.75H272.773C272.801 35.0795 272.912 35.3523 273.105 35.5682C273.301 35.7812 273.548 35.9403 273.847 36.0455C274.148 36.1477 274.472 36.1989 274.818 36.1989C275.222 36.1989 275.584 36.1335 275.905 36.0028C276.226 35.8693 276.48 35.6847 276.668 35.4489C276.855 35.2102 276.949 34.9318 276.949 34.6136C276.949 34.3239 276.868 34.0881 276.706 33.9062C276.544 33.7244 276.331 33.5767 276.067 33.4631C275.803 33.3494 275.517 33.25 275.21 33.1648L274.136 32.858C273.455 32.6619 272.915 32.3821 272.517 32.0185C272.119 31.6548 271.92 31.179 271.92 30.5909C271.92 30.1023 272.053 29.6761 272.317 29.3125C272.584 28.946 272.942 28.6619 273.391 28.4602C273.842 28.2557 274.347 28.1534 274.903 28.1534C275.466 28.1534 275.966 28.2543 276.403 28.456C276.841 28.6548 277.188 28.9276 277.443 29.2741C277.702 29.6207 277.838 30.0142 277.852 30.4545H276.83ZM281.499 37.1534C281.084 37.1534 280.708 37.0753 280.37 36.919C280.032 36.7599 279.763 36.5312 279.564 36.233C279.365 35.9318 279.266 35.5682 279.266 35.142C279.266 34.767 279.34 34.4631 279.488 34.2301C279.635 33.9943 279.833 33.8097 280.08 33.6761C280.327 33.5426 280.6 33.4432 280.898 33.3778C281.199 33.3097 281.502 33.2557 281.806 33.2159C282.203 33.1648 282.526 33.1264 282.773 33.1009C283.023 33.0724 283.205 33.0256 283.319 32.9602C283.435 32.8949 283.493 32.7812 283.493 32.6193V32.5852C283.493 32.1648 283.378 31.8381 283.148 31.6051C282.921 31.3722 282.576 31.2557 282.113 31.2557C281.632 31.2557 281.256 31.3608 280.983 31.571C280.711 31.7812 280.519 32.0057 280.408 32.2443L279.453 31.9034C279.624 31.5057 279.851 31.196 280.135 30.9744C280.422 30.75 280.735 30.5937 281.073 30.5057C281.414 30.4148 281.749 30.3693 282.078 30.3693C282.289 30.3693 282.53 30.3949 282.803 30.446C283.078 30.4943 283.344 30.5952 283.6 30.7486C283.858 30.902 284.073 31.1335 284.243 31.4432C284.414 31.7528 284.499 32.1676 284.499 32.6875V37H283.493V36.1136H283.442C283.374 36.2557 283.26 36.4077 283.101 36.5696C282.942 36.7315 282.73 36.8693 282.466 36.983C282.202 37.0966 281.88 37.1534 281.499 37.1534ZM281.652 36.25C282.05 36.25 282.385 36.1719 282.658 36.0156C282.934 35.8594 283.141 35.6577 283.28 35.4105C283.422 35.1634 283.493 34.9034 283.493 34.6307V33.7102C283.451 33.7614 283.357 33.8082 283.212 33.8509C283.07 33.8906 282.905 33.9261 282.718 33.9574C282.533 33.9858 282.353 34.0114 282.176 34.0341C282.003 34.054 281.863 34.071 281.755 34.0852C281.493 34.1193 281.249 34.1747 281.022 34.2514C280.797 34.3253 280.615 34.4375 280.476 34.5881C280.34 34.7358 280.272 34.9375 280.272 35.1932C280.272 35.5426 280.401 35.8068 280.659 35.9858C280.921 36.1619 281.252 36.25 281.652 36.25ZM287.34 28.2727V37H286.335V28.2727H287.34ZM291.108 37.1534C290.694 37.1534 290.317 37.0753 289.979 36.919C289.641 36.7599 289.373 36.5312 289.174 36.233C288.975 35.9318 288.875 35.5682 288.875 35.142C288.875 34.767 288.949 34.4631 289.097 34.2301C289.245 33.9943 289.442 33.8097 289.689 33.6761C289.936 33.5426 290.209 33.4432 290.507 33.3778C290.809 33.3097 291.111 33.2557 291.415 33.2159C291.813 33.1648 292.135 33.1264 292.382 33.1009C292.632 33.0724 292.814 33.0256 292.928 32.9602C293.044 32.8949 293.103 32.7812 293.103 32.6193V32.5852C293.103 32.1648 292.988 31.8381 292.757 31.6051C292.53 31.3722 292.185 31.2557 291.722 31.2557C291.242 31.2557 290.865 31.3608 290.593 31.571C290.32 31.7812 290.128 32.0057 290.017 32.2443L289.063 31.9034C289.233 31.5057 289.461 31.196 289.745 30.9744C290.032 30.75 290.344 30.5937 290.682 30.5057C291.023 30.4148 291.358 30.3693 291.688 30.3693C291.898 30.3693 292.14 30.3949 292.412 30.446C292.688 30.4943 292.953 30.5952 293.209 30.7486C293.468 30.902 293.682 31.1335 293.853 31.4432C294.023 31.7528 294.108 32.1676 294.108 32.6875V37H293.103V36.1136H293.051C292.983 36.2557 292.87 36.4077 292.711 36.5696C292.551 36.7315 292.34 36.8693 292.076 36.983C291.811 37.0966 291.489 37.1534 291.108 37.1534ZM291.262 36.25C291.659 36.25 291.995 36.1719 292.267 36.0156C292.543 35.8594 292.75 35.6577 292.89 35.4105C293.032 35.1634 293.103 34.9034 293.103 34.6307V33.7102C293.06 33.7614 292.966 33.8082 292.821 33.8509C292.679 33.8906 292.515 33.9261 292.327 33.9574C292.142 33.9858 291.962 34.0114 291.786 34.0341C291.613 34.054 291.472 34.071 291.364 34.0852C291.103 34.1193 290.858 34.1747 290.631 34.2514C290.407 34.3253 290.225 34.4375 290.086 34.5881C289.949 34.7358 289.881 34.9375 289.881 35.1932C289.881 35.5426 290.01 35.8068 290.269 35.9858C290.53 36.1619 290.861 36.25 291.262 36.25ZM291.296 29.5682L292.336 27.5909H293.512L292.182 29.5682H291.296ZM295.944 37V30.4545H296.915V31.4432H296.984C297.103 31.1193 297.319 30.8565 297.631 30.6548C297.944 30.4531 298.296 30.3523 298.688 30.3523C298.762 30.3523 298.854 30.3537 298.965 30.3565C299.076 30.3594 299.16 30.3636 299.217 30.3693V31.392C299.183 31.3835 299.104 31.3707 298.982 31.3537C298.863 31.3338 298.737 31.3239 298.603 31.3239C298.285 31.3239 298.001 31.3906 297.751 31.5241C297.504 31.6548 297.308 31.8366 297.163 32.0696C297.021 32.2997 296.95 32.5625 296.95 32.858V37H295.944ZM300.409 37V30.4545H301.414V37H300.409ZM300.92 29.3636C300.724 29.3636 300.555 29.2969 300.413 29.1634C300.274 29.0298 300.204 28.8693 300.204 28.6818C300.204 28.4943 300.274 28.3338 300.413 28.2003C300.555 28.0668 300.724 28 300.92 28C301.116 28 301.284 28.0668 301.423 28.2003C301.565 28.3338 301.636 28.4943 301.636 28.6818C301.636 28.8693 301.565 29.0298 301.423 29.1634C301.284 29.2969 301.116 29.3636 300.92 29.3636ZM305.915 37.1364C305.325 37.1364 304.806 36.9957 304.36 36.7145C303.917 36.4332 303.57 36.0398 303.32 35.5341C303.073 35.0284 302.95 34.4375 302.95 33.7614C302.95 33.0795 303.073 32.4844 303.32 31.9759C303.57 31.4673 303.917 31.0724 304.36 30.7912C304.806 30.5099 305.325 30.3693 305.915 30.3693C306.506 30.3693 307.023 30.5099 307.467 30.7912C307.913 31.0724 308.259 31.4673 308.506 31.9759C308.756 32.4844 308.881 33.0795 308.881 33.7614C308.881 34.4375 308.756 35.0284 308.506 35.5341C308.259 36.0398 307.913 36.4332 307.467 36.7145C307.023 36.9957 306.506 37.1364 305.915 37.1364ZM305.915 36.233C306.364 36.233 306.734 36.1179 307.023 35.8878C307.313 35.6577 307.528 35.3551 307.667 34.9801C307.806 34.6051 307.876 34.1989 307.876 33.7614C307.876 33.3239 307.806 32.9162 307.667 32.5384C307.528 32.1605 307.313 31.8551 307.023 31.6222C306.734 31.3892 306.364 31.2727 305.915 31.2727C305.467 31.2727 305.097 31.3892 304.808 31.6222C304.518 31.8551 304.303 32.1605 304.164 32.5384C304.025 32.9162 303.955 33.3239 303.955 33.7614C303.955 34.1989 304.025 34.6051 304.164 34.9801C304.303 35.3551 304.518 35.6577 304.808 35.8878C305.097 36.1179 305.467 36.233 305.915 36.233ZM315.053 31.9205L314.15 32.1761C314.093 32.0256 314.009 31.8793 313.898 31.7372C313.79 31.5923 313.642 31.473 313.455 31.3793C313.267 31.2855 313.027 31.2386 312.735 31.2386C312.334 31.2386 312 31.331 311.733 31.5156C311.469 31.6974 311.337 31.929 311.337 32.2102C311.337 32.4602 311.428 32.6577 311.61 32.8026C311.792 32.9474 312.076 33.0682 312.462 33.1648L313.434 33.4034C314.019 33.5455 314.455 33.7628 314.742 34.0554C315.029 34.3452 315.172 34.7187 315.172 35.1761C315.172 35.5511 315.064 35.8864 314.848 36.1818C314.635 36.4773 314.337 36.7102 313.953 36.8807C313.57 37.0511 313.124 37.1364 312.615 37.1364C311.948 37.1364 311.395 36.9915 310.958 36.7017C310.52 36.4119 310.243 35.9886 310.127 35.4318L311.081 35.1932C311.172 35.5455 311.344 35.8097 311.597 35.9858C311.853 36.1619 312.186 36.25 312.598 36.25C313.067 36.25 313.439 36.1506 313.715 35.9517C313.993 35.75 314.132 35.5085 314.132 35.2273C314.132 35 314.053 34.8097 313.894 34.6562C313.735 34.5 313.49 34.3835 313.161 34.3068L312.07 34.0511C311.471 33.9091 311.03 33.6889 310.749 33.3906C310.471 33.0895 310.331 32.7131 310.331 32.2614C310.331 31.892 310.435 31.5653 310.642 31.2812C310.853 30.9972 311.138 30.7741 311.499 30.6122C311.863 30.4503 312.275 30.3693 312.735 30.3693C313.382 30.3693 313.891 30.5114 314.26 30.7955C314.632 31.0795 314.897 31.4545 315.053 31.9205Z" fill="#0F0F0F"/>
<path d="M272.057 67V58.2727H277.324V59.2102H273.114V62.1591H277.051V63.0966H273.114V66.0625H277.392V67H272.057ZM283.729 61.9205L282.825 62.1761C282.768 62.0256 282.685 61.8793 282.574 61.7372C282.466 61.5923 282.318 61.473 282.131 61.3793C281.943 61.2855 281.703 61.2386 281.411 61.2386C281.01 61.2386 280.676 61.331 280.409 61.5156C280.145 61.6974 280.013 61.929 280.013 62.2102C280.013 62.4602 280.104 62.6577 280.286 62.8026C280.467 62.9474 280.751 63.0682 281.138 63.1648L282.109 63.4034C282.695 63.5455 283.131 63.7628 283.418 64.0554C283.705 64.3452 283.848 64.7187 283.848 65.1761C283.848 65.5511 283.74 65.8864 283.524 66.1818C283.311 66.4773 283.013 66.7102 282.629 66.8807C282.246 67.0511 281.8 67.1364 281.291 67.1364C280.624 67.1364 280.071 66.9915 279.634 66.7017C279.196 66.4119 278.919 65.9886 278.803 65.4318L279.757 65.1932C279.848 65.5455 280.02 65.8097 280.273 65.9858C280.528 66.1619 280.862 66.25 281.274 66.25C281.743 66.25 282.115 66.1506 282.391 65.9517C282.669 65.75 282.808 65.5085 282.808 65.2273C282.808 65 282.729 64.8097 282.57 64.6562C282.411 64.5 282.166 64.3835 281.837 64.3068L280.746 64.0511C280.146 63.9091 279.706 63.6889 279.425 63.3906C279.146 63.0895 279.007 62.7131 279.007 62.2614C279.007 61.892 279.111 61.5653 279.318 61.2812C279.528 60.9972 279.814 60.7741 280.175 60.6122C280.538 60.4503 280.95 60.3693 281.411 60.3693C282.058 60.3693 282.567 60.5114 282.936 60.7955C283.308 61.0795 283.572 61.4545 283.729 61.9205ZM288.208 60.4545V61.3068H284.816V60.4545H288.208ZM285.805 58.8864H286.811V65.125C286.811 65.4091 286.852 65.6222 286.934 65.7642C287.02 65.9034 287.127 65.9972 287.258 66.0455C287.392 66.0909 287.532 66.1136 287.68 66.1136C287.791 66.1136 287.882 66.108 287.953 66.0966C288.024 66.0824 288.081 66.071 288.123 66.0625L288.328 66.9659C288.26 66.9915 288.164 67.017 288.042 67.0426C287.92 67.071 287.765 67.0852 287.578 67.0852C287.294 67.0852 287.015 67.0241 286.743 66.902C286.473 66.7798 286.248 66.5938 286.069 66.3438C285.893 66.0938 285.805 65.7784 285.805 65.3977V58.8864ZM292.31 67.1364C291.719 67.1364 291.201 66.9957 290.755 66.7145C290.311 66.4332 289.965 66.0398 289.715 65.5341C289.468 65.0284 289.344 64.4375 289.344 63.7614C289.344 63.0795 289.468 62.4844 289.715 61.9759C289.965 61.4673 290.311 61.0724 290.755 60.7912C291.201 60.5099 291.719 60.3693 292.31 60.3693C292.901 60.3693 293.418 60.5099 293.861 60.7912C294.307 61.0724 294.654 61.4673 294.901 61.9759C295.151 62.4844 295.276 63.0795 295.276 63.7614C295.276 64.4375 295.151 65.0284 294.901 65.5341C294.654 66.0398 294.307 66.4332 293.861 66.7145C293.418 66.9957 292.901 67.1364 292.31 67.1364ZM292.31 66.233C292.759 66.233 293.128 66.1179 293.418 65.8878C293.708 65.6577 293.922 65.3551 294.061 64.9801C294.201 64.6051 294.27 64.1989 294.27 63.7614C294.27 63.3239 294.201 62.9162 294.061 62.5384C293.922 62.1605 293.708 61.8551 293.418 61.6222C293.128 61.3892 292.759 61.2727 292.31 61.2727C291.861 61.2727 291.492 61.3892 291.202 61.6222C290.912 61.8551 290.698 62.1605 290.559 62.5384C290.419 62.9162 290.35 63.3239 290.35 63.7614C290.35 64.1989 290.419 64.6051 290.559 64.9801C290.698 65.3551 290.912 65.6577 291.202 65.8878C291.492 66.1179 291.861 66.233 292.31 66.233ZM301.277 69.4545V65.9943H301.192C301.118 66.1136 301.013 66.2642 300.876 66.446C300.74 66.625 300.545 66.7855 300.293 66.9276C300.04 67.0668 299.703 67.1364 299.283 67.1364C298.737 67.1364 298.256 66.9986 297.838 66.723C297.42 66.4446 297.094 66.0526 296.858 65.5469C296.622 65.0384 296.504 64.4375 296.504 63.7443C296.504 63.0568 296.622 62.4602 296.858 61.9545C297.094 61.4489 297.422 61.0582 297.842 60.7827C298.263 60.5071 298.749 60.3693 299.3 60.3693C299.726 60.3693 300.063 60.4403 300.31 60.5824C300.56 60.7216 300.75 60.8807 300.881 61.0597C301.014 61.2358 301.118 61.3807 301.192 61.4943H301.311V60.4545H302.283V69.4545H301.277ZM299.419 66.233C299.822 66.233 300.163 66.1278 300.442 65.9176C300.72 65.7045 300.932 65.4105 301.077 65.0355C301.222 64.6577 301.294 64.2216 301.294 63.7273C301.294 63.2386 301.223 62.8111 301.081 62.4446C300.939 62.0753 300.729 61.7884 300.45 61.5838C300.172 61.3764 299.828 61.2727 299.419 61.2727C298.993 61.2727 298.638 61.3821 298.354 61.6009C298.072 61.8168 297.861 62.1108 297.719 62.483C297.58 62.8523 297.51 63.267 297.51 63.7273C297.51 64.1932 297.581 64.6165 297.723 64.9972C297.868 65.375 298.081 65.6761 298.362 65.9006C298.646 66.1222 298.999 66.233 299.419 66.233ZM308.249 64.3239V60.4545H309.254V67H308.249V65.892H308.18C308.027 66.2244 307.788 66.5071 307.464 66.7401C307.141 66.9702 306.732 67.0852 306.237 67.0852C305.828 67.0852 305.464 66.9957 305.146 66.8168C304.828 66.6349 304.578 66.3622 304.396 65.9986C304.214 65.6321 304.124 65.1705 304.124 64.6136V60.4545H305.129V64.5455C305.129 65.0227 305.263 65.4034 305.53 65.6875C305.8 65.9716 306.143 66.1136 306.561 66.1136C306.811 66.1136 307.065 66.0497 307.324 65.9219C307.585 65.794 307.804 65.598 307.98 65.3338C308.159 65.0696 308.249 64.733 308.249 64.3239ZM313.841 67.1364C313.21 67.1364 312.666 66.9972 312.208 66.7188C311.754 66.4375 311.403 66.0455 311.156 65.5426C310.912 65.0369 310.789 64.4489 310.789 63.7784C310.789 63.108 310.912 62.517 311.156 62.0057C311.403 61.4915 311.747 61.0909 312.187 60.804C312.63 60.5142 313.147 60.3693 313.738 60.3693C314.079 60.3693 314.416 60.4261 314.748 60.5398C315.081 60.6534 315.383 60.8381 315.656 61.0938C315.929 61.3466 316.146 61.6818 316.308 62.0994C316.47 62.517 316.551 63.0312 316.551 63.642V64.0682H311.505V63.1989H315.528C315.528 62.8295 315.454 62.5 315.306 62.2102C315.162 61.9205 314.954 61.6918 314.684 61.5241C314.417 61.3565 314.102 61.2727 313.738 61.2727C313.338 61.2727 312.991 61.3722 312.699 61.571C312.409 61.767 312.186 62.0227 312.029 62.3381C311.873 62.6534 311.795 62.9915 311.795 63.3523V63.9318C311.795 64.4261 311.88 64.8452 312.051 65.1889C312.224 65.5298 312.464 65.7898 312.771 65.9688C313.078 66.1449 313.434 66.233 313.841 66.233C314.105 66.233 314.343 66.196 314.556 66.1222C314.772 66.0455 314.958 65.9318 315.115 65.7812C315.271 65.6278 315.392 65.4375 315.477 65.2102L316.449 65.483C316.346 65.8125 316.174 66.1023 315.933 66.3523C315.691 66.5994 315.393 66.7926 315.038 66.9318C314.683 67.0682 314.284 67.1364 313.841 67.1364Z" fill="#0F0F0F"/>
<path d="M272.415 97H271.307L274.511 88.2727H275.602L278.807 97H277.699L275.091 89.6534H275.023L272.415 97ZM272.824 93.5909H277.29V94.5284H272.824V93.5909ZM281.036 88.2727V97H280.03V88.2727H281.036ZM287.002 94.3239V90.4545H288.008V97H287.002V95.892H286.934C286.781 96.2244 286.542 96.5071 286.218 96.7401C285.895 96.9702 285.485 97.0852 284.991 97.0852C284.582 97.0852 284.218 96.9957 283.9 96.8168C283.582 96.6349 283.332 96.3622 283.15 95.9986C282.968 95.6321 282.877 95.1705 282.877 94.6136V90.4545H283.883V94.5455C283.883 95.0227 284.017 95.4034 284.284 95.6875C284.554 95.9716 284.897 96.1136 285.315 96.1136C285.565 96.1136 285.819 96.0497 286.078 95.9219C286.339 95.794 286.558 95.598 286.734 95.3338C286.913 95.0696 287.002 94.733 287.002 94.3239ZM292.492 99.5909C292.006 99.5909 291.589 99.5284 291.239 99.4034C290.89 99.2812 290.599 99.1193 290.366 98.9176C290.136 98.7188 289.952 98.5057 289.816 98.2784L290.617 97.7159C290.708 97.8352 290.823 97.9716 290.962 98.125C291.102 98.2812 291.292 98.4162 291.533 98.5298C291.778 98.6463 292.097 98.7045 292.492 98.7045C293.021 98.7045 293.457 98.5767 293.8 98.321C294.144 98.0653 294.316 97.6648 294.316 97.1193V95.7898H294.231C294.157 95.9091 294.052 96.0568 293.915 96.233C293.782 96.4062 293.589 96.5611 293.336 96.6974C293.086 96.831 292.748 96.8977 292.322 96.8977C291.793 96.8977 291.319 96.7727 290.898 96.5227C290.481 96.2727 290.15 95.9091 289.906 95.4318C289.664 94.9545 289.543 94.375 289.543 93.6932C289.543 93.0227 289.661 92.4389 289.897 91.9418C290.133 91.4418 290.461 91.0554 290.881 90.7827C291.302 90.5071 291.788 90.3693 292.339 90.3693C292.765 90.3693 293.103 90.4403 293.353 90.5824C293.606 90.7216 293.799 90.8807 293.933 91.0597C294.069 91.2358 294.174 91.3807 294.248 91.4943H294.35V90.4545H295.322V97.1875C295.322 97.75 295.194 98.2074 294.938 98.5597C294.685 98.9148 294.344 99.1747 293.915 99.3395C293.489 99.5071 293.015 99.5909 292.492 99.5909ZM292.458 95.9943C292.862 95.9943 293.202 95.902 293.481 95.7173C293.759 95.5327 293.971 95.267 294.116 94.9205C294.261 94.5739 294.333 94.1591 294.333 93.6761C294.333 93.2045 294.262 92.7884 294.12 92.4276C293.978 92.0668 293.768 91.7841 293.489 91.5795C293.211 91.375 292.867 91.2727 292.458 91.2727C292.032 91.2727 291.677 91.3807 291.393 91.5966C291.112 91.8125 290.9 92.1023 290.758 92.4659C290.619 92.8295 290.549 93.233 290.549 93.6761C290.549 94.1307 290.62 94.5327 290.762 94.8821C290.907 95.2287 291.12 95.5014 291.401 95.7003C291.685 95.8963 292.038 95.9943 292.458 95.9943ZM301.288 94.3239V90.4545H302.293V97H301.288V95.892H301.219C301.066 96.2244 300.827 96.5071 300.504 96.7401C300.18 96.9702 299.771 97.0852 299.276 97.0852C298.867 97.0852 298.504 96.9957 298.185 96.8168C297.867 96.6349 297.617 96.3622 297.435 95.9986C297.254 95.6321 297.163 95.1705 297.163 94.6136V90.4545H298.168V94.5455C298.168 95.0227 298.302 95.4034 298.569 95.6875C298.839 95.9716 299.183 96.1136 299.6 96.1136C299.85 96.1136 300.104 96.0497 300.363 95.9219C300.624 95.794 300.843 95.598 301.019 95.3338C301.198 95.0696 301.288 94.733 301.288 94.3239ZM306.88 97.1364C306.249 97.1364 305.705 96.9972 305.248 96.7188C304.793 96.4375 304.442 96.0455 304.195 95.5426C303.951 95.0369 303.828 94.4489 303.828 93.7784C303.828 93.108 303.951 92.517 304.195 92.0057C304.442 91.4915 304.786 91.0909 305.226 90.804C305.669 90.5142 306.186 90.3693 306.777 90.3693C307.118 90.3693 307.455 90.4261 307.787 90.5398C308.12 90.6534 308.422 90.8381 308.695 91.0938C308.968 91.3466 309.185 91.6818 309.347 92.0994C309.509 92.517 309.59 93.0312 309.59 93.642V94.0682H304.544V93.1989H308.567C308.567 92.8295 308.493 92.5 308.346 92.2102C308.201 91.9205 307.993 91.6918 307.723 91.5241C307.456 91.3565 307.141 91.2727 306.777 91.2727C306.377 91.2727 306.03 91.3722 305.738 91.571C305.448 91.767 305.225 92.0227 305.069 92.3381C304.912 92.6534 304.834 92.9915 304.834 93.3523V93.9318C304.834 94.4261 304.919 94.8452 305.09 95.1889C305.263 95.5298 305.503 95.7898 305.81 95.9688C306.117 96.1449 306.473 96.233 306.88 96.233C307.144 96.233 307.382 96.196 307.596 96.1222C307.811 96.0455 307.998 95.9318 308.154 95.7812C308.31 95.6278 308.431 95.4375 308.516 95.2102L309.488 95.483C309.385 95.8125 309.213 96.1023 308.972 96.3523C308.73 96.5994 308.432 96.7926 308.077 96.9318C307.722 97.0682 307.323 97.1364 306.88 97.1364ZM312.125 88.2727V97H311.12V88.2727H312.125Z" fill="#0F0F0F"/>
<path d="M279.08 121H278.023C277.96 120.696 277.851 120.429 277.695 120.199C277.541 119.969 277.354 119.776 277.132 119.619C276.913 119.46 276.67 119.341 276.403 119.261C276.136 119.182 275.858 119.142 275.568 119.142C275.04 119.142 274.561 119.276 274.132 119.543C273.706 119.81 273.366 120.203 273.114 120.723C272.864 121.243 272.739 121.881 272.739 122.636C272.739 123.392 272.864 124.03 273.114 124.55C273.366 125.07 273.706 125.463 274.132 125.73C274.561 125.997 275.04 126.131 275.568 126.131C275.858 126.131 276.136 126.091 276.403 126.011C276.67 125.932 276.913 125.814 277.132 125.658C277.354 125.499 277.541 125.304 277.695 125.074C277.851 124.841 277.96 124.574 278.023 124.273H279.08C279 124.719 278.855 125.118 278.645 125.47C278.435 125.822 278.173 126.122 277.861 126.369C277.548 126.614 277.197 126.8 276.808 126.928C276.422 127.055 276.009 127.119 275.568 127.119C274.824 127.119 274.162 126.938 273.582 126.574C273.003 126.21 272.547 125.693 272.214 125.023C271.882 124.352 271.716 123.557 271.716 122.636C271.716 121.716 271.882 120.92 272.214 120.25C272.547 119.58 273.003 119.062 273.582 118.699C274.162 118.335 274.824 118.153 275.568 118.153C276.009 118.153 276.422 118.217 276.808 118.345C277.197 118.473 277.548 118.661 277.861 118.908C278.173 119.152 278.435 119.45 278.645 119.803C278.855 120.152 279 120.551 279.08 121ZM283.31 127.136C282.719 127.136 282.201 126.996 281.755 126.714C281.311 126.433 280.965 126.04 280.715 125.534C280.468 125.028 280.344 124.437 280.344 123.761C280.344 123.08 280.468 122.484 280.715 121.976C280.965 121.467 281.311 121.072 281.755 120.791C282.201 120.51 282.719 120.369 283.31 120.369C283.901 120.369 284.418 120.51 284.861 120.791C285.307 121.072 285.654 121.467 285.901 121.976C286.151 122.484 286.276 123.08 286.276 123.761C286.276 124.437 286.151 125.028 285.901 125.534C285.654 126.04 285.307 126.433 284.861 126.714C284.418 126.996 283.901 127.136 283.31 127.136ZM283.31 126.233C283.759 126.233 284.128 126.118 284.418 125.888C284.708 125.658 284.922 125.355 285.061 124.98C285.201 124.605 285.27 124.199 285.27 123.761C285.27 123.324 285.201 122.916 285.061 122.538C284.922 122.161 284.708 121.855 284.418 121.622C284.128 121.389 283.759 121.273 283.31 121.273C282.861 121.273 282.492 121.389 282.202 121.622C281.912 121.855 281.698 122.161 281.559 122.538C281.419 122.916 281.35 123.324 281.35 123.761C281.35 124.199 281.419 124.605 281.559 124.98C281.698 125.355 281.912 125.658 282.202 125.888C282.492 126.118 282.861 126.233 283.31 126.233ZM288.817 123.062V127H287.811V120.455H288.783V121.477H288.868C289.021 121.145 289.254 120.878 289.567 120.676C289.879 120.472 290.283 120.369 290.777 120.369C291.22 120.369 291.608 120.46 291.94 120.642C292.273 120.821 292.531 121.094 292.716 121.46C292.901 121.824 292.993 122.284 292.993 122.841V127H291.987V122.909C291.987 122.395 291.854 121.994 291.587 121.707C291.32 121.418 290.953 121.273 290.487 121.273C290.166 121.273 289.879 121.342 289.626 121.482C289.376 121.621 289.179 121.824 289.034 122.091C288.889 122.358 288.817 122.682 288.817 123.062ZM297.677 120.455V121.307H294.285V120.455H297.677ZM295.274 118.886H296.279V125.125C296.279 125.409 296.321 125.622 296.403 125.764C296.488 125.903 296.596 125.997 296.727 126.045C296.86 126.091 297.001 126.114 297.149 126.114C297.26 126.114 297.35 126.108 297.422 126.097C297.493 126.082 297.549 126.071 297.592 126.062L297.797 126.966C297.728 126.991 297.633 127.017 297.511 127.043C297.389 127.071 297.234 127.085 297.047 127.085C296.762 127.085 296.484 127.024 296.211 126.902C295.941 126.78 295.717 126.594 295.538 126.344C295.362 126.094 295.274 125.778 295.274 125.398V118.886ZM301.116 127.153C300.701 127.153 300.325 127.075 299.987 126.919C299.649 126.76 299.38 126.531 299.181 126.233C298.983 125.932 298.883 125.568 298.883 125.142C298.883 124.767 298.957 124.463 299.105 124.23C299.252 123.994 299.45 123.81 299.697 123.676C299.944 123.543 300.217 123.443 300.515 123.378C300.816 123.31 301.119 123.256 301.423 123.216C301.821 123.165 302.143 123.126 302.39 123.101C302.64 123.072 302.822 123.026 302.936 122.96C303.052 122.895 303.11 122.781 303.11 122.619V122.585C303.11 122.165 302.995 121.838 302.765 121.605C302.538 121.372 302.193 121.256 301.73 121.256C301.25 121.256 300.873 121.361 300.6 121.571C300.328 121.781 300.136 122.006 300.025 122.244L299.071 121.903C299.241 121.506 299.468 121.196 299.752 120.974C300.039 120.75 300.352 120.594 300.69 120.506C301.031 120.415 301.366 120.369 301.696 120.369C301.906 120.369 302.147 120.395 302.42 120.446C302.696 120.494 302.961 120.595 303.217 120.749C303.475 120.902 303.69 121.134 303.86 121.443C304.031 121.753 304.116 122.168 304.116 122.688V127H303.11V126.114H303.059C302.991 126.256 302.877 126.408 302.718 126.57C302.559 126.732 302.348 126.869 302.083 126.983C301.819 127.097 301.497 127.153 301.116 127.153ZM301.27 126.25C301.667 126.25 302.002 126.172 302.275 126.016C302.551 125.859 302.758 125.658 302.897 125.411C303.039 125.163 303.11 124.903 303.11 124.631V123.71C303.068 123.761 302.974 123.808 302.829 123.851C302.687 123.891 302.522 123.926 302.335 123.957C302.15 123.986 301.97 124.011 301.794 124.034C301.62 124.054 301.48 124.071 301.372 124.085C301.11 124.119 300.866 124.175 300.639 124.251C300.414 124.325 300.233 124.437 300.093 124.588C299.957 124.736 299.889 124.937 299.889 125.193C299.889 125.543 300.018 125.807 300.277 125.986C300.538 126.162 300.869 126.25 301.27 126.25ZM310.588 121.92L309.685 122.176C309.628 122.026 309.544 121.879 309.433 121.737C309.325 121.592 309.178 121.473 308.99 121.379C308.803 121.286 308.562 121.239 308.27 121.239C307.869 121.239 307.536 121.331 307.268 121.516C307.004 121.697 306.872 121.929 306.872 122.21C306.872 122.46 306.963 122.658 307.145 122.803C307.327 122.947 307.611 123.068 307.997 123.165L308.969 123.403C309.554 123.545 309.99 123.763 310.277 124.055C310.564 124.345 310.707 124.719 310.707 125.176C310.707 125.551 310.599 125.886 310.384 126.182C310.17 126.477 309.872 126.71 309.489 126.881C309.105 127.051 308.659 127.136 308.151 127.136C307.483 127.136 306.93 126.991 306.493 126.702C306.055 126.412 305.778 125.989 305.662 125.432L306.616 125.193C306.707 125.545 306.879 125.81 307.132 125.986C307.388 126.162 307.722 126.25 308.134 126.25C308.602 126.25 308.974 126.151 309.25 125.952C309.528 125.75 309.668 125.509 309.668 125.227C309.668 125 309.588 124.81 309.429 124.656C309.27 124.5 309.026 124.384 308.696 124.307L307.605 124.051C307.006 123.909 306.565 123.689 306.284 123.391C306.006 123.089 305.866 122.713 305.866 122.261C305.866 121.892 305.97 121.565 306.178 121.281C306.388 120.997 306.673 120.774 307.034 120.612C307.398 120.45 307.81 120.369 308.27 120.369C308.918 120.369 309.426 120.511 309.795 120.795C310.168 121.08 310.432 121.455 310.588 121.92Z" fill="#0F0F0F"/>
<path d="M271.58 149.21V148.273H278.125V149.21H275.381V157H274.324V149.21H271.58ZM278.94 157V150.455H279.912V151.443H279.98C280.099 151.119 280.315 150.857 280.627 150.655C280.94 150.453 281.292 150.352 281.684 150.352C281.758 150.352 281.85 150.354 281.961 150.357C282.072 150.359 282.156 150.364 282.213 150.369V151.392C282.179 151.384 282.1 151.371 281.978 151.354C281.859 151.334 281.733 151.324 281.599 151.324C281.281 151.324 280.997 151.391 280.747 151.524C280.5 151.655 280.304 151.837 280.159 152.07C280.017 152.3 279.946 152.562 279.946 152.858V157H278.94ZM285.331 157.153C284.916 157.153 284.54 157.075 284.202 156.919C283.864 156.76 283.595 156.531 283.396 156.233C283.197 155.932 283.098 155.568 283.098 155.142C283.098 154.767 283.172 154.463 283.32 154.23C283.467 153.994 283.665 153.81 283.912 153.676C284.159 153.543 284.432 153.443 284.73 153.378C285.031 153.31 285.334 153.256 285.638 153.216C286.036 153.165 286.358 153.126 286.605 153.101C286.855 153.072 287.037 153.026 287.151 152.96C287.267 152.895 287.325 152.781 287.325 152.619V152.585C287.325 152.165 287.21 151.838 286.98 151.605C286.753 151.372 286.408 151.256 285.945 151.256C285.464 151.256 285.088 151.361 284.815 151.571C284.543 151.781 284.351 152.006 284.24 152.244L283.286 151.903C283.456 151.506 283.683 151.196 283.967 150.974C284.254 150.75 284.567 150.594 284.905 150.506C285.246 150.415 285.581 150.369 285.911 150.369C286.121 150.369 286.362 150.395 286.635 150.446C286.911 150.494 287.176 150.595 287.432 150.749C287.69 150.902 287.905 151.134 288.075 151.443C288.246 151.753 288.331 152.168 288.331 152.688V157H287.325V156.114H287.274C287.206 156.256 287.092 156.408 286.933 156.57C286.774 156.732 286.563 156.869 286.298 156.983C286.034 157.097 285.712 157.153 285.331 157.153ZM285.484 156.25C285.882 156.25 286.217 156.172 286.49 156.016C286.766 155.859 286.973 155.658 287.112 155.411C287.254 155.163 287.325 154.903 287.325 154.631V153.71C287.283 153.761 287.189 153.808 287.044 153.851C286.902 153.891 286.737 153.926 286.55 153.957C286.365 153.986 286.185 154.011 286.009 154.034C285.835 154.054 285.695 154.071 285.587 154.085C285.325 154.119 285.081 154.175 284.854 154.251C284.629 154.325 284.447 154.437 284.308 154.588C284.172 154.736 284.104 154.937 284.104 155.193C284.104 155.543 284.233 155.807 284.491 155.986C284.753 156.162 285.084 156.25 285.484 156.25ZM291.172 153.062V157H290.167V150.455H291.138V151.477H291.223C291.377 151.145 291.61 150.878 291.922 150.676C292.235 150.472 292.638 150.369 293.132 150.369C293.576 150.369 293.963 150.46 294.296 150.642C294.628 150.821 294.887 151.094 295.071 151.46C295.256 151.824 295.348 152.284 295.348 152.841V157H294.343V152.909C294.343 152.395 294.209 151.994 293.942 151.707C293.675 151.418 293.309 151.273 292.843 151.273C292.522 151.273 292.235 151.342 291.982 151.482C291.732 151.621 291.534 151.824 291.39 152.091C291.245 152.358 291.172 152.682 291.172 153.062ZM301.822 151.92L300.919 152.176C300.862 152.026 300.778 151.879 300.668 151.737C300.56 151.592 300.412 151.473 300.224 151.379C300.037 151.286 299.797 151.239 299.504 151.239C299.104 151.239 298.77 151.331 298.503 151.516C298.239 151.697 298.107 151.929 298.107 152.21C298.107 152.46 298.197 152.658 298.379 152.803C298.561 152.947 298.845 153.068 299.232 153.165L300.203 153.403C300.788 153.545 301.224 153.763 301.511 154.055C301.798 154.345 301.942 154.719 301.942 155.176C301.942 155.551 301.834 155.886 301.618 156.182C301.405 156.477 301.107 156.71 300.723 156.881C300.339 157.051 299.893 157.136 299.385 157.136C298.717 157.136 298.165 156.991 297.727 156.702C297.29 156.412 297.013 155.989 296.896 155.432L297.851 155.193C297.942 155.545 298.114 155.81 298.366 155.986C298.622 156.162 298.956 156.25 299.368 156.25C299.837 156.25 300.209 156.151 300.484 155.952C300.763 155.75 300.902 155.509 300.902 155.227C300.902 155 300.822 154.81 300.663 154.656C300.504 154.5 300.26 154.384 299.93 154.307L298.839 154.051C298.24 153.909 297.8 153.689 297.518 153.391C297.24 153.089 297.101 152.713 297.101 152.261C297.101 151.892 297.205 151.565 297.412 151.281C297.622 150.997 297.908 150.774 298.268 150.612C298.632 150.45 299.044 150.369 299.504 150.369C300.152 150.369 300.661 150.511 301.03 150.795C301.402 151.08 301.666 151.455 301.822 151.92ZM303.456 159.455V150.455H304.427V151.494H304.547C304.62 151.381 304.723 151.236 304.853 151.06C304.987 150.881 305.177 150.722 305.424 150.582C305.674 150.44 306.012 150.369 306.439 150.369C306.99 150.369 307.475 150.507 307.896 150.783C308.316 151.058 308.645 151.449 308.88 151.955C309.116 152.46 309.234 153.057 309.234 153.744C309.234 154.438 309.116 155.038 308.88 155.547C308.645 156.053 308.318 156.445 307.9 156.723C307.483 156.999 307.001 157.136 306.456 157.136C306.035 157.136 305.699 157.067 305.446 156.928C305.193 156.786 304.998 156.625 304.862 156.446C304.725 156.264 304.62 156.114 304.547 155.994H304.461V159.455H303.456ZM304.444 153.727C304.444 154.222 304.517 154.658 304.662 155.036C304.806 155.411 305.018 155.705 305.297 155.918C305.575 156.128 305.916 156.233 306.319 156.233C306.74 156.233 307.091 156.122 307.372 155.901C307.656 155.676 307.869 155.375 308.011 154.997C308.156 154.616 308.228 154.193 308.228 153.727C308.228 153.267 308.157 152.852 308.015 152.483C307.876 152.111 307.664 151.817 307.38 151.601C307.099 151.382 306.745 151.273 306.319 151.273C305.91 151.273 305.566 151.376 305.288 151.584C305.01 151.788 304.799 152.075 304.657 152.445C304.515 152.811 304.444 153.239 304.444 153.727ZM313.427 157.136C312.836 157.136 312.318 156.996 311.872 156.714C311.429 156.433 311.082 156.04 310.832 155.534C310.585 155.028 310.461 154.437 310.461 153.761C310.461 153.08 310.585 152.484 310.832 151.976C311.082 151.467 311.429 151.072 311.872 150.791C312.318 150.51 312.836 150.369 313.427 150.369C314.018 150.369 314.535 150.51 314.978 150.791C315.424 151.072 315.771 151.467 316.018 151.976C316.268 152.484 316.393 153.08 316.393 153.761C316.393 154.437 316.268 155.028 316.018 155.534C315.771 156.04 315.424 156.433 314.978 156.714C314.535 156.996 314.018 157.136 313.427 157.136ZM313.427 156.233C313.876 156.233 314.245 156.118 314.535 155.888C314.825 155.658 315.039 155.355 315.179 154.98C315.318 154.605 315.387 154.199 315.387 153.761C315.387 153.324 315.318 152.916 315.179 152.538C315.039 152.161 314.825 151.855 314.535 151.622C314.245 151.389 313.876 151.273 313.427 151.273C312.978 151.273 312.609 151.389 312.319 151.622C312.029 151.855 311.815 152.161 311.676 152.538C311.537 152.916 311.467 153.324 311.467 153.761C311.467 154.199 311.537 154.605 311.676 154.98C311.815 155.355 312.029 155.658 312.319 155.888C312.609 156.118 312.978 156.233 313.427 156.233ZM317.928 157V150.455H318.9V151.443H318.968C319.087 151.119 319.303 150.857 319.616 150.655C319.928 150.453 320.281 150.352 320.673 150.352C320.746 150.352 320.839 150.354 320.95 150.357C321.06 150.359 321.144 150.364 321.201 150.369V151.392C321.167 151.384 321.089 151.371 320.967 151.354C320.847 151.334 320.721 151.324 320.587 151.324C320.269 151.324 319.985 151.391 319.735 151.524C319.488 151.655 319.292 151.837 319.147 152.07C319.005 152.3 318.934 152.562 318.934 152.858V157H317.928ZM325.65 150.455V151.307H322.258V150.455H325.65ZM323.246 148.886H324.252V155.125C324.252 155.409 324.293 155.622 324.376 155.764C324.461 155.903 324.569 155.997 324.7 156.045C324.833 156.091 324.974 156.114 325.121 156.114C325.232 156.114 325.323 156.108 325.394 156.097C325.465 156.082 325.522 156.071 325.565 156.062L325.769 156.966C325.701 156.991 325.606 157.017 325.484 157.043C325.362 157.071 325.207 157.085 325.019 157.085C324.735 157.085 324.457 157.024 324.184 156.902C323.914 156.78 323.69 156.594 323.511 156.344C323.335 156.094 323.246 155.778 323.246 155.398V148.886ZM329.837 157.136C329.206 157.136 328.662 156.997 328.205 156.719C327.75 156.438 327.399 156.045 327.152 155.543C326.908 155.037 326.786 154.449 326.786 153.778C326.786 153.108 326.908 152.517 327.152 152.006C327.399 151.491 327.743 151.091 328.183 150.804C328.626 150.514 329.143 150.369 329.734 150.369C330.075 150.369 330.412 150.426 330.744 150.54C331.077 150.653 331.379 150.838 331.652 151.094C331.925 151.347 332.142 151.682 332.304 152.099C332.466 152.517 332.547 153.031 332.547 153.642V154.068H327.501V153.199H331.524C331.524 152.83 331.45 152.5 331.303 152.21C331.158 151.92 330.95 151.692 330.68 151.524C330.413 151.357 330.098 151.273 329.734 151.273C329.334 151.273 328.987 151.372 328.695 151.571C328.405 151.767 328.182 152.023 328.026 152.338C327.869 152.653 327.791 152.991 327.791 153.352V153.932C327.791 154.426 327.876 154.845 328.047 155.189C328.22 155.53 328.46 155.79 328.767 155.969C329.074 156.145 329.43 156.233 329.837 156.233C330.101 156.233 330.339 156.196 330.553 156.122C330.768 156.045 330.955 155.932 331.111 155.781C331.267 155.628 331.388 155.437 331.473 155.21L332.445 155.483C332.342 155.812 332.17 156.102 331.929 156.352C331.688 156.599 331.389 156.793 331.034 156.932C330.679 157.068 330.28 157.136 329.837 157.136Z" fill="#0F0F0F"/>
<path d="M261 142H241V162H261V142Z" fill="#E27F7F"/>
<path d="M149.631 88.1193C149.131 88.1193 148.68 88.0199 148.28 87.821C147.879 87.6222 147.558 87.3494 147.317 87.0028C147.075 86.6562 146.943 86.2614 146.92 85.8182H147.943C147.983 86.2131 148.162 86.5398 148.48 86.7983C148.801 87.054 149.185 87.1818 149.631 87.1818C149.989 87.1818 150.307 87.098 150.585 86.9304C150.866 86.7628 151.087 86.5327 151.246 86.2401C151.408 85.9446 151.489 85.6108 151.489 85.2386C151.489 84.858 151.405 84.5185 151.237 84.2202C151.072 83.919 150.845 83.6818 150.555 83.5085C150.266 83.3352 149.935 83.2472 149.562 83.2443C149.295 83.2415 149.021 83.2827 148.74 83.3679C148.459 83.4503 148.227 83.5568 148.045 83.6875L147.057 83.5682L147.585 79.2727H152.119V80.2102H148.472L148.165 82.7841H148.216C148.395 82.642 148.619 82.5241 148.889 82.4304C149.159 82.3366 149.44 82.2898 149.733 82.2898C150.267 82.2898 150.743 82.4176 151.161 82.6733C151.581 82.9261 151.911 83.2727 152.149 83.7131C152.391 84.1534 152.511 84.6562 152.511 85.2216C152.511 85.7784 152.386 86.2756 152.136 86.7131C151.889 87.1477 151.548 87.4915 151.114 87.7443C150.679 87.9943 150.185 88.1193 149.631 88.1193ZM158.653 86.3636V85.9034C158.653 85.5852 158.718 85.294 158.849 85.0298C158.983 84.7628 159.176 84.5497 159.429 84.3906C159.684 84.2287 159.994 84.1477 160.358 84.1477C160.727 84.1477 161.037 84.2287 161.287 84.3906C161.537 84.5497 161.725 84.7628 161.853 85.0298C161.981 85.294 162.045 85.5852 162.045 85.9034V86.3636C162.045 86.6818 161.98 86.9744 161.849 87.2415C161.721 87.5057 161.531 87.7187 161.278 87.8807C161.028 88.0398 160.721 88.1193 160.358 88.1193C159.988 88.1193 159.677 88.0398 159.424 87.8807C159.172 87.7187 158.98 87.5057 158.849 87.2415C158.718 86.9744 158.653 86.6818 158.653 86.3636ZM159.522 85.9034V86.3636C159.522 86.6278 159.585 86.8651 159.71 87.0753C159.835 87.2827 160.051 87.3864 160.358 87.3864C160.656 87.3864 160.866 87.2827 160.988 87.0753C161.113 86.8651 161.176 86.6278 161.176 86.3636V85.9034C161.176 85.6392 161.116 85.4034 160.997 85.196C160.877 84.9858 160.664 84.8807 160.358 84.8807C160.059 84.8807 159.845 84.9858 159.714 85.196C159.586 85.4034 159.522 85.6392 159.522 85.9034ZM154.306 81.3693V80.9091C154.306 80.5909 154.372 80.2997 154.502 80.0355C154.636 79.7685 154.829 79.5554 155.082 79.3963C155.338 79.2344 155.647 79.1534 156.011 79.1534C156.38 79.1534 156.69 79.2344 156.94 79.3963C157.19 79.5554 157.379 79.7685 157.507 80.0355C157.635 80.2997 157.699 80.5909 157.699 80.9091V81.3693C157.699 81.6875 157.633 81.9801 157.502 82.2472C157.375 82.5114 157.184 82.7244 156.931 82.8864C156.681 83.0455 156.375 83.125 156.011 83.125C155.642 83.125 155.331 83.0455 155.078 82.8864C154.825 82.7244 154.633 82.5114 154.502 82.2472C154.372 81.9801 154.306 81.6875 154.306 81.3693ZM155.176 80.9091V81.3693C155.176 81.6335 155.238 81.8707 155.363 82.081C155.488 82.2884 155.704 82.392 156.011 82.392C156.309 82.392 156.52 82.2884 156.642 82.081C156.767 81.8707 156.829 81.6335 156.829 81.3693V80.9091C156.829 80.6449 156.77 80.4091 156.65 80.2017C156.531 79.9915 156.318 79.8864 156.011 79.8864C155.713 79.8864 155.498 79.9915 155.368 80.2017C155.24 80.4091 155.176 80.6449 155.176 80.9091ZM154.63 88L160.63 79.2727H161.602L155.602 88H154.63Z" fill="white"/>
</svg>