<svg width="367" height="198" viewBox="0 0 367 198" fill="none" xmlns="http://www.w3.org/2000/svg">
<path d="M18 0V178" stroke="#E0E0E0"/>
<path d="M66 0V178" stroke="#E0E0E0"/>
<path d="M115 0V178" stroke="#E0E0E0"/>
<path d="M164 0V178" stroke="#E0E0E0"/>
<path d="M212 0V178" stroke="#E0E0E0"/>
<path d="M261 0V178" stroke="#E0E0E0"/>
<path d="M309 0V178" stroke="#E0E0E0"/>
<path d="M358 0V178" stroke="#E0E0E0"/>
<path d="M66 0H18V12H66V0Z" fill="#C60D20"/>
<path d="M115 28H18V39H115V28Z" fill="#C60D20"/>
<path d="M212 56H18V67H212V56Z" fill="#C60D20"/>
<path d="M164 83H18V95H164V83Z" fill="#C60D20"/>
<path d="M261 111H18V123H261V111Z" fill="#C60D20"/>
<path d="M358 139H18V151H358V139Z" fill="#C60D20"/>
<path d="M309 167H18V178H309V167Z" fill="#C60D20"/>
<path d="M18 178H358" stroke="black" stroke-width="2"/>
<path d="M18 0V178" stroke="black" stroke-width="2"/>
<path d="M17.5 197.119C16.858 197.119 16.3111 196.945 15.8594 196.595C15.4077 196.243 15.0625 195.733 14.8239 195.065C14.5852 194.395 14.4659 193.585 14.4659 192.636C14.4659 191.693 14.5852 190.888 14.8239 190.22C15.0653 189.55 15.4119 189.038 15.8636 188.686C16.3182 188.331 16.8636 188.153 17.5 188.153C18.1364 188.153 18.6804 188.331 19.1321 188.686C19.5866 189.038 19.9332 189.55 20.1719 190.22C20.4134 190.888 20.5341 191.693 20.5341 192.636C20.5341 193.585 20.4148 194.395 20.1761 195.065C19.9375 195.733 19.5923 196.243 19.1406 196.595C18.6889 196.945 18.142 197.119 17.5 197.119ZM17.5 196.182C18.1364 196.182 18.6307 195.875 18.983 195.261C19.3352 194.648 19.5114 193.773 19.5114 192.636C19.5114 191.881 19.4304 191.237 19.2685 190.706C19.1094 190.175 18.8793 189.77 18.5781 189.491C18.2798 189.213 17.9205 189.074 17.5 189.074C16.8693 189.074 16.3764 189.385 16.0213 190.007C15.6662 190.626 15.4886 191.503 15.4886 192.636C15.4886 193.392 15.5682 194.034 15.7273 194.562C15.8864 195.091 16.1151 195.493 16.4134 195.768C16.7145 196.044 17.0767 196.182 17.5 196.182Z" fill="black"/>
<path d="M62.9325 188.273V197H61.8757V189.381H61.8246L59.6939 190.795V189.722L61.8757 188.273H62.9325ZM68.2891 197.119C67.647 197.119 67.1001 196.945 66.6484 196.595C66.1967 196.243 65.8516 195.733 65.6129 195.065C65.3743 194.395 65.255 193.585 65.255 192.636C65.255 191.693 65.3743 190.888 65.6129 190.22C65.8544 189.55 66.201 189.038 66.6527 188.686C67.1072 188.331 67.6527 188.153 68.2891 188.153C68.9254 188.153 69.4695 188.331 69.9212 188.686C70.3757 189.038 70.7223 189.55 70.9609 190.22C71.2024 190.888 71.3232 191.693 71.3232 192.636C71.3232 193.585 71.2038 194.395 70.9652 195.065C70.7266 195.733 70.3814 196.243 69.9297 196.595C69.478 196.945 68.9311 197.119 68.2891 197.119ZM68.2891 196.182C68.9254 196.182 69.4197 195.875 69.772 195.261C70.1243 194.648 70.3004 193.773 70.3004 192.636C70.3004 191.881 70.2195 191.237 70.0575 190.706C69.8984 190.175 69.6683 189.77 69.3672 189.491C69.0689 189.213 68.7095 189.074 68.2891 189.074C67.6584 189.074 67.1655 189.385 66.8104 190.007C66.4553 190.626 66.2777 191.503 66.2777 192.636C66.2777 193.392 66.3572 194.034 66.5163 194.562C66.6754 195.091 66.9041 195.493 67.2024 195.768C67.5036 196.044 67.8658 196.182 68.2891 196.182Z" fill="black"/>
<path d="M108.521 197V196.233L111.401 193.08C111.739 192.71 112.018 192.389 112.237 192.116C112.455 191.841 112.617 191.582 112.722 191.341C112.83 191.097 112.884 190.841 112.884 190.574C112.884 190.267 112.81 190.001 112.663 189.777C112.518 189.553 112.319 189.379 112.066 189.257C111.813 189.135 111.529 189.074 111.214 189.074C110.879 189.074 110.586 189.143 110.336 189.283C110.089 189.419 109.897 189.611 109.761 189.858C109.627 190.105 109.56 190.395 109.56 190.727H108.555C108.555 190.216 108.673 189.767 108.908 189.381C109.144 188.994 109.465 188.693 109.871 188.477C110.281 188.261 110.739 188.153 111.248 188.153C111.759 188.153 112.212 188.261 112.607 188.477C113.002 188.693 113.312 188.984 113.536 189.351C113.761 189.717 113.873 190.125 113.873 190.574C113.873 190.895 113.815 191.209 113.698 191.516C113.585 191.82 113.386 192.159 113.102 192.534C112.82 192.906 112.43 193.361 111.93 193.898L109.969 195.994V196.062H114.026V197H108.521ZM118.633 197.119C117.991 197.119 117.444 196.945 116.992 196.595C116.54 196.243 116.195 195.733 115.957 195.065C115.718 194.395 115.599 193.585 115.599 192.636C115.599 191.693 115.718 190.888 115.957 190.22C116.198 189.55 116.545 189.038 116.996 188.686C117.451 188.331 117.996 188.153 118.633 188.153C119.269 188.153 119.813 188.331 120.265 188.686C120.719 189.038 121.066 189.55 121.305 190.22C121.546 190.888 121.667 191.693 121.667 192.636C121.667 193.585 121.548 194.395 121.309 195.065C121.07 195.733 120.725 196.243 120.273 196.595C119.822 196.945 119.275 197.119 118.633 197.119ZM118.633 196.182C119.269 196.182 119.763 195.875 120.116 195.261C120.468 194.648 120.644 193.773 120.644 192.636C120.644 191.881 120.563 191.237 120.401 190.706C120.242 190.175 120.012 189.77 119.711 189.491C119.413 189.213 119.053 189.074 118.633 189.074C118.002 189.074 117.509 189.385 117.154 190.007C116.799 190.626 116.621 191.503 116.621 192.636C116.621 193.392 116.701 194.034 116.86 194.562C117.019 195.091 117.248 195.493 117.546 195.768C117.847 196.044 118.21 196.182 118.633 196.182Z" fill="black"/>
<path d="M159.782 197.119C159.219 197.119 158.718 197.023 158.278 196.83C157.84 196.636 157.492 196.368 157.234 196.024C156.978 195.678 156.839 195.276 156.816 194.818H157.89C157.913 195.099 158.009 195.342 158.18 195.547C158.35 195.749 158.573 195.905 158.849 196.016C159.124 196.126 159.43 196.182 159.765 196.182C160.14 196.182 160.472 196.116 160.762 195.986C161.052 195.855 161.279 195.673 161.444 195.44C161.609 195.207 161.691 194.938 161.691 194.631C161.691 194.31 161.612 194.027 161.452 193.783C161.293 193.536 161.06 193.342 160.754 193.203C160.447 193.064 160.072 192.994 159.629 192.994H158.93V192.057H159.629C159.975 192.057 160.279 191.994 160.54 191.869C160.805 191.744 161.011 191.568 161.158 191.341C161.309 191.114 161.384 190.847 161.384 190.54C161.384 190.244 161.319 189.987 161.188 189.768C161.058 189.55 160.873 189.379 160.634 189.257C160.398 189.135 160.12 189.074 159.799 189.074C159.498 189.074 159.214 189.129 158.947 189.24C158.683 189.348 158.467 189.506 158.299 189.713C158.131 189.918 158.04 190.165 158.026 190.455H157.004C157.021 189.997 157.158 189.597 157.417 189.253C157.675 188.906 158.013 188.636 158.431 188.443C158.852 188.25 159.313 188.153 159.816 188.153C160.356 188.153 160.819 188.263 161.205 188.482C161.592 188.697 161.888 188.983 162.096 189.338C162.303 189.693 162.407 190.077 162.407 190.489C162.407 190.98 162.278 191.399 162.019 191.746C161.763 192.092 161.415 192.332 160.975 192.466V192.534C161.526 192.625 161.957 192.859 162.266 193.237C162.576 193.612 162.731 194.077 162.731 194.631C162.731 195.105 162.602 195.531 162.343 195.909C162.087 196.284 161.738 196.58 161.295 196.795C160.852 197.011 160.347 197.119 159.782 197.119ZM167.32 197.119C166.678 197.119 166.131 196.945 165.68 196.595C165.228 196.243 164.883 195.733 164.644 195.065C164.406 194.395 164.286 193.585 164.286 192.636C164.286 191.693 164.406 190.888 164.644 190.22C164.886 189.55 165.232 189.038 165.684 188.686C166.138 188.331 166.684 188.153 167.32 188.153C167.957 188.153 168.501 188.331 168.952 188.686C169.407 189.038 169.754 189.55 169.992 190.22C170.234 190.888 170.354 191.693 170.354 192.636C170.354 193.585 170.235 194.395 169.996 195.065C169.758 195.733 169.413 196.243 168.961 196.595C168.509 196.945 167.962 197.119 167.32 197.119ZM167.32 196.182C167.957 196.182 168.451 195.875 168.803 195.261C169.156 194.648 169.332 193.773 169.332 192.636C169.332 191.881 169.251 191.237 169.089 190.706C168.93 190.175 168.7 189.77 168.398 189.491C168.1 189.213 167.741 189.074 167.32 189.074C166.69 189.074 166.197 189.385 165.842 190.007C165.487 190.626 165.309 191.503 165.309 192.636C165.309 193.392 165.388 194.034 165.548 194.562C165.707 195.091 165.935 195.493 166.234 195.768C166.535 196.044 166.897 196.182 167.32 196.182Z" fill="black"/>
<path d="M204.599 195.21V194.341L208.434 188.273H209.065V189.619H208.639L205.741 194.205V194.273H210.906V195.21H204.599ZM208.707 197V194.946V194.541V188.273H209.713V197H208.707ZM215.35 197.119C214.708 197.119 214.161 196.945 213.709 196.595C213.257 196.243 212.912 195.733 212.673 195.065C212.435 194.395 212.316 193.585 212.316 192.636C212.316 191.693 212.435 190.888 212.673 190.22C212.915 189.55 213.262 189.038 213.713 188.686C214.168 188.331 214.713 188.153 215.35 188.153C215.986 188.153 216.53 188.331 216.982 188.686C217.436 189.038 217.783 189.55 218.021 190.22C218.263 190.888 218.384 191.693 218.384 192.636C218.384 193.585 218.264 194.395 218.026 195.065C217.787 195.733 217.442 196.243 216.99 196.595C216.539 196.945 215.992 197.119 215.35 197.119ZM215.35 196.182C215.986 196.182 216.48 195.875 216.833 195.261C217.185 194.648 217.361 193.773 217.361 192.636C217.361 191.881 217.28 191.237 217.118 190.706C216.959 190.175 216.729 189.77 216.428 189.491C216.129 189.213 215.77 189.074 215.35 189.074C214.719 189.074 214.226 189.385 213.871 190.007C213.516 190.626 213.338 191.503 213.338 192.636C213.338 193.392 213.418 194.034 213.577 194.562C213.736 195.091 213.965 195.493 214.263 195.768C214.564 196.044 214.926 196.182 215.35 196.182Z" fill="black"/>
<path d="M256.73 197.119C256.23 197.119 255.78 197.02 255.379 196.821C254.979 196.622 254.658 196.349 254.416 196.003C254.175 195.656 254.043 195.261 254.02 194.818H255.043C255.083 195.213 255.262 195.54 255.58 195.798C255.901 196.054 256.284 196.182 256.73 196.182C257.088 196.182 257.406 196.098 257.685 195.93C257.966 195.763 258.186 195.533 258.345 195.24C258.507 194.945 258.588 194.611 258.588 194.239C258.588 193.858 258.504 193.518 258.337 193.22C258.172 192.919 257.945 192.682 257.655 192.509C257.365 192.335 257.034 192.247 256.662 192.244C256.395 192.241 256.121 192.283 255.84 192.368C255.558 192.45 255.327 192.557 255.145 192.688L254.156 192.568L254.685 188.273H259.219V189.21H255.571L255.264 191.784H255.316C255.494 191.642 255.719 191.524 255.989 191.43C256.259 191.337 256.54 191.29 256.833 191.29C257.367 191.29 257.843 191.418 258.26 191.673C258.681 191.926 259.01 192.273 259.249 192.713C259.49 193.153 259.611 193.656 259.611 194.222C259.611 194.778 259.486 195.276 259.236 195.713C258.989 196.148 258.648 196.491 258.213 196.744C257.779 196.994 257.284 197.119 256.73 197.119ZM264.15 197.119C263.508 197.119 262.961 196.945 262.51 196.595C262.058 196.243 261.713 195.733 261.474 195.065C261.236 194.395 261.116 193.585 261.116 192.636C261.116 191.693 261.236 190.888 261.474 190.22C261.716 189.55 262.062 189.038 262.514 188.686C262.969 188.331 263.514 188.153 264.15 188.153C264.787 188.153 265.331 188.331 265.782 188.686C266.237 189.038 266.584 189.55 266.822 190.22C267.064 190.888 267.184 191.693 267.184 192.636C267.184 193.585 267.065 194.395 266.827 195.065C266.588 195.733 266.243 196.243 265.791 196.595C265.339 196.945 264.792 197.119 264.15 197.119ZM264.15 196.182C264.787 196.182 265.281 195.875 265.633 195.261C265.986 194.648 266.162 193.773 266.162 192.636C266.162 191.881 266.081 191.237 265.919 190.706C265.76 190.175 265.53 189.77 265.229 189.491C264.93 189.213 264.571 189.074 264.15 189.074C263.52 189.074 263.027 189.385 262.672 190.007C262.317 190.626 262.139 191.503 262.139 192.636C262.139 193.392 262.219 194.034 262.378 194.562C262.537 195.091 262.765 195.493 263.064 195.768C263.365 196.044 263.727 196.182 264.15 196.182Z" fill="black"/>
<path d="M304.807 197.119C304.449 197.114 304.091 197.045 303.733 196.915C303.375 196.784 303.048 196.564 302.753 196.254C302.458 195.942 302.22 195.52 302.041 194.989C301.862 194.455 301.773 193.784 301.773 192.977C301.773 192.205 301.845 191.52 301.99 190.923C302.135 190.324 302.345 189.82 302.621 189.411C302.896 188.999 303.229 188.686 303.618 188.473C304.01 188.26 304.452 188.153 304.943 188.153C305.432 188.153 305.867 188.251 306.247 188.447C306.631 188.641 306.943 188.911 307.185 189.257C307.426 189.604 307.583 190.003 307.654 190.455H306.614C306.517 190.062 306.33 189.737 306.051 189.479C305.773 189.22 305.404 189.091 304.943 189.091C304.267 189.091 303.735 189.385 303.345 189.973C302.959 190.561 302.764 191.386 302.762 192.449H302.83C302.989 192.207 303.178 192.001 303.396 191.831C303.618 191.658 303.862 191.524 304.129 191.43C304.396 191.337 304.679 191.29 304.977 191.29C305.477 191.29 305.935 191.415 306.35 191.665C306.764 191.912 307.097 192.254 307.347 192.692C307.597 193.126 307.722 193.625 307.722 194.188C307.722 194.727 307.601 195.222 307.36 195.67C307.118 196.116 306.779 196.472 306.341 196.736C305.906 196.997 305.395 197.125 304.807 197.119ZM304.807 196.182C305.165 196.182 305.486 196.092 305.77 195.913C306.057 195.734 306.283 195.494 306.448 195.193C306.615 194.892 306.699 194.557 306.699 194.188C306.699 193.827 306.618 193.499 306.456 193.203C306.297 192.905 306.077 192.668 305.796 192.491C305.517 192.315 305.199 192.227 304.841 192.227C304.571 192.227 304.32 192.281 304.087 192.389C303.854 192.494 303.649 192.639 303.473 192.824C303.3 193.009 303.164 193.22 303.064 193.459C302.965 193.695 302.915 193.943 302.915 194.205C302.915 194.551 302.996 194.875 303.158 195.176C303.323 195.477 303.547 195.72 303.831 195.905C304.118 196.089 304.443 196.182 304.807 196.182ZM312.244 197.119C311.602 197.119 311.055 196.945 310.604 196.595C310.152 196.243 309.807 195.733 309.568 195.065C309.329 194.395 309.21 193.585 309.21 192.636C309.21 191.693 309.329 190.888 309.568 190.22C309.809 189.55 310.156 189.038 310.608 188.686C311.062 188.331 311.608 188.153 312.244 188.153C312.881 188.153 313.425 188.331 313.876 188.686C314.331 189.038 314.677 189.55 314.916 190.22C315.157 190.888 315.278 191.693 315.278 192.636C315.278 193.585 315.159 194.395 314.92 195.065C314.682 195.733 314.336 196.243 313.885 196.595C313.433 196.945 312.886 197.119 312.244 197.119ZM312.244 196.182C312.881 196.182 313.375 195.875 313.727 195.261C314.079 194.648 314.256 193.773 314.256 192.636C314.256 191.881 314.175 191.237 314.013 190.706C313.854 190.175 313.623 189.77 313.322 189.491C313.024 189.213 312.665 189.074 312.244 189.074C311.613 189.074 311.121 189.385 310.765 190.007C310.41 190.626 310.233 191.503 310.233 192.636C310.233 193.392 310.312 194.034 310.471 194.562C310.631 195.091 310.859 195.493 311.157 195.768C311.459 196.044 311.821 196.182 312.244 196.182Z" fill="black"/>
<path d="M351.092 197L354.996 189.278V189.21H350.496V188.273H356.086V189.261L352.2 197H351.092ZM360.334 197.119C359.692 197.119 359.145 196.945 358.693 196.595C358.242 196.243 357.896 195.733 357.658 195.065C357.419 194.395 357.3 193.585 357.3 192.636C357.3 191.693 357.419 190.888 357.658 190.22C357.899 189.55 358.246 189.038 358.698 188.686C359.152 188.331 359.698 188.153 360.334 188.153C360.97 188.153 361.514 188.331 361.966 188.686C362.421 189.038 362.767 189.55 363.006 190.22C363.247 190.888 363.368 191.693 363.368 192.636C363.368 193.585 363.249 194.395 363.01 195.065C362.771 195.733 362.426 196.243 361.975 196.595C361.523 196.945 360.976 197.119 360.334 197.119ZM360.334 196.182C360.97 196.182 361.465 195.875 361.817 195.261C362.169 194.648 362.345 193.773 362.345 192.636C362.345 191.881 362.264 191.237 362.102 190.706C361.943 190.175 361.713 189.77 361.412 189.491C361.114 189.213 360.754 189.074 360.334 189.074C359.703 189.074 359.21 189.385 358.855 190.007C358.5 190.626 358.323 191.503 358.323 192.636C358.323 193.392 358.402 194.034 358.561 194.562C358.72 195.091 358.949 195.493 359.247 195.768C359.548 196.044 359.911 196.182 360.334 196.182Z" fill="black"/>
<path d="M4.125 174H1.43182V165.273H4.24432C5.09091 165.273 5.81534 165.447 6.41761 165.797C7.01989 166.143 7.48153 166.642 7.80256 167.293C8.12358 167.94 8.28409 168.716 8.28409 169.619C8.28409 170.528 8.12216 171.311 7.7983 171.967C7.47443 172.621 7.00284 173.124 6.38352 173.476C5.7642 173.825 5.01136 174 4.125 174ZM2.48864 173.062H4.05682C4.77841 173.062 5.37642 172.923 5.85085 172.645C6.32528 172.366 6.67898 171.97 6.91193 171.456C7.14489 170.942 7.26136 170.33 7.26136 169.619C7.26136 168.915 7.14631 168.308 6.91619 167.8C6.68608 167.288 6.34233 166.896 5.88494 166.624C5.42756 166.348 4.85795 166.21 4.17614 166.21H2.48864V173.062Z" fill="black"/>
<path d="M7.1772 140.455C7.12607 140.023 6.91868 139.688 6.55504 139.449C6.19141 139.21 5.74538 139.091 5.21697 139.091C4.83061 139.091 4.49254 139.153 4.20277 139.278C3.91584 139.403 3.69141 139.575 3.52947 139.794C3.37038 140.013 3.29084 140.261 3.29084 140.54C3.29084 140.773 3.34624 140.973 3.45703 141.141C3.57067 141.305 3.71555 141.443 3.89169 141.554C4.06783 141.662 4.25249 141.751 4.44567 141.822C4.63885 141.891 4.81641 141.946 4.97834 141.989L5.8647 142.227C6.09197 142.287 6.34482 142.369 6.62322 142.474C6.90447 142.58 7.17294 142.723 7.42862 142.905C7.68714 143.084 7.90021 143.314 8.06783 143.595C8.23544 143.876 8.31925 144.222 8.31925 144.631C8.31925 145.102 8.19567 145.528 7.94851 145.909C7.70419 146.29 7.34624 146.592 6.87465 146.817C6.4059 147.041 5.83629 147.153 5.16584 147.153C4.54084 147.153 3.99964 147.053 3.54226 146.851C3.08771 146.649 2.72976 146.368 2.46839 146.007C2.20987 145.646 2.06357 145.227 2.02947 144.75H3.12038C3.14879 145.08 3.25959 145.352 3.45277 145.568C3.64879 145.781 3.89595 145.94 4.19425 146.045C4.49538 146.148 4.81925 146.199 5.16584 146.199C5.56925 146.199 5.93146 146.134 6.25249 146.003C6.57351 145.869 6.82777 145.685 7.01527 145.449C7.20277 145.21 7.29652 144.932 7.29652 144.614C7.29652 144.324 7.21555 144.088 7.05362 143.906C6.89169 143.724 6.67862 143.577 6.41442 143.463C6.15021 143.349 5.8647 143.25 5.55788 143.165L4.48402 142.858C3.8022 142.662 3.26243 142.382 2.8647 142.018C2.46697 141.655 2.26811 141.179 2.26811 140.591C2.26811 140.102 2.40021 139.676 2.66442 139.312C2.93146 138.946 3.28942 138.662 3.73828 138.46C4.18999 138.256 4.69425 138.153 5.25107 138.153C5.81357 138.153 6.31357 138.254 6.75107 138.456C7.18857 138.655 7.53516 138.928 7.79084 139.274C8.04936 139.621 8.18572 140.014 8.19993 140.455H7.1772Z" fill="black"/>
<path d="M1.88033 113.21V112.273H8.42578V113.21H5.68146V121H4.62465V113.21H1.88033Z" fill="black"/>
<path d="M4.08665 91.2727H5.24574L6.21733 92.5511L6.47301 92.892L7.92188 94.8182H6.76278L5.80824 93.5398L5.5696 93.2159L4.08665 91.2727ZM8.27983 89.6364C8.27983 90.5568 8.11364 91.3523 7.78125 92.0227C7.44886 92.6932 6.9929 93.2102 6.41335 93.5739C5.83381 93.9375 5.17188 94.1193 4.42756 94.1193C3.68324 94.1193 3.02131 93.9375 2.44176 93.5739C1.86222 93.2102 1.40625 92.6932 1.07386 92.0227C0.741477 91.3523 0.575284 90.5568 0.575284 89.6364C0.575284 88.7159 0.741477 87.9205 1.07386 87.25C1.40625 86.5795 1.86222 86.0625 2.44176 85.6989C3.02131 85.3352 3.68324 85.1534 4.42756 85.1534C5.17188 85.1534 5.83381 85.3352 6.41335 85.6989C6.9929 86.0625 7.44886 86.5795 7.78125 87.25C8.11364 87.9205 8.27983 88.7159 8.27983 89.6364ZM7.2571 89.6364C7.2571 88.8807 7.13068 88.2429 6.87784 87.723C6.62784 87.2031 6.28835 86.8097 5.85938 86.5426C5.43324 86.2756 4.95597 86.142 4.42756 86.142C3.89915 86.142 3.42045 86.2756 2.99148 86.5426C2.56534 86.8097 2.22585 87.2031 1.97301 87.723C1.72301 88.2429 1.59801 88.8807 1.59801 89.6364C1.59801 90.392 1.72301 91.0298 1.97301 91.5497C2.22585 92.0696 2.56534 92.4631 2.99148 92.7301C3.42045 92.9972 3.89915 93.1307 4.42756 93.1307C4.95597 93.1307 5.43324 92.9972 5.85938 92.7301C6.28835 92.4631 6.62784 92.0696 6.87784 91.5497C7.13068 91.0298 7.2571 90.392 7.2571 89.6364Z" fill="black"/>
<path d="M4.08665 65.2727H5.24574L6.21733 66.5511L6.47301 66.892L7.92188 68.8182H6.76278L5.80824 67.5398L5.5696 67.2159L4.08665 65.2727ZM8.27983 63.6364C8.27983 64.5568 8.11364 65.3523 7.78125 66.0227C7.44886 66.6932 6.9929 67.2102 6.41335 67.5739C5.83381 67.9375 5.17188 68.1193 4.42756 68.1193C3.68324 68.1193 3.02131 67.9375 2.44176 67.5739C1.86222 67.2102 1.40625 66.6932 1.07386 66.0227C0.741477 65.3523 0.575284 64.5568 0.575284 63.6364C0.575284 62.7159 0.741477 61.9205 1.07386 61.25C1.40625 60.5795 1.86222 60.0625 2.44176 59.6989C3.02131 59.3352 3.68324 59.1534 4.42756 59.1534C5.17188 59.1534 5.83381 59.3352 6.41335 59.6989C6.9929 60.0625 7.44886 60.5795 7.78125 61.25C8.11364 61.9205 8.27983 62.7159 8.27983 63.6364ZM7.2571 63.6364C7.2571 62.8807 7.13068 62.2429 6.87784 61.723C6.62784 61.2031 6.28835 60.8097 5.85938 60.5426C5.43324 60.2756 4.95597 60.142 4.42756 60.142C3.89915 60.142 3.42045 60.2756 2.99148 60.5426C2.56534 60.8097 2.22585 61.2031 1.97301 61.723C1.72301 62.2429 1.59801 62.8807 1.59801 63.6364C1.59801 64.392 1.72301 65.0298 1.97301 65.5497C2.22585 66.0696 2.56534 66.4631 2.99148 66.7301C3.42045 66.9972 3.89915 67.1307 4.42756 67.1307C4.95597 67.1307 5.43324 66.9972 5.85938 66.7301C6.28835 66.4631 6.62784 66.0696 6.87784 65.5497C7.13068 65.0298 7.2571 64.392 7.2571 63.6364Z" fill="black"/>
<path d="M7.1772 34.4545C7.12607 34.0227 6.91868 33.6875 6.55504 33.4489C6.19141 33.2102 5.74538 33.0909 5.21697 33.0909C4.83061 33.0909 4.49254 33.1534 4.20277 33.2784C3.91584 33.4034 3.69141 33.5753 3.52947 33.794C3.37038 34.0128 3.29084 34.2614 3.29084 34.5398C3.29084 34.7727 3.34624 34.973 3.45703 35.1406C3.57067 35.3054 3.71555 35.4432 3.89169 35.554C4.06783 35.6619 4.25249 35.7514 4.44567 35.8224C4.63885 35.8906 4.81641 35.946 4.97834 35.9886L5.8647 36.2273C6.09197 36.2869 6.34482 36.3693 6.62322 36.4744C6.90447 36.5795 7.17294 36.723 7.42862 36.9048C7.68714 37.0838 7.90021 37.3139 8.06783 37.5952C8.23544 37.8764 8.31925 38.2216 8.31925 38.6307C8.31925 39.1023 8.19567 39.5284 7.94851 39.9091C7.70419 40.2898 7.34624 40.5923 6.87465 40.8168C6.4059 41.0412 5.83629 41.1534 5.16584 41.1534C4.54084 41.1534 3.99964 41.0526 3.54226 40.8509C3.08771 40.6491 2.72976 40.3679 2.46839 40.0071C2.20987 39.6463 2.06357 39.2273 2.02947 38.75H3.12038C3.14879 39.0795 3.25959 39.3523 3.45277 39.5682C3.64879 39.7812 3.89595 39.9403 4.19425 40.0455C4.49538 40.1477 4.81925 40.1989 5.16584 40.1989C5.56925 40.1989 5.93146 40.1335 6.25249 40.0028C6.57351 39.8693 6.82777 39.6847 7.01527 39.4489C7.20277 39.2102 7.29652 38.9318 7.29652 38.6136C7.29652 38.3239 7.21555 38.0881 7.05362 37.9062C6.89169 37.7244 6.67862 37.5767 6.41442 37.4631C6.15021 37.3494 5.8647 37.25 5.55788 37.1648L4.48402 36.858C3.8022 36.6619 3.26243 36.3821 2.8647 36.0185C2.46697 35.6548 2.26811 35.179 2.26811 34.5909C2.26811 34.1023 2.40021 33.6761 2.66442 33.3125C2.93146 32.946 3.28942 32.6619 3.73828 32.4602C4.18999 32.2557 4.69425 32.1534 5.25107 32.1534C5.81357 32.1534 6.31357 32.2543 6.75107 32.456C7.18857 32.6548 7.53516 32.9276 7.79084 33.2741C8.04936 33.6207 8.18572 34.0142 8.19993 34.4545H7.1772Z" fill="black"/>
<path d="M7.1772 8.45455C7.12607 8.02273 6.91868 7.6875 6.55504 7.44886C6.19141 7.21023 5.74538 7.09091 5.21697 7.09091C4.83061 7.09091 4.49254 7.15341 4.20277 7.27841C3.91584 7.40341 3.69141 7.57528 3.52947 7.79403C3.37038 8.01278 3.29084 8.26136 3.29084 8.53977C3.29084 8.77273 3.34624 8.97301 3.45703 9.14062C3.57067 9.3054 3.71555 9.44318 3.89169 9.55398C4.06783 9.66193 4.25249 9.75142 4.44567 9.82244C4.63885 9.89062 4.81641 9.94602 4.97834 9.98864L5.8647 10.2273C6.09197 10.2869 6.34482 10.3693 6.62322 10.4744C6.90447 10.5795 7.17294 10.723 7.42862 10.9048C7.68714 11.0838 7.90021 11.3139 8.06783 11.5952C8.23544 11.8764 8.31925 12.2216 8.31925 12.6307C8.31925 13.1023 8.19567 13.5284 7.94851 13.9091C7.70419 14.2898 7.34624 14.5923 6.87465 14.8168C6.4059 15.0412 5.83629 15.1534 5.16584 15.1534C4.54084 15.1534 3.99964 15.0526 3.54226 14.8509C3.08771 14.6491 2.72976 14.3679 2.46839 14.0071C2.20987 13.6463 2.06357 13.2273 2.02947 12.75H3.12038C3.14879 13.0795 3.25959 13.3523 3.45277 13.5682C3.64879 13.7812 3.89595 13.9403 4.19425 14.0455C4.49538 14.1477 4.81925 14.1989 5.16584 14.1989C5.56925 14.1989 5.93146 14.1335 6.25249 14.0028C6.57351 13.8693 6.82777 13.6847 7.01527 13.4489C7.20277 13.2102 7.29652 12.9318 7.29652 12.6136C7.29652 12.3239 7.21555 12.0881 7.05362 11.9062C6.89169 11.7244 6.67862 11.5767 6.41442 11.4631C6.15021 11.3494 5.8647 11.25 5.55788 11.1648L4.48402 10.858C3.8022 10.6619 3.26243 10.3821 2.8647 10.0185C2.46697 9.65483 2.26811 9.17898 2.26811 8.59091C2.26811 8.10227 2.40021 7.67614 2.66442 7.3125C2.93146 6.94602 3.28942 6.66193 3.73828 6.46023C4.18999 6.25568 4.69425 6.15341 5.25107 6.15341C5.81357 6.15341 6.31357 6.25426 6.75107 6.45597C7.18857 6.65483 7.53516 6.92756 7.79084 7.27415C8.04936 7.62074 8.18572 8.0142 8.19993 8.45455H7.1772Z" fill="black"/>
</svg>