<svg width="290" height="145" viewBox="0 0 290 145" fill="none" xmlns="http://www.w3.org/2000/svg">
<path d="M67.8501 142H67.2131L64.6511 138.115V142H64.0141V137.114H64.6511L67.2131 140.992V137.114H67.8501V142ZM72.338 138.164V142H71.701V141.433C71.5796 141.629 71.4093 141.783 71.19 141.895C70.9753 142.002 70.7373 142.056 70.476 142.056C70.1773 142.056 69.909 141.995 69.671 141.874C69.433 141.748 69.244 141.561 69.104 141.314C68.9686 141.067 68.901 140.766 68.901 140.411V138.164H69.531V140.327C69.531 140.705 69.6266 140.997 69.818 141.202C70.0093 141.403 70.2706 141.503 70.602 141.503C70.9426 141.503 71.211 141.398 71.407 141.188C71.603 140.978 71.701 140.672 71.701 140.271V138.164H72.338ZM71.323 137.079L69.832 137.877V137.401L71.323 136.526V137.079ZM78.0265 138.094C78.3252 138.094 78.5912 138.157 78.8245 138.283C79.0578 138.404 79.2422 138.589 79.3775 138.836C79.5128 139.083 79.5805 139.384 79.5805 139.739V142H78.9505V139.83C78.9505 139.447 78.8548 139.156 78.6635 138.955C78.4768 138.75 78.2225 138.647 77.9005 138.647C77.5692 138.647 77.3055 138.754 77.1095 138.969C76.9135 139.179 76.8155 139.485 76.8155 139.886V142H76.1855V139.83C76.1855 139.447 76.0898 139.156 75.8985 138.955C75.7118 138.75 75.4575 138.647 75.1355 138.647C74.8042 138.647 74.5405 138.754 74.3445 138.969C74.1485 139.179 74.0505 139.485 74.0505 139.886V142H73.4135V138.164H74.0505V138.717C74.1765 138.516 74.3445 138.362 74.5545 138.255C74.7692 138.148 75.0048 138.094 75.2615 138.094C75.5835 138.094 75.8682 138.166 76.1155 138.311C76.3628 138.456 76.5472 138.668 76.6685 138.948C76.7758 138.677 76.9532 138.467 77.2005 138.318C77.4478 138.169 77.7232 138.094 78.0265 138.094ZM84.1254 139.935C84.1254 140.056 84.1184 140.185 84.1044 140.32H81.0384C81.0618 140.698 81.1901 140.994 81.4234 141.209C81.6614 141.419 81.9484 141.524 82.2844 141.524C82.5598 141.524 82.7884 141.461 82.9704 141.335C83.1571 141.204 83.2878 141.032 83.3624 140.817H84.0484C83.9458 141.186 83.7404 141.487 83.4324 141.72C83.1244 141.949 82.7418 142.063 82.2844 142.063C81.9204 142.063 81.5938 141.981 81.3044 141.818C81.0198 141.655 80.7958 141.424 80.6324 141.125C80.4691 140.822 80.3874 140.472 80.3874 140.075C80.3874 139.678 80.4668 139.331 80.6254 139.032C80.7841 138.733 81.0058 138.505 81.2904 138.346C81.5798 138.183 81.9111 138.101 82.2844 138.101C82.6484 138.101 82.9704 138.18 83.2504 138.339C83.5304 138.498 83.7451 138.717 83.8944 138.997C84.0484 139.272 84.1254 139.585 84.1254 139.935ZM83.4674 139.802C83.4674 139.559 83.4138 139.352 83.3064 139.179C83.1991 139.002 83.0521 138.869 82.8654 138.78C82.6834 138.687 82.4804 138.64 82.2564 138.64C81.9344 138.64 81.6591 138.743 81.4304 138.948C81.2064 139.153 81.0781 139.438 81.0454 139.802H83.4674ZM85.6032 138.787C85.7152 138.568 85.8739 138.397 86.0792 138.276C86.2892 138.155 86.5436 138.094 86.8422 138.094V138.752H86.6742C85.9602 138.752 85.6032 139.139 85.6032 139.914V142H84.9662V138.164H85.6032V138.787ZM89.2506 142.063C88.8912 142.063 88.5646 141.981 88.2706 141.818C87.9812 141.655 87.7526 141.424 87.5846 141.125C87.4212 140.822 87.3396 140.472 87.3396 140.075C87.3396 139.683 87.4236 139.338 87.5916 139.039C87.7642 138.736 87.9976 138.505 88.2916 138.346C88.5856 138.183 88.9146 138.101 89.2786 138.101C89.6426 138.101 89.9716 138.183 90.2656 138.346C90.5596 138.505 90.7906 138.733 90.9586 139.032C91.1312 139.331 91.2176 139.678 91.2176 140.075C91.2176 140.472 91.1289 140.822 90.9516 141.125C90.7789 141.424 90.5432 141.655 90.2446 141.818C89.9459 141.981 89.6146 142.063 89.2506 142.063ZM89.2506 141.503C89.4792 141.503 89.6939 141.449 89.8946 141.342C90.0952 141.235 90.2562 141.074 90.3776 140.859C90.5036 140.644 90.5666 140.383 90.5666 140.075C90.5666 139.767 90.5059 139.506 90.3846 139.291C90.2632 139.076 90.1046 138.918 89.9086 138.815C89.7126 138.708 89.5002 138.654 89.2716 138.654C89.0382 138.654 88.8236 138.708 88.6276 138.815C88.4362 138.918 88.2822 139.076 88.1656 139.291C88.0489 139.506 87.9906 139.767 87.9906 140.075C87.9906 140.388 88.0466 140.651 88.1586 140.866C88.2752 141.081 88.4292 141.242 88.6206 141.349C88.8119 141.452 89.0219 141.503 89.2506 141.503ZM93.6833 140.068C93.6833 139.676 93.7627 139.333 93.9213 139.039C94.08 138.74 94.297 138.509 94.5723 138.346C94.8523 138.183 95.165 138.101 95.5103 138.101C95.809 138.101 96.0867 138.171 96.3433 138.311C96.6 138.446 96.796 138.626 96.9313 138.85V136.82H97.5753V142H96.9313V141.279C96.8053 141.508 96.6187 141.697 96.3713 141.846C96.124 141.991 95.8347 142.063 95.5033 142.063C95.1627 142.063 94.8523 141.979 94.5723 141.811C94.297 141.643 94.08 141.407 93.9213 141.104C93.7627 140.801 93.6833 140.455 93.6833 140.068ZM96.9313 140.075C96.9313 139.786 96.873 139.534 96.7563 139.319C96.6397 139.104 96.481 138.941 96.2803 138.829C96.0843 138.712 95.8673 138.654 95.6293 138.654C95.3913 138.654 95.1743 138.71 94.9783 138.822C94.7823 138.934 94.626 139.097 94.5093 139.312C94.3927 139.527 94.3343 139.779 94.3343 140.068C94.3343 140.362 94.3927 140.619 94.5093 140.838C94.626 141.053 94.7823 141.218 94.9783 141.335C95.1743 141.447 95.3913 141.503 95.6293 141.503C95.8673 141.503 96.0843 141.447 96.2803 141.335C96.481 141.218 96.6397 141.053 96.7563 140.838C96.873 140.619 96.9313 140.364 96.9313 140.075ZM102.152 139.935C102.152 140.056 102.145 140.185 102.131 140.32H99.0648C99.0881 140.698 99.2165 140.994 99.4498 141.209C99.6878 141.419 99.9748 141.524 100.311 141.524C100.586 141.524 100.815 141.461 100.997 141.335C101.183 141.204 101.314 141.032 101.389 140.817H102.075C101.972 141.186 101.767 141.487 101.459 141.72C101.151 141.949 100.768 142.063 100.311 142.063C99.9468 142.063 99.6201 141.981 99.3308 141.818C99.0461 141.655 98.8221 141.424 98.6588 141.125C98.4955 140.822 98.4138 140.472 98.4138 140.075C98.4138 139.678 98.4931 139.331 98.6518 139.032C98.8105 138.733 99.0321 138.505 99.3168 138.346C99.6061 138.183 99.9375 138.101 100.311 138.101C100.675 138.101 100.997 138.18 101.277 138.339C101.557 138.498 101.771 138.717 101.921 138.997C102.075 139.272 102.152 139.585 102.152 139.935ZM101.494 139.802C101.494 139.559 101.44 139.352 101.333 139.179C101.225 139.002 101.078 138.869 100.892 138.78C100.71 138.687 100.507 138.64 100.283 138.64C99.9608 138.64 99.6855 138.743 99.4568 138.948C99.2328 139.153 99.1045 139.438 99.0718 139.802H101.494ZM105.496 138.787C105.608 138.568 105.766 138.397 105.972 138.276C106.182 138.155 106.436 138.094 106.735 138.094V138.752H106.567C105.853 138.752 105.496 139.139 105.496 139.914V142H104.859V138.164H105.496V138.787ZM110.97 139.935C110.97 140.056 110.963 140.185 110.949 140.32H107.883C107.906 140.698 108.035 140.994 108.268 141.209C108.506 141.419 108.793 141.524 109.129 141.524C109.404 141.524 109.633 141.461 109.815 141.335C110.002 141.204 110.132 141.032 110.207 140.817H110.893C110.79 141.186 110.585 141.487 110.277 141.72C109.969 141.949 109.586 142.063 109.129 142.063C108.765 142.063 108.438 141.981 108.149 141.818C107.864 141.655 107.64 141.424 107.477 141.125C107.314 140.822 107.232 140.472 107.232 140.075C107.232 139.678 107.311 139.331 107.47 139.032C107.629 138.733 107.85 138.505 108.135 138.346C108.424 138.183 108.756 138.101 109.129 138.101C109.493 138.101 109.815 138.18 110.095 138.339C110.375 138.498 110.59 138.717 110.739 138.997C110.893 139.272 110.97 139.585 110.97 139.935ZM110.312 139.802C110.312 139.559 110.258 139.352 110.151 139.179C110.044 139.002 109.897 138.869 109.71 138.78C109.528 138.687 109.325 138.64 109.101 138.64C108.779 138.64 108.504 138.743 108.275 138.948C108.051 139.153 107.923 139.438 107.89 139.802H110.312ZM111.573 140.075C111.573 139.678 111.652 139.333 111.811 139.039C111.97 138.74 112.189 138.509 112.469 138.346C112.754 138.183 113.078 138.101 113.442 138.101C113.913 138.101 114.301 138.215 114.604 138.444C114.912 138.673 115.115 138.99 115.213 139.396H114.527C114.462 139.163 114.333 138.978 114.142 138.843C113.955 138.708 113.722 138.64 113.442 138.64C113.078 138.64 112.784 138.766 112.56 139.018C112.336 139.265 112.224 139.618 112.224 140.075C112.224 140.537 112.336 140.894 112.56 141.146C112.784 141.398 113.078 141.524 113.442 141.524C113.722 141.524 113.955 141.459 114.142 141.328C114.329 141.197 114.457 141.011 114.527 140.768H115.213C115.11 141.16 114.905 141.475 114.597 141.713C114.289 141.946 113.904 142.063 113.442 142.063C113.078 142.063 112.754 141.981 112.469 141.818C112.189 141.655 111.97 141.424 111.811 141.125C111.652 140.826 111.573 140.476 111.573 140.075ZM119.563 139.935C119.563 140.056 119.556 140.185 119.542 140.32H116.476C116.499 140.698 116.628 140.994 116.861 141.209C117.099 141.419 117.386 141.524 117.722 141.524C117.997 141.524 118.226 141.461 118.408 141.335C118.595 141.204 118.725 141.032 118.8 140.817H119.486C119.383 141.186 119.178 141.487 118.87 141.72C118.562 141.949 118.179 142.063 117.722 142.063C117.358 142.063 117.031 141.981 116.742 141.818C116.457 141.655 116.233 141.424 116.07 141.125C115.907 140.822 115.825 140.472 115.825 140.075C115.825 139.678 115.904 139.331 116.063 139.032C116.222 138.733 116.443 138.505 116.728 138.346C117.017 138.183 117.349 138.101 117.722 138.101C118.086 138.101 118.408 138.18 118.688 138.339C118.968 138.498 119.183 138.717 119.332 138.997C119.486 139.272 119.563 139.585 119.563 139.935ZM118.905 139.802C118.905 139.559 118.851 139.352 118.744 139.179C118.637 139.002 118.49 138.869 118.303 138.78C118.121 138.687 117.918 138.64 117.694 138.64C117.372 138.64 117.097 138.743 116.868 138.948C116.644 139.153 116.516 139.438 116.483 139.802H118.905ZM120.733 137.541C120.611 137.541 120.509 137.499 120.425 137.415C120.341 137.331 120.299 137.228 120.299 137.107C120.299 136.986 120.341 136.883 120.425 136.799C120.509 136.715 120.611 136.673 120.733 136.673C120.849 136.673 120.947 136.715 121.027 136.799C121.111 136.883 121.153 136.986 121.153 137.107C121.153 137.228 121.111 137.331 121.027 137.415C120.947 137.499 120.849 137.541 120.733 137.541ZM121.041 138.164V142H120.404V138.164H121.041ZM122.903 138.689V140.95C122.903 141.137 122.943 141.27 123.022 141.349C123.102 141.424 123.239 141.461 123.435 141.461H123.904V142H123.33C122.976 142 122.71 141.918 122.532 141.755C122.355 141.592 122.266 141.323 122.266 140.95V138.689H121.769V138.164H122.266V137.198H122.903V138.164H123.904V138.689H122.903ZM124.438 140.068C124.438 139.676 124.518 139.333 124.676 139.039C124.835 138.74 125.052 138.509 125.327 138.346C125.607 138.183 125.918 138.101 126.258 138.101C126.594 138.101 126.886 138.173 127.133 138.318C127.381 138.463 127.565 138.645 127.686 138.864V138.164H128.33V142H127.686V141.286C127.56 141.51 127.371 141.697 127.119 141.846C126.872 141.991 126.583 142.063 126.251 142.063C125.911 142.063 125.603 141.979 125.327 141.811C125.052 141.643 124.835 141.407 124.676 141.104C124.518 140.801 124.438 140.455 124.438 140.068ZM127.686 140.075C127.686 139.786 127.628 139.534 127.511 139.319C127.395 139.104 127.236 138.941 127.035 138.829C126.839 138.712 126.622 138.654 126.384 138.654C126.146 138.654 125.929 138.71 125.733 138.822C125.537 138.934 125.381 139.097 125.264 139.312C125.148 139.527 125.089 139.779 125.089 140.068C125.089 140.362 125.148 140.619 125.264 140.838C125.381 141.053 125.537 141.218 125.733 141.335C125.929 141.447 126.146 141.503 126.384 141.503C126.622 141.503 126.839 141.447 127.035 141.335C127.236 141.218 127.395 141.053 127.511 140.838C127.628 140.619 127.686 140.364 127.686 140.075ZM130.765 142.063C130.471 142.063 130.207 142.014 129.974 141.916C129.74 141.813 129.556 141.673 129.421 141.496C129.285 141.314 129.211 141.106 129.197 140.873H129.855C129.873 141.064 129.962 141.221 130.121 141.342C130.284 141.463 130.496 141.524 130.758 141.524C131 141.524 131.192 141.47 131.332 141.363C131.472 141.256 131.542 141.12 131.542 140.957C131.542 140.789 131.467 140.665 131.318 140.586C131.168 140.502 130.937 140.42 130.625 140.341C130.34 140.266 130.107 140.192 129.925 140.117C129.747 140.038 129.593 139.923 129.463 139.774C129.337 139.62 129.274 139.419 129.274 139.172C129.274 138.976 129.332 138.796 129.449 138.633C129.565 138.47 129.731 138.341 129.946 138.248C130.16 138.15 130.405 138.101 130.681 138.101C131.105 138.101 131.448 138.208 131.71 138.423C131.971 138.638 132.111 138.932 132.13 139.305H131.493C131.479 139.104 131.397 138.943 131.248 138.822C131.103 138.701 130.907 138.64 130.66 138.64C130.431 138.64 130.249 138.689 130.114 138.787C129.978 138.885 129.911 139.013 129.911 139.172C129.911 139.298 129.95 139.403 130.03 139.487C130.114 139.566 130.216 139.632 130.338 139.683C130.464 139.73 130.636 139.783 130.856 139.844C131.131 139.919 131.355 139.993 131.528 140.068C131.7 140.138 131.847 140.245 131.969 140.39C132.095 140.535 132.16 140.724 132.165 140.957C132.165 141.167 132.106 141.356 131.99 141.524C131.873 141.692 131.707 141.825 131.493 141.923C131.283 142.016 131.04 142.063 130.765 142.063Z" fill="black"/>
<path d="M199.53 142H198.893L196.331 138.115V142H195.694V137.114H196.331L198.893 140.992V137.114H199.53V142ZM204.018 138.164V142H203.381V141.433C203.26 141.629 203.089 141.783 202.87 141.895C202.655 142.002 202.417 142.056 202.156 142.056C201.857 142.056 201.589 141.995 201.351 141.874C201.113 141.748 200.924 141.561 200.784 141.314C200.649 141.067 200.581 140.766 200.581 140.411V138.164H201.211V140.327C201.211 140.705 201.307 140.997 201.498 141.202C201.689 141.403 201.951 141.503 202.282 141.503C202.623 141.503 202.891 141.398 203.087 141.188C203.283 140.978 203.381 140.672 203.381 140.271V138.164H204.018ZM203.003 137.079L201.512 137.877V137.401L203.003 136.526V137.079ZM209.707 138.094C210.005 138.094 210.271 138.157 210.505 138.283C210.738 138.404 210.922 138.589 211.058 138.836C211.193 139.083 211.261 139.384 211.261 139.739V142H210.631V139.83C210.631 139.447 210.535 139.156 210.344 138.955C210.157 138.75 209.903 138.647 209.581 138.647C209.249 138.647 208.986 138.754 208.79 138.969C208.594 139.179 208.496 139.485 208.496 139.886V142H207.866V139.83C207.866 139.447 207.77 139.156 207.579 138.955C207.392 138.75 207.138 138.647 206.816 138.647C206.484 138.647 206.221 138.754 206.025 138.969C205.829 139.179 205.731 139.485 205.731 139.886V142H205.094V138.164H205.731V138.717C205.857 138.516 206.025 138.362 206.235 138.255C206.449 138.148 206.685 138.094 206.942 138.094C207.264 138.094 207.548 138.166 207.796 138.311C208.043 138.456 208.227 138.668 208.349 138.948C208.456 138.677 208.633 138.467 208.881 138.318C209.128 138.169 209.403 138.094 209.707 138.094ZM215.806 139.935C215.806 140.056 215.799 140.185 215.785 140.32H212.719C212.742 140.698 212.87 140.994 213.104 141.209C213.342 141.419 213.629 141.524 213.965 141.524C214.24 141.524 214.469 141.461 214.651 141.335C214.837 141.204 214.968 141.032 215.043 140.817H215.729C215.626 141.186 215.421 141.487 215.113 141.72C214.805 141.949 214.422 142.063 213.965 142.063C213.601 142.063 213.274 141.981 212.985 141.818C212.7 141.655 212.476 141.424 212.313 141.125C212.149 140.822 212.068 140.472 212.068 140.075C212.068 139.678 212.147 139.331 212.306 139.032C212.464 138.733 212.686 138.505 212.971 138.346C213.26 138.183 213.591 138.101 213.965 138.101C214.329 138.101 214.651 138.18 214.931 138.339C215.211 138.498 215.425 138.717 215.575 138.997C215.729 139.272 215.806 139.585 215.806 139.935ZM215.148 139.802C215.148 139.559 215.094 139.352 214.987 139.179C214.879 139.002 214.732 138.869 214.546 138.78C214.364 138.687 214.161 138.64 213.937 138.64C213.615 138.64 213.339 138.743 213.111 138.948C212.887 139.153 212.758 139.438 212.726 139.802H215.148ZM217.283 138.787C217.395 138.568 217.554 138.397 217.759 138.276C217.969 138.155 218.224 138.094 218.522 138.094V138.752H218.354C217.64 138.752 217.283 139.139 217.283 139.914V142H216.646V138.164H217.283V138.787ZM220.931 142.063C220.571 142.063 220.245 141.981 219.951 141.818C219.661 141.655 219.433 141.424 219.265 141.125C219.101 140.822 219.02 140.472 219.02 140.075C219.02 139.683 219.104 139.338 219.272 139.039C219.444 138.736 219.678 138.505 219.972 138.346C220.266 138.183 220.595 138.101 220.959 138.101C221.323 138.101 221.652 138.183 221.946 138.346C222.24 138.505 222.471 138.733 222.639 139.032C222.811 139.331 222.898 139.678 222.898 140.075C222.898 140.472 222.809 140.822 222.632 141.125C222.459 141.424 222.223 141.655 221.925 141.818C221.626 141.981 221.295 142.063 220.931 142.063ZM220.931 141.503C221.159 141.503 221.374 141.449 221.575 141.342C221.775 141.235 221.936 141.074 222.058 140.859C222.184 140.644 222.247 140.383 222.247 140.075C222.247 139.767 222.186 139.506 222.065 139.291C221.943 139.076 221.785 138.918 221.589 138.815C221.393 138.708 221.18 138.654 220.952 138.654C220.718 138.654 220.504 138.708 220.308 138.815C220.116 138.918 219.962 139.076 219.846 139.291C219.729 139.506 219.671 139.767 219.671 140.075C219.671 140.388 219.727 140.651 219.839 140.866C219.955 141.081 220.109 141.242 220.301 141.349C220.492 141.452 220.702 141.503 220.931 141.503ZM225.364 140.068C225.364 139.676 225.443 139.333 225.602 139.039C225.76 138.74 225.977 138.509 226.253 138.346C226.533 138.183 226.845 138.101 227.191 138.101C227.489 138.101 227.767 138.171 228.024 138.311C228.28 138.446 228.476 138.626 228.612 138.85V136.82H229.256V142H228.612V141.279C228.486 141.508 228.299 141.697 228.052 141.846C227.804 141.991 227.515 142.063 227.184 142.063C226.843 142.063 226.533 141.979 226.253 141.811C225.977 141.643 225.76 141.407 225.602 141.104C225.443 140.801 225.364 140.455 225.364 140.068ZM228.612 140.075C228.612 139.786 228.553 139.534 228.437 139.319C228.32 139.104 228.161 138.941 227.961 138.829C227.765 138.712 227.548 138.654 227.31 138.654C227.072 138.654 226.855 138.71 226.659 138.822C226.463 138.934 226.306 139.097 226.19 139.312C226.073 139.527 226.015 139.779 226.015 140.068C226.015 140.362 226.073 140.619 226.19 140.838C226.306 141.053 226.463 141.218 226.659 141.335C226.855 141.447 227.072 141.503 227.31 141.503C227.548 141.503 227.765 141.447 227.961 141.335C228.161 141.218 228.32 141.053 228.437 140.838C228.553 140.619 228.612 140.364 228.612 140.075ZM233.832 139.935C233.832 140.056 233.825 140.185 233.811 140.32H230.745C230.768 140.698 230.897 140.994 231.13 141.209C231.368 141.419 231.655 141.524 231.991 141.524C232.266 141.524 232.495 141.461 232.677 141.335C232.864 141.204 232.994 141.032 233.069 140.817H233.755C233.652 141.186 233.447 141.487 233.139 141.72C232.831 141.949 232.448 142.063 231.991 142.063C231.627 142.063 231.3 141.981 231.011 141.818C230.726 141.655 230.502 141.424 230.339 141.125C230.176 140.822 230.094 140.472 230.094 140.075C230.094 139.678 230.173 139.331 230.332 139.032C230.491 138.733 230.712 138.505 230.997 138.346C231.286 138.183 231.618 138.101 231.991 138.101C232.355 138.101 232.677 138.18 232.957 138.339C233.237 138.498 233.452 138.717 233.601 138.997C233.755 139.272 233.832 139.585 233.832 139.935ZM233.174 139.802C233.174 139.559 233.12 139.352 233.013 139.179C232.906 139.002 232.759 138.869 232.572 138.78C232.39 138.687 232.187 138.64 231.963 138.64C231.641 138.64 231.366 138.743 231.137 138.948C230.913 139.153 230.785 139.438 230.752 139.802H233.174ZM236.301 140.068C236.301 139.676 236.38 139.333 236.539 139.039C236.698 138.74 236.915 138.509 237.19 138.346C237.47 138.183 237.783 138.101 238.128 138.101C238.427 138.101 238.704 138.171 238.961 138.311C239.218 138.446 239.414 138.626 239.549 138.85V136.82H240.193V142H239.549V141.279C239.423 141.508 239.236 141.697 238.989 141.846C238.742 141.991 238.452 142.063 238.121 142.063C237.78 142.063 237.47 141.979 237.19 141.811C236.915 141.643 236.698 141.407 236.539 141.104C236.38 140.801 236.301 140.455 236.301 140.068ZM239.549 140.075C239.549 139.786 239.491 139.534 239.374 139.319C239.257 139.104 239.099 138.941 238.898 138.829C238.702 138.712 238.485 138.654 238.247 138.654C238.009 138.654 237.792 138.71 237.596 138.822C237.4 138.934 237.244 139.097 237.127 139.312C237.01 139.527 236.952 139.779 236.952 140.068C236.952 140.362 237.01 140.619 237.127 140.838C237.244 141.053 237.4 141.218 237.596 141.335C237.792 141.447 238.009 141.503 238.247 141.503C238.485 141.503 238.702 141.447 238.898 141.335C239.099 141.218 239.257 141.053 239.374 140.838C239.491 140.619 239.549 140.364 239.549 140.075ZM244.769 139.935C244.769 140.056 244.762 140.185 244.748 140.32H241.682C241.706 140.698 241.834 140.994 242.067 141.209C242.305 141.419 242.592 141.524 242.928 141.524C243.204 141.524 243.432 141.461 243.614 141.335C243.801 141.204 243.932 141.032 244.006 140.817H244.692C244.59 141.186 244.384 141.487 244.076 141.72C243.768 141.949 243.386 142.063 242.928 142.063C242.564 142.063 242.238 141.981 241.948 141.818C241.664 141.655 241.44 141.424 241.276 141.125C241.113 140.822 241.031 140.472 241.031 140.075C241.031 139.678 241.111 139.331 241.269 139.032C241.428 138.733 241.65 138.505 241.934 138.346C242.224 138.183 242.555 138.101 242.928 138.101C243.292 138.101 243.614 138.18 243.894 138.339C244.174 138.498 244.389 138.717 244.538 138.997C244.692 139.272 244.769 139.585 244.769 139.935ZM244.111 139.802C244.111 139.559 244.058 139.352 243.95 139.179C243.843 139.002 243.696 138.869 243.509 138.78C243.327 138.687 243.124 138.64 242.9 138.64C242.578 138.64 242.303 138.743 242.074 138.948C241.85 139.153 241.722 139.438 241.689 139.802H244.111ZM246.968 142.063C246.674 142.063 246.411 142.014 246.177 141.916C245.944 141.813 245.76 141.673 245.624 141.496C245.489 141.314 245.414 141.106 245.4 140.873H246.058C246.077 141.064 246.166 141.221 246.324 141.342C246.488 141.463 246.7 141.524 246.961 141.524C247.204 141.524 247.395 141.47 247.535 141.363C247.675 141.256 247.745 141.12 247.745 140.957C247.745 140.789 247.671 140.665 247.521 140.586C247.372 140.502 247.141 140.42 246.828 140.341C246.544 140.266 246.31 140.192 246.128 140.117C245.951 140.038 245.797 139.923 245.666 139.774C245.54 139.62 245.477 139.419 245.477 139.172C245.477 138.976 245.536 138.796 245.652 138.633C245.769 138.47 245.935 138.341 246.149 138.248C246.364 138.15 246.609 138.101 246.884 138.101C247.309 138.101 247.652 138.208 247.913 138.423C248.175 138.638 248.315 138.932 248.333 139.305H247.696C247.682 139.104 247.601 138.943 247.451 138.822C247.307 138.701 247.111 138.64 246.863 138.64C246.635 138.64 246.453 138.689 246.317 138.787C246.182 138.885 246.114 139.013 246.114 139.172C246.114 139.298 246.154 139.403 246.233 139.487C246.317 139.566 246.42 139.632 246.541 139.683C246.667 139.73 246.84 139.783 247.059 139.844C247.335 139.919 247.559 139.993 247.731 140.068C247.904 140.138 248.051 140.245 248.172 140.39C248.298 140.535 248.364 140.724 248.368 140.957C248.368 141.167 248.31 141.356 248.193 141.524C248.077 141.692 247.911 141.825 247.696 141.923C247.486 142.016 247.244 142.063 246.968 142.063ZM249.905 138.871C250.031 138.652 250.217 138.47 250.465 138.325C250.717 138.176 251.008 138.101 251.34 138.101C251.68 138.101 251.988 138.183 252.264 138.346C252.544 138.509 252.763 138.74 252.922 139.039C253.08 139.333 253.16 139.676 253.16 140.068C253.16 140.455 253.08 140.801 252.922 141.104C252.763 141.407 252.544 141.643 252.264 141.811C251.988 141.979 251.68 142.063 251.34 142.063C251.013 142.063 250.724 141.991 250.472 141.846C250.224 141.697 250.035 141.512 249.905 141.293V143.82H249.268V138.164H249.905V138.871ZM252.509 140.068C252.509 139.779 252.45 139.527 252.334 139.312C252.217 139.097 252.058 138.934 251.858 138.822C251.662 138.71 251.445 138.654 251.207 138.654C250.973 138.654 250.756 138.712 250.556 138.829C250.36 138.941 250.201 139.107 250.08 139.326C249.963 139.541 249.905 139.79 249.905 140.075C249.905 140.364 249.963 140.619 250.08 140.838C250.201 141.053 250.36 141.218 250.556 141.335C250.756 141.447 250.973 141.503 251.207 141.503C251.445 141.503 251.662 141.447 251.858 141.335C252.058 141.218 252.217 141.053 252.334 140.838C252.45 140.619 252.509 140.362 252.509 140.068ZM257.498 139.935C257.498 140.056 257.491 140.185 257.477 140.32H254.411C254.434 140.698 254.563 140.994 254.796 141.209C255.034 141.419 255.321 141.524 255.657 141.524C255.932 141.524 256.161 141.461 256.343 141.335C256.53 141.204 256.66 141.032 256.735 140.817H257.421C257.318 141.186 257.113 141.487 256.805 141.72C256.497 141.949 256.114 142.063 255.657 142.063C255.293 142.063 254.966 141.981 254.677 141.818C254.392 141.655 254.168 141.424 254.005 141.125C253.842 140.822 253.76 140.472 253.76 140.075C253.76 139.678 253.839 139.331 253.998 139.032C254.157 138.733 254.378 138.505 254.663 138.346C254.952 138.183 255.284 138.101 255.657 138.101C256.021 138.101 256.343 138.18 256.623 138.339C256.903 138.498 257.118 138.717 257.267 138.997C257.421 139.272 257.498 139.585 257.498 139.935ZM256.84 139.802C256.84 139.559 256.786 139.352 256.679 139.179C256.572 139.002 256.425 138.869 256.238 138.78C256.056 138.687 255.853 138.64 255.629 138.64C255.307 138.64 255.032 138.743 254.803 138.948C254.579 139.153 254.451 139.438 254.418 139.802H256.84ZM259.697 142.063C259.403 142.063 259.139 142.014 258.906 141.916C258.672 141.813 258.488 141.673 258.353 141.496C258.217 141.314 258.143 141.106 258.129 140.873H258.787C258.805 141.064 258.894 141.221 259.053 141.342C259.216 141.463 259.428 141.524 259.69 141.524C259.932 141.524 260.124 141.47 260.264 141.363C260.404 141.256 260.474 141.12 260.474 140.957C260.474 140.789 260.399 140.665 260.25 140.586C260.1 140.502 259.869 140.42 259.557 140.341C259.272 140.266 259.039 140.192 258.857 140.117C258.679 140.038 258.525 139.923 258.395 139.774C258.269 139.62 258.206 139.419 258.206 139.172C258.206 138.976 258.264 138.796 258.381 138.633C258.497 138.47 258.663 138.341 258.878 138.248C259.092 138.15 259.337 138.101 259.613 138.101C260.037 138.101 260.38 138.208 260.642 138.423C260.903 138.638 261.043 138.932 261.062 139.305H260.425C260.411 139.104 260.329 138.943 260.18 138.822C260.035 138.701 259.839 138.64 259.592 138.64C259.363 138.64 259.181 138.689 259.046 138.787C258.91 138.885 258.843 139.013 258.843 139.172C258.843 139.298 258.882 139.403 258.962 139.487C259.046 139.566 259.148 139.632 259.27 139.683C259.396 139.73 259.568 139.783 259.788 139.844C260.063 139.919 260.287 139.993 260.46 140.068C260.632 140.138 260.779 140.245 260.901 140.39C261.027 140.535 261.092 140.724 261.097 140.957C261.097 141.167 261.038 141.356 260.922 141.524C260.805 141.692 260.639 141.825 260.425 141.923C260.215 142.016 259.972 142.063 259.697 142.063ZM261.758 140.068C261.758 139.676 261.837 139.333 261.996 139.039C262.155 138.74 262.372 138.509 262.647 138.346C262.927 138.183 263.237 138.101 263.578 138.101C263.914 138.101 264.206 138.173 264.453 138.318C264.7 138.463 264.885 138.645 265.006 138.864V138.164H265.65V142H265.006V141.286C264.88 141.51 264.691 141.697 264.439 141.846C264.192 141.991 263.902 142.063 263.571 142.063C263.23 142.063 262.922 141.979 262.647 141.811C262.372 141.643 262.155 141.407 261.996 141.104C261.837 140.801 261.758 140.455 261.758 140.068ZM265.006 140.075C265.006 139.786 264.948 139.534 264.831 139.319C264.714 139.104 264.556 138.941 264.355 138.829C264.159 138.712 263.942 138.654 263.704 138.654C263.466 138.654 263.249 138.71 263.053 138.822C262.857 138.934 262.701 139.097 262.584 139.312C262.467 139.527 262.409 139.779 262.409 140.068C262.409 140.362 262.467 140.619 262.584 140.838C262.701 141.053 262.857 141.218 263.053 141.335C263.249 141.447 263.466 141.503 263.704 141.503C263.942 141.503 264.159 141.447 264.355 141.335C264.556 141.218 264.714 141.053 264.831 140.838C264.948 140.619 265.006 140.364 265.006 140.075ZM268.085 142.063C267.791 142.063 267.527 142.014 267.294 141.916C267.06 141.813 266.876 141.673 266.741 141.496C266.605 141.314 266.531 141.106 266.517 140.873H267.175C267.193 141.064 267.282 141.221 267.441 141.342C267.604 141.463 267.816 141.524 268.078 141.524C268.32 141.524 268.512 141.47 268.652 141.363C268.792 141.256 268.862 141.12 268.862 140.957C268.862 140.789 268.787 140.665 268.638 140.586C268.488 140.502 268.257 140.42 267.945 140.341C267.66 140.266 267.427 140.192 267.245 140.117C267.067 140.038 266.913 139.923 266.783 139.774C266.657 139.62 266.594 139.419 266.594 139.172C266.594 138.976 266.652 138.796 266.769 138.633C266.885 138.47 267.051 138.341 267.266 138.248C267.48 138.15 267.725 138.101 268.001 138.101C268.425 138.101 268.768 138.208 269.03 138.423C269.291 138.638 269.431 138.932 269.45 139.305H268.813C268.799 139.104 268.717 138.943 268.568 138.822C268.423 138.701 268.227 138.64 267.98 138.64C267.751 138.64 267.569 138.689 267.434 138.787C267.298 138.885 267.231 139.013 267.231 139.172C267.231 139.298 267.27 139.403 267.35 139.487C267.434 139.566 267.536 139.632 267.658 139.683C267.784 139.73 267.956 139.783 268.176 139.844C268.451 139.919 268.675 139.993 268.848 140.068C269.02 140.138 269.167 140.245 269.289 140.39C269.415 140.535 269.48 140.724 269.485 140.957C269.485 141.167 269.426 141.356 269.31 141.524C269.193 141.692 269.027 141.825 268.813 141.923C268.603 142.016 268.36 142.063 268.085 142.063Z" fill="black"/>
<path d="M1.60699 87.625V86.897H3.06299V92H2.25799V87.625H1.60699ZM4.15926 89.382C4.15926 88.5747 4.29459 87.9447 4.56526 87.492C4.84059 87.0347 5.31192 86.806 5.97926 86.806C6.64659 86.806 7.11559 87.0347 7.38626 87.492C7.66159 87.9447 7.79926 88.5747 7.79926 89.382C7.79926 90.1987 7.66159 90.838 7.38626 91.3C7.11559 91.7573 6.64659 91.986 5.97926 91.986C5.31192 91.986 4.84059 91.7573 4.56526 91.3C4.29459 90.838 4.15926 90.1987 4.15926 89.382ZM7.01526 89.382C7.01526 89.004 6.98959 88.6843 6.93826 88.423C6.89159 88.1617 6.79359 87.9493 6.64426 87.786C6.49492 87.618 6.27326 87.534 5.97926 87.534C5.68526 87.534 5.46359 87.618 5.31426 87.786C5.16492 87.9493 5.06459 88.1617 5.01326 88.423C4.96659 88.6843 4.94326 89.004 4.94326 89.382C4.94326 89.774 4.96659 90.103 5.01326 90.369C5.05992 90.635 5.15792 90.8497 5.30726 91.013C5.46126 91.1763 5.68526 91.258 5.97926 91.258C6.27326 91.258 6.49492 91.1763 6.64426 91.013C6.79826 90.8497 6.89859 90.635 6.94526 90.369C6.99192 90.103 7.01526 89.774 7.01526 89.382ZM8.64363 89.382C8.64363 88.5747 8.77897 87.9447 9.04963 87.492C9.32497 87.0347 9.7963 86.806 10.4636 86.806C11.131 86.806 11.6 87.0347 11.8706 87.492C12.146 87.9447 12.2836 88.5747 12.2836 89.382C12.2836 90.1987 12.146 90.838 11.8706 91.3C11.6 91.7573 11.131 91.986 10.4636 91.986C9.7963 91.986 9.32497 91.7573 9.04963 91.3C8.77897 90.838 8.64363 90.1987 8.64363 89.382ZM11.4996 89.382C11.4996 89.004 11.474 88.6843 11.4226 88.423C11.376 88.1617 11.278 87.9493 11.1286 87.786C10.9793 87.618 10.7576 87.534 10.4636 87.534C10.1696 87.534 9.94797 87.618 9.79863 87.786C9.6493 87.9493 9.54897 88.1617 9.49763 88.423C9.45097 88.6843 9.42763 89.004 9.42763 89.382C9.42763 89.774 9.45097 90.103 9.49763 90.369C9.5443 90.635 9.6423 90.8497 9.79163 91.013C9.94563 91.1763 10.1696 91.258 10.4636 91.258C10.7576 91.258 10.9793 91.1763 11.1286 91.013C11.2826 90.8497 11.383 90.635 11.4296 90.369C11.4763 90.103 11.4996 89.774 11.4996 89.382Z" fill="black"/>
<path d="M1.35661 66.915C1.80461 66.5277 2.15694 66.2103 2.41361 65.963C2.67494 65.711 2.89194 65.4497 3.06461 65.179C3.23727 64.9083 3.32361 64.6377 3.32361 64.367C3.32361 64.087 3.25594 63.8677 3.12061 63.709C2.98994 63.5503 2.78227 63.471 2.49761 63.471C2.22227 63.471 2.00761 63.5597 1.85361 63.737C1.70427 63.9097 1.62494 64.143 1.61561 64.437H0.845605C0.859605 63.905 1.01827 63.499 1.32161 63.219C1.62961 62.9343 2.01927 62.792 2.49061 62.792C2.99927 62.792 3.39594 62.932 3.68061 63.212C3.96994 63.492 4.11461 63.8653 4.11461 64.332C4.11461 64.668 4.02827 64.9923 3.85561 65.305C3.68761 65.613 3.48461 65.8907 3.24661 66.138C3.01327 66.3807 2.71461 66.663 2.35061 66.985L2.03561 67.265H4.25461V67.93H0.852605V67.349L1.35661 66.915ZM4.95564 65.382C4.95564 64.5747 5.09098 63.9447 5.36164 63.492C5.63698 63.0347 6.10831 62.806 6.77564 62.806C7.44298 62.806 7.91198 63.0347 8.18264 63.492C8.45798 63.9447 8.59564 64.5747 8.59564 65.382C8.59564 66.1987 8.45798 66.838 8.18264 67.3C7.91198 67.7573 7.44298 67.986 6.77564 67.986C6.10831 67.986 5.63698 67.7573 5.36164 67.3C5.09098 66.838 4.95564 66.1987 4.95564 65.382ZM7.81164 65.382C7.81164 65.004 7.78598 64.6843 7.73464 64.423C7.68798 64.1617 7.58998 63.9493 7.44064 63.786C7.29131 63.618 7.06964 63.534 6.77564 63.534C6.48164 63.534 6.25998 63.618 6.11064 63.786C5.96131 63.9493 5.86098 64.1617 5.80964 64.423C5.76298 64.6843 5.73964 65.004 5.73964 65.382C5.73964 65.774 5.76298 66.103 5.80964 66.369C5.85631 66.635 5.95431 66.8497 6.10364 67.013C6.25764 67.1763 6.48164 67.258 6.77564 67.258C7.06964 67.258 7.29131 67.1763 7.44064 67.013C7.59464 66.8497 7.69498 66.635 7.74164 66.369C7.78831 66.103 7.81164 65.774 7.81164 65.382ZM9.44002 65.382C9.44002 64.5747 9.57535 63.9447 9.84602 63.492C10.1214 63.0347 10.5927 62.806 11.26 62.806C11.9274 62.806 12.3964 63.0347 12.667 63.492C12.9424 63.9447 13.08 64.5747 13.08 65.382C13.08 66.1987 12.9424 66.838 12.667 67.3C12.3964 67.7573 11.9274 67.986 11.26 67.986C10.5927 67.986 10.1214 67.7573 9.84602 67.3C9.57535 66.838 9.44002 66.1987 9.44002 65.382ZM12.296 65.382C12.296 65.004 12.2704 64.6843 12.219 64.423C12.1724 64.1617 12.0744 63.9493 11.925 63.786C11.7757 63.618 11.554 63.534 11.26 63.534C10.966 63.534 10.7444 63.618 10.595 63.786C10.4457 63.9493 10.3454 64.1617 10.294 64.423C10.2474 64.6843 10.224 65.004 10.224 65.382C10.224 65.774 10.2474 66.103 10.294 66.369C10.3407 66.635 10.4387 66.8497 10.588 67.013C10.742 67.1763 10.966 67.258 11.26 67.258C11.554 67.258 11.7757 67.1763 11.925 67.013C12.079 66.8497 12.1794 66.635 12.226 66.369C12.2727 66.103 12.296 65.774 12.296 65.382Z" fill="black"/>
<path d="M0.8435 40.157C0.8715 39.723 1.03717 39.3847 1.3405 39.142C1.6485 38.8993 2.0405 38.778 2.5165 38.778C2.84317 38.778 3.1255 38.8363 3.3635 38.953C3.6015 39.0697 3.78117 39.2283 3.9025 39.429C4.02383 39.6297 4.0845 39.856 4.0845 40.108C4.0845 40.3973 4.0075 40.6447 3.8535 40.85C3.6995 41.0553 3.51517 41.193 3.3005 41.263V41.291C3.57583 41.375 3.7905 41.529 3.9445 41.753C4.0985 41.9723 4.1755 42.2547 4.1755 42.6C4.1755 42.8753 4.1125 43.1203 3.9865 43.335C3.8605 43.5497 3.67383 43.72 3.4265 43.846C3.17917 43.9673 2.88283 44.028 2.5375 44.028C2.0335 44.028 1.61817 43.8997 1.2915 43.643C0.9695 43.3817 0.796833 43.0083 0.7735 42.523H1.5435C1.56217 42.7703 1.65783 42.9733 1.8305 43.132C2.00317 43.286 2.2365 43.363 2.5305 43.363C2.81517 43.363 3.0345 43.286 3.1885 43.132C3.3425 42.9733 3.4195 42.7703 3.4195 42.523C3.4195 42.1963 3.3145 41.9653 3.1045 41.83C2.89917 41.69 2.58183 41.62 2.1525 41.62H1.9705V40.962H2.1595C2.5375 40.9573 2.8245 40.8943 3.0205 40.773C3.22117 40.6517 3.3215 40.4603 3.3215 40.199C3.3215 39.975 3.24917 39.7977 3.1045 39.667C2.95983 39.5317 2.7545 39.464 2.4885 39.464C2.22717 39.464 2.02417 39.5317 1.8795 39.667C1.73483 39.7977 1.6485 39.961 1.6205 40.157H0.8435ZM5.01375 41.382C5.01375 40.5747 5.14908 39.9447 5.41975 39.492C5.69508 39.0347 6.16642 38.806 6.83375 38.806C7.50108 38.806 7.97008 39.0347 8.24075 39.492C8.51608 39.9447 8.65375 40.5747 8.65375 41.382C8.65375 42.1987 8.51608 42.838 8.24075 43.3C7.97008 43.7573 7.50108 43.986 6.83375 43.986C6.16642 43.986 5.69508 43.7573 5.41975 43.3C5.14908 42.838 5.01375 42.1987 5.01375 41.382ZM7.86975 41.382C7.86975 41.004 7.84408 40.6843 7.79275 40.423C7.74608 40.1617 7.64808 39.9493 7.49875 39.786C7.34942 39.618 7.12775 39.534 6.83375 39.534C6.53975 39.534 6.31808 39.618 6.16875 39.786C6.01942 39.9493 5.91908 40.1617 5.86775 40.423C5.82108 40.6843 5.79775 41.004 5.79775 41.382C5.79775 41.774 5.82108 42.103 5.86775 42.369C5.91442 42.635 6.01242 42.8497 6.16175 43.013C6.31575 43.1763 6.53975 43.258 6.83375 43.258C7.12775 43.258 7.34942 43.1763 7.49875 43.013C7.65275 42.8497 7.75308 42.635 7.79975 42.369C7.84642 42.103 7.86975 41.774 7.86975 41.382ZM9.49813 41.382C9.49813 40.5747 9.63346 39.9447 9.90413 39.492C10.1795 39.0347 10.6508 38.806 11.3181 38.806C11.9855 38.806 12.4545 39.0347 12.7251 39.492C13.0005 39.9447 13.1381 40.5747 13.1381 41.382C13.1381 42.1987 13.0005 42.838 12.7251 43.3C12.4545 43.7573 11.9855 43.986 11.3181 43.986C10.6508 43.986 10.1795 43.7573 9.90413 43.3C9.63346 42.838 9.49813 42.1987 9.49813 41.382ZM12.3541 41.382C12.3541 41.004 12.3285 40.6843 12.2771 40.423C12.2305 40.1617 12.1325 39.9493 11.9831 39.786C11.8338 39.618 11.6121 39.534 11.3181 39.534C11.0241 39.534 10.8025 39.618 10.6531 39.786C10.5038 39.9493 10.4035 40.1617 10.3521 40.423C10.3055 40.6843 10.2821 41.004 10.2821 41.382C10.2821 41.774 10.3055 42.103 10.3521 42.369C10.3988 42.635 10.4968 42.8497 10.6461 43.013C10.8001 43.1763 11.0241 43.258 11.3181 43.258C11.6121 43.258 11.8338 43.1763 11.9831 43.013C12.1371 42.8497 12.2375 42.635 12.2841 42.369C12.3308 42.103 12.3541 41.774 12.3541 41.382Z" fill="black"/>
<path d="M0.571512 19.936V19.334L2.92351 15.96H3.88951V19.243H4.54051V19.936H3.88951V21H3.10551V19.936H0.571512ZM3.14051 16.772L1.48851 19.243H3.14051V16.772ZM5.20174 18.382C5.20174 17.5747 5.33707 16.9447 5.60774 16.492C5.88307 16.0347 6.35441 15.806 7.02174 15.806C7.68907 15.806 8.15807 16.0347 8.42874 16.492C8.70407 16.9447 8.84174 17.5747 8.84174 18.382C8.84174 19.1987 8.70407 19.838 8.42874 20.3C8.15807 20.7573 7.68907 20.986 7.02174 20.986C6.35441 20.986 5.88307 20.7573 5.60774 20.3C5.33707 19.838 5.20174 19.1987 5.20174 18.382ZM8.05774 18.382C8.05774 18.004 8.03207 17.6843 7.98074 17.423C7.93407 17.1617 7.83607 16.9493 7.68674 16.786C7.53741 16.618 7.31574 16.534 7.02174 16.534C6.72774 16.534 6.50607 16.618 6.35674 16.786C6.2074 16.9493 6.10707 17.1617 6.05574 17.423C6.00907 17.6843 5.98574 18.004 5.98574 18.382C5.98574 18.774 6.00907 19.103 6.05574 19.369C6.1024 19.635 6.2004 19.8497 6.34974 20.013C6.50374 20.1763 6.72774 20.258 7.02174 20.258C7.31574 20.258 7.53741 20.1763 7.68674 20.013C7.84074 19.8497 7.94107 19.635 7.98774 19.369C8.03441 19.103 8.05774 18.774 8.05774 18.382ZM9.68611 18.382C9.68611 17.5747 9.82145 16.9447 10.0921 16.492C10.3674 16.0347 10.8388 15.806 11.5061 15.806C12.1734 15.806 12.6424 16.0347 12.9131 16.492C13.1884 16.9447 13.3261 17.5747 13.3261 18.382C13.3261 19.1987 13.1884 19.838 12.9131 20.3C12.6424 20.7573 12.1734 20.986 11.5061 20.986C10.8388 20.986 10.3674 20.7573 10.0921 20.3C9.82145 19.838 9.68611 19.1987 9.68611 18.382ZM12.5421 18.382C12.5421 18.004 12.5164 17.6843 12.4651 17.423C12.4184 17.1617 12.3204 16.9493 12.1711 16.786C12.0218 16.618 11.8001 16.534 11.5061 16.534C11.2121 16.534 10.9904 16.618 10.8411 16.786C10.6918 16.9493 10.5914 17.1617 10.5401 17.423C10.4934 17.6843 10.4701 18.004 10.4701 18.382C10.4701 18.774 10.4934 19.103 10.5401 19.369C10.5868 19.635 10.6848 19.8497 10.8341 20.013C10.9881 20.1763 11.2121 20.258 11.5061 20.258C11.8001 20.258 12.0218 20.1763 12.1711 20.013C12.3251 19.8497 12.4254 19.635 12.4721 19.369C12.5188 19.103 12.5421 18.774 12.5421 18.382Z" fill="black"/>
<path d="M51.7858 110.636C52.6978 110.636 53.4858 110.808 54.1498 111.152C54.8218 111.488 55.3338 111.972 55.6858 112.604C56.0458 113.236 56.2258 113.98 56.2258 114.836C56.2258 115.692 56.0458 116.436 55.6858 117.068C55.3338 117.692 54.8218 118.172 54.1498 118.508C53.4858 118.836 52.6978 119 51.7858 119H49.1818V110.636H51.7858ZM51.7858 118.1C52.8658 118.1 53.6898 117.816 54.2578 117.248C54.8258 116.672 55.1098 115.868 55.1098 114.836C55.1098 113.796 54.8218 112.984 54.2458 112.4C53.6778 111.816 52.8578 111.524 51.7858 111.524H50.2738V118.1H51.7858Z" fill="black"/>
<path d="M85.0545 119.084C84.5025 119.084 84.0065 118.988 83.5665 118.796C83.1345 118.596 82.7945 118.324 82.5465 117.98C82.2985 117.628 82.1705 117.224 82.1625 116.768H83.3265C83.3665 117.16 83.5265 117.492 83.8065 117.764C84.0945 118.028 84.5105 118.16 85.0545 118.16C85.5745 118.16 85.9825 118.032 86.2785 117.776C86.5825 117.512 86.7345 117.176 86.7345 116.768C86.7345 116.448 86.6465 116.188 86.4705 115.988C86.2945 115.788 86.0745 115.636 85.8105 115.532C85.5465 115.428 85.1905 115.316 84.7425 115.196C84.1905 115.052 83.7465 114.908 83.4105 114.764C83.0825 114.62 82.7985 114.396 82.5585 114.092C82.3265 113.78 82.2105 113.364 82.2105 112.844C82.2105 112.388 82.3265 111.984 82.5585 111.632C82.7905 111.28 83.1145 111.008 83.5305 110.816C83.9545 110.624 84.4385 110.528 84.9825 110.528C85.7665 110.528 86.4065 110.724 86.9025 111.116C87.4065 111.508 87.6905 112.028 87.7545 112.676H86.5545C86.5145 112.356 86.3465 112.076 86.0505 111.836C85.7545 111.588 85.3625 111.464 84.8745 111.464C84.4185 111.464 84.0465 111.584 83.7585 111.824C83.4705 112.056 83.3265 112.384 83.3265 112.808C83.3265 113.112 83.4105 113.36 83.5785 113.552C83.7545 113.744 83.9665 113.892 84.2145 113.996C84.4705 114.092 84.8265 114.204 85.2825 114.332C85.8345 114.484 86.2785 114.636 86.6145 114.788C86.9505 114.932 87.2385 115.16 87.4785 115.472C87.7185 115.776 87.8385 116.192 87.8385 116.72C87.8385 117.128 87.7305 117.512 87.5145 117.872C87.2985 118.232 86.9785 118.524 86.5545 118.748C86.1305 118.972 85.6305 119.084 85.0545 119.084Z" fill="black"/>
<path d="M124.326 110.636V111.524H122.046V119H120.954V111.524H118.662V110.636H124.326Z" fill="black"/>
<path d="M158.903 120.584L157.235 118.916C156.827 119.028 156.411 119.084 155.987 119.084C155.211 119.084 154.503 118.904 153.863 118.544C153.223 118.176 152.715 117.668 152.339 117.02C151.971 116.364 151.787 115.628 151.787 114.812C151.787 113.996 151.971 113.264 152.339 112.616C152.715 111.96 153.223 111.452 153.863 111.092C154.503 110.724 155.211 110.54 155.987 110.54C156.771 110.54 157.483 110.724 158.123 111.092C158.763 111.452 159.267 111.956 159.635 112.604C160.003 113.252 160.187 113.988 160.187 114.812C160.187 115.612 160.011 116.332 159.659 116.972C159.307 117.612 158.823 118.116 158.207 118.484L160.319 120.584H158.903ZM152.903 114.812C152.903 115.476 153.035 116.06 153.299 116.564C153.571 117.068 153.939 117.456 154.403 117.728C154.875 118 155.403 118.136 155.987 118.136C156.571 118.136 157.095 118 157.559 117.728C158.031 117.456 158.399 117.068 158.663 116.564C158.935 116.06 159.071 115.476 159.071 114.812C159.071 114.14 158.935 113.556 158.663 113.06C158.399 112.556 158.035 112.168 157.571 111.896C157.107 111.624 156.579 111.488 155.987 111.488C155.395 111.488 154.867 111.624 154.403 111.896C153.939 112.168 153.571 112.556 153.299 113.06C153.035 113.556 152.903 114.14 152.903 114.812Z" fill="black"/>
<path d="M194.903 120.584L193.235 118.916C192.827 119.028 192.411 119.084 191.987 119.084C191.211 119.084 190.503 118.904 189.863 118.544C189.223 118.176 188.715 117.668 188.339 117.02C187.971 116.364 187.787 115.628 187.787 114.812C187.787 113.996 187.971 113.264 188.339 112.616C188.715 111.96 189.223 111.452 189.863 111.092C190.503 110.724 191.211 110.54 191.987 110.54C192.771 110.54 193.483 110.724 194.123 111.092C194.763 111.452 195.267 111.956 195.635 112.604C196.003 113.252 196.187 113.988 196.187 114.812C196.187 115.612 196.011 116.332 195.659 116.972C195.307 117.612 194.823 118.116 194.207 118.484L196.319 120.584H194.903ZM188.903 114.812C188.903 115.476 189.035 116.06 189.299 116.564C189.571 117.068 189.939 117.456 190.403 117.728C190.875 118 191.403 118.136 191.987 118.136C192.571 118.136 193.095 118 193.559 117.728C194.031 117.456 194.399 117.068 194.663 116.564C194.935 116.06 195.071 115.476 195.071 114.812C195.071 114.14 194.935 113.556 194.663 113.06C194.399 112.556 194.035 112.168 193.571 111.896C193.107 111.624 192.579 111.488 191.987 111.488C191.395 111.488 190.867 111.624 190.403 111.896C189.939 112.168 189.571 112.556 189.299 113.06C189.035 113.556 188.903 114.14 188.903 114.812Z" fill="black"/>
<path d="M227.055 119.084C226.503 119.084 226.007 118.988 225.567 118.796C225.135 118.596 224.795 118.324 224.547 117.98C224.299 117.628 224.171 117.224 224.163 116.768H225.327C225.367 117.16 225.527 117.492 225.807 117.764C226.095 118.028 226.511 118.16 227.055 118.16C227.575 118.16 227.983 118.032 228.279 117.776C228.583 117.512 228.735 117.176 228.735 116.768C228.735 116.448 228.647 116.188 228.471 115.988C228.295 115.788 228.075 115.636 227.811 115.532C227.547 115.428 227.191 115.316 226.743 115.196C226.191 115.052 225.747 114.908 225.411 114.764C225.083 114.62 224.799 114.396 224.559 114.092C224.327 113.78 224.211 113.364 224.211 112.844C224.211 112.388 224.327 111.984 224.559 111.632C224.791 111.28 225.115 111.008 225.531 110.816C225.955 110.624 226.439 110.528 226.983 110.528C227.767 110.528 228.407 110.724 228.903 111.116C229.407 111.508 229.691 112.028 229.755 112.676H228.555C228.515 112.356 228.347 112.076 228.051 111.836C227.755 111.588 227.363 111.464 226.875 111.464C226.419 111.464 226.047 111.584 225.759 111.824C225.471 112.056 225.327 112.384 225.327 112.808C225.327 113.112 225.411 113.36 225.579 113.552C225.755 113.744 225.967 113.892 226.215 113.996C226.471 114.092 226.827 114.204 227.283 114.332C227.835 114.484 228.279 114.636 228.615 114.788C228.951 114.932 229.239 115.16 229.479 115.472C229.719 115.776 229.839 116.192 229.839 116.72C229.839 117.128 229.731 117.512 229.515 117.872C229.299 118.232 228.979 118.524 228.555 118.748C228.131 118.972 227.631 119.084 227.055 119.084Z" fill="black"/>
<path d="M262.055 119.084C261.503 119.084 261.007 118.988 260.567 118.796C260.135 118.596 259.795 118.324 259.547 117.98C259.299 117.628 259.171 117.224 259.163 116.768H260.327C260.367 117.16 260.527 117.492 260.807 117.764C261.095 118.028 261.511 118.16 262.055 118.16C262.575 118.16 262.983 118.032 263.279 117.776C263.583 117.512 263.735 117.176 263.735 116.768C263.735 116.448 263.647 116.188 263.471 115.988C263.295 115.788 263.075 115.636 262.811 115.532C262.547 115.428 262.191 115.316 261.743 115.196C261.191 115.052 260.747 114.908 260.411 114.764C260.083 114.62 259.799 114.396 259.559 114.092C259.327 113.78 259.211 113.364 259.211 112.844C259.211 112.388 259.327 111.984 259.559 111.632C259.791 111.28 260.115 111.008 260.531 110.816C260.955 110.624 261.439 110.528 261.983 110.528C262.767 110.528 263.407 110.724 263.903 111.116C264.407 111.508 264.691 112.028 264.755 112.676H263.555C263.515 112.356 263.347 112.076 263.051 111.836C262.755 111.588 262.363 111.464 261.875 111.464C261.419 111.464 261.047 111.584 260.759 111.824C260.471 112.056 260.327 112.384 260.327 112.808C260.327 113.112 260.411 113.36 260.579 113.552C260.755 113.744 260.967 113.892 261.215 113.996C261.471 114.092 261.827 114.204 262.283 114.332C262.835 114.484 263.279 114.636 263.615 114.788C263.951 114.932 264.239 115.16 264.479 115.472C264.719 115.776 264.839 116.192 264.839 116.72C264.839 117.128 264.731 117.512 264.515 117.872C264.299 118.232 263.979 118.524 263.555 118.748C263.131 118.972 262.631 119.084 262.055 119.084Z" fill="black"/>
<rect x="40" width="12" height="99" fill="#51C13F"/>
<rect x="52" y="29" width="12" height="70" fill="#FF001B"/>
<rect x="86" y="10" width="12" height="89" fill="#FF001B"/>
<rect x="121" y="24" width="12" height="75" fill="#FF001B"/>
<rect x="157" y="46" width="12" height="53" fill="#FF001B"/>
<rect x="192" y="35" width="12" height="64" fill="#FF001B"/>
<rect x="227" y="24" width="12" height="75" fill="#FF001B"/>
<rect x="262" y="24" width="12" height="75" fill="#FF001B"/>
<rect x="74" y="24" width="12" height="75" fill="#51C13F"/>
<rect x="109" y="16" width="12" height="83" fill="#51C13F"/>
<rect x="145" y="10" width="12" height="89" fill="#51C13F"/>
<rect x="41" y="137" width="18" height="5" fill="#51C13F"/>
<rect x="170" y="137" width="18" height="5" fill="#FF001B"/>
<rect x="180" y="24" width="12" height="75" fill="#51C13F"/>
<rect x="215" y="10" width="12" height="89" fill="#51C13F"/>
<rect x="250" width="12" height="99" fill="#51C13F"/>
<line x1="21" y1="98" x2="290" y2="98" stroke="black" stroke-width="2"/>
<line x1="17" y1="89.5" x2="27" y2="89.5" stroke="black"/>
<line x1="17" y1="65.5" x2="27" y2="65.5" stroke="black"/>
<line x1="17" y1="41.5" x2="27" y2="41.5" stroke="black"/>
<line x1="17" y1="18.5" x2="27" y2="18.5" stroke="black"/>
<line x1="22" y1="-4.37114e-08" x2="22" y2="99" stroke="black" stroke-width="2"/>
</svg>