<svg width="287" height="159" viewBox="0 0 287 159" fill="none" xmlns="http://www.w3.org/2000/svg">
<path d="M3.1764 3.45455V10H2.18564V4.44531H2.14728L0.581232 5.46804V4.52202L2.2144 3.45455H3.1764ZM7.22576 10.1087C6.72079 10.1065 6.28933 9.97337 5.93137 9.70916C5.57342 9.44496 5.29963 9.06037 5.11 8.5554C4.92037 8.05043 4.82555 7.44212 4.82555 6.73047C4.82555 6.02095 4.92037 5.41477 5.11 4.91193C5.30176 4.40909 5.57662 4.02557 5.93457 3.76136C6.29466 3.49716 6.72505 3.36506 7.22576 3.36506C7.72647 3.36506 8.15581 3.49822 8.51376 3.76456C8.87172 4.02876 9.14551 4.41229 9.33514 4.91513C9.5269 5.41584 9.62278 6.02095 9.62278 6.73047C9.62278 7.44425 9.52797 8.05362 9.33833 8.55859C9.1487 9.06143 8.87491 9.44602 8.51696 9.71236C8.159 9.97656 7.7286 10.1087 7.22576 10.1087ZM7.22576 9.25533C7.66895 9.25533 8.01518 9.03906 8.26447 8.60653C8.51589 8.17401 8.6416 7.54865 8.6416 6.73047C8.6416 6.18714 8.58407 5.72798 8.46902 5.35298C8.35609 4.97585 8.19309 4.69034 7.98003 4.49645C7.76909 4.30043 7.51767 4.20241 7.22576 4.20241C6.78471 4.20241 6.43848 4.41974 6.18706 4.8544C5.93564 5.28906 5.80886 5.91442 5.80673 6.73047C5.80673 7.27592 5.86319 7.73722 5.97612 8.11435C6.09118 8.48935 6.25417 8.77379 6.46511 8.96768C6.67605 9.15945 6.9296 9.25533 7.22576 9.25533ZM13.0353 10.1087C12.5304 10.1065 12.0989 9.97337 11.7409 9.70916C11.383 9.44496 11.1092 9.06037 10.9196 8.5554C10.7299 8.05043 10.6351 7.44212 10.6351 6.73047C10.6351 6.02095 10.7299 5.41477 10.9196 4.91193C11.1113 4.40909 11.3862 4.02557 11.7441 3.76136C12.1042 3.49716 12.5346 3.36506 13.0353 3.36506C13.536 3.36506 13.9654 3.49822 14.3233 3.76456C14.6813 4.02876 14.9551 4.41229 15.1447 4.91513C15.3365 5.41584 15.4324 6.02095 15.4324 6.73047C15.4324 7.44425 15.3375 8.05362 15.1479 8.55859C14.9583 9.06143 14.6845 9.44602 14.3265 9.71236C13.9686 9.97656 13.5382 10.1087 13.0353 10.1087ZM13.0353 9.25533C13.4785 9.25533 13.8248 9.03906 14.074 8.60653C14.3255 8.17401 14.4512 7.54865 14.4512 6.73047C14.4512 6.18714 14.3936 5.72798 14.2786 5.35298C14.1657 4.97585 14.0027 4.69034 13.7896 4.49645C13.5787 4.30043 13.3272 4.20241 13.0353 4.20241C12.5943 4.20241 12.248 4.41974 11.9966 4.8544C11.7452 5.28906 11.6184 5.91442 11.6163 6.73047C11.6163 7.27592 11.6728 7.73722 11.7857 8.11435C11.9007 8.48935 12.0637 8.77379 12.2747 8.96768C12.4856 9.15945 12.7392 9.25533 13.0353 9.25533ZM5.04048 16.3651C5.33239 16.3672 5.62003 16.4205 5.90341 16.5249C6.18679 16.6293 6.44247 16.7997 6.67045 17.0362C6.90057 17.2727 7.08381 17.5923 7.22017 17.995C7.35867 18.3956 7.42898 18.8942 7.43111 19.4908C7.43111 20.0639 7.37358 20.5742 7.25852 21.0217C7.14347 21.467 6.97834 21.843 6.76314 22.1499C6.55007 22.4567 6.29119 22.69 5.98651 22.8498C5.68182 23.0096 5.33878 23.0895 4.95739 23.0895C4.56747 23.0895 4.22124 23.0128 3.91868 22.8594C3.61612 22.706 3.37003 22.494 3.1804 22.2234C2.99077 21.9506 2.87251 21.6374 2.82564 21.2837H3.80043C3.86435 21.565 3.99432 21.793 4.19034 21.9677C4.38849 22.1403 4.64418 22.2266 4.95739 22.2266C5.43679 22.2266 5.81072 22.0178 6.07919 21.6001C6.34766 21.1804 6.48295 20.5945 6.48509 19.8423H6.43395C6.32315 20.0256 6.18466 20.1832 6.01847 20.3153C5.8544 20.4474 5.6701 20.5497 5.46555 20.6222C5.26101 20.6946 5.04261 20.7308 4.81037 20.7308C4.43324 20.7308 4.0902 20.6381 3.78125 20.4528C3.4723 20.2674 3.22621 20.0128 3.04297 19.6889C2.85973 19.3651 2.76811 18.9954 2.76811 18.5799C2.76811 18.1665 2.86186 17.7915 3.04936 17.4549C3.23899 17.1183 3.5032 16.8519 3.84197 16.6559C4.18288 16.4577 4.58239 16.3608 5.04048 16.3651ZM5.04368 17.196C4.79439 17.196 4.5696 17.2578 4.36932 17.3814C4.17116 17.5028 4.01456 17.668 3.8995 17.8768C3.78445 18.0835 3.72692 18.3136 3.72692 18.5671C3.72692 18.8207 3.78232 19.0508 3.89311 19.2575C4.00604 19.462 4.15945 19.625 4.35334 19.7464C4.54936 19.8658 4.77308 19.9254 5.0245 19.9254C5.212 19.9254 5.38672 19.8892 5.54865 19.8168C5.71058 19.7443 5.85227 19.6442 5.97372 19.5163C6.09517 19.3864 6.18999 19.2393 6.25817 19.0753C6.32635 18.9112 6.36044 18.7386 6.36044 18.5575C6.36044 18.3168 6.30291 18.093 6.18786 17.8864C6.07493 17.6797 5.91939 17.5135 5.72124 17.3878C5.52308 17.2599 5.29723 17.196 5.04368 17.196ZM10.8644 23.1087C10.3595 23.1065 9.928 22.9734 9.57005 22.7092C9.21209 22.445 8.9383 22.0604 8.74867 21.5554C8.55904 21.0504 8.46422 20.4421 8.46422 19.7305C8.46422 19.021 8.55904 18.4148 8.74867 17.9119C8.94043 17.4091 9.21529 17.0256 9.57324 16.7614C9.93333 16.4972 10.3637 16.3651 10.8644 16.3651C11.3651 16.3651 11.7945 16.4982 12.1524 16.7646C12.5104 17.0288 12.7842 17.4123 12.9738 17.9151C13.1656 18.4158 13.2615 19.021 13.2615 19.7305C13.2615 20.4442 13.1666 21.0536 12.977 21.5586C12.7874 22.0614 12.5136 22.446 12.1556 22.7124C11.7977 22.9766 11.3673 23.1087 10.8644 23.1087ZM10.8644 22.2553C11.3076 22.2553 11.6539 22.0391 11.9031 21.6065C12.1546 21.174 12.2803 20.5487 12.2803 19.7305C12.2803 19.1871 12.2227 18.728 12.1077 18.353C11.9948 17.9759 11.8318 17.6903 11.6187 17.4964C11.4078 17.3004 11.1563 17.2024 10.8644 17.2024C10.4234 17.2024 10.0771 17.4197 9.82573 17.8544C9.57431 18.2891 9.44753 18.9144 9.4454 19.7305C9.4454 20.2759 9.50186 20.7372 9.61479 21.1143C9.72985 21.4893 9.89284 21.7738 10.1038 21.9677C10.3147 22.1594 10.5683 22.2553 10.8644 22.2553ZM5.09322 36.0895C4.63512 36.0895 4.23029 36.0107 3.87873 35.853C3.5293 35.6953 3.2555 35.478 3.05735 35.201C2.8592 34.924 2.76119 34.6087 2.76332 34.255C2.76119 33.978 2.81765 33.7234 2.93271 33.4911C3.04989 33.2567 3.20863 33.0618 3.40891 32.9062C3.6092 32.7486 3.83292 32.6484 4.08008 32.6058V32.5675C3.75408 32.4886 3.49308 32.3139 3.29705 32.0433C3.10103 31.7727 3.00408 31.4616 3.00621 31.1101C3.00408 30.7756 3.09251 30.4773 3.27148 30.2152C3.45259 29.951 3.70082 29.7433 4.01616 29.592C4.3315 29.4407 4.69052 29.3651 5.09322 29.3651C5.49165 29.3651 5.84748 29.4418 6.16069 29.5952C6.47603 29.7464 6.72425 29.9542 6.90536 30.2184C7.08647 30.4805 7.17809 30.7777 7.18022 31.1101C7.17809 31.4616 7.07795 31.7727 6.87979 32.0433C6.68164 32.3139 6.42383 32.4886 6.10636 32.5675V32.6058C6.35139 32.6484 6.57191 32.7486 6.76793 32.9062C6.96609 33.0618 7.12376 33.2567 7.24094 33.4911C7.36026 33.7234 7.42099 33.978 7.42312 34.255C7.42099 34.6087 7.32085 34.924 7.12269 35.201C6.92454 35.478 6.64968 35.6953 6.29812 35.853C5.94869 36.0107 5.54705 36.0895 5.09322 36.0895ZM5.09322 35.2809C5.36381 35.2809 5.59819 35.2362 5.79634 35.1467C5.9945 35.055 6.1479 34.9283 6.25657 34.7663C6.36523 34.6023 6.42063 34.4105 6.42276 34.1911C6.42063 33.9631 6.36097 33.7617 6.24379 33.587C6.12873 33.4123 5.97212 33.2749 5.77397 33.1747C5.57582 33.0746 5.3489 33.0245 5.09322 33.0245C4.8354 33.0245 4.60636 33.0746 4.40607 33.1747C4.20579 33.2749 4.04812 33.4123 3.93306 33.587C3.818 33.7617 3.76154 33.9631 3.76367 34.1911C3.76154 34.4105 3.81374 34.6023 3.92028 34.7663C4.02894 34.9283 4.18342 35.055 4.3837 35.1467C4.58398 35.2362 4.82049 35.2809 5.09322 35.2809ZM5.09322 32.2351C5.31055 32.2351 5.50337 32.1914 5.6717 32.104C5.84002 32.0167 5.97212 31.8952 6.068 31.7397C6.16602 31.5842 6.21609 31.402 6.21822 31.1932C6.21609 30.9886 6.16708 30.8097 6.0712 30.6562C5.97745 30.5028 5.84641 30.3846 5.67809 30.3015C5.50977 30.2163 5.31481 30.1737 5.09322 30.1737C4.86737 30.1737 4.66921 30.2163 4.49876 30.3015C4.33043 30.3846 4.1994 30.5028 4.10565 30.6562C4.0119 30.8097 3.96609 30.9886 3.96822 31.1932C3.96609 31.402 4.01296 31.5842 4.10884 31.7397C4.20472 31.8952 4.33683 32.0167 4.50515 32.104C4.6756 32.1914 4.87163 32.2351 5.09322 32.2351ZM10.8469 36.1087C10.3419 36.1065 9.91042 35.9734 9.55247 35.7092C9.19451 35.445 8.92072 35.0604 8.73109 34.5554C8.54146 34.0504 8.44664 33.4421 8.44664 32.7305C8.44664 32.021 8.54146 31.4148 8.73109 30.9119C8.92285 30.4091 9.19771 30.0256 9.55566 29.7614C9.91575 29.4972 10.3461 29.3651 10.8469 29.3651C11.3476 29.3651 11.7769 29.4982 12.1349 29.7646C12.4928 30.0288 12.7666 30.4123 12.9562 30.9151C13.148 31.4158 13.2439 32.021 13.2439 32.7305C13.2439 33.4442 13.1491 34.0536 12.9594 34.5586C12.7698 35.0614 12.496 35.446 12.1381 35.7124C11.7801 35.9766 11.3497 36.1087 10.8469 36.1087ZM10.8469 35.2553C11.29 35.2553 11.6363 35.0391 11.8856 34.6065C12.137 34.174 12.2627 33.5487 12.2627 32.7305C12.2627 32.1871 12.2052 31.728 12.0901 31.353C11.9772 30.9759 11.8142 30.6903 11.6011 30.4964C11.3902 30.3004 11.1388 30.2024 10.8469 30.2024C10.4058 30.2024 10.0596 30.4197 9.80815 30.8544C9.55673 31.2891 9.42995 31.9144 9.42782 32.7305C9.42782 33.2759 9.48429 33.7372 9.59721 34.1143C9.71227 34.4893 9.87527 34.7738 10.0862 34.9677C10.2971 35.1594 10.5507 35.2553 10.8469 35.2553ZM3.40971 49L6.26696 43.3494V43.3015H2.96227V42.4545H7.28968V43.3303L4.44203 49H3.40971ZM10.5392 49.1087C10.0343 49.1065 9.60281 48.9734 9.24485 48.7092C8.8869 48.445 8.6131 48.0604 8.42347 47.5554C8.23384 47.0504 8.13903 46.4421 8.13903 45.7305C8.13903 45.021 8.23384 44.4148 8.42347 43.9119C8.61523 43.4091 8.89009 43.0256 9.24805 42.7614C9.60813 42.4972 10.0385 42.3651 10.5392 42.3651C11.04 42.3651 11.4693 42.4982 11.8272 42.7646C12.1852 43.0288 12.459 43.4123 12.6486 43.9151C12.8404 44.4158 12.9363 45.021 12.9363 45.7305C12.9363 46.4442 12.8414 47.0536 12.6518 47.5586C12.4622 48.0614 12.1884 48.446 11.8304 48.7124C11.4725 48.9766 11.0421 49.1087 10.5392 49.1087ZM10.5392 48.2553C10.9824 48.2553 11.3287 48.0391 11.5779 47.6065C11.8294 47.174 11.9551 46.5487 11.9551 45.7305C11.9551 45.1871 11.8975 44.728 11.7825 44.353C11.6696 43.9759 11.5066 43.6903 11.2935 43.4964C11.0826 43.3004 10.8311 43.2024 10.5392 43.2024C10.0982 43.2024 9.75195 43.4197 9.50053 43.8544C9.24911 44.2891 9.12234 44.9144 9.12021 45.7305C9.12021 46.2759 9.17667 46.7372 9.2896 47.1143C9.40465 47.4893 9.56765 47.7738 9.77859 47.9677C9.98952 48.1594 10.2431 48.2553 10.5392 48.2553ZM5.14915 62.0895C4.85724 62.0852 4.5696 62.032 4.28622 61.9297C4.00497 61.8274 3.74929 61.657 3.51918 61.4183C3.28906 61.1797 3.10476 60.859 2.96626 60.4563C2.8299 60.0536 2.76172 59.5508 2.76172 58.9478C2.76172 58.3768 2.81818 57.8697 2.93111 57.4265C3.04616 56.9833 3.21129 56.6094 3.42649 56.3047C3.64169 55.9979 3.90163 55.7646 4.20632 55.6048C4.51101 55.445 4.85298 55.3651 5.23224 55.3651C5.62216 55.3651 5.9684 55.4418 6.27095 55.5952C6.57351 55.7486 6.81854 55.9606 7.00604 56.2312C7.19567 56.5018 7.31605 56.8097 7.36719 57.1548H6.3924C6.32635 56.8821 6.19531 56.6594 5.99929 56.4869C5.80327 56.3143 5.54759 56.228 5.23224 56.228C4.75284 56.228 4.37891 56.4368 4.11044 56.8544C3.84411 57.272 3.70987 57.8526 3.70774 58.5962H3.75568C3.86861 58.4109 4.0071 58.2532 4.17116 58.1232C4.33736 57.9911 4.52273 57.8899 4.72727 57.8196C4.93395 57.7472 5.15128 57.7109 5.37926 57.7109C5.75852 57.7109 6.10156 57.8036 6.40838 57.989C6.71733 58.1722 6.96342 58.4258 7.14666 58.7496C7.3299 59.0735 7.42152 59.4442 7.42152 59.8619C7.42152 60.2795 7.3267 60.6577 7.13707 60.9964C6.94957 61.3352 6.68537 61.6037 6.34446 61.8018C6.00355 61.9979 5.60511 62.0938 5.14915 62.0895ZM5.14595 61.2585C5.39737 61.2585 5.62216 61.1967 5.82031 61.0732C6.01847 60.9496 6.17507 60.7834 6.29013 60.5746C6.40518 60.3658 6.46271 60.1325 6.46271 59.8746C6.46271 59.6232 6.40625 59.3942 6.29332 59.1875C6.18253 58.9808 6.02912 58.8168 5.8331 58.6953C5.6392 58.5739 5.41761 58.5131 5.16832 58.5131C4.97869 58.5131 4.80291 58.5494 4.64098 58.6218C4.48118 58.6942 4.34055 58.7944 4.21911 58.9222C4.09766 59.0501 4.00178 59.1971 3.93146 59.3633C3.86328 59.5273 3.82919 59.701 3.82919 59.8842C3.82919 60.1293 3.88565 60.3562 3.99858 60.565C4.11364 60.7738 4.27024 60.9421 4.46839 61.07C4.66868 61.1957 4.89453 61.2585 5.14595 61.2585ZM10.8644 62.1087C10.3595 62.1065 9.928 61.9734 9.57005 61.7092C9.21209 61.445 8.9383 61.0604 8.74867 60.5554C8.55904 60.0504 8.46422 59.4421 8.46422 58.7305C8.46422 58.021 8.55904 57.4148 8.74867 56.9119C8.94043 56.4091 9.21529 56.0256 9.57324 55.7614C9.93333 55.4972 10.3637 55.3651 10.8644 55.3651C11.3651 55.3651 11.7945 55.4982 12.1524 55.7646C12.5104 56.0288 12.7842 56.4123 12.9738 56.9151C13.1656 57.4158 13.2615 58.021 13.2615 58.7305C13.2615 59.4442 13.1666 60.0536 12.977 60.5586C12.7874 61.0614 12.5136 61.446 12.1556 61.7124C11.7977 61.9766 11.3673 62.1087 10.8644 62.1087ZM10.8644 61.2553C11.3076 61.2553 11.6539 61.0391 11.9031 60.6065C12.1546 60.174 12.2803 59.5487 12.2803 58.7305C12.2803 58.1871 12.2227 57.728 12.1077 57.353C11.9948 56.9759 11.8318 56.6903 11.6187 56.4964C11.4078 56.3004 11.1563 56.2024 10.8644 56.2024C10.4234 56.2024 10.0771 56.4197 9.82573 56.8544C9.57431 57.2891 9.44753 57.9144 9.4454 58.7305C9.4454 59.2759 9.50186 59.7372 9.61479 60.1143C9.72985 60.4893 9.89284 60.7738 10.1038 60.9677C10.3147 61.1594 10.5683 61.2553 10.8644 61.2553ZM5.09482 75.0895C4.69425 75.0895 4.33416 75.0128 4.01456 74.8594C3.69709 74.7038 3.44354 74.4908 3.25391 74.2202C3.06428 73.9496 2.96307 73.6406 2.95028 73.2933H3.90909C3.93253 73.5746 4.05717 73.8058 4.28303 73.9869C4.50888 74.168 4.77947 74.2585 5.09482 74.2585C5.34624 74.2585 5.56889 74.201 5.76278 74.0859C5.95881 73.9688 6.11222 73.8079 6.22301 73.6033C6.33594 73.3988 6.3924 73.1655 6.3924 72.9034C6.3924 72.6371 6.33487 72.3995 6.21982 72.1907C6.10476 71.9819 5.94602 71.8178 5.74361 71.6985C5.54332 71.5792 5.31321 71.5185 5.05327 71.5163C4.85511 71.5163 4.65589 71.5504 4.45561 71.6186C4.25533 71.6868 4.09339 71.7763 3.96982 71.8871L3.06534 71.7528L3.43288 68.4545H7.03161V69.3015H4.25426L4.04652 71.1328H4.08487C4.21271 71.0092 4.3821 70.9059 4.59304 70.8228C4.80611 70.7397 5.03409 70.6982 5.27699 70.6982C5.67543 70.6982 6.03018 70.793 6.34126 70.9826C6.65447 71.1722 6.90057 71.4311 7.07955 71.7592C7.26065 72.0852 7.35014 72.4602 7.34801 72.8842C7.35014 73.3082 7.25426 73.6864 7.06037 74.0188C6.86861 74.3512 6.60227 74.6133 6.26136 74.805C5.92259 74.9947 5.53374 75.0895 5.09482 75.0895ZM10.7941 75.1087C10.2892 75.1065 9.85769 74.9734 9.49973 74.7092C9.14178 74.445 8.86799 74.0604 8.67836 73.5554C8.48873 73.0504 8.39391 72.4421 8.39391 71.7305C8.39391 71.021 8.48873 70.4148 8.67836 69.9119C8.87012 69.4091 9.14498 69.0256 9.50293 68.7614C9.86301 68.4972 10.2934 68.3651 10.7941 68.3651C11.2948 68.3651 11.7242 68.4982 12.0821 68.7646C12.4401 69.0288 12.7139 69.4123 12.9035 69.9151C13.0953 70.4158 13.1911 71.021 13.1911 71.7305C13.1911 72.4442 13.0963 73.0536 12.9067 73.5586C12.7171 74.0614 12.4433 74.446 12.0853 74.7124C11.7274 74.9766 11.297 75.1087 10.7941 75.1087ZM10.7941 74.2553C11.2373 74.2553 11.5835 74.0391 11.8328 73.6065C12.0843 73.174 12.21 72.5487 12.21 71.7305C12.21 71.1871 12.1524 70.728 12.0374 70.353C11.9244 69.9759 11.7615 69.6903 11.5484 69.4964C11.3374 69.3004 11.086 69.2024 10.7941 69.2024C10.3531 69.2024 10.0068 69.4197 9.75542 69.8544C9.504 70.2891 9.37722 70.9144 9.37509 71.7305C9.37509 72.2759 9.43155 72.7372 9.54448 73.1143C9.65953 73.4893 9.82253 73.7738 10.0335 73.9677C10.2444 74.1594 10.498 74.2553 10.7941 74.2553ZM2.64307 86.7216V85.9226L5.47155 81.4545H6.10116V82.6307H5.70166L3.67858 85.8331V85.8842H7.55535V86.7216H2.64307ZM5.7464 88V86.4787L5.7528 86.1143V81.4545H6.68923V88H5.7464ZM10.9479 88.1087C10.443 88.1065 10.0115 87.9734 9.65354 87.7092C9.29559 87.445 9.0218 87.0604 8.83216 86.5554C8.64253 86.0504 8.54772 85.4421 8.54772 84.7305C8.54772 84.021 8.64253 83.4148 8.83216 82.9119C9.02393 82.4091 9.29878 82.0256 9.65674 81.7614C10.0168 81.4972 10.4472 81.3651 10.9479 81.3651C11.4486 81.3651 11.878 81.4982 12.2359 81.7646C12.5939 82.0288 12.8677 82.4123 13.0573 82.9151C13.2491 83.4158 13.3449 84.021 13.3449 84.7305C13.3449 85.4442 13.2501 86.0536 13.0605 86.5586C12.8709 87.0614 12.5971 87.446 12.2391 87.7124C11.8812 87.9766 11.4508 88.1087 10.9479 88.1087ZM10.9479 87.2553C11.3911 87.2553 11.7373 87.0391 11.9866 86.6065C12.2381 86.174 12.3638 85.5487 12.3638 84.7305C12.3638 84.1871 12.3062 83.728 12.1912 83.353C12.0783 82.9759 11.9153 82.6903 11.7022 82.4964C11.4913 82.3004 11.2398 82.2024 10.9479 82.2024C10.5069 82.2024 10.1606 82.4197 9.90922 82.8544C9.6578 83.2891 9.53103 83.9144 9.5289 84.7305C9.5289 85.2759 9.58536 85.7372 9.69829 86.1143C9.81334 86.4893 9.97634 86.7738 10.1873 86.9677C10.3982 87.1594 10.6518 87.2553 10.9479 87.2553ZM5.1032 101.089C4.66428 101.089 4.27224 101.014 3.92707 100.863C3.58403 100.711 3.31237 100.501 3.11208 100.233C2.91393 99.9624 2.8074 99.6491 2.79248 99.2933H3.79603C3.80882 99.4872 3.8738 99.6555 3.99099 99.7983C4.11031 99.9389 4.26585 100.048 4.45761 100.124C4.64937 100.201 4.86244 100.239 5.09681 100.239C5.35463 100.239 5.58261 100.195 5.78076 100.105C5.98105 100.016 6.13765 99.891 6.25058 99.7312C6.3635 99.5692 6.41997 99.3828 6.41997 99.1719C6.41997 98.9524 6.3635 98.7596 6.25058 98.5934C6.13978 98.4251 5.97678 98.293 5.76159 98.1971C5.54852 98.1012 5.2907 98.0533 4.98815 98.0533H4.43524V97.2479H4.98815C5.23105 97.2479 5.44411 97.2042 5.62735 97.1168C5.81272 97.0295 5.95761 96.908 6.06201 96.7525C6.16642 96.5948 6.21862 96.4105 6.21862 96.1996C6.21862 95.9972 6.17281 95.8214 6.08119 95.6722C5.9917 95.521 5.86386 95.4027 5.69767 95.3175C5.5336 95.2322 5.33971 95.1896 5.11599 95.1896C4.90292 95.1896 4.7037 95.229 4.51833 95.3079C4.33509 95.3846 4.18595 95.4954 4.07089 95.6403C3.95583 95.783 3.89404 95.9545 3.88552 96.1548H2.92991C2.94056 95.8011 3.04497 95.4901 3.24312 95.2216C3.4434 94.9531 3.70761 94.7433 4.03573 94.592C4.36386 94.4407 4.72821 94.3651 5.12877 94.3651C5.54852 94.3651 5.91073 94.4471 6.21542 94.6112C6.52224 94.7731 6.75874 94.9893 6.92494 95.2599C7.09326 95.5305 7.17636 95.8267 7.17423 96.1484C7.17636 96.5149 7.07409 96.826 6.86741 97.0817C6.66286 97.3374 6.39014 97.5089 6.04923 97.5962V97.6474C6.48389 97.7134 6.82053 97.886 7.05917 98.1651C7.29994 98.4442 7.41926 98.7905 7.41713 99.2038C7.41926 99.5639 7.31911 99.8867 7.1167 100.172C6.91642 100.458 6.64262 100.683 6.29532 100.847C5.94802 101.009 5.55065 101.089 5.1032 101.089ZM10.904 101.109C10.399 101.107 9.96755 100.973 9.6096 100.709C9.25164 100.445 8.97785 100.06 8.78822 99.5554C8.59859 99.0504 8.50377 98.4421 8.50377 97.7305C8.50377 97.021 8.59859 96.4148 8.78822 95.9119C8.97998 95.4091 9.25484 95.0256 9.61279 94.7614C9.97288 94.4972 10.4033 94.3651 10.904 94.3651C11.4047 94.3651 11.834 94.4982 12.192 94.7646C12.5499 95.0288 12.8237 95.4123 13.0134 95.9151C13.2051 96.4158 13.301 97.021 13.301 97.7305C13.301 98.4442 13.2062 99.0536 13.0166 99.5586C12.8269 100.061 12.5531 100.446 12.1952 100.712C11.8372 100.977 11.4068 101.109 10.904 101.109ZM10.904 100.255C11.3472 100.255 11.6934 100.039 11.9427 99.6065C12.1941 99.174 12.3198 98.5487 12.3198 97.7305C12.3198 97.1871 12.2623 96.728 12.1472 96.353C12.0343 95.9759 11.8713 95.6903 11.6582 95.4964C11.4473 95.3004 11.1959 95.2024 10.904 95.2024C10.4629 95.2024 10.1167 95.4197 9.86528 95.8544C9.61386 96.2891 9.48708 96.9144 9.48495 97.7305C9.48495 98.2759 9.54142 98.7372 9.65434 99.1143C9.7694 99.4893 9.9324 99.7738 10.1433 99.9677C10.3543 100.159 10.6078 100.255 10.904 100.255ZM2.96507 114V113.284L5.17991 110.989C5.41642 110.74 5.61137 110.522 5.76478 110.334C5.92032 110.145 6.03644 109.964 6.11315 109.794C6.18985 109.624 6.22821 109.442 6.22821 109.251C6.22821 109.033 6.17707 108.846 6.0748 108.688C5.97252 108.528 5.83296 108.406 5.65612 108.321C5.47927 108.233 5.28005 108.19 5.05846 108.19C4.82409 108.19 4.61954 108.238 4.44482 108.333C4.27011 108.429 4.13588 108.565 4.04213 108.739C3.94838 108.914 3.9015 109.119 3.9015 109.353H2.95867C2.95867 108.955 3.05029 108.606 3.23353 108.308C3.41677 108.01 3.66819 107.778 3.98779 107.614C4.3074 107.448 4.67068 107.365 5.07764 107.365C5.48886 107.365 5.85107 107.447 6.16428 107.611C6.47963 107.773 6.72572 107.995 6.90257 108.276C7.07941 108.555 7.16784 108.87 7.16784 109.222C7.16784 109.465 7.12203 109.702 7.03041 109.935C6.94092 110.167 6.78431 110.426 6.56059 110.711C6.33687 110.995 6.02579 111.339 5.62735 111.744L4.32657 113.105V113.153H7.2733V114H2.96507ZM10.7634 114.109C10.2584 114.107 9.82693 113.973 9.46897 113.709C9.11102 113.445 8.83722 113.06 8.64759 112.555C8.45796 112.05 8.36315 111.442 8.36315 110.73C8.36315 110.021 8.45796 109.415 8.64759 108.912C8.83936 108.409 9.11421 108.026 9.47217 107.761C9.83225 107.497 10.2627 107.365 10.7634 107.365C11.2641 107.365 11.6934 107.498 12.0514 107.765C12.4093 108.029 12.6831 108.412 12.8727 108.915C13.0645 109.416 13.1604 110.021 13.1604 110.73C13.1604 111.444 13.0656 112.054 12.8759 112.559C12.6863 113.061 12.4125 113.446 12.0546 113.712C11.6966 113.977 11.2662 114.109 10.7634 114.109ZM10.7634 113.255C11.2065 113.255 11.5528 113.039 11.8021 112.607C12.0535 112.174 12.1792 111.549 12.1792 110.73C12.1792 110.187 12.1217 109.728 12.0066 109.353C11.8937 108.976 11.7307 108.69 11.5176 108.496C11.3067 108.3 11.0553 108.202 10.7634 108.202C10.3223 108.202 9.97607 108.42 9.72465 108.854C9.47323 109.289 9.34646 109.914 9.34433 110.73C9.34433 111.276 9.40079 111.737 9.51372 112.114C9.62877 112.489 9.79177 112.774 10.0027 112.968C10.2136 113.159 10.4672 113.255 10.7634 113.255ZM6.08119 120.455V127H5.09042V121.445H5.05207L3.48602 122.468V121.522L5.11919 120.455H6.08119ZM10.1305 127.109C9.62558 127.107 9.19411 126.973 8.83616 126.709C8.4782 126.445 8.20441 126.06 8.01478 125.555C7.82515 125.05 7.73034 124.442 7.73034 123.73C7.73034 123.021 7.82515 122.415 8.01478 121.912C8.20654 121.409 8.4814 121.026 8.83936 120.761C9.19944 120.497 9.62984 120.365 10.1305 120.365C10.6313 120.365 11.0606 120.498 11.4185 120.765C11.7765 121.029 12.0503 121.412 12.2399 121.915C12.4317 122.416 12.5276 123.021 12.5276 123.73C12.5276 124.444 12.4328 125.054 12.2431 125.559C12.0535 126.061 11.7797 126.446 11.4217 126.712C11.0638 126.977 10.6334 127.109 10.1305 127.109ZM10.1305 126.255C10.5737 126.255 10.92 126.039 11.1693 125.607C11.4207 125.174 11.5464 124.549 11.5464 123.73C11.5464 123.187 11.4889 122.728 11.3738 122.353C11.2609 121.976 11.0979 121.69 10.8848 121.496C10.6739 121.3 10.4225 121.202 10.1305 121.202C9.6895 121.202 9.34326 121.42 9.09184 121.854C8.84042 122.289 8.71365 122.914 8.71151 123.73C8.71151 124.276 8.76798 124.737 8.8809 125.114C8.99596 125.489 9.15896 125.774 9.3699 125.968C9.58083 126.159 9.83438 126.255 10.1305 126.255ZM8.0036 140.109C7.49862 140.107 7.06716 139.973 6.70921 139.709C6.35125 139.445 6.07746 139.06 5.88783 138.555C5.6982 138.05 5.60338 137.442 5.60338 136.73C5.60338 136.021 5.6982 135.415 5.88783 134.912C6.07959 134.409 6.35445 134.026 6.7124 133.761C7.07249 133.497 7.50289 133.365 8.0036 133.365C8.50431 133.365 8.93364 133.498 9.29159 133.765C9.64955 134.029 9.92334 134.412 10.113 134.915C10.3047 135.416 10.4006 136.021 10.4006 136.73C10.4006 137.444 10.3058 138.054 10.1162 138.559C9.92654 139.061 9.65274 139.446 9.29479 139.712C8.93683 139.977 8.50644 140.109 8.0036 140.109ZM8.0036 139.255C8.44678 139.255 8.79301 139.039 9.0423 138.607C9.29372 138.174 9.41943 137.549 9.41943 136.73C9.41943 136.187 9.36191 135.728 9.24685 135.353C9.13392 134.976 8.97093 134.69 8.75786 134.496C8.54692 134.3 8.2955 134.202 8.0036 134.202C7.56254 134.202 7.21631 134.42 6.96489 134.854C6.71347 135.289 6.58669 135.914 6.58456 136.73C6.58456 137.276 6.64102 137.737 6.75395 138.114C6.86901 138.489 7.032 138.774 7.24294 138.968C7.45388 139.159 7.70743 139.255 8.0036 139.255Z" fill="#0F0F0F"/>
<path d="M22 5V139" stroke="#E0E0E0"/>
<path d="M66 5V139" stroke="#E0E0E0"/>
<path d="M109 5V139" stroke="#E0E0E0"/>
<path d="M153 5V139" stroke="#E0E0E0"/>
<path d="M196 5V139" stroke="#E0E0E0"/>
<path d="M240 5V139" stroke="#E0E0E0"/>
<path d="M284 5V139" stroke="#E0E0E0"/>
<path d="M22 113L65.6667 59L109.333 86L153 32L196.667 86L240.333 5L284 59" stroke="#D31D30" stroke-width="2"/>
<path d="M22 114C23.1046 114 24 113.328 24 112.5C24 111.672 23.1046 111 22 111C20.8954 111 20 111.672 20 112.5C20 113.328 20.8954 114 22 114Z" fill="#D31D30"/>
<path d="M66 61C67.1046 61 68 60.1046 68 59C68 57.8954 67.1046 57 66 57C64.8954 57 64 57.8954 64 59C64 60.1046 64.8954 61 66 61Z" fill="#D31D30"/>
<path d="M109 88C110.105 88 111 87.1046 111 86C111 84.8954 110.105 84 109 84C107.895 84 107 84.8954 107 86C107 87.1046 107.895 88 109 88Z" fill="#D31D30"/>
<path d="M153 34C154.105 34 155 33.1046 155 32C155 30.8954 154.105 30 153 30C151.895 30 151 30.8954 151 32C151 33.1046 151.895 34 153 34Z" fill="#D31D30"/>
<path d="M196.5 88C197.328 88 198 87.1046 198 86C198 84.8954 197.328 84 196.5 84C195.672 84 195 84.8954 195 86C195 87.1046 195.672 88 196.5 88Z" fill="#D31D30"/>
<path d="M240 7C241.105 7 242 6.10457 242 5C242 3.89543 241.105 3 240 3C238.895 3 238 3.89543 238 5C238 6.10457 238.895 7 240 7Z" fill="#D31D30"/>
<path d="M283.5 61C284.328 61 285 60.1046 285 59C285 57.8954 284.328 57 283.5 57C282.672 57 282 57.8954 282 59C282 60.1046 282.672 61 283.5 61Z" fill="#D31D30"/>
<path d="M21.7858 148.636C22.6978 148.636 23.4858 148.808 24.1498 149.152C24.8218 149.488 25.3338 149.972 25.6858 150.604C26.0458 151.236 26.2258 151.98 26.2258 152.836C26.2258 153.692 26.0458 154.436 25.6858 155.068C25.3338 155.692 24.8218 156.172 24.1498 156.508C23.4858 156.836 22.6978 157 21.7858 157H19.1818V148.636H21.7858ZM21.7858 156.1C22.8658 156.1 23.6898 155.816 24.2578 155.248C24.8258 154.672 25.1098 153.868 25.1098 152.836C25.1098 151.796 24.8218 150.984 24.2458 150.4C23.6778 149.816 22.8578 149.524 21.7858 149.524H20.2738V156.1H21.7858Z" fill="black"/>
<path d="M66.0545 157.084C65.5025 157.084 65.0065 156.988 64.5665 156.796C64.1345 156.596 63.7945 156.324 63.5465 155.98C63.2985 155.628 63.1705 155.224 63.1625 154.768H64.3265C64.3665 155.16 64.5265 155.492 64.8065 155.764C65.0945 156.028 65.5105 156.16 66.0545 156.16C66.5745 156.16 66.9825 156.032 67.2785 155.776C67.5825 155.512 67.7345 155.176 67.7345 154.768C67.7345 154.448 67.6465 154.188 67.4705 153.988C67.2945 153.788 67.0745 153.636 66.8105 153.532C66.5465 153.428 66.1905 153.316 65.7425 153.196C65.1905 153.052 64.7465 152.908 64.4105 152.764C64.0825 152.62 63.7985 152.396 63.5585 152.092C63.3265 151.78 63.2105 151.364 63.2105 150.844C63.2105 150.388 63.3265 149.984 63.5585 149.632C63.7905 149.28 64.1145 149.008 64.5305 148.816C64.9545 148.624 65.4385 148.528 65.9825 148.528C66.7665 148.528 67.4065 148.724 67.9025 149.116C68.4065 149.508 68.6905 150.028 68.7545 150.676H67.5545C67.5145 150.356 67.3465 150.076 67.0505 149.836C66.7545 149.588 66.3625 149.464 65.8745 149.464C65.4185 149.464 65.0465 149.584 64.7585 149.824C64.4705 150.056 64.3265 150.384 64.3265 150.808C64.3265 151.112 64.4105 151.36 64.5785 151.552C64.7545 151.744 64.9665 151.892 65.2145 151.996C65.4705 152.092 65.8265 152.204 66.2825 152.332C66.8345 152.484 67.2785 152.636 67.6145 152.788C67.9505 152.932 68.2385 153.16 68.4785 153.472C68.7185 153.776 68.8385 154.192 68.8385 154.72C68.8385 155.128 68.7305 155.512 68.5145 155.872C68.2985 156.232 67.9785 156.524 67.5545 156.748C67.1305 156.972 66.6305 157.084 66.0545 157.084Z" fill="black"/>
<path d="M112.326 148.636V149.524H110.046V157H108.954V149.524H106.662V148.636H112.326Z" fill="black"/>
<path d="M155.403 158.584L153.735 156.916C153.327 157.028 152.911 157.084 152.487 157.084C151.711 157.084 151.003 156.904 150.363 156.544C149.723 156.176 149.215 155.668 148.839 155.02C148.471 154.364 148.287 153.628 148.287 152.812C148.287 151.996 148.471 151.264 148.839 150.616C149.215 149.96 149.723 149.452 150.363 149.092C151.003 148.724 151.711 148.54 152.487 148.54C153.271 148.54 153.983 148.724 154.623 149.092C155.263 149.452 155.767 149.956 156.135 150.604C156.503 151.252 156.687 151.988 156.687 152.812C156.687 153.612 156.511 154.332 156.159 154.972C155.807 155.612 155.323 156.116 154.707 156.484L156.819 158.584H155.403ZM149.403 152.812C149.403 153.476 149.535 154.06 149.799 154.564C150.071 155.068 150.439 155.456 150.903 155.728C151.375 156 151.903 156.136 152.487 156.136C153.071 156.136 153.595 156 154.059 155.728C154.531 155.456 154.899 155.068 155.163 154.564C155.435 154.06 155.571 153.476 155.571 152.812C155.571 152.14 155.435 151.556 155.163 151.06C154.899 150.556 154.535 150.168 154.071 149.896C153.607 149.624 153.079 149.488 152.487 149.488C151.895 149.488 151.367 149.624 150.903 149.896C150.439 150.168 150.071 150.556 149.799 151.06C149.535 151.556 149.403 152.14 149.403 152.812Z" fill="black"/>
<path d="M199.403 158.584L197.735 156.916C197.327 157.028 196.911 157.084 196.487 157.084C195.711 157.084 195.003 156.904 194.363 156.544C193.723 156.176 193.215 155.668 192.839 155.02C192.471 154.364 192.287 153.628 192.287 152.812C192.287 151.996 192.471 151.264 192.839 150.616C193.215 149.96 193.723 149.452 194.363 149.092C195.003 148.724 195.711 148.54 196.487 148.54C197.271 148.54 197.983 148.724 198.623 149.092C199.263 149.452 199.767 149.956 200.135 150.604C200.503 151.252 200.687 151.988 200.687 152.812C200.687 153.612 200.511 154.332 200.159 154.972C199.807 155.612 199.323 156.116 198.707 156.484L200.819 158.584H199.403ZM193.403 152.812C193.403 153.476 193.535 154.06 193.799 154.564C194.071 155.068 194.439 155.456 194.903 155.728C195.375 156 195.903 156.136 196.487 156.136C197.071 156.136 197.595 156 198.059 155.728C198.531 155.456 198.899 155.068 199.163 154.564C199.435 154.06 199.571 153.476 199.571 152.812C199.571 152.14 199.435 151.556 199.163 151.06C198.899 150.556 198.535 150.168 198.071 149.896C197.607 149.624 197.079 149.488 196.487 149.488C195.895 149.488 195.367 149.624 194.903 149.896C194.439 150.168 194.071 150.556 193.799 151.06C193.535 151.556 193.403 152.14 193.403 152.812Z" fill="black"/>
<path d="M239.555 157.084C239.003 157.084 238.507 156.988 238.067 156.796C237.635 156.596 237.295 156.324 237.047 155.98C236.799 155.628 236.671 155.224 236.663 154.768H237.827C237.867 155.16 238.027 155.492 238.307 155.764C238.595 156.028 239.011 156.16 239.555 156.16C240.075 156.16 240.483 156.032 240.779 155.776C241.083 155.512 241.235 155.176 241.235 154.768C241.235 154.448 241.147 154.188 240.971 153.988C240.795 153.788 240.575 153.636 240.311 153.532C240.047 153.428 239.691 153.316 239.243 153.196C238.691 153.052 238.247 152.908 237.911 152.764C237.583 152.62 237.299 152.396 237.059 152.092C236.827 151.78 236.711 151.364 236.711 150.844C236.711 150.388 236.827 149.984 237.059 149.632C237.291 149.28 237.615 149.008 238.031 148.816C238.455 148.624 238.939 148.528 239.483 148.528C240.267 148.528 240.907 148.724 241.403 149.116C241.907 149.508 242.191 150.028 242.255 150.676H241.055C241.015 150.356 240.847 150.076 240.551 149.836C240.255 149.588 239.863 149.464 239.375 149.464C238.919 149.464 238.547 149.584 238.259 149.824C237.971 150.056 237.827 150.384 237.827 150.808C237.827 151.112 237.911 151.36 238.079 151.552C238.255 151.744 238.467 151.892 238.715 151.996C238.971 152.092 239.327 152.204 239.783 152.332C240.335 152.484 240.779 152.636 241.115 152.788C241.451 152.932 241.739 153.16 241.979 153.472C242.219 153.776 242.339 154.192 242.339 154.72C242.339 155.128 242.231 155.512 242.015 155.872C241.799 156.232 241.479 156.524 241.055 156.748C240.631 156.972 240.131 157.084 239.555 157.084Z" fill="black"/>
<path d="M283.555 157.084C283.003 157.084 282.507 156.988 282.067 156.796C281.635 156.596 281.295 156.324 281.047 155.98C280.799 155.628 280.671 155.224 280.663 154.768H281.827C281.867 155.16 282.027 155.492 282.307 155.764C282.595 156.028 283.011 156.16 283.555 156.16C284.075 156.16 284.483 156.032 284.779 155.776C285.083 155.512 285.235 155.176 285.235 154.768C285.235 154.448 285.147 154.188 284.971 153.988C284.795 153.788 284.575 153.636 284.311 153.532C284.047 153.428 283.691 153.316 283.243 153.196C282.691 153.052 282.247 152.908 281.911 152.764C281.583 152.62 281.299 152.396 281.059 152.092C280.827 151.78 280.711 151.364 280.711 150.844C280.711 150.388 280.827 149.984 281.059 149.632C281.291 149.28 281.615 149.008 282.031 148.816C282.455 148.624 282.939 148.528 283.483 148.528C284.267 148.528 284.907 148.724 285.403 149.116C285.907 149.508 286.191 150.028 286.255 150.676H285.055C285.015 150.356 284.847 150.076 284.551 149.836C284.255 149.588 283.863 149.464 283.375 149.464C282.919 149.464 282.547 149.584 282.259 149.824C281.971 150.056 281.827 150.384 281.827 150.808C281.827 151.112 281.911 151.36 282.079 151.552C282.255 151.744 282.467 151.892 282.715 151.996C282.971 152.092 283.327 152.204 283.783 152.332C284.335 152.484 284.779 152.636 285.115 152.788C285.451 152.932 285.739 153.16 285.979 153.472C286.219 153.776 286.339 154.192 286.339 154.72C286.339 155.128 286.231 155.512 286.015 155.872C285.799 156.232 285.479 156.524 285.055 156.748C284.631 156.972 284.131 157.084 283.555 157.084Z" fill="black"/>
<path d="M22 5V139" stroke="black" stroke-width="2"/>
<path d="M22 139H284" stroke="black" stroke-width="2"/>
</svg>