<svg width="399" height="242" viewBox="0 0 399 242" fill="none" xmlns="http://www.w3.org/2000/svg">
<path d="M292.94 232.03C293.7 232.03 294.357 232.173 294.91 232.46C295.47 232.74 295.897 233.143 296.19 233.67C296.49 234.197 296.64 234.817 296.64 235.53C296.64 236.243 296.49 236.863 296.19 237.39C295.897 237.91 295.47 238.31 294.91 238.59C294.357 238.863 293.7 239 292.94 239H290.77V232.03H292.94ZM292.94 238.25C293.84 238.25 294.527 238.013 295 237.54C295.473 237.06 295.71 236.39 295.71 235.53C295.71 234.663 295.47 233.987 294.99 233.5C294.517 233.013 293.833 232.77 292.94 232.77H291.68V238.25H292.94ZM302.84 236.05C302.84 236.223 302.83 236.407 302.81 236.6H298.43C298.464 237.14 298.647 237.563 298.98 237.87C299.32 238.17 299.73 238.32 300.21 238.32C300.604 238.32 300.93 238.23 301.19 238.05C301.457 237.863 301.644 237.617 301.75 237.31H302.73C302.584 237.837 302.29 238.267 301.85 238.6C301.41 238.927 300.864 239.09 300.21 239.09C299.69 239.09 299.224 238.973 298.81 238.74C298.404 238.507 298.084 238.177 297.85 237.75C297.617 237.317 297.5 236.817 297.5 236.25C297.5 235.683 297.614 235.187 297.84 234.76C298.067 234.333 298.384 234.007 298.79 233.78C299.204 233.547 299.677 233.43 300.21 233.43C300.73 233.43 301.19 233.543 301.59 233.77C301.99 233.997 302.297 234.31 302.51 234.71C302.73 235.103 302.84 235.55 302.84 236.05ZM301.9 235.86C301.9 235.513 301.824 235.217 301.67 234.97C301.517 234.717 301.307 234.527 301.04 234.4C300.78 234.267 300.49 234.2 300.17 234.2C299.71 234.2 299.317 234.347 298.99 234.64C298.67 234.933 298.487 235.34 298.44 235.86H301.9ZM305.981 239.09C305.561 239.09 305.185 239.02 304.851 238.88C304.518 238.733 304.255 238.533 304.061 238.28C303.868 238.02 303.761 237.723 303.741 237.39H304.681C304.708 237.663 304.835 237.887 305.061 238.06C305.295 238.233 305.598 238.32 305.971 238.32C306.318 238.32 306.591 238.243 306.791 238.09C306.991 237.937 307.091 237.743 307.091 237.51C307.091 237.27 306.985 237.093 306.771 236.98C306.558 236.86 306.228 236.743 305.781 236.63C305.375 236.523 305.041 236.417 304.781 236.31C304.528 236.197 304.308 236.033 304.121 235.82C303.941 235.6 303.851 235.313 303.851 234.96C303.851 234.68 303.935 234.423 304.101 234.19C304.268 233.957 304.505 233.773 304.811 233.64C305.118 233.5 305.468 233.43 305.861 233.43C306.468 233.43 306.958 233.583 307.331 233.89C307.705 234.197 307.905 234.617 307.931 235.15H307.021C307.001 234.863 306.885 234.633 306.671 234.46C306.465 234.287 306.185 234.2 305.831 234.2C305.505 234.2 305.245 234.27 305.051 234.41C304.858 234.55 304.761 234.733 304.761 234.96C304.761 235.14 304.818 235.29 304.931 235.41C305.051 235.523 305.198 235.617 305.371 235.69C305.551 235.757 305.798 235.833 306.111 235.92C306.505 236.027 306.825 236.133 307.071 236.24C307.318 236.34 307.528 236.493 307.701 236.7C307.881 236.907 307.975 237.177 307.981 237.51C307.981 237.81 307.898 238.08 307.731 238.32C307.565 238.56 307.328 238.75 307.021 238.89C306.721 239.023 306.375 239.09 305.981 239.09ZM310.176 234.53C310.356 234.217 310.623 233.957 310.976 233.75C311.336 233.537 311.753 233.43 312.226 233.43C312.713 233.43 313.153 233.547 313.546 233.78C313.946 234.013 314.259 234.343 314.486 234.77C314.713 235.19 314.826 235.68 314.826 236.24C314.826 236.793 314.713 237.287 314.486 237.72C314.259 238.153 313.946 238.49 313.546 238.73C313.153 238.97 312.713 239.09 312.226 239.09C311.759 239.09 311.346 238.987 310.986 238.78C310.633 238.567 310.363 238.303 310.176 237.99V241.6H309.266V233.52H310.176V234.53ZM313.896 236.24C313.896 235.827 313.813 235.467 313.646 235.16C313.479 234.853 313.253 234.62 312.966 234.46C312.686 234.3 312.376 234.22 312.036 234.22C311.703 234.22 311.393 234.303 311.106 234.47C310.826 234.63 310.599 234.867 310.426 235.18C310.259 235.487 310.176 235.843 310.176 236.25C310.176 236.663 310.259 237.027 310.426 237.34C310.599 237.647 310.826 237.883 311.106 238.05C311.393 238.21 311.703 238.29 312.036 238.29C312.376 238.29 312.686 238.21 312.966 238.05C313.253 237.883 313.479 237.647 313.646 237.34C313.813 237.027 313.896 236.66 313.896 236.24ZM321.024 236.05C321.024 236.223 321.014 236.407 320.994 236.6H316.614C316.647 237.14 316.831 237.563 317.164 237.87C317.504 238.17 317.914 238.32 318.394 238.32C318.787 238.32 319.114 238.23 319.374 238.05C319.641 237.863 319.827 237.617 319.934 237.31H320.914C320.767 237.837 320.474 238.267 320.034 238.6C319.594 238.927 319.047 239.09 318.394 239.09C317.874 239.09 317.407 238.973 316.994 238.74C316.587 238.507 316.267 238.177 316.034 237.75C315.801 237.317 315.684 236.817 315.684 236.25C315.684 235.683 315.797 235.187 316.024 234.76C316.251 234.333 316.567 234.007 316.974 233.78C317.387 233.547 317.861 233.43 318.394 233.43C318.914 233.43 319.374 233.543 319.774 233.77C320.174 233.997 320.481 234.31 320.694 234.71C320.914 235.103 321.024 235.55 321.024 236.05ZM320.084 235.86C320.084 235.513 320.007 235.217 319.854 234.97C319.701 234.717 319.491 234.527 319.224 234.4C318.964 234.267 318.674 234.2 318.354 234.2C317.894 234.2 317.501 234.347 317.174 234.64C316.854 234.933 316.671 235.34 316.624 235.86H320.084ZM324.165 239.09C323.745 239.09 323.368 239.02 323.035 238.88C322.702 238.733 322.438 238.533 322.245 238.28C322.052 238.02 321.945 237.723 321.925 237.39H322.865C322.892 237.663 323.018 237.887 323.245 238.06C323.478 238.233 323.782 238.32 324.155 238.32C324.502 238.32 324.775 238.243 324.975 238.09C325.175 237.937 325.275 237.743 325.275 237.51C325.275 237.27 325.168 237.093 324.955 236.98C324.742 236.86 324.412 236.743 323.965 236.63C323.558 236.523 323.225 236.417 322.965 236.31C322.712 236.197 322.492 236.033 322.305 235.82C322.125 235.6 322.035 235.313 322.035 234.96C322.035 234.68 322.118 234.423 322.285 234.19C322.452 233.957 322.688 233.773 322.995 233.64C323.302 233.5 323.652 233.43 324.045 233.43C324.652 233.43 325.142 233.583 325.515 233.89C325.888 234.197 326.088 234.617 326.115 235.15H325.205C325.185 234.863 325.068 234.633 324.855 234.46C324.648 234.287 324.368 234.2 324.015 234.2C323.688 234.2 323.428 234.27 323.235 234.41C323.042 234.55 322.945 234.733 322.945 234.96C322.945 235.14 323.002 235.29 323.115 235.41C323.235 235.523 323.382 235.617 323.555 235.69C323.735 235.757 323.982 235.833 324.295 235.92C324.688 236.027 325.008 236.133 325.255 236.24C325.502 236.34 325.712 236.493 325.885 236.7C326.065 236.907 326.158 237.177 326.165 237.51C326.165 237.81 326.082 238.08 325.915 238.32C325.748 238.56 325.512 238.75 325.205 238.89C324.905 239.023 324.558 239.09 324.165 239.09ZM327.11 236.24C327.11 235.68 327.223 235.19 327.45 234.77C327.676 234.343 327.986 234.013 328.38 233.78C328.78 233.547 329.223 233.43 329.71 233.43C330.19 233.43 330.606 233.533 330.96 233.74C331.313 233.947 331.576 234.207 331.75 234.52V233.52H332.67V239H331.75V237.98C331.57 238.3 331.3 238.567 330.94 238.78C330.586 238.987 330.173 239.09 329.7 239.09C329.213 239.09 328.773 238.97 328.38 238.73C327.986 238.49 327.676 238.153 327.45 237.72C327.223 237.287 327.11 236.793 327.11 236.24ZM331.75 236.25C331.75 235.837 331.666 235.477 331.5 235.17C331.333 234.863 331.106 234.63 330.82 234.47C330.54 234.303 330.23 234.22 329.89 234.22C329.55 234.22 329.24 234.3 328.96 234.46C328.68 234.62 328.456 234.853 328.29 235.16C328.123 235.467 328.04 235.827 328.04 236.24C328.04 236.66 328.123 237.027 328.29 237.34C328.456 237.647 328.68 237.883 328.96 238.05C329.24 238.21 329.55 238.29 329.89 238.29C330.23 238.29 330.54 238.21 330.82 238.05C331.106 237.883 331.333 237.647 331.5 237.34C331.666 237.027 331.75 236.663 331.75 236.25ZM336.148 239.09C335.728 239.09 335.351 239.02 335.018 238.88C334.684 238.733 334.421 238.533 334.228 238.28C334.034 238.02 333.928 237.723 333.908 237.39H334.848C334.874 237.663 335.001 237.887 335.228 238.06C335.461 238.233 335.764 238.32 336.138 238.32C336.484 238.32 336.758 238.243 336.958 238.09C337.158 237.937 337.258 237.743 337.258 237.51C337.258 237.27 337.151 237.093 336.938 236.98C336.724 236.86 336.394 236.743 335.948 236.63C335.541 236.523 335.208 236.417 334.948 236.31C334.694 236.197 334.474 236.033 334.288 235.82C334.108 235.6 334.018 235.313 334.018 234.96C334.018 234.68 334.101 234.423 334.268 234.19C334.434 233.957 334.671 233.773 334.978 233.64C335.284 233.5 335.634 233.43 336.028 233.43C336.634 233.43 337.124 233.583 337.498 233.89C337.871 234.197 338.071 234.617 338.098 235.15H337.188C337.168 234.863 337.051 234.633 336.838 234.46C336.631 234.287 336.351 234.2 335.998 234.2C335.671 234.2 335.411 234.27 335.218 234.41C335.024 234.55 334.928 234.733 334.928 234.96C334.928 235.14 334.984 235.29 335.098 235.41C335.218 235.523 335.364 235.617 335.538 235.69C335.718 235.757 335.964 235.833 336.278 235.92C336.671 236.027 336.991 236.133 337.238 236.24C337.484 236.34 337.694 236.493 337.868 236.7C338.048 236.907 338.141 237.177 338.148 237.51C338.148 237.81 338.064 238.08 337.898 238.32C337.731 238.56 337.494 238.75 337.188 238.89C336.888 239.023 336.541 239.09 336.148 239.09ZM343.008 234.41C343.168 234.097 343.395 233.853 343.688 233.68C343.988 233.507 344.351 233.42 344.778 233.42V234.36H344.538C343.518 234.36 343.008 234.913 343.008 236.02V239H342.098V233.52H343.008V234.41ZM350.829 236.05C350.829 236.223 350.819 236.407 350.799 236.6H346.419C346.452 237.14 346.635 237.563 346.969 237.87C347.309 238.17 347.719 238.32 348.199 238.32C348.592 238.32 348.919 238.23 349.179 238.05C349.445 237.863 349.632 237.617 349.739 237.31H350.719C350.572 237.837 350.279 238.267 349.839 238.6C349.399 238.927 348.852 239.09 348.199 239.09C347.679 239.09 347.212 238.973 346.799 238.74C346.392 238.507 346.072 238.177 345.839 237.75C345.605 237.317 345.489 236.817 345.489 236.25C345.489 235.683 345.602 235.187 345.829 234.76C346.055 234.333 346.372 234.007 346.779 233.78C347.192 233.547 347.665 233.43 348.199 233.43C348.719 233.43 349.179 233.543 349.579 233.77C349.979 233.997 350.285 234.31 350.499 234.71C350.719 235.103 350.829 235.55 350.829 236.05ZM349.889 235.86C349.889 235.513 349.812 235.217 349.659 234.97C349.505 234.717 349.295 234.527 349.029 234.4C348.769 234.267 348.479 234.2 348.159 234.2C347.699 234.2 347.305 234.347 346.979 234.64C346.659 234.933 346.475 235.34 346.429 235.86H349.889ZM354.29 233.43C354.763 233.43 355.176 233.533 355.53 233.74C355.89 233.947 356.156 234.207 356.33 234.52V233.52H357.25V239.12C357.25 239.62 357.143 240.063 356.93 240.45C356.716 240.843 356.41 241.15 356.01 241.37C355.616 241.59 355.156 241.7 354.63 241.7C353.91 241.7 353.31 241.53 352.83 241.19C352.35 240.85 352.066 240.387 351.98 239.8H352.88C352.98 240.133 353.186 240.4 353.5 240.6C353.813 240.807 354.19 240.91 354.63 240.91C355.13 240.91 355.536 240.753 355.85 240.44C356.17 240.127 356.33 239.687 356.33 239.12V237.97C356.15 238.29 355.883 238.557 355.53 238.77C355.176 238.983 354.763 239.09 354.29 239.09C353.803 239.09 353.36 238.97 352.96 238.73C352.566 238.49 352.256 238.153 352.03 237.72C351.803 237.287 351.69 236.793 351.69 236.24C351.69 235.68 351.803 235.19 352.03 234.77C352.256 234.343 352.566 234.013 352.96 233.78C353.36 233.547 353.803 233.43 354.29 233.43ZM356.33 236.25C356.33 235.837 356.246 235.477 356.08 235.17C355.913 234.863 355.686 234.63 355.4 234.47C355.12 234.303 354.81 234.22 354.47 234.22C354.13 234.22 353.82 234.3 353.54 234.46C353.26 234.62 353.036 234.853 352.87 235.16C352.703 235.467 352.62 235.827 352.62 236.24C352.62 236.66 352.703 237.027 352.87 237.34C353.036 237.647 353.26 237.883 353.54 238.05C353.82 238.21 354.13 238.29 354.47 238.29C354.81 238.29 355.12 238.21 355.4 238.05C355.686 237.883 355.913 237.647 356.08 237.34C356.246 237.027 356.33 236.663 356.33 236.25ZM359.258 232.63C359.084 232.63 358.938 232.57 358.818 232.45C358.698 232.33 358.638 232.183 358.638 232.01C358.638 231.837 358.698 231.69 358.818 231.57C358.938 231.45 359.084 231.39 359.258 231.39C359.424 231.39 359.564 231.45 359.678 231.57C359.798 231.69 359.858 231.837 359.858 232.01C359.858 232.183 359.798 232.33 359.678 232.45C359.564 232.57 359.424 232.63 359.258 232.63ZM359.698 233.52V239H358.788V233.52H359.698ZM363.189 239.09C362.769 239.09 362.392 239.02 362.059 238.88C361.725 238.733 361.462 238.533 361.269 238.28C361.075 238.02 360.969 237.723 360.949 237.39H361.889C361.915 237.663 362.042 237.887 362.269 238.06C362.502 238.233 362.805 238.32 363.179 238.32C363.525 238.32 363.799 238.243 363.999 238.09C364.199 237.937 364.299 237.743 364.299 237.51C364.299 237.27 364.192 237.093 363.979 236.98C363.765 236.86 363.435 236.743 362.989 236.63C362.582 236.523 362.249 236.417 361.989 236.31C361.735 236.197 361.515 236.033 361.329 235.82C361.149 235.6 361.059 235.313 361.059 234.96C361.059 234.68 361.142 234.423 361.309 234.19C361.475 233.957 361.712 233.773 362.019 233.64C362.325 233.5 362.675 233.43 363.069 233.43C363.675 233.43 364.165 233.583 364.539 233.89C364.912 234.197 365.112 234.617 365.139 235.15H364.229C364.209 234.863 364.092 234.633 363.879 234.46C363.672 234.287 363.392 234.2 363.039 234.2C362.712 234.2 362.452 234.27 362.259 234.41C362.065 234.55 361.969 234.733 361.969 234.96C361.969 235.14 362.025 235.29 362.139 235.41C362.259 235.523 362.405 235.617 362.579 235.69C362.759 235.757 363.005 235.833 363.319 235.92C363.712 236.027 364.032 236.133 364.279 236.24C364.525 236.34 364.735 236.493 364.909 236.7C365.089 236.907 365.182 237.177 365.189 237.51C365.189 237.81 365.105 238.08 364.939 238.32C364.772 238.56 364.535 238.75 364.229 238.89C363.929 239.023 363.582 239.09 363.189 239.09ZM367.583 234.27V237.5C367.583 237.767 367.64 237.957 367.753 238.07C367.866 238.177 368.063 238.23 368.343 238.23H369.013V239H368.193C367.686 239 367.306 238.883 367.053 238.65C366.8 238.417 366.673 238.033 366.673 237.5V234.27H365.963V233.52H366.673V232.14H367.583V233.52H369.013V234.27H367.583ZM371.026 234.41C371.186 234.097 371.412 233.853 371.706 233.68C372.006 233.507 372.369 233.42 372.796 233.42V234.36H372.556C371.536 234.36 371.026 234.913 371.026 236.02V239H370.116V233.52H371.026V234.41ZM373.506 236.24C373.506 235.68 373.62 235.19 373.846 234.77C374.073 234.343 374.383 234.013 374.776 233.78C375.176 233.547 375.62 233.43 376.106 233.43C376.586 233.43 377.003 233.533 377.356 233.74C377.71 233.947 377.973 234.207 378.146 234.52V233.52H379.066V239H378.146V237.98C377.966 238.3 377.696 238.567 377.336 238.78C376.983 238.987 376.57 239.09 376.096 239.09C375.61 239.09 375.17 238.97 374.776 238.73C374.383 238.49 374.073 238.153 373.846 237.72C373.62 237.287 373.506 236.793 373.506 236.24ZM378.146 236.25C378.146 235.837 378.063 235.477 377.896 235.17C377.73 234.863 377.503 234.63 377.216 234.47C376.936 234.303 376.626 234.22 376.286 234.22C375.946 234.22 375.636 234.3 375.356 234.46C375.076 234.62 374.853 234.853 374.686 235.16C374.52 235.467 374.436 235.827 374.436 236.24C374.436 236.66 374.52 237.027 374.686 237.34C374.853 237.647 375.076 237.883 375.356 238.05C375.636 238.21 375.946 238.29 376.286 238.29C376.626 238.29 376.936 238.21 377.216 238.05C377.503 237.883 377.73 237.647 377.896 237.34C378.063 237.027 378.146 236.663 378.146 236.25ZM380.264 236.24C380.264 235.68 380.377 235.19 380.604 234.77C380.831 234.343 381.141 234.013 381.534 233.78C381.934 233.547 382.381 233.43 382.874 233.43C383.301 233.43 383.697 233.53 384.064 233.73C384.431 233.923 384.711 234.18 384.904 234.5V231.6H385.824V239H384.904V237.97C384.724 238.297 384.457 238.567 384.104 238.78C383.751 238.987 383.337 239.09 382.864 239.09C382.377 239.09 381.934 238.97 381.534 238.73C381.141 238.49 380.831 238.153 380.604 237.72C380.377 237.287 380.264 236.793 380.264 236.24ZM384.904 236.25C384.904 235.837 384.821 235.477 384.654 235.17C384.487 234.863 384.261 234.63 383.974 234.47C383.694 234.303 383.384 234.22 383.044 234.22C382.704 234.22 382.394 234.3 382.114 234.46C381.834 234.62 381.611 234.853 381.444 235.16C381.277 235.467 381.194 235.827 381.194 236.24C381.194 236.66 381.277 237.027 381.444 237.34C381.611 237.647 381.834 237.883 382.114 238.05C382.394 238.21 382.704 238.29 383.044 238.29C383.384 238.29 383.694 238.21 383.974 238.05C384.261 237.883 384.487 237.647 384.654 237.34C384.821 237.027 384.904 236.663 384.904 236.25ZM387.022 236.24C387.022 235.68 387.135 235.19 387.362 234.77C387.588 234.343 387.898 234.013 388.292 233.78C388.692 233.547 389.135 233.43 389.622 233.43C390.102 233.43 390.518 233.533 390.872 233.74C391.225 233.947 391.488 234.207 391.662 234.52V233.52H392.582V239H391.662V237.98C391.482 238.3 391.212 238.567 390.852 238.78C390.498 238.987 390.085 239.09 389.612 239.09C389.125 239.09 388.685 238.97 388.292 238.73C387.898 238.49 387.588 238.153 387.362 237.72C387.135 237.287 387.022 236.793 387.022 236.24ZM391.662 236.25C391.662 235.837 391.578 235.477 391.412 235.17C391.245 234.863 391.018 234.63 390.732 234.47C390.452 234.303 390.142 234.22 389.802 234.22C389.462 234.22 389.152 234.3 388.872 234.46C388.592 234.62 388.368 234.853 388.202 235.16C388.035 235.467 387.952 235.827 387.952 236.24C387.952 236.66 388.035 237.027 388.202 237.34C388.368 237.647 388.592 237.883 388.872 238.05C389.152 238.21 389.462 238.29 389.802 238.29C390.142 238.29 390.452 238.21 390.732 238.05C391.018 237.883 391.245 237.647 391.412 237.34C391.578 237.027 391.662 236.663 391.662 236.25ZM396.06 239.09C395.64 239.09 395.263 239.02 394.93 238.88C394.596 238.733 394.333 238.533 394.14 238.28C393.946 238.02 393.84 237.723 393.82 237.39H394.76C394.786 237.663 394.913 237.887 395.14 238.06C395.373 238.233 395.676 238.32 396.05 238.32C396.396 238.32 396.67 238.243 396.87 238.09C397.07 237.937 397.17 237.743 397.17 237.51C397.17 237.27 397.063 237.093 396.85 236.98C396.636 236.86 396.306 236.743 395.86 236.63C395.453 236.523 395.12 236.417 394.86 236.31C394.606 236.197 394.386 236.033 394.2 235.82C394.02 235.6 393.93 235.313 393.93 234.96C393.93 234.68 394.013 234.423 394.18 234.19C394.346 233.957 394.583 233.773 394.89 233.64C395.196 233.5 395.546 233.43 395.94 233.43C396.546 233.43 397.036 233.583 397.41 233.89C397.783 234.197 397.983 234.617 398.01 235.15H397.1C397.08 234.863 396.963 234.633 396.75 234.46C396.543 234.287 396.263 234.2 395.91 234.2C395.583 234.2 395.323 234.27 395.13 234.41C394.936 234.55 394.84 234.733 394.84 234.96C394.84 235.14 394.896 235.29 395.01 235.41C395.13 235.523 395.276 235.617 395.45 235.69C395.63 235.757 395.876 235.833 396.19 235.92C396.583 236.027 396.903 236.133 397.15 236.24C397.396 236.34 397.606 236.493 397.78 236.7C397.96 236.907 398.053 237.177 398.06 237.51C398.06 237.81 397.976 238.08 397.81 238.32C397.643 238.56 397.406 238.75 397.1 238.89C396.8 239.023 396.453 239.09 396.06 239.09Z" fill="black"/>
<rect x="251" y="229" width="28" height="13" fill="#FF001B"/>
<path d="M84.44 239L82.78 236.15H81.68V239H80.77V232.03H83.02C83.5467 232.03 83.99 232.12 84.35 232.3C84.7167 232.48 84.99 232.723 85.17 233.03C85.35 233.337 85.44 233.687 85.44 234.08C85.44 234.56 85.3 234.983 85.02 235.35C84.7467 235.717 84.3333 235.96 83.78 236.08L85.53 239H84.44ZM81.68 235.42H83.02C83.5133 235.42 83.8833 235.3 84.13 235.06C84.3767 234.813 84.5 234.487 84.5 234.08C84.5 233.667 84.3767 233.347 84.13 233.12C83.89 232.893 83.52 232.78 83.02 232.78H81.68V235.42ZM91.854 236.05C91.854 236.223 91.844 236.407 91.824 236.6H87.444C87.4773 237.14 87.6607 237.563 87.994 237.87C88.334 238.17 88.744 238.32 89.224 238.32C89.6173 238.32 89.944 238.23 90.204 238.05C90.4707 237.863 90.6573 237.617 90.764 237.31H91.744C91.5973 237.837 91.304 238.267 90.864 238.6C90.424 238.927 89.8773 239.09 89.224 239.09C88.704 239.09 88.2373 238.973 87.824 238.74C87.4173 238.507 87.0973 238.177 86.864 237.75C86.6307 237.317 86.514 236.817 86.514 236.25C86.514 235.683 86.6273 235.187 86.854 234.76C87.0807 234.333 87.3973 234.007 87.804 233.78C88.2173 233.547 88.6907 233.43 89.224 233.43C89.744 233.43 90.204 233.543 90.604 233.77C91.004 233.997 91.3107 234.31 91.524 234.71C91.744 235.103 91.854 235.55 91.854 236.05ZM90.914 235.86C90.914 235.513 90.8373 235.217 90.684 234.97C90.5307 234.717 90.3207 234.527 90.054 234.4C89.794 234.267 89.504 234.2 89.184 234.2C88.724 234.2 88.3307 234.347 88.004 234.64C87.684 234.933 87.5007 235.34 87.454 235.86H90.914ZM92.7152 236.25C92.7152 235.683 92.8285 235.19 93.0552 234.77C93.2818 234.343 93.5952 234.013 93.9952 233.78C94.4018 233.547 94.8652 233.43 95.3852 233.43C96.0585 233.43 96.6118 233.593 97.0452 233.92C97.4852 234.247 97.7752 234.7 97.9152 235.28H96.9352C96.8418 234.947 96.6585 234.683 96.3852 234.49C96.1185 234.297 95.7852 234.2 95.3852 234.2C94.8652 234.2 94.4452 234.38 94.1252 234.74C93.8052 235.093 93.6452 235.597 93.6452 236.25C93.6452 236.91 93.8052 237.42 94.1252 237.78C94.4452 238.14 94.8652 238.32 95.3852 238.32C95.7852 238.32 96.1185 238.227 96.3852 238.04C96.6518 237.853 96.8352 237.587 96.9352 237.24H97.9152C97.7685 237.8 97.4752 238.25 97.0352 238.59C96.5952 238.923 96.0452 239.09 95.3852 239.09C94.8652 239.09 94.4018 238.973 93.9952 238.74C93.5952 238.507 93.2818 238.177 93.0552 237.75C92.8285 237.323 92.7152 236.823 92.7152 236.25ZM104.129 236.05C104.129 236.223 104.119 236.407 104.099 236.6H99.7194C99.7527 237.14 99.936 237.563 100.269 237.87C100.609 238.17 101.019 238.32 101.499 238.32C101.893 238.32 102.219 238.23 102.479 238.05C102.746 237.863 102.933 237.617 103.039 237.31H104.019C103.873 237.837 103.579 238.267 103.139 238.6C102.699 238.927 102.153 239.09 101.499 239.09C100.979 239.09 100.513 238.973 100.099 238.74C99.6927 238.507 99.3727 238.177 99.1394 237.75C98.906 237.317 98.7894 236.817 98.7894 236.25C98.7894 235.683 98.9027 235.187 99.1294 234.76C99.356 234.333 99.6727 234.007 100.079 233.78C100.493 233.547 100.966 233.43 101.499 233.43C102.019 233.43 102.479 233.543 102.879 233.77C103.279 233.997 103.586 234.31 103.799 234.71C104.019 235.103 104.129 235.55 104.129 236.05ZM103.189 235.86C103.189 235.513 103.113 235.217 102.959 234.97C102.806 234.717 102.596 234.527 102.329 234.4C102.069 234.267 101.779 234.2 101.459 234.2C100.999 234.2 100.606 234.347 100.279 234.64C99.9594 234.933 99.776 235.34 99.7294 235.86H103.189ZM105.801 232.63C105.627 232.63 105.481 232.57 105.361 232.45C105.241 232.33 105.181 232.183 105.181 232.01C105.181 231.837 105.241 231.69 105.361 231.57C105.481 231.45 105.627 231.39 105.801 231.39C105.967 231.39 106.107 231.45 106.221 231.57C106.341 231.69 106.401 231.837 106.401 232.01C106.401 232.183 106.341 232.33 106.221 232.45C106.107 232.57 105.967 232.63 105.801 232.63ZM106.241 233.52V239H105.331V233.52H106.241ZM108.901 234.27V237.5C108.901 237.767 108.958 237.957 109.071 238.07C109.185 238.177 109.381 238.23 109.661 238.23H110.331V239H109.511C109.005 239 108.625 238.883 108.371 238.65C108.118 238.417 107.991 238.033 107.991 237.5V234.27H107.281V233.52H107.991V232.14H108.901V233.52H110.331V234.27H108.901ZM111.094 236.24C111.094 235.68 111.207 235.19 111.434 234.77C111.661 234.343 111.971 234.013 112.364 233.78C112.764 233.547 113.207 233.43 113.694 233.43C114.174 233.43 114.591 233.533 114.944 233.74C115.297 233.947 115.561 234.207 115.734 234.52V233.52H116.654V239H115.734V237.98C115.554 238.3 115.284 238.567 114.924 238.78C114.571 238.987 114.157 239.09 113.684 239.09C113.197 239.09 112.757 238.97 112.364 238.73C111.971 238.49 111.661 238.153 111.434 237.72C111.207 237.287 111.094 236.793 111.094 236.24ZM115.734 236.25C115.734 235.837 115.651 235.477 115.484 235.17C115.317 234.863 115.091 234.63 114.804 234.47C114.524 234.303 114.214 234.22 113.874 234.22C113.534 234.22 113.224 234.3 112.944 234.46C112.664 234.62 112.441 234.853 112.274 235.16C112.107 235.467 112.024 235.827 112.024 236.24C112.024 236.66 112.107 237.027 112.274 237.34C112.441 237.647 112.664 237.883 112.944 238.05C113.224 238.21 113.534 238.29 113.874 238.29C114.214 238.29 114.524 238.21 114.804 238.05C115.091 237.883 115.317 237.647 115.484 237.34C115.651 237.027 115.734 236.663 115.734 236.25ZM120.132 239.09C119.712 239.09 119.335 239.02 119.002 238.88C118.669 238.733 118.405 238.533 118.212 238.28C118.019 238.02 117.912 237.723 117.892 237.39H118.832C118.859 237.663 118.985 237.887 119.212 238.06C119.445 238.233 119.749 238.32 120.122 238.32C120.469 238.32 120.742 238.243 120.942 238.09C121.142 237.937 121.242 237.743 121.242 237.51C121.242 237.27 121.135 237.093 120.922 236.98C120.709 236.86 120.379 236.743 119.932 236.63C119.525 236.523 119.192 236.417 118.932 236.31C118.679 236.197 118.459 236.033 118.272 235.82C118.092 235.6 118.002 235.313 118.002 234.96C118.002 234.68 118.085 234.423 118.252 234.19C118.419 233.957 118.655 233.773 118.962 233.64C119.269 233.5 119.619 233.43 120.012 233.43C120.619 233.43 121.109 233.583 121.482 233.89C121.855 234.197 122.055 234.617 122.082 235.15H121.172C121.152 234.863 121.035 234.633 120.822 234.46C120.615 234.287 120.335 234.2 119.982 234.2C119.655 234.2 119.395 234.27 119.202 234.41C119.009 234.55 118.912 234.733 118.912 234.96C118.912 235.14 118.969 235.29 119.082 235.41C119.202 235.523 119.349 235.617 119.522 235.69C119.702 235.757 119.949 235.833 120.262 235.92C120.655 236.027 120.975 236.133 121.222 236.24C121.469 236.34 121.679 236.493 121.852 236.7C122.032 236.907 122.125 237.177 122.132 237.51C122.132 237.81 122.049 238.08 121.882 238.32C121.715 238.56 121.479 238.75 121.172 238.89C120.872 239.023 120.525 239.09 120.132 239.09ZM126.993 234.41C127.153 234.097 127.379 233.853 127.673 233.68C127.973 233.507 128.336 233.42 128.763 233.42V234.36H128.523C127.503 234.36 126.993 234.913 126.993 236.02V239H126.083V233.52H126.993V234.41ZM134.813 236.05C134.813 236.223 134.803 236.407 134.783 236.6H130.403C130.436 237.14 130.62 237.563 130.953 237.87C131.293 238.17 131.703 238.32 132.183 238.32C132.576 238.32 132.903 238.23 133.163 238.05C133.43 237.863 133.616 237.617 133.723 237.31H134.703C134.556 237.837 134.263 238.267 133.823 238.6C133.383 238.927 132.836 239.09 132.183 239.09C131.663 239.09 131.196 238.973 130.783 238.74C130.376 238.507 130.056 238.177 129.823 237.75C129.59 237.317 129.473 236.817 129.473 236.25C129.473 235.683 129.586 235.187 129.813 234.76C130.04 234.333 130.356 234.007 130.763 233.78C131.176 233.547 131.65 233.43 132.183 233.43C132.703 233.43 133.163 233.543 133.563 233.77C133.963 233.997 134.27 234.31 134.483 234.71C134.703 235.103 134.813 235.55 134.813 236.05ZM133.873 235.86C133.873 235.513 133.796 235.217 133.643 234.97C133.49 234.717 133.28 234.527 133.013 234.4C132.753 234.267 132.463 234.2 132.143 234.2C131.683 234.2 131.29 234.347 130.963 234.64C130.643 234.933 130.46 235.34 130.413 235.86H133.873ZM138.274 233.43C138.747 233.43 139.161 233.533 139.514 233.74C139.874 233.947 140.141 234.207 140.314 234.52V233.52H141.234V239.12C141.234 239.62 141.127 240.063 140.914 240.45C140.701 240.843 140.394 241.15 139.994 241.37C139.601 241.59 139.141 241.7 138.614 241.7C137.894 241.7 137.294 241.53 136.814 241.19C136.334 240.85 136.051 240.387 135.964 239.8H136.864C136.964 240.133 137.171 240.4 137.484 240.6C137.797 240.807 138.174 240.91 138.614 240.91C139.114 240.91 139.521 240.753 139.834 240.44C140.154 240.127 140.314 239.687 140.314 239.12V237.97C140.134 238.29 139.867 238.557 139.514 238.77C139.161 238.983 138.747 239.09 138.274 239.09C137.787 239.09 137.344 238.97 136.944 238.73C136.551 238.49 136.241 238.153 136.014 237.72C135.787 237.287 135.674 236.793 135.674 236.24C135.674 235.68 135.787 235.19 136.014 234.77C136.241 234.343 136.551 234.013 136.944 233.78C137.344 233.547 137.787 233.43 138.274 233.43ZM140.314 236.25C140.314 235.837 140.231 235.477 140.064 235.17C139.897 234.863 139.671 234.63 139.384 234.47C139.104 234.303 138.794 234.22 138.454 234.22C138.114 234.22 137.804 234.3 137.524 234.46C137.244 234.62 137.021 234.853 136.854 235.16C136.687 235.467 136.604 235.827 136.604 236.24C136.604 236.66 136.687 237.027 136.854 237.34C137.021 237.647 137.244 237.883 137.524 238.05C137.804 238.21 138.114 238.29 138.454 238.29C138.794 238.29 139.104 238.21 139.384 238.05C139.671 237.883 139.897 237.647 140.064 237.34C140.231 237.027 140.314 236.663 140.314 236.25ZM143.242 232.63C143.069 232.63 142.922 232.57 142.802 232.45C142.682 232.33 142.622 232.183 142.622 232.01C142.622 231.837 142.682 231.69 142.802 231.57C142.922 231.45 143.069 231.39 143.242 231.39C143.409 231.39 143.549 231.45 143.662 231.57C143.782 231.69 143.842 231.837 143.842 232.01C143.842 232.183 143.782 232.33 143.662 232.45C143.549 232.57 143.409 232.63 143.242 232.63ZM143.682 233.52V239H142.772V233.52H143.682ZM147.173 239.09C146.753 239.09 146.376 239.02 146.043 238.88C145.71 238.733 145.446 238.533 145.253 238.28C145.06 238.02 144.953 237.723 144.933 237.39H145.873C145.9 237.663 146.026 237.887 146.253 238.06C146.486 238.233 146.79 238.32 147.163 238.32C147.51 238.32 147.783 238.243 147.983 238.09C148.183 237.937 148.283 237.743 148.283 237.51C148.283 237.27 148.176 237.093 147.963 236.98C147.75 236.86 147.42 236.743 146.973 236.63C146.566 236.523 146.233 236.417 145.973 236.31C145.72 236.197 145.5 236.033 145.313 235.82C145.133 235.6 145.043 235.313 145.043 234.96C145.043 234.68 145.126 234.423 145.293 234.19C145.46 233.957 145.696 233.773 146.003 233.64C146.31 233.5 146.66 233.43 147.053 233.43C147.66 233.43 148.15 233.583 148.523 233.89C148.896 234.197 149.096 234.617 149.123 235.15H148.213C148.193 234.863 148.076 234.633 147.863 234.46C147.656 234.287 147.376 234.2 147.023 234.2C146.696 234.2 146.436 234.27 146.243 234.41C146.05 234.55 145.953 234.733 145.953 234.96C145.953 235.14 146.01 235.29 146.123 235.41C146.243 235.523 146.39 235.617 146.563 235.69C146.743 235.757 146.99 235.833 147.303 235.92C147.696 236.027 148.016 236.133 148.263 236.24C148.51 236.34 148.72 236.493 148.893 236.7C149.073 236.907 149.166 237.177 149.173 237.51C149.173 237.81 149.09 238.08 148.923 238.32C148.756 238.56 148.52 238.75 148.213 238.89C147.913 239.023 147.566 239.09 147.173 239.09ZM151.568 234.27V237.5C151.568 237.767 151.624 237.957 151.738 238.07C151.851 238.177 152.048 238.23 152.327 238.23H152.998V239H152.178C151.671 239 151.291 238.883 151.038 238.65C150.784 238.417 150.658 238.033 150.658 237.5V234.27H149.948V233.52H150.658V232.14H151.568V233.52H152.998V234.27H151.568ZM155.01 234.41C155.17 234.097 155.397 233.853 155.69 233.68C155.99 233.507 156.353 233.42 156.78 233.42V234.36H156.54C155.52 234.36 155.01 234.913 155.01 236.02V239H154.1V233.52H155.01V234.41ZM157.491 236.24C157.491 235.68 157.604 235.19 157.831 234.77C158.057 234.343 158.367 234.013 158.761 233.78C159.161 233.547 159.604 233.43 160.091 233.43C160.571 233.43 160.987 233.533 161.341 233.74C161.694 233.947 161.957 234.207 162.131 234.52V233.52H163.051V239H162.131V237.98C161.951 238.3 161.681 238.567 161.321 238.78C160.967 238.987 160.554 239.09 160.081 239.09C159.594 239.09 159.154 238.97 158.761 238.73C158.367 238.49 158.057 238.153 157.831 237.72C157.604 237.287 157.491 236.793 157.491 236.24ZM162.131 236.25C162.131 235.837 162.047 235.477 161.881 235.17C161.714 234.863 161.487 234.63 161.201 234.47C160.921 234.303 160.611 234.22 160.271 234.22C159.931 234.22 159.621 234.3 159.341 234.46C159.061 234.62 158.837 234.853 158.671 235.16C158.504 235.467 158.421 235.827 158.421 236.24C158.421 236.66 158.504 237.027 158.671 237.34C158.837 237.647 159.061 237.883 159.341 238.05C159.621 238.21 159.931 238.29 160.271 238.29C160.611 238.29 160.921 238.21 161.201 238.05C161.487 237.883 161.714 237.647 161.881 237.34C162.047 237.027 162.131 236.663 162.131 236.25ZM164.248 236.24C164.248 235.68 164.362 235.19 164.588 234.77C164.815 234.343 165.125 234.013 165.518 233.78C165.918 233.547 166.365 233.43 166.858 233.43C167.285 233.43 167.682 233.53 168.048 233.73C168.415 233.923 168.695 234.18 168.888 234.5V231.6H169.808V239H168.888V237.97C168.708 238.297 168.442 238.567 168.088 238.78C167.735 238.987 167.322 239.09 166.848 239.09C166.362 239.09 165.918 238.97 165.518 238.73C165.125 238.49 164.815 238.153 164.588 237.72C164.362 237.287 164.248 236.793 164.248 236.24ZM168.888 236.25C168.888 235.837 168.805 235.477 168.638 235.17C168.472 234.863 168.245 234.63 167.958 234.47C167.678 234.303 167.368 234.22 167.028 234.22C166.688 234.22 166.378 234.3 166.098 234.46C165.818 234.62 165.595 234.853 165.428 235.16C165.262 235.467 165.178 235.827 165.178 236.24C165.178 236.66 165.262 237.027 165.428 237.34C165.595 237.647 165.818 237.883 166.098 238.05C166.378 238.21 166.688 238.29 167.028 238.29C167.368 238.29 167.678 238.21 167.958 238.05C168.245 237.883 168.472 237.647 168.638 237.34C168.805 237.027 168.888 236.663 168.888 236.25ZM171.006 236.24C171.006 235.68 171.12 235.19 171.346 234.77C171.573 234.343 171.883 234.013 172.276 233.78C172.676 233.547 173.12 233.43 173.606 233.43C174.086 233.43 174.503 233.533 174.856 233.74C175.21 233.947 175.473 234.207 175.646 234.52V233.52H176.566V239H175.646V237.98C175.466 238.3 175.196 238.567 174.836 238.78C174.483 238.987 174.07 239.09 173.596 239.09C173.11 239.09 172.67 238.97 172.276 238.73C171.883 238.49 171.573 238.153 171.346 237.72C171.12 237.287 171.006 236.793 171.006 236.24ZM175.646 236.25C175.646 235.837 175.563 235.477 175.396 235.17C175.23 234.863 175.003 234.63 174.716 234.47C174.436 234.303 174.126 234.22 173.786 234.22C173.446 234.22 173.136 234.3 172.856 234.46C172.576 234.62 172.353 234.853 172.186 235.16C172.02 235.467 171.936 235.827 171.936 236.24C171.936 236.66 172.02 237.027 172.186 237.34C172.353 237.647 172.576 237.883 172.856 238.05C173.136 238.21 173.446 238.29 173.786 238.29C174.126 238.29 174.436 238.21 174.716 238.05C175.003 237.883 175.23 237.647 175.396 237.34C175.563 237.027 175.646 236.663 175.646 236.25ZM180.044 239.09C179.624 239.09 179.247 239.02 178.914 238.88C178.581 238.733 178.317 238.533 178.124 238.28C177.931 238.02 177.824 237.723 177.804 237.39H178.744C178.771 237.663 178.897 237.887 179.124 238.06C179.357 238.233 179.661 238.32 180.034 238.32C180.381 238.32 180.654 238.243 180.854 238.09C181.054 237.937 181.154 237.743 181.154 237.51C181.154 237.27 181.047 237.093 180.834 236.98C180.621 236.86 180.291 236.743 179.844 236.63C179.437 236.523 179.104 236.417 178.844 236.31C178.591 236.197 178.371 236.033 178.184 235.82C178.004 235.6 177.914 235.313 177.914 234.96C177.914 234.68 177.997 234.423 178.164 234.19C178.331 233.957 178.567 233.773 178.874 233.64C179.181 233.5 179.531 233.43 179.924 233.43C180.531 233.43 181.021 233.583 181.394 233.89C181.767 234.197 181.967 234.617 181.994 235.15H181.084C181.064 234.863 180.947 234.633 180.734 234.46C180.527 234.287 180.247 234.2 179.894 234.2C179.567 234.2 179.307 234.27 179.114 234.41C178.921 234.55 178.824 234.733 178.824 234.96C178.824 235.14 178.881 235.29 178.994 235.41C179.114 235.523 179.261 235.617 179.434 235.69C179.614 235.757 179.861 235.833 180.174 235.92C180.567 236.027 180.887 236.133 181.134 236.24C181.381 236.34 181.591 236.493 181.764 236.7C181.944 236.907 182.037 237.177 182.044 237.51C182.044 237.81 181.961 238.08 181.794 238.32C181.627 238.56 181.391 238.75 181.084 238.89C180.784 239.023 180.437 239.09 180.044 239.09Z" fill="black"/>
<rect x="40" y="229" width="28" height="13" fill="#51C13F"/>
<path d="M34.5601 4.40002V193.6" stroke="#E0E0E0"/>
<path d="M64.8 4.40002V193.6" stroke="#E0E0E0"/>
<path d="M95.04 4.40002V193.6" stroke="#E0E0E0"/>
<path d="M125.28 4.40002V193.6" stroke="#E0E0E0"/>
<path d="M155.52 4.40002V193.6" stroke="#E0E0E0"/>
<path d="M185.76 4.40002V193.6" stroke="#E0E0E0"/>
<path d="M216 4.40002V193.6" stroke="#E0E0E0"/>
<path d="M246.24 4.40002V193.6" stroke="#E0E0E0"/>
<path d="M276.48 4.40002V193.6" stroke="#E0E0E0"/>
<path d="M306.72 4.40002V193.6" stroke="#E0E0E0"/>
<path d="M336.96 4.40002V193.6" stroke="#E0E0E0"/>
<path d="M367.2 4.40002V193.6" stroke="#E0E0E0"/>
<path d="M397.44 4.40002V193.6" stroke="#E0E0E0"/>
<path d="M41.7601 16.9059H34.5601V193.6H41.7601V16.9059Z" fill="#51C13F"/>
<path d="M73.44 11.3162H66.24V193.6H73.44V11.3162Z" fill="#51C13F"/>
<path d="M105.12 33.5806H97.9199V193.6H105.12V33.5806Z" fill="#51C13F"/>
<path d="M136.8 44.5707H129.6V193.6H136.8V44.5707Z" fill="#51C13F"/>
<path d="M168.48 27.9908H161.28V193.6H168.48V27.9908Z" fill="#51C13F"/>
<path d="M200.16 4.6842H192.96V193.6H200.16V4.6842Z" fill="#51C13F"/>
<path d="M231.84 17.7587H224.64V193.6H231.84V17.7587Z" fill="#51C13F"/>
<path d="M263.52 47.3182H256.32V193.6H263.52V47.3182Z" fill="#51C13F"/>
<path d="M295.2 68.4457H288V193.6H295.2V68.4457Z" fill="#51C13F"/>
<path d="M326.88 44.2864H319.68V193.6H326.88V44.2864Z" fill="#51C13F"/>
<path d="M358.56 37.7492H351.36V193.6H358.56V37.7492Z" fill="#51C13F"/>
<path d="M390.24 4.40002H383.04V193.6H390.24V4.40002Z" fill="#51C13F"/>
<path d="M48.96 28.275H41.76V193.6H48.96V28.275Z" fill="#FF001B"/>
<path d="M80.6399 17.4744H73.4399V193.6H80.6399V17.4744Z" fill="#FF001B"/>
<path d="M112.32 27.2328H105.12V193.6H112.32V27.2328Z" fill="#FF001B"/>
<path d="M144 37.5598H136.8V193.6H144V37.5598Z" fill="#FF001B"/>
<path d="M175.68 45.0444H168.48V193.6H175.68V45.0444Z" fill="#FF001B"/>
<path d="M207.36 28.5593H200.16V193.6H207.36V28.5593Z" fill="#FF001B"/>
<path d="M239.04 7.62122H231.84V193.6H239.04V7.62122Z" fill="#FF001B"/>
<path d="M270.72 47.6971H263.52V193.6H270.72V47.6971Z" fill="#FF001B"/>
<path d="M302.4 63.8981H295.2V193.6H302.4V63.8981Z" fill="#FF001B"/>
<path d="M334.08 87.9625H326.88V193.6H334.08V87.9625Z" fill="#FF001B"/>
<path d="M365.76 47.1287H358.56V193.6H365.76V47.1287Z" fill="#FF001B"/>
<path d="M397.44 20.2219H390.24V193.6H397.44V20.2219Z" fill="#FF001B"/>
<path d="M34.5601 193.6H397.44" stroke="black" stroke-width="2"/>
<path d="M34.5601 4.40002V193.6" stroke="black" stroke-width="2"/>
<path d="M37.582 206.05V211.06C37.582 211.68 37.392 212.17 37.012 212.53C36.6387 212.89 36.1453 213.07 35.532 213.07C34.9187 213.07 34.422 212.89 34.042 212.53C33.6687 212.17 33.482 211.68 33.482 211.06H34.632C34.6387 211.367 34.7153 211.61 34.862 211.79C35.0153 211.97 35.2387 212.06 35.532 212.06C35.8253 212.06 36.0487 211.97 36.202 211.79C36.3553 211.603 36.432 211.36 36.432 211.06V206.05H37.582ZM39.0565 210.22C39.0565 209.667 39.1699 209.177 39.3965 208.75C39.6299 208.323 39.9432 207.993 40.3365 207.76C40.7365 207.52 41.1765 207.4 41.6565 207.4C42.0899 207.4 42.4665 207.487 42.7865 207.66C43.1132 207.827 43.3732 208.037 43.5665 208.29V207.49H44.7165V213H43.5665V212.18C43.3732 212.44 43.1099 212.657 42.7765 212.83C42.4432 213.003 42.0632 213.09 41.6365 213.09C41.1632 213.09 40.7299 212.97 40.3365 212.73C39.9432 212.483 39.6299 212.143 39.3965 211.71C39.1699 211.27 39.0565 210.773 39.0565 210.22ZM43.5665 210.24C43.5665 209.86 43.4865 209.53 43.3265 209.25C43.1732 208.97 42.9699 208.757 42.7165 208.61C42.4632 208.463 42.1899 208.39 41.8965 208.39C41.6032 208.39 41.3299 208.463 41.0765 208.61C40.8232 208.75 40.6165 208.96 40.4565 209.24C40.3032 209.513 40.2265 209.84 40.2265 210.22C40.2265 210.6 40.3032 210.933 40.4565 211.22C40.6165 211.507 40.8232 211.727 41.0765 211.88C41.3365 212.027 41.6099 212.1 41.8965 212.1C42.1899 212.1 42.4632 212.027 42.7165 211.88C42.9699 211.733 43.1732 211.52 43.3265 211.24C43.4865 210.953 43.5665 210.62 43.5665 210.24ZM48.9939 207.4C49.4272 207.4 49.8139 207.49 50.1539 207.67C50.5005 207.85 50.7705 208.117 50.9639 208.47C51.1572 208.823 51.2539 209.25 51.2539 209.75V213H50.1239V209.92C50.1239 209.427 50.0005 209.05 49.7539 208.79C49.5072 208.523 49.1705 208.39 48.7439 208.39C48.3172 208.39 47.9772 208.523 47.7239 208.79C47.4772 209.05 47.3539 209.427 47.3539 209.92V213H46.2139V207.49H47.3539V208.12C47.5405 207.893 47.7772 207.717 48.0639 207.59C48.3572 207.463 48.6672 207.4 48.9939 207.4Z" fill="black"/>
<path d="M67.3 206.05V206.98H64.35V209.03H66.65V209.96H64.35V213H63.21V206.05H67.3ZM73.4064 210.11C73.4064 210.317 73.3931 210.503 73.3664 210.67H69.1564C69.1898 211.11 69.3531 211.463 69.6464 211.73C69.9398 211.997 70.2998 212.13 70.7264 212.13C71.3398 212.13 71.7731 211.873 72.0264 211.36H73.2564C73.0898 211.867 72.7864 212.283 72.3464 212.61C71.9131 212.93 71.3731 213.09 70.7264 213.09C70.1998 213.09 69.7264 212.973 69.3064 212.74C68.8931 212.5 68.5664 212.167 68.3264 211.74C68.0931 211.307 67.9764 210.807 67.9764 210.24C67.9764 209.673 68.0898 209.177 68.3164 208.75C68.5498 208.317 68.8731 207.983 69.2864 207.75C69.7064 207.517 70.1864 207.4 70.7264 207.4C71.2464 207.4 71.7098 207.513 72.1164 207.74C72.5231 207.967 72.8398 208.287 73.0664 208.7C73.2931 209.107 73.4064 209.577 73.4064 210.11ZM72.2164 209.75C72.2098 209.33 72.0598 208.993 71.7664 208.74C71.4731 208.487 71.1098 208.36 70.6764 208.36C70.2831 208.36 69.9464 208.487 69.6664 208.74C69.3864 208.987 69.2198 209.323 69.1664 209.75H72.2164ZM76.6583 211.98L78.2183 207.49H79.4283L77.3283 213H75.9683L73.8783 207.49H75.0983L76.6583 211.98Z" fill="black"/>
<path d="M103.353 206.05V213H102.213V208.24L100.093 213H99.3032L97.1732 208.24V213H96.0332V206.05H97.2632L99.7032 211.5L102.133 206.05H103.353ZM104.472 210.22C104.472 209.667 104.585 209.177 104.812 208.75C105.045 208.323 105.358 207.993 105.752 207.76C106.152 207.52 106.592 207.4 107.072 207.4C107.505 207.4 107.882 207.487 108.202 207.66C108.528 207.827 108.788 208.037 108.982 208.29V207.49H110.132V213H108.982V212.18C108.788 212.44 108.525 212.657 108.192 212.83C107.858 213.003 107.478 213.09 107.052 213.09C106.578 213.09 106.145 212.97 105.752 212.73C105.358 212.483 105.045 212.143 104.812 211.71C104.585 211.27 104.472 210.773 104.472 210.22ZM108.982 210.24C108.982 209.86 108.902 209.53 108.742 209.25C108.588 208.97 108.385 208.757 108.132 208.61C107.878 208.463 107.605 208.39 107.312 208.39C107.018 208.39 106.745 208.463 106.492 208.61C106.238 208.75 106.032 208.96 105.872 209.24C105.718 209.513 105.642 209.84 105.642 210.22C105.642 210.6 105.718 210.933 105.872 211.22C106.032 211.507 106.238 211.727 106.492 211.88C106.752 212.027 107.025 212.1 107.312 212.1C107.605 212.1 107.878 212.027 108.132 211.88C108.385 211.733 108.588 211.52 108.742 211.24C108.902 210.953 108.982 210.62 108.982 210.24ZM112.769 208.29C112.936 208.01 113.156 207.793 113.429 207.64C113.709 207.48 114.039 207.4 114.419 207.4V208.58H114.129C113.682 208.58 113.342 208.693 113.109 208.92C112.882 209.147 112.769 209.54 112.769 210.1V213H111.629V207.49H112.769V208.29Z" fill="black"/>
<path d="M133.146 211.58H130.236L129.736 213H128.546L131.036 206.04H132.356L134.846 213H133.646L133.146 211.58ZM132.826 210.65L131.696 207.42L130.556 210.65H132.826ZM137.069 208.31C137.262 208.043 137.525 207.827 137.859 207.66C138.199 207.487 138.575 207.4 138.989 207.4C139.475 207.4 139.915 207.517 140.309 207.75C140.702 207.983 141.012 208.317 141.239 208.75C141.465 209.177 141.579 209.667 141.579 210.22C141.579 210.773 141.465 211.27 141.239 211.71C141.012 212.143 140.699 212.483 140.299 212.73C139.905 212.97 139.469 213.09 138.989 213.09C138.562 213.09 138.182 213.007 137.849 212.84C137.522 212.673 137.262 212.46 137.069 212.2V213H135.929V205.6H137.069V208.31ZM140.419 210.22C140.419 209.84 140.339 209.513 140.179 209.24C140.025 208.96 139.819 208.75 139.559 208.61C139.305 208.463 139.032 208.39 138.739 208.39C138.452 208.39 138.179 208.463 137.919 208.61C137.665 208.757 137.459 208.97 137.299 209.25C137.145 209.53 137.069 209.86 137.069 210.24C137.069 210.62 137.145 210.953 137.299 211.24C137.459 211.52 137.665 211.733 137.919 211.88C138.179 212.027 138.452 212.1 138.739 212.1C139.032 212.1 139.305 212.027 139.559 211.88C139.819 211.727 140.025 211.507 140.179 211.22C140.339 210.933 140.419 210.6 140.419 210.22ZM143.846 208.29C144.013 208.01 144.233 207.793 144.506 207.64C144.786 207.48 145.116 207.4 145.496 207.4V208.58H145.206C144.759 208.58 144.419 208.693 144.186 208.92C143.959 209.147 143.846 209.54 143.846 210.1V213H142.706V207.49H143.846V208.29Z" fill="black"/>
<path d="M167.454 206.05V213H166.314V208.24L164.194 213H163.404L161.274 208.24V213H160.134V206.05H161.364L163.804 211.5L166.234 206.05H167.454ZM168.572 210.22C168.572 209.667 168.685 209.177 168.912 208.75C169.145 208.323 169.459 207.993 169.852 207.76C170.252 207.52 170.692 207.4 171.172 207.4C171.605 207.4 171.982 207.487 172.302 207.66C172.629 207.827 172.889 208.037 173.082 208.29V207.49H174.232V213H173.082V212.18C172.889 212.44 172.625 212.657 172.292 212.83C171.959 213.003 171.579 213.09 171.152 213.09C170.679 213.09 170.245 212.97 169.852 212.73C169.459 212.483 169.145 212.143 168.912 211.71C168.685 211.27 168.572 210.773 168.572 210.22ZM173.082 210.24C173.082 209.86 173.002 209.53 172.842 209.25C172.689 208.97 172.485 208.757 172.232 208.61C171.979 208.463 171.705 208.39 171.412 208.39C171.119 208.39 170.845 208.463 170.592 208.61C170.339 208.75 170.132 208.96 169.972 209.24C169.819 209.513 169.742 209.84 169.742 210.22C169.742 210.6 169.819 210.933 169.972 211.22C170.132 211.507 170.339 211.727 170.592 211.88C170.852 212.027 171.125 212.1 171.412 212.1C171.705 212.1 171.979 212.027 172.232 211.88C172.485 211.733 172.689 211.52 172.842 211.24C173.002 210.953 173.082 210.62 173.082 210.24ZM176.309 206.76C176.103 206.76 175.929 206.69 175.789 206.55C175.649 206.41 175.579 206.237 175.579 206.03C175.579 205.823 175.649 205.65 175.789 205.51C175.929 205.37 176.103 205.3 176.309 205.3C176.509 205.3 176.679 205.37 176.819 205.51C176.959 205.65 177.029 205.823 177.029 206.03C177.029 206.237 176.959 206.41 176.819 206.55C176.679 206.69 176.509 206.76 176.309 206.76ZM176.869 207.49V213H175.729V207.49H176.869Z" fill="black"/>
<path d="M194.724 206.05V211.06C194.724 211.68 194.534 212.17 194.154 212.53C193.78 212.89 193.287 213.07 192.674 213.07C192.06 213.07 191.564 212.89 191.184 212.53C190.81 212.17 190.624 211.68 190.624 211.06H191.774C191.78 211.367 191.857 211.61 192.004 211.79C192.157 211.97 192.38 212.06 192.674 212.06C192.967 212.06 193.19 211.97 193.344 211.79C193.497 211.603 193.574 211.36 193.574 211.06V206.05H194.724ZM201.568 207.49V213H200.428V212.35C200.248 212.577 200.011 212.757 199.718 212.89C199.431 213.017 199.125 213.08 198.798 213.08C198.365 213.08 197.975 212.99 197.628 212.81C197.288 212.63 197.018 212.363 196.818 212.01C196.625 211.657 196.528 211.23 196.528 210.73V207.49H197.658V210.56C197.658 211.053 197.781 211.433 198.028 211.7C198.275 211.96 198.611 212.09 199.038 212.09C199.465 212.09 199.801 211.96 200.048 211.7C200.301 211.433 200.428 211.053 200.428 210.56V207.49H201.568ZM205.852 207.4C206.286 207.4 206.672 207.49 207.012 207.67C207.359 207.85 207.629 208.117 207.822 208.47C208.016 208.823 208.112 209.25 208.112 209.75V213H206.982V209.92C206.982 209.427 206.859 209.05 206.612 208.79C206.366 208.523 206.029 208.39 205.602 208.39C205.176 208.39 204.836 208.523 204.582 208.79C204.336 209.05 204.212 209.427 204.212 209.92V213H203.072V207.49H204.212V208.12C204.399 207.893 204.636 207.717 204.922 207.59C205.216 207.463 205.526 207.4 205.852 207.4Z" fill="black"/>
<path d="M228.652 206.05V211.06C228.652 211.68 228.462 212.17 228.082 212.53C227.709 212.89 227.216 213.07 226.602 213.07C225.989 213.07 225.492 212.89 225.112 212.53C224.739 212.17 224.552 211.68 224.552 211.06H225.702C225.709 211.367 225.786 211.61 225.932 211.79C226.086 211.97 226.309 212.06 226.602 212.06C226.896 212.06 227.119 211.97 227.272 211.79C227.426 211.603 227.502 211.36 227.502 211.06V206.05H228.652ZM235.497 207.49V213H234.357V212.35C234.177 212.577 233.94 212.757 233.647 212.89C233.36 213.017 233.054 213.08 232.727 213.08C232.294 213.08 231.904 212.99 231.557 212.81C231.217 212.63 230.947 212.363 230.747 212.01C230.554 211.657 230.457 211.23 230.457 210.73V207.49H231.587V210.56C231.587 211.053 231.71 211.433 231.957 211.7C232.204 211.96 232.54 212.09 232.967 212.09C233.394 212.09 233.73 211.96 233.977 211.7C234.23 211.433 234.357 211.053 234.357 210.56V207.49H235.497ZM238.141 205.6V213H237.001V205.6H238.141Z" fill="black"/>
<path d="M258.377 211.58H255.467L254.967 213H253.777L256.267 206.04H257.587L260.077 213H258.877L258.377 211.58ZM258.057 210.65L256.927 207.42L255.787 210.65H258.057ZM263.379 207.4C263.806 207.4 264.183 207.487 264.509 207.66C264.843 207.827 265.103 208.037 265.289 208.29V207.49H266.439V213.09C266.439 213.597 266.333 214.047 266.119 214.44C265.906 214.84 265.596 215.153 265.189 215.38C264.789 215.607 264.309 215.72 263.749 215.72C263.003 215.72 262.383 215.543 261.889 215.19C261.396 214.843 261.116 214.37 261.049 213.77H262.179C262.266 214.057 262.449 214.287 262.729 214.46C263.016 214.64 263.356 214.73 263.749 214.73C264.209 214.73 264.579 214.59 264.859 214.31C265.146 214.03 265.289 213.623 265.289 213.09V212.17C265.096 212.43 264.833 212.65 264.499 212.83C264.173 213.003 263.799 213.09 263.379 213.09C262.899 213.09 262.459 212.97 262.059 212.73C261.666 212.483 261.353 212.143 261.119 211.71C260.893 211.27 260.779 210.773 260.779 210.22C260.779 209.667 260.893 209.177 261.119 208.75C261.353 208.323 261.666 207.993 262.059 207.76C262.459 207.52 262.899 207.4 263.379 207.4ZM265.289 210.24C265.289 209.86 265.209 209.53 265.049 209.25C264.896 208.97 264.693 208.757 264.439 208.61C264.186 208.463 263.913 208.39 263.619 208.39C263.326 208.39 263.053 208.463 262.799 208.61C262.546 208.75 262.339 208.96 262.179 209.24C262.026 209.513 261.949 209.84 261.949 210.22C261.949 210.6 262.026 210.933 262.179 211.22C262.339 211.507 262.546 211.727 262.799 211.88C263.059 212.027 263.333 212.1 263.619 212.1C263.913 212.1 264.186 212.027 264.439 211.88C264.693 211.733 264.896 211.52 265.049 211.24C265.209 210.953 265.289 210.62 265.289 210.24ZM270.327 213.09C269.807 213.09 269.337 212.973 268.917 212.74C268.497 212.5 268.167 212.167 267.927 211.74C267.687 211.307 267.567 210.807 267.567 210.24C267.567 209.68 267.69 209.183 267.937 208.75C268.183 208.317 268.52 207.983 268.947 207.75C269.373 207.517 269.85 207.4 270.377 207.4C270.903 207.4 271.38 207.517 271.807 207.75C272.233 207.983 272.57 208.317 272.817 208.75C273.063 209.183 273.187 209.68 273.187 210.24C273.187 210.8 273.06 211.297 272.807 211.73C272.553 212.163 272.207 212.5 271.767 212.74C271.333 212.973 270.853 213.09 270.327 213.09ZM270.327 212.1C270.62 212.1 270.893 212.03 271.147 211.89C271.407 211.75 271.617 211.54 271.777 211.26C271.937 210.98 272.017 210.64 272.017 210.24C272.017 209.84 271.94 209.503 271.787 209.23C271.633 208.95 271.43 208.74 271.177 208.6C270.923 208.46 270.65 208.39 270.357 208.39C270.063 208.39 269.79 208.46 269.537 208.6C269.29 208.74 269.093 208.95 268.947 209.23C268.8 209.503 268.727 209.84 268.727 210.24C268.727 210.833 268.877 211.293 269.177 211.62C269.483 211.94 269.867 212.1 270.327 212.1Z" fill="black"/>
<path d="M289.076 213.07C288.609 213.07 288.189 212.99 287.816 212.83C287.443 212.663 287.149 212.43 286.936 212.13C286.723 211.83 286.616 211.48 286.616 211.08H287.836C287.863 211.38 287.979 211.627 288.186 211.82C288.399 212.013 288.696 212.11 289.076 212.11C289.469 212.11 289.776 212.017 289.996 211.83C290.216 211.637 290.326 211.39 290.326 211.09C290.326 210.857 290.256 210.667 290.116 210.52C289.983 210.373 289.813 210.26 289.606 210.18C289.406 210.1 289.126 210.013 288.766 209.92C288.313 209.8 287.943 209.68 287.656 209.56C287.376 209.433 287.136 209.24 286.936 208.98C286.736 208.72 286.636 208.373 286.636 207.94C286.636 207.54 286.736 207.19 286.936 206.89C287.136 206.59 287.416 206.36 287.776 206.2C288.136 206.04 288.553 205.96 289.026 205.96C289.699 205.96 290.249 206.13 290.676 206.47C291.109 206.803 291.349 207.263 291.396 207.85H290.136C290.116 207.597 289.996 207.38 289.776 207.2C289.556 207.02 289.266 206.93 288.906 206.93C288.579 206.93 288.313 207.013 288.106 207.18C287.899 207.347 287.796 207.587 287.796 207.9C287.796 208.113 287.859 208.29 287.986 208.43C288.119 208.563 288.286 208.67 288.486 208.75C288.686 208.83 288.959 208.917 289.306 209.01C289.766 209.137 290.139 209.263 290.426 209.39C290.719 209.517 290.966 209.713 291.166 209.98C291.373 210.24 291.476 210.59 291.476 211.03C291.476 211.383 291.379 211.717 291.186 212.03C290.999 212.343 290.723 212.597 290.356 212.79C289.996 212.977 289.569 213.07 289.076 213.07ZM297.871 210.11C297.871 210.317 297.858 210.503 297.831 210.67H293.621C293.655 211.11 293.818 211.463 294.111 211.73C294.405 211.997 294.765 212.13 295.191 212.13C295.805 212.13 296.238 211.873 296.491 211.36H297.721C297.555 211.867 297.251 212.283 296.811 212.61C296.378 212.93 295.838 213.09 295.191 213.09C294.665 213.09 294.191 212.973 293.771 212.74C293.358 212.5 293.031 212.167 292.791 211.74C292.558 211.307 292.441 210.807 292.441 210.24C292.441 209.673 292.555 209.177 292.781 208.75C293.015 208.317 293.338 207.983 293.751 207.75C294.171 207.517 294.651 207.4 295.191 207.4C295.711 207.4 296.175 207.513 296.581 207.74C296.988 207.967 297.305 208.287 297.531 208.7C297.758 209.107 297.871 209.577 297.871 210.11ZM296.681 209.75C296.675 209.33 296.525 208.993 296.231 208.74C295.938 208.487 295.575 208.36 295.141 208.36C294.748 208.36 294.411 208.487 294.131 208.74C293.851 208.987 293.685 209.323 293.631 209.75H296.681ZM300.323 208.42V211.47C300.323 211.677 300.37 211.827 300.463 211.92C300.563 212.007 300.73 212.05 300.963 212.05H301.663V213H300.763C300.25 213 299.856 212.88 299.583 212.64C299.31 212.4 299.173 212.01 299.173 211.47V208.42H298.523V207.49H299.173V206.12H300.323V207.49H301.663V208.42H300.323Z" fill="black"/>
<path d="M322.392 213.07C321.745 213.07 321.148 212.92 320.602 212.62C320.062 212.313 319.632 211.89 319.312 211.35C318.998 210.803 318.842 210.19 318.842 209.51C318.842 208.83 318.998 208.22 319.312 207.68C319.632 207.14 320.062 206.72 320.602 206.42C321.148 206.113 321.745 205.96 322.392 205.96C323.045 205.96 323.642 206.113 324.182 206.42C324.728 206.72 325.158 207.14 325.472 207.68C325.785 208.22 325.942 208.83 325.942 209.51C325.942 210.19 325.785 210.803 325.472 211.35C325.158 211.89 324.728 212.313 324.182 212.62C323.642 212.92 323.045 213.07 322.392 213.07ZM322.392 212.08C322.852 212.08 323.262 211.977 323.622 211.77C323.982 211.557 324.262 211.257 324.462 210.87C324.668 210.477 324.772 210.023 324.772 209.51C324.772 208.997 324.668 208.547 324.462 208.16C324.262 207.773 323.982 207.477 323.622 207.27C323.262 207.063 322.852 206.96 322.392 206.96C321.932 206.96 321.522 207.063 321.162 207.27C320.802 207.477 320.518 207.773 320.312 208.16C320.112 208.547 320.012 208.997 320.012 209.51C320.012 210.023 320.112 210.477 320.312 210.87C320.518 211.257 320.802 211.557 321.162 211.77C321.522 211.977 321.932 212.08 322.392 212.08ZM332.053 207.49V213H330.913V212.35C330.733 212.577 330.497 212.757 330.203 212.89C329.917 213.017 329.61 213.08 329.283 213.08C328.85 213.08 328.46 212.99 328.113 212.81C327.773 212.63 327.503 212.363 327.303 212.01C327.11 211.657 327.013 211.23 327.013 210.73V207.49H328.143V210.56C328.143 211.053 328.267 211.433 328.513 211.7C328.76 211.96 329.097 212.09 329.523 212.09C329.95 212.09 330.287 211.96 330.533 211.7C330.787 211.433 330.913 211.053 330.913 210.56V207.49H332.053ZM334.888 208.42V211.47C334.888 211.677 334.934 211.827 335.028 211.92C335.128 212.007 335.294 212.05 335.528 212.05H336.228V213H335.328C334.814 213 334.421 212.88 334.148 212.64C333.874 212.4 333.738 212.01 333.738 211.47V208.42H333.088V207.49H333.738V206.12H334.888V207.49H336.228V208.42H334.888Z" fill="black"/>
<path d="M354.787 213H353.647L350.217 207.81V213H349.077V206.04H350.217L353.647 211.22V206.04H354.787V213ZM358.674 213.09C358.154 213.09 357.684 212.973 357.264 212.74C356.844 212.5 356.514 212.167 356.274 211.74C356.034 211.307 355.914 210.807 355.914 210.24C355.914 209.68 356.038 209.183 356.284 208.75C356.531 208.317 356.868 207.983 357.294 207.75C357.721 207.517 358.198 207.4 358.724 207.4C359.251 207.4 359.728 207.517 360.154 207.75C360.581 207.983 360.918 208.317 361.164 208.75C361.411 209.183 361.534 209.68 361.534 210.24C361.534 210.8 361.408 211.297 361.154 211.73C360.901 212.163 360.554 212.5 360.114 212.74C359.681 212.973 359.201 213.09 358.674 213.09ZM358.674 212.1C358.968 212.1 359.241 212.03 359.494 211.89C359.754 211.75 359.964 211.54 360.124 211.26C360.284 210.98 360.364 210.64 360.364 210.24C360.364 209.84 360.288 209.503 360.134 209.23C359.981 208.95 359.778 208.74 359.524 208.6C359.271 208.46 358.998 208.39 358.704 208.39C358.411 208.39 358.138 208.46 357.884 208.6C357.638 208.74 357.441 208.95 357.294 209.23C357.148 209.503 357.074 209.84 357.074 210.24C357.074 210.833 357.224 211.293 357.524 211.62C357.831 211.94 358.214 212.1 358.674 212.1ZM364.791 211.98L366.351 207.49H367.561L365.461 213H364.101L362.011 207.49H363.231L364.791 211.98Z" fill="black"/>
<path d="M384.036 206.05C384.776 206.05 385.422 206.193 385.976 206.48C386.536 206.76 386.966 207.167 387.266 207.7C387.572 208.227 387.726 208.843 387.726 209.55C387.726 210.257 387.572 210.87 387.266 211.39C386.966 211.91 386.536 212.31 385.976 212.59C385.422 212.863 384.776 213 384.036 213H381.766V206.05H384.036ZM384.036 212.07C384.849 212.07 385.472 211.85 385.906 211.41C386.339 210.97 386.556 210.35 386.556 209.55C386.556 208.743 386.339 208.113 385.906 207.66C385.472 207.207 384.849 206.98 384.036 206.98H382.906V212.07H384.036ZM393.905 210.11C393.905 210.317 393.892 210.503 393.865 210.67H389.655C389.689 211.11 389.852 211.463 390.145 211.73C390.439 211.997 390.799 212.13 391.225 212.13C391.839 212.13 392.272 211.873 392.525 211.36H393.755C393.589 211.867 393.285 212.283 392.845 212.61C392.412 212.93 391.872 213.09 391.225 213.09C390.699 213.09 390.225 212.973 389.805 212.74C389.392 212.5 389.065 212.167 388.825 211.74C388.592 211.307 388.475 210.807 388.475 210.24C388.475 209.673 388.589 209.177 388.815 208.75C389.049 208.317 389.372 207.983 389.785 207.75C390.205 207.517 390.685 207.4 391.225 207.4C391.745 207.4 392.209 207.513 392.615 207.74C393.022 207.967 393.339 208.287 393.565 208.7C393.792 209.107 393.905 209.577 393.905 210.11ZM392.715 209.75C392.709 209.33 392.559 208.993 392.265 208.74C391.972 208.487 391.609 208.36 391.175 208.36C390.782 208.36 390.445 208.487 390.165 208.74C389.885 208.987 389.719 209.323 389.665 209.75H392.715ZM396.037 212.07H398.537V213H394.717V212.07L397.227 208.42H394.717V207.49H398.537V208.42L396.037 212.07Z" fill="black"/>
<path d="M1.23977 6.45C1.87977 5.89667 2.3831 5.44333 2.74977 5.09C3.1231 4.73 3.4331 4.35667 3.67977 3.97C3.92643 3.58333 4.04977 3.19667 4.04977 2.81C4.04977 2.41 3.9531 2.09667 3.75977 1.87C3.5731 1.64333 3.27643 1.53 2.86977 1.53C2.47643 1.53 2.16977 1.65667 1.94977 1.91C1.73643 2.15667 1.6231 2.49 1.60977 2.91H0.509766C0.529766 2.15 0.756432 1.57 1.18977 1.17C1.62977 0.763333 2.18643 0.56 2.85977 0.56C3.58643 0.56 4.1531 0.76 4.55977 1.16C4.9731 1.56 5.17977 2.09333 5.17977 2.76C5.17977 3.24 5.05643 3.70333 4.80977 4.15C4.56977 4.59 4.27977 4.98667 3.93977 5.34C3.60643 5.68667 3.17977 6.09 2.65977 6.55L2.20977 6.95H5.37977V7.9H0.519766V7.07L1.23977 6.45ZM6.38125 4.26C6.38125 3.10667 6.57458 2.20667 6.96125 1.56C7.35458 0.906666 8.02792 0.58 8.98125 0.58C9.93458 0.58 10.6046 0.906666 10.9913 1.56C11.3846 2.20667 11.5813 3.10667 11.5813 4.26C11.5813 5.42667 11.3846 6.34 10.9913 7C10.6046 7.65333 9.93458 7.98 8.98125 7.98C8.02792 7.98 7.35458 7.65333 6.96125 7C6.57458 6.34 6.38125 5.42667 6.38125 4.26ZM10.4613 4.26C10.4613 3.72 10.4246 3.26333 10.3513 2.89C10.2846 2.51667 10.1446 2.21333 9.93125 1.98C9.71792 1.74 9.40125 1.62 8.98125 1.62C8.56125 1.62 8.24458 1.74 8.03125 1.98C7.81792 2.21333 7.67458 2.51667 7.60125 2.89C7.53458 3.26333 7.50125 3.72 7.50125 4.26C7.50125 4.82 7.53458 5.29 7.60125 5.67C7.66792 6.05 7.80792 6.35667 8.02125 6.59C8.24125 6.82333 8.56125 6.94 8.98125 6.94C9.40125 6.94 9.71792 6.82333 9.93125 6.59C10.1513 6.35667 10.2946 6.05 10.3613 5.67C10.4279 5.29 10.4613 4.82 10.4613 4.26ZM12.7875 4.26C12.7875 3.10667 12.9808 2.20667 13.3675 1.56C13.7608 0.906666 14.4342 0.58 15.3875 0.58C16.3408 0.58 17.0108 0.906666 17.3975 1.56C17.7908 2.20667 17.9875 3.10667 17.9875 4.26C17.9875 5.42667 17.7908 6.34 17.3975 7C17.0108 7.65333 16.3408 7.98 15.3875 7.98C14.4342 7.98 13.7608 7.65333 13.3675 7C12.9808 6.34 12.7875 5.42667 12.7875 4.26ZM16.8675 4.26C16.8675 3.72 16.8308 3.26333 16.7575 2.89C16.6908 2.51667 16.5508 2.21333 16.3375 1.98C16.1242 1.74 15.8075 1.62 15.3875 1.62C14.9675 1.62 14.6508 1.74 14.4375 1.98C14.2242 2.21333 14.0808 2.51667 14.0075 2.89C13.9408 3.26333 13.9075 3.72 13.9075 4.26C13.9075 4.82 13.9408 5.29 14.0075 5.67C14.0742 6.05 14.2142 6.35667 14.4275 6.59C14.6475 6.82333 14.9675 6.94 15.3875 6.94C15.8075 6.94 16.1242 6.82333 16.3375 6.59C16.5575 6.35667 16.7008 6.05 16.7675 5.67C16.8342 5.29 16.8675 4.82 16.8675 4.26ZM19.1938 4.26C19.1938 3.10667 19.3871 2.20667 19.7738 1.56C20.1671 0.906666 20.8404 0.58 21.7938 0.58C22.7471 0.58 23.4171 0.906666 23.8038 1.56C24.1971 2.20667 24.3938 3.10667 24.3938 4.26C24.3938 5.42667 24.1971 6.34 23.8038 7C23.4171 7.65333 22.7471 7.98 21.7938 7.98C20.8404 7.98 20.1671 7.65333 19.7738 7C19.3871 6.34 19.1938 5.42667 19.1938 4.26ZM23.2738 4.26C23.2738 3.72 23.2371 3.26333 23.1638 2.89C23.0971 2.51667 22.9571 2.21333 22.7438 1.98C22.5304 1.74 22.2138 1.62 21.7938 1.62C21.3738 1.62 21.0571 1.74 20.8438 1.98C20.6304 2.21333 20.4871 2.51667 20.4138 2.89C20.3471 3.26333 20.3138 3.72 20.3138 4.26C20.3138 4.82 20.3471 5.29 20.4138 5.67C20.4804 6.05 20.6204 6.35667 20.8338 6.59C21.0538 6.82333 21.3738 6.94 21.7938 6.94C22.2138 6.94 22.5304 6.82333 22.7438 6.59C22.9638 6.35667 23.1071 6.05 23.1738 5.67C23.2404 5.29 23.2738 4.82 23.2738 4.26ZM2.76445 20.75V19.71H4.84445V27H3.69445V20.75H2.76445ZM7.64055 23.19C6.94721 22.8433 6.60055 22.2967 6.60055 21.55C6.60055 21.19 6.69055 20.86 6.87055 20.56C7.05055 20.26 7.32055 20.0233 7.68055 19.85C8.04055 19.67 8.48055 19.58 9.00055 19.58C9.51388 19.58 9.95055 19.67 10.3105 19.85C10.6772 20.0233 10.9505 20.26 11.1305 20.56C11.3105 20.86 11.4005 21.19 11.4005 21.55C11.4005 21.9233 11.3039 22.2533 11.1105 22.54C10.9239 22.82 10.6739 23.0367 10.3605 23.19C10.7405 23.33 11.0405 23.56 11.2605 23.88C11.4805 24.1933 11.5905 24.5633 11.5905 24.99C11.5905 25.4233 11.4805 25.8067 11.2605 26.14C11.0405 26.4733 10.7339 26.73 10.3405 26.91C9.94721 27.09 9.50055 27.18 9.00055 27.18C8.50055 27.18 8.05388 27.09 7.66055 26.91C7.27388 26.73 6.97055 26.4733 6.75055 26.14C6.53055 25.8067 6.42055 25.4233 6.42055 24.99C6.42055 24.5567 6.53055 24.1833 6.75055 23.87C6.97055 23.5567 7.26721 23.33 7.64055 23.19ZM10.3105 21.69C10.3105 21.3167 10.1939 21.03 9.96055 20.83C9.72721 20.63 9.40721 20.53 9.00055 20.53C8.60055 20.53 8.28388 20.63 8.05055 20.83C7.81721 21.03 7.70055 21.32 7.70055 21.7C7.70055 22.0333 7.82055 22.3067 8.06055 22.52C8.30721 22.7267 8.62055 22.83 9.00055 22.83C9.38055 22.83 9.69388 22.7233 9.94055 22.51C10.1872 22.2967 10.3105 22.0233 10.3105 21.69ZM9.00055 23.69C8.56055 23.69 8.20055 23.8 7.92055 24.02C7.64721 24.2333 7.51055 24.5433 7.51055 24.95C7.51055 25.33 7.64388 25.64 7.91055 25.88C8.17721 26.1133 8.54055 26.23 9.00055 26.23C9.45388 26.23 9.81055 26.11 10.0705 25.87C10.3372 25.63 10.4705 25.3233 10.4705 24.95C10.4705 24.55 10.3339 24.24 10.0605 24.02C9.79388 23.8 9.44055 23.69 9.00055 23.69ZM12.7875 23.26C12.7875 22.1067 12.9808 21.2067 13.3675 20.56C13.7608 19.9067 14.4342 19.58 15.3875 19.58C16.3408 19.58 17.0108 19.9067 17.3975 20.56C17.7908 21.2067 17.9875 22.1067 17.9875 23.26C17.9875 24.4267 17.7908 25.34 17.3975 26C17.0108 26.6533 16.3408 26.98 15.3875 26.98C14.4342 26.98 13.7608 26.6533 13.3675 26C12.9808 25.34 12.7875 24.4267 12.7875 23.26ZM16.8675 23.26C16.8675 22.72 16.8308 22.2633 16.7575 21.89C16.6908 21.5167 16.5508 21.2133 16.3375 20.98C16.1242 20.74 15.8075 20.62 15.3875 20.62C14.9675 20.62 14.6508 20.74 14.4375 20.98C14.2242 21.2133 14.0808 21.5167 14.0075 21.89C13.9408 22.2633 13.9075 22.72 13.9075 23.26C13.9075 23.82 13.9408 24.29 14.0075 24.67C14.0742 25.05 14.2142 25.3567 14.4275 25.59C14.6475 25.8233 14.9675 25.94 15.3875 25.94C15.8075 25.94 16.1242 25.8233 16.3375 25.59C16.5575 25.3567 16.7008 25.05 16.7675 24.67C16.8342 24.29 16.8675 23.82 16.8675 23.26ZM19.1938 23.26C19.1938 22.1067 19.3871 21.2067 19.7738 20.56C20.1671 19.9067 20.8404 19.58 21.7938 19.58C22.7471 19.58 23.4171 19.9067 23.8038 20.56C24.1971 21.2067 24.3938 22.1067 24.3938 23.26C24.3938 24.4267 24.1971 25.34 23.8038 26C23.4171 26.6533 22.7471 26.98 21.7938 26.98C20.8404 26.98 20.1671 26.6533 19.7738 26C19.3871 25.34 19.1938 24.4267 19.1938 23.26ZM23.2738 23.26C23.2738 22.72 23.2371 22.2633 23.1638 21.89C23.0971 21.5167 22.9571 21.2133 22.7438 20.98C22.5304 20.74 22.2138 20.62 21.7938 20.62C21.3738 20.62 21.0571 20.74 20.8438 20.98C20.6304 21.2133 20.4871 21.5167 20.4138 21.89C20.3471 22.2633 20.3138 22.72 20.3138 23.26C20.3138 23.82 20.3471 24.29 20.4138 24.67C20.4804 25.05 20.6204 25.3567 20.8338 25.59C21.0538 25.8233 21.3738 25.94 21.7938 25.94C22.2138 25.94 22.5304 25.8233 22.7438 25.59C22.9638 25.3567 23.1071 25.05 23.1738 24.67C23.2404 24.29 23.2738 23.82 23.2738 23.26ZM2.72539 39.75V38.71H4.80539V46H3.65539V39.75H2.72539ZM10.2915 40.4C10.2182 40.0933 10.0848 39.8633 9.89148 39.71C9.69815 39.5567 9.42815 39.48 9.08148 39.48C8.55482 39.48 8.16148 39.6833 7.90148 40.09C7.64148 40.49 7.50482 41.1567 7.49148 42.09C7.66482 41.7967 7.91815 41.57 8.25148 41.41C8.58482 41.25 8.94482 41.17 9.33148 41.17C9.77148 41.17 10.1582 41.2667 10.4915 41.46C10.8315 41.6467 11.0948 41.92 11.2815 42.28C11.4748 42.64 11.5715 43.07 11.5715 43.57C11.5715 44.0367 11.4782 44.4533 11.2915 44.82C11.1115 45.1867 10.8415 45.4767 10.4815 45.69C10.1215 45.8967 9.68815 46 9.18148 46C8.49482 46 7.95482 45.85 7.56148 45.55C7.17482 45.2433 6.90148 44.8133 6.74148 44.26C6.58815 43.7067 6.51148 43.0167 6.51148 42.19C6.51148 39.75 7.37148 38.53 9.09148 38.53C9.75815 38.53 10.2815 38.71 10.6615 39.07C11.0482 39.43 11.2748 39.8733 11.3415 40.4H10.2915ZM9.08148 42.13C8.67482 42.13 8.32815 42.2533 8.04148 42.5C7.76148 42.74 7.62148 43.09 7.62148 43.55C7.62148 44.01 7.75148 44.3767 8.01148 44.65C8.27815 44.9167 8.64815 45.05 9.12148 45.05C9.54148 45.05 9.87148 44.92 10.1115 44.66C10.3582 44.4 10.4815 44.0533 10.4815 43.62C10.4815 43.1667 10.3615 42.8067 10.1215 42.54C9.88815 42.2667 9.54148 42.13 9.08148 42.13ZM12.7875 42.26C12.7875 41.1067 12.9808 40.2067 13.3675 39.56C13.7608 38.9067 14.4342 38.58 15.3875 38.58C16.3408 38.58 17.0108 38.9067 17.3975 39.56C17.7908 40.2067 17.9875 41.1067 17.9875 42.26C17.9875 43.4267 17.7908 44.34 17.3975 45C17.0108 45.6533 16.3408 45.98 15.3875 45.98C14.4342 45.98 13.7608 45.6533 13.3675 45C12.9808 44.34 12.7875 43.4267 12.7875 42.26ZM16.8675 42.26C16.8675 41.72 16.8308 41.2633 16.7575 40.89C16.6908 40.5167 16.5508 40.2133 16.3375 39.98C16.1242 39.74 15.8075 39.62 15.3875 39.62C14.9675 39.62 14.6508 39.74 14.4375 39.98C14.2242 40.2133 14.0808 40.5167 14.0075 40.89C13.9408 41.2633 13.9075 41.72 13.9075 42.26C13.9075 42.82 13.9408 43.29 14.0075 43.67C14.0742 44.05 14.2142 44.3567 14.4275 44.59C14.6475 44.8233 14.9675 44.94 15.3875 44.94C15.8075 44.94 16.1242 44.8233 16.3375 44.59C16.5575 44.3567 16.7008 44.05 16.7675 43.67C16.8342 43.29 16.8675 42.82 16.8675 42.26ZM19.1938 42.26C19.1938 41.1067 19.3871 40.2067 19.7738 39.56C20.1671 38.9067 20.8404 38.58 21.7938 38.58C22.7471 38.58 23.4171 38.9067 23.8038 39.56C24.1971 40.2067 24.3938 41.1067 24.3938 42.26C24.3938 43.4267 24.1971 44.34 23.8038 45C23.4171 45.6533 22.7471 45.98 21.7938 45.98C20.8404 45.98 20.1671 45.6533 19.7738 45C19.3871 44.34 19.1938 43.4267 19.1938 42.26ZM23.2738 42.26C23.2738 41.72 23.2371 41.2633 23.1638 40.89C23.0971 40.5167 22.9571 40.2133 22.7438 39.98C22.5304 39.74 22.2138 39.62 21.7938 39.62C21.3738 39.62 21.0571 39.74 20.8438 39.98C20.6304 40.2133 20.4871 40.5167 20.4138 40.89C20.3471 41.2633 20.3138 41.72 20.3138 42.26C20.3138 42.82 20.3471 43.29 20.4138 43.67C20.4804 44.05 20.6204 44.3567 20.8338 44.59C21.0538 44.8233 21.3738 44.94 21.7938 44.94C22.2138 44.94 22.5304 44.8233 22.7438 44.59C22.9638 44.3567 23.1071 44.05 23.1738 43.67C23.2404 43.29 23.2738 42.82 23.2738 42.26ZM2.6668 58.75V57.71H4.7468V65H3.5968V58.75H2.6668ZM6.17289 63.48V62.62L9.53289 57.8H10.9129V62.49H11.8429V63.48H10.9129V65H9.79289V63.48H6.17289ZM9.84289 58.96L7.48289 62.49H9.84289V58.96ZM12.7875 61.26C12.7875 60.1067 12.9808 59.2067 13.3675 58.56C13.7608 57.9067 14.4342 57.58 15.3875 57.58C16.3408 57.58 17.0108 57.9067 17.3975 58.56C17.7908 59.2067 17.9875 60.1067 17.9875 61.26C17.9875 62.4267 17.7908 63.34 17.3975 64C17.0108 64.6533 16.3408 64.98 15.3875 64.98C14.4342 64.98 13.7608 64.6533 13.3675 64C12.9808 63.34 12.7875 62.4267 12.7875 61.26ZM16.8675 61.26C16.8675 60.72 16.8308 60.2633 16.7575 59.89C16.6908 59.5167 16.5508 59.2133 16.3375 58.98C16.1242 58.74 15.8075 58.62 15.3875 58.62C14.9675 58.62 14.6508 58.74 14.4375 58.98C14.2242 59.2133 14.0808 59.5167 14.0075 59.89C13.9408 60.2633 13.9075 60.72 13.9075 61.26C13.9075 61.82 13.9408 62.29 14.0075 62.67C14.0742 63.05 14.2142 63.3567 14.4275 63.59C14.6475 63.8233 14.9675 63.94 15.3875 63.94C15.8075 63.94 16.1242 63.8233 16.3375 63.59C16.5575 63.3567 16.7008 63.05 16.7675 62.67C16.8342 62.29 16.8675 61.82 16.8675 61.26ZM19.1938 61.26C19.1938 60.1067 19.3871 59.2067 19.7738 58.56C20.1671 57.9067 20.8404 57.58 21.7938 57.58C22.7471 57.58 23.4171 57.9067 23.8038 58.56C24.1971 59.2067 24.3938 60.1067 24.3938 61.26C24.3938 62.4267 24.1971 63.34 23.8038 64C23.4171 64.6533 22.7471 64.98 21.7938 64.98C20.8404 64.98 20.1671 64.6533 19.7738 64C19.3871 63.34 19.1938 62.4267 19.1938 61.26ZM23.2738 61.26C23.2738 60.72 23.2371 60.2633 23.1638 59.89C23.0971 59.5167 22.9571 59.2133 22.7438 58.98C22.5304 58.74 22.2138 58.62 21.7938 58.62C21.3738 58.62 21.0571 58.74 20.8438 58.98C20.6304 59.2133 20.4871 59.5167 20.4138 59.89C20.3471 60.2633 20.3138 60.72 20.3138 61.26C20.3138 61.82 20.3471 62.29 20.4138 62.67C20.4804 63.05 20.6204 63.3567 20.8338 63.59C21.0538 63.8233 21.3738 63.94 21.7938 63.94C22.2138 63.94 22.5304 63.8233 22.7438 63.59C22.9638 63.3567 23.1071 63.05 23.1738 62.67C23.2404 62.29 23.2738 61.82 23.2738 61.26ZM3.36992 77.75V76.71H5.44992V84H4.29992V77.75H3.36992ZM7.64602 82.45C8.28602 81.8967 8.78935 81.4433 9.15602 81.09C9.52935 80.73 9.83935 80.3567 10.086 79.97C10.3327 79.5833 10.456 79.1967 10.456 78.81C10.456 78.41 10.3593 78.0967 10.166 77.87C9.97935 77.6433 9.68268 77.53 9.27602 77.53C8.88268 77.53 8.57602 77.6567 8.35602 77.91C8.14268 78.1567 8.02935 78.49 8.01602 78.91H6.91602C6.93602 78.15 7.16268 77.57 7.59602 77.17C8.03602 76.7633 8.59268 76.56 9.26602 76.56C9.99268 76.56 10.5593 76.76 10.966 77.16C11.3793 77.56 11.586 78.0933 11.586 78.76C11.586 79.24 11.4627 79.7033 11.216 80.15C10.976 80.59 10.686 80.9867 10.346 81.34C10.0127 81.6867 9.58602 82.09 9.06602 82.55L8.61602 82.95H11.786V83.9H6.92602V83.07L7.64602 82.45ZM12.7875 80.26C12.7875 79.1067 12.9808 78.2067 13.3675 77.56C13.7608 76.9067 14.4342 76.58 15.3875 76.58C16.3408 76.58 17.0108 76.9067 17.3975 77.56C17.7908 78.2067 17.9875 79.1067 17.9875 80.26C17.9875 81.4267 17.7908 82.34 17.3975 83C17.0108 83.6533 16.3408 83.98 15.3875 83.98C14.4342 83.98 13.7608 83.6533 13.3675 83C12.9808 82.34 12.7875 81.4267 12.7875 80.26ZM16.8675 80.26C16.8675 79.72 16.8308 79.2633 16.7575 78.89C16.6908 78.5167 16.5508 78.2133 16.3375 77.98C16.1242 77.74 15.8075 77.62 15.3875 77.62C14.9675 77.62 14.6508 77.74 14.4375 77.98C14.2242 78.2133 14.0808 78.5167 14.0075 78.89C13.9408 79.2633 13.9075 79.72 13.9075 80.26C13.9075 80.82 13.9408 81.29 14.0075 81.67C14.0742 82.05 14.2142 82.3567 14.4275 82.59C14.6475 82.8233 14.9675 82.94 15.3875 82.94C15.8075 82.94 16.1242 82.8233 16.3375 82.59C16.5575 82.3567 16.7008 82.05 16.7675 81.67C16.8342 81.29 16.8675 80.82 16.8675 80.26ZM19.1938 80.26C19.1938 79.1067 19.3871 78.2067 19.7738 77.56C20.1671 76.9067 20.8404 76.58 21.7938 76.58C22.7471 76.58 23.4171 76.9067 23.8038 77.56C24.1971 78.2067 24.3938 79.1067 24.3938 80.26C24.3938 81.4267 24.1971 82.34 23.8038 83C23.4171 83.6533 22.7471 83.98 21.7938 83.98C20.8404 83.98 20.1671 83.6533 19.7738 83C19.3871 82.34 19.1938 81.4267 19.1938 80.26ZM23.2738 80.26C23.2738 79.72 23.2371 79.2633 23.1638 78.89C23.0971 78.5167 22.9571 78.2133 22.7438 77.98C22.5304 77.74 22.2138 77.62 21.7938 77.62C21.3738 77.62 21.0571 77.74 20.8438 77.98C20.6304 78.2133 20.4871 78.5167 20.4138 78.89C20.3471 79.2633 20.3138 79.72 20.3138 80.26C20.3138 80.82 20.3471 81.29 20.4138 81.67C20.4804 82.05 20.6204 82.3567 20.8338 82.59C21.0538 82.8233 21.3738 82.94 21.7938 82.94C22.2138 82.94 22.5304 82.8233 22.7438 82.59C22.9638 82.3567 23.1071 82.05 23.1738 81.67C23.2404 81.29 23.2738 80.82 23.2738 80.26ZM2.73516 96.75V95.71H4.81516V103H3.66516V96.75H2.73516ZM6.38125 99.26C6.38125 98.1067 6.57458 97.2067 6.96125 96.56C7.35458 95.9067 8.02792 95.58 8.98125 95.58C9.93458 95.58 10.6046 95.9067 10.9913 96.56C11.3846 97.2067 11.5813 98.1067 11.5813 99.26C11.5813 100.427 11.3846 101.34 10.9913 102C10.6046 102.653 9.93458 102.98 8.98125 102.98C8.02792 102.98 7.35458 102.653 6.96125 102C6.57458 101.34 6.38125 100.427 6.38125 99.26ZM10.4613 99.26C10.4613 98.72 10.4246 98.2633 10.3513 97.89C10.2846 97.5167 10.1446 97.2133 9.93125 96.98C9.71792 96.74 9.40125 96.62 8.98125 96.62C8.56125 96.62 8.24458 96.74 8.03125 96.98C7.81792 97.2133 7.67458 97.5167 7.60125 97.89C7.53458 98.2633 7.50125 98.72 7.50125 99.26C7.50125 99.82 7.53458 100.29 7.60125 100.67C7.66792 101.05 7.80792 101.357 8.02125 101.59C8.24125 101.823 8.56125 101.94 8.98125 101.94C9.40125 101.94 9.71792 101.823 9.93125 101.59C10.1513 101.357 10.2946 101.05 10.3613 100.67C10.4279 100.29 10.4613 99.82 10.4613 99.26ZM12.7875 99.26C12.7875 98.1067 12.9808 97.2067 13.3675 96.56C13.7608 95.9067 14.4342 95.58 15.3875 95.58C16.3408 95.58 17.0108 95.9067 17.3975 96.56C17.7908 97.2067 17.9875 98.1067 17.9875 99.26C17.9875 100.427 17.7908 101.34 17.3975 102C17.0108 102.653 16.3408 102.98 15.3875 102.98C14.4342 102.98 13.7608 102.653 13.3675 102C12.9808 101.34 12.7875 100.427 12.7875 99.26ZM16.8675 99.26C16.8675 98.72 16.8308 98.2633 16.7575 97.89C16.6908 97.5167 16.5508 97.2133 16.3375 96.98C16.1242 96.74 15.8075 96.62 15.3875 96.62C14.9675 96.62 14.6508 96.74 14.4375 96.98C14.2242 97.2133 14.0808 97.5167 14.0075 97.89C13.9408 98.2633 13.9075 98.72 13.9075 99.26C13.9075 99.82 13.9408 100.29 14.0075 100.67C14.0742 101.05 14.2142 101.357 14.4275 101.59C14.6475 101.823 14.9675 101.94 15.3875 101.94C15.8075 101.94 16.1242 101.823 16.3375 101.59C16.5575 101.357 16.7008 101.05 16.7675 100.67C16.8342 100.29 16.8675 99.82 16.8675 99.26ZM19.1938 99.26C19.1938 98.1067 19.3871 97.2067 19.7738 96.56C20.1671 95.9067 20.8404 95.58 21.7938 95.58C22.7471 95.58 23.4171 95.9067 23.8038 96.56C24.1971 97.2067 24.3938 98.1067 24.3938 99.26C24.3938 100.427 24.1971 101.34 23.8038 102C23.4171 102.653 22.7471 102.98 21.7938 102.98C20.8404 102.98 20.1671 102.653 19.7738 102C19.3871 101.34 19.1938 100.427 19.1938 99.26ZM23.2738 99.26C23.2738 98.72 23.2371 98.2633 23.1638 97.89C23.0971 97.5167 22.9571 97.2133 22.7438 96.98C22.5304 96.74 22.2138 96.62 21.7938 96.62C21.3738 96.62 21.0571 96.74 20.8438 96.98C20.6304 97.2133 20.4871 97.5167 20.4138 97.89C20.3471 98.2633 20.3138 98.72 20.3138 99.26C20.3138 99.82 20.3471 100.29 20.4138 100.67C20.4804 101.05 20.6204 101.357 20.8338 101.59C21.0538 101.823 21.3738 101.94 21.7938 101.94C22.2138 101.94 22.5304 101.823 22.7438 101.59C22.9638 101.357 23.1071 101.05 23.1738 100.67C23.2404 100.29 23.2738 99.82 23.2738 99.26ZM7.64055 118.19C6.94721 117.843 6.60055 117.297 6.60055 116.55C6.60055 116.19 6.69055 115.86 6.87055 115.56C7.05055 115.26 7.32055 115.023 7.68055 114.85C8.04055 114.67 8.48055 114.58 9.00055 114.58C9.51388 114.58 9.95055 114.67 10.3105 114.85C10.6772 115.023 10.9505 115.26 11.1305 115.56C11.3105 115.86 11.4005 116.19 11.4005 116.55C11.4005 116.923 11.3039 117.253 11.1105 117.54C10.9239 117.82 10.6739 118.037 10.3605 118.19C10.7405 118.33 11.0405 118.56 11.2605 118.88C11.4805 119.193 11.5905 119.563 11.5905 119.99C11.5905 120.423 11.4805 120.807 11.2605 121.14C11.0405 121.473 10.7339 121.73 10.3405 121.91C9.94721 122.09 9.50055 122.18 9.00055 122.18C8.50055 122.18 8.05388 122.09 7.66055 121.91C7.27388 121.73 6.97055 121.473 6.75055 121.14C6.53055 120.807 6.42055 120.423 6.42055 119.99C6.42055 119.557 6.53055 119.183 6.75055 118.87C6.97055 118.557 7.26721 118.33 7.64055 118.19ZM10.3105 116.69C10.3105 116.317 10.1939 116.03 9.96055 115.83C9.72721 115.63 9.40721 115.53 9.00055 115.53C8.60055 115.53 8.28388 115.63 8.05055 115.83C7.81721 116.03 7.70055 116.32 7.70055 116.7C7.70055 117.033 7.82055 117.307 8.06055 117.52C8.30721 117.727 8.62055 117.83 9.00055 117.83C9.38055 117.83 9.69388 117.723 9.94055 117.51C10.1872 117.297 10.3105 117.023 10.3105 116.69ZM9.00055 118.69C8.56055 118.69 8.20055 118.8 7.92055 119.02C7.64721 119.233 7.51055 119.543 7.51055 119.95C7.51055 120.33 7.64388 120.64 7.91055 120.88C8.17721 121.113 8.54055 121.23 9.00055 121.23C9.45388 121.23 9.81055 121.11 10.0705 120.87C10.3372 120.63 10.4705 120.323 10.4705 119.95C10.4705 119.55 10.3339 119.24 10.0605 119.02C9.79388 118.8 9.44055 118.69 9.00055 118.69ZM12.7875 118.26C12.7875 117.107 12.9808 116.207 13.3675 115.56C13.7608 114.907 14.4342 114.58 15.3875 114.58C16.3408 114.58 17.0108 114.907 17.3975 115.56C17.7908 116.207 17.9875 117.107 17.9875 118.26C17.9875 119.427 17.7908 120.34 17.3975 121C17.0108 121.653 16.3408 121.98 15.3875 121.98C14.4342 121.98 13.7608 121.653 13.3675 121C12.9808 120.34 12.7875 119.427 12.7875 118.26ZM16.8675 118.26C16.8675 117.72 16.8308 117.263 16.7575 116.89C16.6908 116.517 16.5508 116.213 16.3375 115.98C16.1242 115.74 15.8075 115.62 15.3875 115.62C14.9675 115.62 14.6508 115.74 14.4375 115.98C14.2242 116.213 14.0808 116.517 14.0075 116.89C13.9408 117.263 13.9075 117.72 13.9075 118.26C13.9075 118.82 13.9408 119.29 14.0075 119.67C14.0742 120.05 14.2142 120.357 14.4275 120.59C14.6475 120.823 14.9675 120.94 15.3875 120.94C15.8075 120.94 16.1242 120.823 16.3375 120.59C16.5575 120.357 16.7008 120.05 16.7675 119.67C16.8342 119.29 16.8675 118.82 16.8675 118.26ZM19.1938 118.26C19.1938 117.107 19.3871 116.207 19.7738 115.56C20.1671 114.907 20.8404 114.58 21.7938 114.58C22.7471 114.58 23.4171 114.907 23.8038 115.56C24.1971 116.207 24.3938 117.107 24.3938 118.26C24.3938 119.427 24.1971 120.34 23.8038 121C23.4171 121.653 22.7471 121.98 21.7938 121.98C20.8404 121.98 20.1671 121.653 19.7738 121C19.3871 120.34 19.1938 119.427 19.1938 118.26ZM23.2738 118.26C23.2738 117.72 23.2371 117.263 23.1638 116.89C23.0971 116.517 22.9571 116.213 22.7438 115.98C22.5304 115.74 22.2138 115.62 21.7938 115.62C21.3738 115.62 21.0571 115.74 20.8438 115.98C20.6304 116.213 20.4871 116.517 20.4138 116.89C20.3471 117.263 20.3138 117.72 20.3138 118.26C20.3138 118.82 20.3471 119.29 20.4138 119.67C20.4804 120.05 20.6204 120.357 20.8338 120.59C21.0538 120.823 21.3738 120.94 21.7938 120.94C22.2138 120.94 22.5304 120.823 22.7438 120.59C22.9638 120.357 23.1071 120.05 23.1738 119.67C23.2404 119.29 23.2738 118.82 23.2738 118.26ZM10.2915 135.4C10.2182 135.093 10.0848 134.863 9.89148 134.71C9.69815 134.557 9.42815 134.48 9.08148 134.48C8.55482 134.48 8.16148 134.683 7.90148 135.09C7.64148 135.49 7.50482 136.157 7.49148 137.09C7.66482 136.797 7.91815 136.57 8.25148 136.41C8.58482 136.25 8.94482 136.17 9.33148 136.17C9.77148 136.17 10.1582 136.267 10.4915 136.46C10.8315 136.647 11.0948 136.92 11.2815 137.28C11.4748 137.64 11.5715 138.07 11.5715 138.57C11.5715 139.037 11.4782 139.453 11.2915 139.82C11.1115 140.187 10.8415 140.477 10.4815 140.69C10.1215 140.897 9.68815 141 9.18148 141C8.49482 141 7.95482 140.85 7.56148 140.55C7.17482 140.243 6.90148 139.813 6.74148 139.26C6.58815 138.707 6.51148 138.017 6.51148 137.19C6.51148 134.75 7.37148 133.53 9.09148 133.53C9.75815 133.53 10.2815 133.71 10.6615 134.07C11.0482 134.43 11.2748 134.873 11.3415 135.4H10.2915ZM9.08148 137.13C8.67482 137.13 8.32815 137.253 8.04148 137.5C7.76148 137.74 7.62148 138.09 7.62148 138.55C7.62148 139.01 7.75148 139.377 8.01148 139.65C8.27815 139.917 8.64815 140.05 9.12148 140.05C9.54148 140.05 9.87148 139.92 10.1115 139.66C10.3582 139.4 10.4815 139.053 10.4815 138.62C10.4815 138.167 10.3615 137.807 10.1215 137.54C9.88815 137.267 9.54148 137.13 9.08148 137.13ZM12.7875 137.26C12.7875 136.107 12.9808 135.207 13.3675 134.56C13.7608 133.907 14.4342 133.58 15.3875 133.58C16.3408 133.58 17.0108 133.907 17.3975 134.56C17.7908 135.207 17.9875 136.107 17.9875 137.26C17.9875 138.427 17.7908 139.34 17.3975 140C17.0108 140.653 16.3408 140.98 15.3875 140.98C14.4342 140.98 13.7608 140.653 13.3675 140C12.9808 139.34 12.7875 138.427 12.7875 137.26ZM16.8675 137.26C16.8675 136.72 16.8308 136.263 16.7575 135.89C16.6908 135.517 16.5508 135.213 16.3375 134.98C16.1242 134.74 15.8075 134.62 15.3875 134.62C14.9675 134.62 14.6508 134.74 14.4375 134.98C14.2242 135.213 14.0808 135.517 14.0075 135.89C13.9408 136.263 13.9075 136.72 13.9075 137.26C13.9075 137.82 13.9408 138.29 14.0075 138.67C14.0742 139.05 14.2142 139.357 14.4275 139.59C14.6475 139.823 14.9675 139.94 15.3875 139.94C15.8075 139.94 16.1242 139.823 16.3375 139.59C16.5575 139.357 16.7008 139.05 16.7675 138.67C16.8342 138.29 16.8675 137.82 16.8675 137.26ZM19.1938 137.26C19.1938 136.107 19.3871 135.207 19.7738 134.56C20.1671 133.907 20.8404 133.58 21.7938 133.58C22.7471 133.58 23.4171 133.907 23.8038 134.56C24.1971 135.207 24.3938 136.107 24.3938 137.26C24.3938 138.427 24.1971 139.34 23.8038 140C23.4171 140.653 22.7471 140.98 21.7938 140.98C20.8404 140.98 20.1671 140.653 19.7738 140C19.3871 139.34 19.1938 138.427 19.1938 137.26ZM23.2738 137.26C23.2738 136.72 23.2371 136.263 23.1638 135.89C23.0971 135.517 22.9571 135.213 22.7438 134.98C22.5304 134.74 22.2138 134.62 21.7938 134.62C21.3738 134.62 21.0571 134.74 20.8438 134.98C20.6304 135.213 20.4871 135.517 20.4138 135.89C20.3471 136.263 20.3138 136.72 20.3138 137.26C20.3138 137.82 20.3471 138.29 20.4138 138.67C20.4804 139.05 20.6204 139.357 20.8338 139.59C21.0538 139.823 21.3738 139.94 21.7938 139.94C22.2138 139.94 22.5304 139.823 22.7438 139.59C22.9638 139.357 23.1071 139.05 23.1738 138.67C23.2404 138.29 23.2738 137.82 23.2738 137.26ZM6.17289 158.48V157.62L9.53289 152.8H10.9129V157.49H11.8429V158.48H10.9129V160H9.79289V158.48H6.17289ZM9.84289 153.96L7.48289 157.49H9.84289V153.96ZM12.7875 156.26C12.7875 155.107 12.9808 154.207 13.3675 153.56C13.7608 152.907 14.4342 152.58 15.3875 152.58C16.3408 152.58 17.0108 152.907 17.3975 153.56C17.7908 154.207 17.9875 155.107 17.9875 156.26C17.9875 157.427 17.7908 158.34 17.3975 159C17.0108 159.653 16.3408 159.98 15.3875 159.98C14.4342 159.98 13.7608 159.653 13.3675 159C12.9808 158.34 12.7875 157.427 12.7875 156.26ZM16.8675 156.26C16.8675 155.72 16.8308 155.263 16.7575 154.89C16.6908 154.517 16.5508 154.213 16.3375 153.98C16.1242 153.74 15.8075 153.62 15.3875 153.62C14.9675 153.62 14.6508 153.74 14.4375 153.98C14.2242 154.213 14.0808 154.517 14.0075 154.89C13.9408 155.263 13.9075 155.72 13.9075 156.26C13.9075 156.82 13.9408 157.29 14.0075 157.67C14.0742 158.05 14.2142 158.357 14.4275 158.59C14.6475 158.823 14.9675 158.94 15.3875 158.94C15.8075 158.94 16.1242 158.823 16.3375 158.59C16.5575 158.357 16.7008 158.05 16.7675 157.67C16.8342 157.29 16.8675 156.82 16.8675 156.26ZM19.1938 156.26C19.1938 155.107 19.3871 154.207 19.7738 153.56C20.1671 152.907 20.8404 152.58 21.7938 152.58C22.7471 152.58 23.4171 152.907 23.8038 153.56C24.1971 154.207 24.3938 155.107 24.3938 156.26C24.3938 157.427 24.1971 158.34 23.8038 159C23.4171 159.653 22.7471 159.98 21.7938 159.98C20.8404 159.98 20.1671 159.653 19.7738 159C19.3871 158.34 19.1938 157.427 19.1938 156.26ZM23.2738 156.26C23.2738 155.72 23.2371 155.263 23.1638 154.89C23.0971 154.517 22.9571 154.213 22.7438 153.98C22.5304 153.74 22.2138 153.62 21.7938 153.62C21.3738 153.62 21.0571 153.74 20.8438 153.98C20.6304 154.213 20.4871 154.517 20.4138 154.89C20.3471 155.263 20.3138 155.72 20.3138 156.26C20.3138 156.82 20.3471 157.29 20.4138 157.67C20.4804 158.05 20.6204 158.357 20.8338 158.59C21.0538 158.823 21.3738 158.94 21.7938 158.94C22.2138 158.94 22.5304 158.823 22.7438 158.59C22.9638 158.357 23.1071 158.05 23.1738 157.67C23.2404 157.29 23.2738 156.82 23.2738 156.26ZM7.64602 177.45C8.28602 176.897 8.78935 176.443 9.15602 176.09C9.52935 175.73 9.83935 175.357 10.086 174.97C10.3327 174.583 10.456 174.197 10.456 173.81C10.456 173.41 10.3593 173.097 10.166 172.87C9.97935 172.643 9.68268 172.53 9.27602 172.53C8.88268 172.53 8.57602 172.657 8.35602 172.91C8.14268 173.157 8.02935 173.49 8.01602 173.91H6.91602C6.93602 173.15 7.16268 172.57 7.59602 172.17C8.03602 171.763 8.59268 171.56 9.26602 171.56C9.99268 171.56 10.5593 171.76 10.966 172.16C11.3793 172.56 11.586 173.093 11.586 173.76C11.586 174.24 11.4627 174.703 11.216 175.15C10.976 175.59 10.686 175.987 10.346 176.34C10.0127 176.687 9.58602 177.09 9.06602 177.55L8.61602 177.95H11.786V178.9H6.92602V178.07L7.64602 177.45ZM12.7875 175.26C12.7875 174.107 12.9808 173.207 13.3675 172.56C13.7608 171.907 14.4342 171.58 15.3875 171.58C16.3408 171.58 17.0108 171.907 17.3975 172.56C17.7908 173.207 17.9875 174.107 17.9875 175.26C17.9875 176.427 17.7908 177.34 17.3975 178C17.0108 178.653 16.3408 178.98 15.3875 178.98C14.4342 178.98 13.7608 178.653 13.3675 178C12.9808 177.34 12.7875 176.427 12.7875 175.26ZM16.8675 175.26C16.8675 174.72 16.8308 174.263 16.7575 173.89C16.6908 173.517 16.5508 173.213 16.3375 172.98C16.1242 172.74 15.8075 172.62 15.3875 172.62C14.9675 172.62 14.6508 172.74 14.4375 172.98C14.2242 173.213 14.0808 173.517 14.0075 173.89C13.9408 174.263 13.9075 174.72 13.9075 175.26C13.9075 175.82 13.9408 176.29 14.0075 176.67C14.0742 177.05 14.2142 177.357 14.4275 177.59C14.6475 177.823 14.9675 177.94 15.3875 177.94C15.8075 177.94 16.1242 177.823 16.3375 177.59C16.5575 177.357 16.7008 177.05 16.7675 176.67C16.8342 176.29 16.8675 175.82 16.8675 175.26ZM19.1938 175.26C19.1938 174.107 19.3871 173.207 19.7738 172.56C20.1671 171.907 20.8404 171.58 21.7938 171.58C22.7471 171.58 23.4171 171.907 23.8038 172.56C24.1971 173.207 24.3938 174.107 24.3938 175.26C24.3938 176.427 24.1971 177.34 23.8038 178C23.4171 178.653 22.7471 178.98 21.7938 178.98C20.8404 178.98 20.1671 178.653 19.7738 178C19.3871 177.34 19.1938 176.427 19.1938 175.26ZM23.2738 175.26C23.2738 174.72 23.2371 174.263 23.1638 173.89C23.0971 173.517 22.9571 173.213 22.7438 172.98C22.5304 172.74 22.2138 172.62 21.7938 172.62C21.3738 172.62 21.0571 172.74 20.8438 172.98C20.6304 173.213 20.4871 173.517 20.4138 173.89C20.3471 174.263 20.3138 174.72 20.3138 175.26C20.3138 175.82 20.3471 176.29 20.4138 176.67C20.4804 177.05 20.6204 177.357 20.8338 177.59C21.0538 177.823 21.3738 177.94 21.7938 177.94C22.2138 177.94 22.5304 177.823 22.7438 177.59C22.9638 177.357 23.1071 177.05 23.1738 176.67C23.2404 176.29 23.2738 175.82 23.2738 175.26ZM19.1938 194.26C19.1938 193.107 19.3871 192.207 19.7738 191.56C20.1671 190.907 20.8404 190.58 21.7938 190.58C22.7471 190.58 23.4171 190.907 23.8038 191.56C24.1971 192.207 24.3938 193.107 24.3938 194.26C24.3938 195.427 24.1971 196.34 23.8038 197C23.4171 197.653 22.7471 197.98 21.7938 197.98C20.8404 197.98 20.1671 197.653 19.7738 197C19.3871 196.34 19.1938 195.427 19.1938 194.26ZM23.2738 194.26C23.2738 193.72 23.2371 193.263 23.1638 192.89C23.0971 192.517 22.9571 192.213 22.7438 191.98C22.5304 191.74 22.2138 191.62 21.7938 191.62C21.3738 191.62 21.0571 191.74 20.8438 191.98C20.6304 192.213 20.4871 192.517 20.4138 192.89C20.3471 193.263 20.3138 193.72 20.3138 194.26C20.3138 194.82 20.3471 195.29 20.4138 195.67C20.4804 196.05 20.6204 196.357 20.8338 196.59C21.0538 196.823 21.3738 196.94 21.7938 196.94C22.2138 196.94 22.5304 196.823 22.7438 196.59C22.9638 196.357 23.1071 196.05 23.1738 195.67C23.2404 195.29 23.2738 194.82 23.2738 194.26Z" fill="black"/>
</svg>