<svg width="422" height="242" viewBox="0 0 422 242" fill="none" xmlns="http://www.w3.org/2000/svg">
<path d="M315.94 232.03C316.7 232.03 317.357 232.173 317.91 232.46C318.47 232.74 318.897 233.143 319.19 233.67C319.49 234.197 319.64 234.817 319.64 235.53C319.64 236.243 319.49 236.863 319.19 237.39C318.897 237.91 318.47 238.31 317.91 238.59C317.357 238.863 316.7 239 315.94 239H313.77V232.03H315.94ZM315.94 238.25C316.84 238.25 317.527 238.013 318 237.54C318.473 237.06 318.71 236.39 318.71 235.53C318.71 234.663 318.47 233.987 317.99 233.5C317.517 233.013 316.833 232.77 315.94 232.77H314.68V238.25H315.94ZM325.84 236.05C325.84 236.223 325.83 236.407 325.81 236.6H321.43C321.464 237.14 321.647 237.563 321.98 237.87C322.32 238.17 322.73 238.32 323.21 238.32C323.604 238.32 323.93 238.23 324.19 238.05C324.457 237.863 324.644 237.617 324.75 237.31H325.73C325.584 237.837 325.29 238.267 324.85 238.6C324.41 238.927 323.864 239.09 323.21 239.09C322.69 239.09 322.224 238.973 321.81 238.74C321.404 238.507 321.084 238.177 320.85 237.75C320.617 237.317 320.5 236.817 320.5 236.25C320.5 235.683 320.614 235.187 320.84 234.76C321.067 234.333 321.384 234.007 321.79 233.78C322.204 233.547 322.677 233.43 323.21 233.43C323.73 233.43 324.19 233.543 324.59 233.77C324.99 233.997 325.297 234.31 325.51 234.71C325.73 235.103 325.84 235.55 325.84 236.05ZM324.9 235.86C324.9 235.513 324.824 235.217 324.67 234.97C324.517 234.717 324.307 234.527 324.04 234.4C323.78 234.267 323.49 234.2 323.17 234.2C322.71 234.2 322.317 234.347 321.99 234.64C321.67 234.933 321.487 235.34 321.44 235.86H324.9ZM328.981 239.09C328.561 239.09 328.185 239.02 327.851 238.88C327.518 238.733 327.255 238.533 327.061 238.28C326.868 238.02 326.761 237.723 326.741 237.39H327.681C327.708 237.663 327.835 237.887 328.061 238.06C328.295 238.233 328.598 238.32 328.971 238.32C329.318 238.32 329.591 238.243 329.791 238.09C329.991 237.937 330.091 237.743 330.091 237.51C330.091 237.27 329.985 237.093 329.771 236.98C329.558 236.86 329.228 236.743 328.781 236.63C328.375 236.523 328.041 236.417 327.781 236.31C327.528 236.197 327.308 236.033 327.121 235.82C326.941 235.6 326.851 235.313 326.851 234.96C326.851 234.68 326.935 234.423 327.101 234.19C327.268 233.957 327.505 233.773 327.811 233.64C328.118 233.5 328.468 233.43 328.861 233.43C329.468 233.43 329.958 233.583 330.331 233.89C330.705 234.197 330.905 234.617 330.931 235.15H330.021C330.001 234.863 329.885 234.633 329.671 234.46C329.465 234.287 329.185 234.2 328.831 234.2C328.505 234.2 328.245 234.27 328.051 234.41C327.858 234.55 327.761 234.733 327.761 234.96C327.761 235.14 327.818 235.29 327.931 235.41C328.051 235.523 328.198 235.617 328.371 235.69C328.551 235.757 328.798 235.833 329.111 235.92C329.505 236.027 329.825 236.133 330.071 236.24C330.318 236.34 330.528 236.493 330.701 236.7C330.881 236.907 330.975 237.177 330.981 237.51C330.981 237.81 330.898 238.08 330.731 238.32C330.565 238.56 330.328 238.75 330.021 238.89C329.721 239.023 329.375 239.09 328.981 239.09ZM333.176 234.53C333.356 234.217 333.623 233.957 333.976 233.75C334.336 233.537 334.753 233.43 335.226 233.43C335.713 233.43 336.153 233.547 336.546 233.78C336.946 234.013 337.259 234.343 337.486 234.77C337.713 235.19 337.826 235.68 337.826 236.24C337.826 236.793 337.713 237.287 337.486 237.72C337.259 238.153 336.946 238.49 336.546 238.73C336.153 238.97 335.713 239.09 335.226 239.09C334.759 239.09 334.346 238.987 333.986 238.78C333.633 238.567 333.363 238.303 333.176 237.99V241.6H332.266V233.52H333.176V234.53ZM336.896 236.24C336.896 235.827 336.813 235.467 336.646 235.16C336.479 234.853 336.253 234.62 335.966 234.46C335.686 234.3 335.376 234.22 335.036 234.22C334.703 234.22 334.393 234.303 334.106 234.47C333.826 234.63 333.599 234.867 333.426 235.18C333.259 235.487 333.176 235.843 333.176 236.25C333.176 236.663 333.259 237.027 333.426 237.34C333.599 237.647 333.826 237.883 334.106 238.05C334.393 238.21 334.703 238.29 335.036 238.29C335.376 238.29 335.686 238.21 335.966 238.05C336.253 237.883 336.479 237.647 336.646 237.34C336.813 237.027 336.896 236.66 336.896 236.24ZM344.024 236.05C344.024 236.223 344.014 236.407 343.994 236.6H339.614C339.647 237.14 339.831 237.563 340.164 237.87C340.504 238.17 340.914 238.32 341.394 238.32C341.787 238.32 342.114 238.23 342.374 238.05C342.641 237.863 342.827 237.617 342.934 237.31H343.914C343.767 237.837 343.474 238.267 343.034 238.6C342.594 238.927 342.047 239.09 341.394 239.09C340.874 239.09 340.407 238.973 339.994 238.74C339.587 238.507 339.267 238.177 339.034 237.75C338.801 237.317 338.684 236.817 338.684 236.25C338.684 235.683 338.797 235.187 339.024 234.76C339.251 234.333 339.567 234.007 339.974 233.78C340.387 233.547 340.861 233.43 341.394 233.43C341.914 233.43 342.374 233.543 342.774 233.77C343.174 233.997 343.481 234.31 343.694 234.71C343.914 235.103 344.024 235.55 344.024 236.05ZM343.084 235.86C343.084 235.513 343.007 235.217 342.854 234.97C342.701 234.717 342.491 234.527 342.224 234.4C341.964 234.267 341.674 234.2 341.354 234.2C340.894 234.2 340.501 234.347 340.174 234.64C339.854 234.933 339.671 235.34 339.624 235.86H343.084ZM347.165 239.09C346.745 239.09 346.368 239.02 346.035 238.88C345.702 238.733 345.438 238.533 345.245 238.28C345.052 238.02 344.945 237.723 344.925 237.39H345.865C345.892 237.663 346.018 237.887 346.245 238.06C346.478 238.233 346.782 238.32 347.155 238.32C347.502 238.32 347.775 238.243 347.975 238.09C348.175 237.937 348.275 237.743 348.275 237.51C348.275 237.27 348.168 237.093 347.955 236.98C347.742 236.86 347.412 236.743 346.965 236.63C346.558 236.523 346.225 236.417 345.965 236.31C345.712 236.197 345.492 236.033 345.305 235.82C345.125 235.6 345.035 235.313 345.035 234.96C345.035 234.68 345.118 234.423 345.285 234.19C345.452 233.957 345.688 233.773 345.995 233.64C346.302 233.5 346.652 233.43 347.045 233.43C347.652 233.43 348.142 233.583 348.515 233.89C348.888 234.197 349.088 234.617 349.115 235.15H348.205C348.185 234.863 348.068 234.633 347.855 234.46C347.648 234.287 347.368 234.2 347.015 234.2C346.688 234.2 346.428 234.27 346.235 234.41C346.042 234.55 345.945 234.733 345.945 234.96C345.945 235.14 346.002 235.29 346.115 235.41C346.235 235.523 346.382 235.617 346.555 235.69C346.735 235.757 346.982 235.833 347.295 235.92C347.688 236.027 348.008 236.133 348.255 236.24C348.502 236.34 348.712 236.493 348.885 236.7C349.065 236.907 349.158 237.177 349.165 237.51C349.165 237.81 349.082 238.08 348.915 238.32C348.748 238.56 348.512 238.75 348.205 238.89C347.905 239.023 347.558 239.09 347.165 239.09ZM350.11 236.24C350.11 235.68 350.223 235.19 350.45 234.77C350.676 234.343 350.986 234.013 351.38 233.78C351.78 233.547 352.223 233.43 352.71 233.43C353.19 233.43 353.606 233.533 353.96 233.74C354.313 233.947 354.576 234.207 354.75 234.52V233.52H355.67V239H354.75V237.98C354.57 238.3 354.3 238.567 353.94 238.78C353.586 238.987 353.173 239.09 352.7 239.09C352.213 239.09 351.773 238.97 351.38 238.73C350.986 238.49 350.676 238.153 350.45 237.72C350.223 237.287 350.11 236.793 350.11 236.24ZM354.75 236.25C354.75 235.837 354.666 235.477 354.5 235.17C354.333 234.863 354.106 234.63 353.82 234.47C353.54 234.303 353.23 234.22 352.89 234.22C352.55 234.22 352.24 234.3 351.96 234.46C351.68 234.62 351.456 234.853 351.29 235.16C351.123 235.467 351.04 235.827 351.04 236.24C351.04 236.66 351.123 237.027 351.29 237.34C351.456 237.647 351.68 237.883 351.96 238.05C352.24 238.21 352.55 238.29 352.89 238.29C353.23 238.29 353.54 238.21 353.82 238.05C354.106 237.883 354.333 237.647 354.5 237.34C354.666 237.027 354.75 236.663 354.75 236.25ZM359.148 239.09C358.728 239.09 358.351 239.02 358.018 238.88C357.684 238.733 357.421 238.533 357.228 238.28C357.034 238.02 356.928 237.723 356.908 237.39H357.848C357.874 237.663 358.001 237.887 358.228 238.06C358.461 238.233 358.764 238.32 359.138 238.32C359.484 238.32 359.758 238.243 359.958 238.09C360.158 237.937 360.258 237.743 360.258 237.51C360.258 237.27 360.151 237.093 359.938 236.98C359.724 236.86 359.394 236.743 358.948 236.63C358.541 236.523 358.208 236.417 357.948 236.31C357.694 236.197 357.474 236.033 357.288 235.82C357.108 235.6 357.018 235.313 357.018 234.96C357.018 234.68 357.101 234.423 357.268 234.19C357.434 233.957 357.671 233.773 357.978 233.64C358.284 233.5 358.634 233.43 359.028 233.43C359.634 233.43 360.124 233.583 360.498 233.89C360.871 234.197 361.071 234.617 361.098 235.15H360.188C360.168 234.863 360.051 234.633 359.838 234.46C359.631 234.287 359.351 234.2 358.998 234.2C358.671 234.2 358.411 234.27 358.218 234.41C358.024 234.55 357.928 234.733 357.928 234.96C357.928 235.14 357.984 235.29 358.098 235.41C358.218 235.523 358.364 235.617 358.538 235.69C358.718 235.757 358.964 235.833 359.278 235.92C359.671 236.027 359.991 236.133 360.238 236.24C360.484 236.34 360.694 236.493 360.868 236.7C361.048 236.907 361.141 237.177 361.148 237.51C361.148 237.81 361.064 238.08 360.898 238.32C360.731 238.56 360.494 238.75 360.188 238.89C359.888 239.023 359.541 239.09 359.148 239.09ZM366.008 234.41C366.168 234.097 366.395 233.853 366.688 233.68C366.988 233.507 367.351 233.42 367.778 233.42V234.36H367.538C366.518 234.36 366.008 234.913 366.008 236.02V239H365.098V233.52H366.008V234.41ZM373.829 236.05C373.829 236.223 373.819 236.407 373.799 236.6H369.419C369.452 237.14 369.635 237.563 369.969 237.87C370.309 238.17 370.719 238.32 371.199 238.32C371.592 238.32 371.919 238.23 372.179 238.05C372.445 237.863 372.632 237.617 372.739 237.31H373.719C373.572 237.837 373.279 238.267 372.839 238.6C372.399 238.927 371.852 239.09 371.199 239.09C370.679 239.09 370.212 238.973 369.799 238.74C369.392 238.507 369.072 238.177 368.839 237.75C368.605 237.317 368.489 236.817 368.489 236.25C368.489 235.683 368.602 235.187 368.829 234.76C369.055 234.333 369.372 234.007 369.779 233.78C370.192 233.547 370.665 233.43 371.199 233.43C371.719 233.43 372.179 233.543 372.579 233.77C372.979 233.997 373.285 234.31 373.499 234.71C373.719 235.103 373.829 235.55 373.829 236.05ZM372.889 235.86C372.889 235.513 372.812 235.217 372.659 234.97C372.505 234.717 372.295 234.527 372.029 234.4C371.769 234.267 371.479 234.2 371.159 234.2C370.699 234.2 370.305 234.347 369.979 234.64C369.659 234.933 369.475 235.34 369.429 235.86H372.889ZM377.29 233.43C377.763 233.43 378.176 233.533 378.53 233.74C378.89 233.947 379.156 234.207 379.33 234.52V233.52H380.25V239.12C380.25 239.62 380.143 240.063 379.93 240.45C379.716 240.843 379.41 241.15 379.01 241.37C378.616 241.59 378.156 241.7 377.63 241.7C376.91 241.7 376.31 241.53 375.83 241.19C375.35 240.85 375.066 240.387 374.98 239.8H375.88C375.98 240.133 376.186 240.4 376.5 240.6C376.813 240.807 377.19 240.91 377.63 240.91C378.13 240.91 378.536 240.753 378.85 240.44C379.17 240.127 379.33 239.687 379.33 239.12V237.97C379.15 238.29 378.883 238.557 378.53 238.77C378.176 238.983 377.763 239.09 377.29 239.09C376.803 239.09 376.36 238.97 375.96 238.73C375.566 238.49 375.256 238.153 375.03 237.72C374.803 237.287 374.69 236.793 374.69 236.24C374.69 235.68 374.803 235.19 375.03 234.77C375.256 234.343 375.566 234.013 375.96 233.78C376.36 233.547 376.803 233.43 377.29 233.43ZM379.33 236.25C379.33 235.837 379.246 235.477 379.08 235.17C378.913 234.863 378.686 234.63 378.4 234.47C378.12 234.303 377.81 234.22 377.47 234.22C377.13 234.22 376.82 234.3 376.54 234.46C376.26 234.62 376.036 234.853 375.87 235.16C375.703 235.467 375.62 235.827 375.62 236.24C375.62 236.66 375.703 237.027 375.87 237.34C376.036 237.647 376.26 237.883 376.54 238.05C376.82 238.21 377.13 238.29 377.47 238.29C377.81 238.29 378.12 238.21 378.4 238.05C378.686 237.883 378.913 237.647 379.08 237.34C379.246 237.027 379.33 236.663 379.33 236.25ZM382.258 232.63C382.084 232.63 381.938 232.57 381.818 232.45C381.698 232.33 381.638 232.183 381.638 232.01C381.638 231.837 381.698 231.69 381.818 231.57C381.938 231.45 382.084 231.39 382.258 231.39C382.424 231.39 382.564 231.45 382.678 231.57C382.798 231.69 382.858 231.837 382.858 232.01C382.858 232.183 382.798 232.33 382.678 232.45C382.564 232.57 382.424 232.63 382.258 232.63ZM382.698 233.52V239H381.788V233.52H382.698ZM386.189 239.09C385.769 239.09 385.392 239.02 385.059 238.88C384.725 238.733 384.462 238.533 384.269 238.28C384.075 238.02 383.969 237.723 383.949 237.39H384.889C384.915 237.663 385.042 237.887 385.269 238.06C385.502 238.233 385.805 238.32 386.179 238.32C386.525 238.32 386.799 238.243 386.999 238.09C387.199 237.937 387.299 237.743 387.299 237.51C387.299 237.27 387.192 237.093 386.979 236.98C386.765 236.86 386.435 236.743 385.989 236.63C385.582 236.523 385.249 236.417 384.989 236.31C384.735 236.197 384.515 236.033 384.329 235.82C384.149 235.6 384.059 235.313 384.059 234.96C384.059 234.68 384.142 234.423 384.309 234.19C384.475 233.957 384.712 233.773 385.019 233.64C385.325 233.5 385.675 233.43 386.069 233.43C386.675 233.43 387.165 233.583 387.539 233.89C387.912 234.197 388.112 234.617 388.139 235.15H387.229C387.209 234.863 387.092 234.633 386.879 234.46C386.672 234.287 386.392 234.2 386.039 234.2C385.712 234.2 385.452 234.27 385.259 234.41C385.065 234.55 384.969 234.733 384.969 234.96C384.969 235.14 385.025 235.29 385.139 235.41C385.259 235.523 385.405 235.617 385.579 235.69C385.759 235.757 386.005 235.833 386.319 235.92C386.712 236.027 387.032 236.133 387.279 236.24C387.525 236.34 387.735 236.493 387.909 236.7C388.089 236.907 388.182 237.177 388.189 237.51C388.189 237.81 388.105 238.08 387.939 238.32C387.772 238.56 387.535 238.75 387.229 238.89C386.929 239.023 386.582 239.09 386.189 239.09ZM390.583 234.27V237.5C390.583 237.767 390.64 237.957 390.753 238.07C390.866 238.177 391.063 238.23 391.343 238.23H392.013V239H391.193C390.686 239 390.306 238.883 390.053 238.65C389.8 238.417 389.673 238.033 389.673 237.5V234.27H388.963V233.52H389.673V232.14H390.583V233.52H392.013V234.27H390.583ZM394.026 234.41C394.186 234.097 394.412 233.853 394.706 233.68C395.006 233.507 395.369 233.42 395.796 233.42V234.36H395.556C394.536 234.36 394.026 234.913 394.026 236.02V239H393.116V233.52H394.026V234.41ZM396.506 236.24C396.506 235.68 396.62 235.19 396.846 234.77C397.073 234.343 397.383 234.013 397.776 233.78C398.176 233.547 398.62 233.43 399.106 233.43C399.586 233.43 400.003 233.533 400.356 233.74C400.71 233.947 400.973 234.207 401.146 234.52V233.52H402.066V239H401.146V237.98C400.966 238.3 400.696 238.567 400.336 238.78C399.983 238.987 399.57 239.09 399.096 239.09C398.61 239.09 398.17 238.97 397.776 238.73C397.383 238.49 397.073 238.153 396.846 237.72C396.62 237.287 396.506 236.793 396.506 236.24ZM401.146 236.25C401.146 235.837 401.063 235.477 400.896 235.17C400.73 234.863 400.503 234.63 400.216 234.47C399.936 234.303 399.626 234.22 399.286 234.22C398.946 234.22 398.636 234.3 398.356 234.46C398.076 234.62 397.853 234.853 397.686 235.16C397.52 235.467 397.436 235.827 397.436 236.24C397.436 236.66 397.52 237.027 397.686 237.34C397.853 237.647 398.076 237.883 398.356 238.05C398.636 238.21 398.946 238.29 399.286 238.29C399.626 238.29 399.936 238.21 400.216 238.05C400.503 237.883 400.73 237.647 400.896 237.34C401.063 237.027 401.146 236.663 401.146 236.25ZM403.264 236.24C403.264 235.68 403.377 235.19 403.604 234.77C403.831 234.343 404.141 234.013 404.534 233.78C404.934 233.547 405.381 233.43 405.874 233.43C406.301 233.43 406.697 233.53 407.064 233.73C407.431 233.923 407.711 234.18 407.904 234.5V231.6H408.824V239H407.904V237.97C407.724 238.297 407.457 238.567 407.104 238.78C406.751 238.987 406.337 239.09 405.864 239.09C405.377 239.09 404.934 238.97 404.534 238.73C404.141 238.49 403.831 238.153 403.604 237.72C403.377 237.287 403.264 236.793 403.264 236.24ZM407.904 236.25C407.904 235.837 407.821 235.477 407.654 235.17C407.487 234.863 407.261 234.63 406.974 234.47C406.694 234.303 406.384 234.22 406.044 234.22C405.704 234.22 405.394 234.3 405.114 234.46C404.834 234.62 404.611 234.853 404.444 235.16C404.277 235.467 404.194 235.827 404.194 236.24C404.194 236.66 404.277 237.027 404.444 237.34C404.611 237.647 404.834 237.883 405.114 238.05C405.394 238.21 405.704 238.29 406.044 238.29C406.384 238.29 406.694 238.21 406.974 238.05C407.261 237.883 407.487 237.647 407.654 237.34C407.821 237.027 407.904 236.663 407.904 236.25ZM410.022 236.24C410.022 235.68 410.135 235.19 410.362 234.77C410.588 234.343 410.898 234.013 411.292 233.78C411.692 233.547 412.135 233.43 412.622 233.43C413.102 233.43 413.518 233.533 413.872 233.74C414.225 233.947 414.488 234.207 414.662 234.52V233.52H415.582V239H414.662V237.98C414.482 238.3 414.212 238.567 413.852 238.78C413.498 238.987 413.085 239.09 412.612 239.09C412.125 239.09 411.685 238.97 411.292 238.73C410.898 238.49 410.588 238.153 410.362 237.72C410.135 237.287 410.022 236.793 410.022 236.24ZM414.662 236.25C414.662 235.837 414.578 235.477 414.412 235.17C414.245 234.863 414.018 234.63 413.732 234.47C413.452 234.303 413.142 234.22 412.802 234.22C412.462 234.22 412.152 234.3 411.872 234.46C411.592 234.62 411.368 234.853 411.202 235.16C411.035 235.467 410.952 235.827 410.952 236.24C410.952 236.66 411.035 237.027 411.202 237.34C411.368 237.647 411.592 237.883 411.872 238.05C412.152 238.21 412.462 238.29 412.802 238.29C413.142 238.29 413.452 238.21 413.732 238.05C414.018 237.883 414.245 237.647 414.412 237.34C414.578 237.027 414.662 236.663 414.662 236.25ZM419.06 239.09C418.64 239.09 418.263 239.02 417.93 238.88C417.596 238.733 417.333 238.533 417.14 238.28C416.946 238.02 416.84 237.723 416.82 237.39H417.76C417.786 237.663 417.913 237.887 418.14 238.06C418.373 238.233 418.676 238.32 419.05 238.32C419.396 238.32 419.67 238.243 419.87 238.09C420.07 237.937 420.17 237.743 420.17 237.51C420.17 237.27 420.063 237.093 419.85 236.98C419.636 236.86 419.306 236.743 418.86 236.63C418.453 236.523 418.12 236.417 417.86 236.31C417.606 236.197 417.386 236.033 417.2 235.82C417.02 235.6 416.93 235.313 416.93 234.96C416.93 234.68 417.013 234.423 417.18 234.19C417.346 233.957 417.583 233.773 417.89 233.64C418.196 233.5 418.546 233.43 418.94 233.43C419.546 233.43 420.036 233.583 420.41 233.89C420.783 234.197 420.983 234.617 421.01 235.15H420.1C420.08 234.863 419.963 234.633 419.75 234.46C419.543 234.287 419.263 234.2 418.91 234.2C418.583 234.2 418.323 234.27 418.13 234.41C417.936 234.55 417.84 234.733 417.84 234.96C417.84 235.14 417.896 235.29 418.01 235.41C418.13 235.523 418.276 235.617 418.45 235.69C418.63 235.757 418.876 235.833 419.19 235.92C419.583 236.027 419.903 236.133 420.15 236.24C420.396 236.34 420.606 236.493 420.78 236.7C420.96 236.907 421.053 237.177 421.06 237.51C421.06 237.81 420.976 238.08 420.81 238.32C420.643 238.56 420.406 238.75 420.1 238.89C419.8 239.023 419.453 239.09 419.06 239.09Z" fill="black"/>
<rect x="274" y="229" width="28" height="13" fill="#FF001B"/>
<path d="M107.44 239L105.78 236.15H104.68V239H103.77V232.03H106.02C106.547 232.03 106.99 232.12 107.35 232.3C107.717 232.48 107.99 232.723 108.17 233.03C108.35 233.337 108.44 233.687 108.44 234.08C108.44 234.56 108.3 234.983 108.02 235.35C107.747 235.717 107.333 235.96 106.78 236.08L108.53 239H107.44ZM104.68 235.42H106.02C106.513 235.42 106.883 235.3 107.13 235.06C107.377 234.813 107.5 234.487 107.5 234.08C107.5 233.667 107.377 233.347 107.13 233.12C106.89 232.893 106.52 232.78 106.02 232.78H104.68V235.42ZM114.854 236.05C114.854 236.223 114.844 236.407 114.824 236.6H110.444C110.477 237.14 110.661 237.563 110.994 237.87C111.334 238.17 111.744 238.32 112.224 238.32C112.617 238.32 112.944 238.23 113.204 238.05C113.471 237.863 113.657 237.617 113.764 237.31H114.744C114.597 237.837 114.304 238.267 113.864 238.6C113.424 238.927 112.877 239.09 112.224 239.09C111.704 239.09 111.237 238.973 110.824 238.74C110.417 238.507 110.097 238.177 109.864 237.75C109.631 237.317 109.514 236.817 109.514 236.25C109.514 235.683 109.627 235.187 109.854 234.76C110.081 234.333 110.397 234.007 110.804 233.78C111.217 233.547 111.691 233.43 112.224 233.43C112.744 233.43 113.204 233.543 113.604 233.77C114.004 233.997 114.311 234.31 114.524 234.71C114.744 235.103 114.854 235.55 114.854 236.05ZM113.914 235.86C113.914 235.513 113.837 235.217 113.684 234.97C113.531 234.717 113.321 234.527 113.054 234.4C112.794 234.267 112.504 234.2 112.184 234.2C111.724 234.2 111.331 234.347 111.004 234.64C110.684 234.933 110.501 235.34 110.454 235.86H113.914ZM115.715 236.25C115.715 235.683 115.828 235.19 116.055 234.77C116.282 234.343 116.595 234.013 116.995 233.78C117.402 233.547 117.865 233.43 118.385 233.43C119.058 233.43 119.612 233.593 120.045 233.92C120.485 234.247 120.775 234.7 120.915 235.28H119.935C119.842 234.947 119.658 234.683 119.385 234.49C119.118 234.297 118.785 234.2 118.385 234.2C117.865 234.2 117.445 234.38 117.125 234.74C116.805 235.093 116.645 235.597 116.645 236.25C116.645 236.91 116.805 237.42 117.125 237.78C117.445 238.14 117.865 238.32 118.385 238.32C118.785 238.32 119.118 238.227 119.385 238.04C119.652 237.853 119.835 237.587 119.935 237.24H120.915C120.768 237.8 120.475 238.25 120.035 238.59C119.595 238.923 119.045 239.09 118.385 239.09C117.865 239.09 117.402 238.973 116.995 238.74C116.595 238.507 116.282 238.177 116.055 237.75C115.828 237.323 115.715 236.823 115.715 236.25ZM127.129 236.05C127.129 236.223 127.119 236.407 127.099 236.6H122.719C122.753 237.14 122.936 237.563 123.269 237.87C123.609 238.17 124.019 238.32 124.499 238.32C124.893 238.32 125.219 238.23 125.479 238.05C125.746 237.863 125.933 237.617 126.039 237.31H127.019C126.873 237.837 126.579 238.267 126.139 238.6C125.699 238.927 125.153 239.09 124.499 239.09C123.979 239.09 123.513 238.973 123.099 238.74C122.693 238.507 122.373 238.177 122.139 237.75C121.906 237.317 121.789 236.817 121.789 236.25C121.789 235.683 121.903 235.187 122.129 234.76C122.356 234.333 122.673 234.007 123.079 233.78C123.493 233.547 123.966 233.43 124.499 233.43C125.019 233.43 125.479 233.543 125.879 233.77C126.279 233.997 126.586 234.31 126.799 234.71C127.019 235.103 127.129 235.55 127.129 236.05ZM126.189 235.86C126.189 235.513 126.113 235.217 125.959 234.97C125.806 234.717 125.596 234.527 125.329 234.4C125.069 234.267 124.779 234.2 124.459 234.2C123.999 234.2 123.606 234.347 123.279 234.64C122.959 234.933 122.776 235.34 122.729 235.86H126.189ZM128.801 232.63C128.627 232.63 128.481 232.57 128.361 232.45C128.241 232.33 128.181 232.183 128.181 232.01C128.181 231.837 128.241 231.69 128.361 231.57C128.481 231.45 128.627 231.39 128.801 231.39C128.967 231.39 129.107 231.45 129.221 231.57C129.341 231.69 129.401 231.837 129.401 232.01C129.401 232.183 129.341 232.33 129.221 232.45C129.107 232.57 128.967 232.63 128.801 232.63ZM129.241 233.52V239H128.331V233.52H129.241ZM131.901 234.27V237.5C131.901 237.767 131.958 237.957 132.071 238.07C132.185 238.177 132.381 238.23 132.661 238.23H133.331V239H132.511C132.005 239 131.625 238.883 131.371 238.65C131.118 238.417 130.991 238.033 130.991 237.5V234.27H130.281V233.52H130.991V232.14H131.901V233.52H133.331V234.27H131.901ZM134.094 236.24C134.094 235.68 134.207 235.19 134.434 234.77C134.661 234.343 134.971 234.013 135.364 233.78C135.764 233.547 136.207 233.43 136.694 233.43C137.174 233.43 137.591 233.533 137.944 233.74C138.297 233.947 138.561 234.207 138.734 234.52V233.52H139.654V239H138.734V237.98C138.554 238.3 138.284 238.567 137.924 238.78C137.571 238.987 137.157 239.09 136.684 239.09C136.197 239.09 135.757 238.97 135.364 238.73C134.971 238.49 134.661 238.153 134.434 237.72C134.207 237.287 134.094 236.793 134.094 236.24ZM138.734 236.25C138.734 235.837 138.651 235.477 138.484 235.17C138.317 234.863 138.091 234.63 137.804 234.47C137.524 234.303 137.214 234.22 136.874 234.22C136.534 234.22 136.224 234.3 135.944 234.46C135.664 234.62 135.441 234.853 135.274 235.16C135.107 235.467 135.024 235.827 135.024 236.24C135.024 236.66 135.107 237.027 135.274 237.34C135.441 237.647 135.664 237.883 135.944 238.05C136.224 238.21 136.534 238.29 136.874 238.29C137.214 238.29 137.524 238.21 137.804 238.05C138.091 237.883 138.317 237.647 138.484 237.34C138.651 237.027 138.734 236.663 138.734 236.25ZM143.132 239.09C142.712 239.09 142.335 239.02 142.002 238.88C141.669 238.733 141.405 238.533 141.212 238.28C141.019 238.02 140.912 237.723 140.892 237.39H141.832C141.859 237.663 141.985 237.887 142.212 238.06C142.445 238.233 142.749 238.32 143.122 238.32C143.469 238.32 143.742 238.243 143.942 238.09C144.142 237.937 144.242 237.743 144.242 237.51C144.242 237.27 144.135 237.093 143.922 236.98C143.709 236.86 143.379 236.743 142.932 236.63C142.525 236.523 142.192 236.417 141.932 236.31C141.679 236.197 141.459 236.033 141.272 235.82C141.092 235.6 141.002 235.313 141.002 234.96C141.002 234.68 141.085 234.423 141.252 234.19C141.419 233.957 141.655 233.773 141.962 233.64C142.269 233.5 142.619 233.43 143.012 233.43C143.619 233.43 144.109 233.583 144.482 233.89C144.855 234.197 145.055 234.617 145.082 235.15H144.172C144.152 234.863 144.035 234.633 143.822 234.46C143.615 234.287 143.335 234.2 142.982 234.2C142.655 234.2 142.395 234.27 142.202 234.41C142.009 234.55 141.912 234.733 141.912 234.96C141.912 235.14 141.969 235.29 142.082 235.41C142.202 235.523 142.349 235.617 142.522 235.69C142.702 235.757 142.949 235.833 143.262 235.92C143.655 236.027 143.975 236.133 144.222 236.24C144.469 236.34 144.679 236.493 144.852 236.7C145.032 236.907 145.125 237.177 145.132 237.51C145.132 237.81 145.049 238.08 144.882 238.32C144.715 238.56 144.479 238.75 144.172 238.89C143.872 239.023 143.525 239.09 143.132 239.09ZM149.993 234.41C150.153 234.097 150.379 233.853 150.673 233.68C150.973 233.507 151.336 233.42 151.763 233.42V234.36H151.523C150.503 234.36 149.993 234.913 149.993 236.02V239H149.083V233.52H149.993V234.41ZM157.813 236.05C157.813 236.223 157.803 236.407 157.783 236.6H153.403C153.436 237.14 153.62 237.563 153.953 237.87C154.293 238.17 154.703 238.32 155.183 238.32C155.576 238.32 155.903 238.23 156.163 238.05C156.43 237.863 156.616 237.617 156.723 237.31H157.703C157.556 237.837 157.263 238.267 156.823 238.6C156.383 238.927 155.836 239.09 155.183 239.09C154.663 239.09 154.196 238.973 153.783 238.74C153.376 238.507 153.056 238.177 152.823 237.75C152.59 237.317 152.473 236.817 152.473 236.25C152.473 235.683 152.586 235.187 152.813 234.76C153.04 234.333 153.356 234.007 153.763 233.78C154.176 233.547 154.65 233.43 155.183 233.43C155.703 233.43 156.163 233.543 156.563 233.77C156.963 233.997 157.27 234.31 157.483 234.71C157.703 235.103 157.813 235.55 157.813 236.05ZM156.873 235.86C156.873 235.513 156.796 235.217 156.643 234.97C156.49 234.717 156.28 234.527 156.013 234.4C155.753 234.267 155.463 234.2 155.143 234.2C154.683 234.2 154.29 234.347 153.963 234.64C153.643 234.933 153.46 235.34 153.413 235.86H156.873ZM161.274 233.43C161.747 233.43 162.161 233.533 162.514 233.74C162.874 233.947 163.141 234.207 163.314 234.52V233.52H164.234V239.12C164.234 239.62 164.127 240.063 163.914 240.45C163.701 240.843 163.394 241.15 162.994 241.37C162.601 241.59 162.141 241.7 161.614 241.7C160.894 241.7 160.294 241.53 159.814 241.19C159.334 240.85 159.051 240.387 158.964 239.8H159.864C159.964 240.133 160.171 240.4 160.484 240.6C160.797 240.807 161.174 240.91 161.614 240.91C162.114 240.91 162.521 240.753 162.834 240.44C163.154 240.127 163.314 239.687 163.314 239.12V237.97C163.134 238.29 162.867 238.557 162.514 238.77C162.161 238.983 161.747 239.09 161.274 239.09C160.787 239.09 160.344 238.97 159.944 238.73C159.551 238.49 159.241 238.153 159.014 237.72C158.787 237.287 158.674 236.793 158.674 236.24C158.674 235.68 158.787 235.19 159.014 234.77C159.241 234.343 159.551 234.013 159.944 233.78C160.344 233.547 160.787 233.43 161.274 233.43ZM163.314 236.25C163.314 235.837 163.231 235.477 163.064 235.17C162.897 234.863 162.671 234.63 162.384 234.47C162.104 234.303 161.794 234.22 161.454 234.22C161.114 234.22 160.804 234.3 160.524 234.46C160.244 234.62 160.021 234.853 159.854 235.16C159.687 235.467 159.604 235.827 159.604 236.24C159.604 236.66 159.687 237.027 159.854 237.34C160.021 237.647 160.244 237.883 160.524 238.05C160.804 238.21 161.114 238.29 161.454 238.29C161.794 238.29 162.104 238.21 162.384 238.05C162.671 237.883 162.897 237.647 163.064 237.34C163.231 237.027 163.314 236.663 163.314 236.25ZM166.242 232.63C166.069 232.63 165.922 232.57 165.802 232.45C165.682 232.33 165.622 232.183 165.622 232.01C165.622 231.837 165.682 231.69 165.802 231.57C165.922 231.45 166.069 231.39 166.242 231.39C166.409 231.39 166.549 231.45 166.662 231.57C166.782 231.69 166.842 231.837 166.842 232.01C166.842 232.183 166.782 232.33 166.662 232.45C166.549 232.57 166.409 232.63 166.242 232.63ZM166.682 233.52V239H165.772V233.52H166.682ZM170.173 239.09C169.753 239.09 169.376 239.02 169.043 238.88C168.71 238.733 168.446 238.533 168.253 238.28C168.06 238.02 167.953 237.723 167.933 237.39H168.873C168.9 237.663 169.026 237.887 169.253 238.06C169.486 238.233 169.79 238.32 170.163 238.32C170.51 238.32 170.783 238.243 170.983 238.09C171.183 237.937 171.283 237.743 171.283 237.51C171.283 237.27 171.176 237.093 170.963 236.98C170.75 236.86 170.42 236.743 169.973 236.63C169.566 236.523 169.233 236.417 168.973 236.31C168.72 236.197 168.5 236.033 168.313 235.82C168.133 235.6 168.043 235.313 168.043 234.96C168.043 234.68 168.126 234.423 168.293 234.19C168.46 233.957 168.696 233.773 169.003 233.64C169.31 233.5 169.66 233.43 170.053 233.43C170.66 233.43 171.15 233.583 171.523 233.89C171.896 234.197 172.096 234.617 172.123 235.15H171.213C171.193 234.863 171.076 234.633 170.863 234.46C170.656 234.287 170.376 234.2 170.023 234.2C169.696 234.2 169.436 234.27 169.243 234.41C169.05 234.55 168.953 234.733 168.953 234.96C168.953 235.14 169.01 235.29 169.123 235.41C169.243 235.523 169.39 235.617 169.563 235.69C169.743 235.757 169.99 235.833 170.303 235.92C170.696 236.027 171.016 236.133 171.263 236.24C171.51 236.34 171.72 236.493 171.893 236.7C172.073 236.907 172.166 237.177 172.173 237.51C172.173 237.81 172.09 238.08 171.923 238.32C171.756 238.56 171.52 238.75 171.213 238.89C170.913 239.023 170.566 239.09 170.173 239.09ZM174.568 234.27V237.5C174.568 237.767 174.624 237.957 174.738 238.07C174.851 238.177 175.048 238.23 175.327 238.23H175.998V239H175.178C174.671 239 174.291 238.883 174.038 238.65C173.784 238.417 173.658 238.033 173.658 237.5V234.27H172.948V233.52H173.658V232.14H174.568V233.52H175.998V234.27H174.568ZM178.01 234.41C178.17 234.097 178.397 233.853 178.69 233.68C178.99 233.507 179.353 233.42 179.78 233.42V234.36H179.54C178.52 234.36 178.01 234.913 178.01 236.02V239H177.1V233.52H178.01V234.41ZM180.491 236.24C180.491 235.68 180.604 235.19 180.831 234.77C181.057 234.343 181.367 234.013 181.761 233.78C182.161 233.547 182.604 233.43 183.091 233.43C183.571 233.43 183.987 233.533 184.341 233.74C184.694 233.947 184.957 234.207 185.131 234.52V233.52H186.051V239H185.131V237.98C184.951 238.3 184.681 238.567 184.321 238.78C183.967 238.987 183.554 239.09 183.081 239.09C182.594 239.09 182.154 238.97 181.761 238.73C181.367 238.49 181.057 238.153 180.831 237.72C180.604 237.287 180.491 236.793 180.491 236.24ZM185.131 236.25C185.131 235.837 185.047 235.477 184.881 235.17C184.714 234.863 184.487 234.63 184.201 234.47C183.921 234.303 183.611 234.22 183.271 234.22C182.931 234.22 182.621 234.3 182.341 234.46C182.061 234.62 181.837 234.853 181.671 235.16C181.504 235.467 181.421 235.827 181.421 236.24C181.421 236.66 181.504 237.027 181.671 237.34C181.837 237.647 182.061 237.883 182.341 238.05C182.621 238.21 182.931 238.29 183.271 238.29C183.611 238.29 183.921 238.21 184.201 238.05C184.487 237.883 184.714 237.647 184.881 237.34C185.047 237.027 185.131 236.663 185.131 236.25ZM187.248 236.24C187.248 235.68 187.362 235.19 187.588 234.77C187.815 234.343 188.125 234.013 188.518 233.78C188.918 233.547 189.365 233.43 189.858 233.43C190.285 233.43 190.682 233.53 191.048 233.73C191.415 233.923 191.695 234.18 191.888 234.5V231.6H192.808V239H191.888V237.97C191.708 238.297 191.442 238.567 191.088 238.78C190.735 238.987 190.322 239.09 189.848 239.09C189.362 239.09 188.918 238.97 188.518 238.73C188.125 238.49 187.815 238.153 187.588 237.72C187.362 237.287 187.248 236.793 187.248 236.24ZM191.888 236.25C191.888 235.837 191.805 235.477 191.638 235.17C191.472 234.863 191.245 234.63 190.958 234.47C190.678 234.303 190.368 234.22 190.028 234.22C189.688 234.22 189.378 234.3 189.098 234.46C188.818 234.62 188.595 234.853 188.428 235.16C188.262 235.467 188.178 235.827 188.178 236.24C188.178 236.66 188.262 237.027 188.428 237.34C188.595 237.647 188.818 237.883 189.098 238.05C189.378 238.21 189.688 238.29 190.028 238.29C190.368 238.29 190.678 238.21 190.958 238.05C191.245 237.883 191.472 237.647 191.638 237.34C191.805 237.027 191.888 236.663 191.888 236.25ZM194.006 236.24C194.006 235.68 194.12 235.19 194.346 234.77C194.573 234.343 194.883 234.013 195.276 233.78C195.676 233.547 196.12 233.43 196.606 233.43C197.086 233.43 197.503 233.533 197.856 233.74C198.21 233.947 198.473 234.207 198.646 234.52V233.52H199.566V239H198.646V237.98C198.466 238.3 198.196 238.567 197.836 238.78C197.483 238.987 197.07 239.09 196.596 239.09C196.11 239.09 195.67 238.97 195.276 238.73C194.883 238.49 194.573 238.153 194.346 237.72C194.12 237.287 194.006 236.793 194.006 236.24ZM198.646 236.25C198.646 235.837 198.563 235.477 198.396 235.17C198.23 234.863 198.003 234.63 197.716 234.47C197.436 234.303 197.126 234.22 196.786 234.22C196.446 234.22 196.136 234.3 195.856 234.46C195.576 234.62 195.353 234.853 195.186 235.16C195.02 235.467 194.936 235.827 194.936 236.24C194.936 236.66 195.02 237.027 195.186 237.34C195.353 237.647 195.576 237.883 195.856 238.05C196.136 238.21 196.446 238.29 196.786 238.29C197.126 238.29 197.436 238.21 197.716 238.05C198.003 237.883 198.23 237.647 198.396 237.34C198.563 237.027 198.646 236.663 198.646 236.25ZM203.044 239.09C202.624 239.09 202.247 239.02 201.914 238.88C201.581 238.733 201.317 238.533 201.124 238.28C200.931 238.02 200.824 237.723 200.804 237.39H201.744C201.771 237.663 201.897 237.887 202.124 238.06C202.357 238.233 202.661 238.32 203.034 238.32C203.381 238.32 203.654 238.243 203.854 238.09C204.054 237.937 204.154 237.743 204.154 237.51C204.154 237.27 204.047 237.093 203.834 236.98C203.621 236.86 203.291 236.743 202.844 236.63C202.437 236.523 202.104 236.417 201.844 236.31C201.591 236.197 201.371 236.033 201.184 235.82C201.004 235.6 200.914 235.313 200.914 234.96C200.914 234.68 200.997 234.423 201.164 234.19C201.331 233.957 201.567 233.773 201.874 233.64C202.181 233.5 202.531 233.43 202.924 233.43C203.531 233.43 204.021 233.583 204.394 233.89C204.767 234.197 204.967 234.617 204.994 235.15H204.084C204.064 234.863 203.947 234.633 203.734 234.46C203.527 234.287 203.247 234.2 202.894 234.2C202.567 234.2 202.307 234.27 202.114 234.41C201.921 234.55 201.824 234.733 201.824 234.96C201.824 235.14 201.881 235.29 201.994 235.41C202.114 235.523 202.261 235.617 202.434 235.69C202.614 235.757 202.861 235.833 203.174 235.92C203.567 236.027 203.887 236.133 204.134 236.24C204.381 236.34 204.591 236.493 204.764 236.7C204.944 236.907 205.037 237.177 205.044 237.51C205.044 237.81 204.961 238.08 204.794 238.32C204.627 238.56 204.391 238.75 204.084 238.89C203.784 239.023 203.437 239.09 203.044 239.09Z" fill="black"/>
<rect x="63" y="229" width="28" height="13" fill="#51C13F"/>
<path d="M56.1201 0.0666504V181.933" stroke="#E0E0E0"/>
<path d="M143.06 0.0666504V181.933" stroke="#E0E0E0"/>
<path d="M230 0.0666504V181.933" stroke="#E0E0E0"/>
<path d="M316.94 0.0666504V181.933" stroke="#E0E0E0"/>
<path d="M403.88 0.0666504V181.933" stroke="#E0E0E0"/>
<path d="M402.475 0.0666504H56.1201V16.6H402.475V0.0666504Z" fill="#51C13F"/>
<path d="M397.557 49.6666H56.1201V66.2H397.557V49.6666Z" fill="#51C13F"/>
<path d="M332.923 99.2666H56.1201V115.8H332.923V99.2666Z" fill="#51C13F"/>
<path d="M403.88 148.867H56.1201V165.4H403.88V148.867Z" fill="#51C13F"/>
<path d="M376.481 16.6H56.1201V33.1333H376.481V16.6Z" fill="#FF0000"/>
<path d="M403.178 66.2H56.1201V82.7333H403.178V66.2Z" fill="#FF0000"/>
<path d="M285.852 115.8H56.1201V132.333H285.852V115.8Z" fill="#FF0000"/>
<path d="M403.88 165.4H56.1201V181.933H403.88V165.4Z" fill="#FF0000"/>
<path d="M56.1201 181.933H403.88" stroke="black" stroke-width="2"/>
<path d="M56.1201 0.0666504V181.933" stroke="black" stroke-width="2"/>
<path d="M52.8763 200.512C52.8763 199.128 53.1083 198.048 53.5723 197.272C54.0443 196.488 54.8523 196.096 55.9963 196.096C57.1403 196.096 57.9443 196.488 58.4083 197.272C58.8803 198.048 59.1163 199.128 59.1163 200.512C59.1163 201.912 58.8803 203.008 58.4083 203.8C57.9443 204.584 57.1403 204.976 55.9963 204.976C54.8523 204.976 54.0443 204.584 53.5723 203.8C53.1083 203.008 52.8763 201.912 52.8763 200.512ZM57.7723 200.512C57.7723 199.864 57.7283 199.316 57.6403 198.868C57.5603 198.42 57.3923 198.056 57.1363 197.776C56.8803 197.488 56.5003 197.344 55.9963 197.344C55.4923 197.344 55.1123 197.488 54.8563 197.776C54.6003 198.056 54.4283 198.42 54.3403 198.868C54.2603 199.316 54.2203 199.864 54.2203 200.512C54.2203 201.184 54.2603 201.748 54.3403 202.204C54.4203 202.66 54.5883 203.028 54.8443 203.308C55.1083 203.588 55.4923 203.728 55.9963 203.728C56.5003 203.728 56.8803 203.588 57.1363 203.308C57.4003 203.028 57.5723 202.66 57.6523 202.204C57.7323 201.748 57.7723 201.184 57.7723 200.512Z" fill="black"/>
<path d="M133.767 197.5V196.252H136.263V205H134.883V197.5H133.767ZM143.782 197.428H139.762V199.816C139.93 199.592 140.178 199.404 140.506 199.252C140.842 199.1 141.198 199.024 141.574 199.024C142.246 199.024 142.79 199.168 143.206 199.456C143.63 199.744 143.93 200.108 144.106 200.548C144.29 200.988 144.382 201.452 144.382 201.94C144.382 202.532 144.266 203.06 144.034 203.524C143.81 203.98 143.47 204.34 143.014 204.604C142.566 204.868 142.014 205 141.358 205C140.486 205 139.786 204.784 139.258 204.352C138.73 203.92 138.414 203.348 138.31 202.636H139.642C139.73 203.012 139.926 203.312 140.23 203.536C140.534 203.752 140.914 203.86 141.37 203.86C141.938 203.86 142.362 203.688 142.642 203.344C142.93 203 143.074 202.544 143.074 201.976C143.074 201.4 142.93 200.96 142.642 200.656C142.354 200.344 141.93 200.188 141.37 200.188C140.978 200.188 140.646 200.288 140.374 200.488C140.11 200.68 139.918 200.944 139.798 201.28H138.502V196.228H143.782V197.428ZM145.806 200.512C145.806 199.128 146.038 198.048 146.502 197.272C146.974 196.488 147.782 196.096 148.926 196.096C150.07 196.096 150.874 196.488 151.338 197.272C151.81 198.048 152.046 199.128 152.046 200.512C152.046 201.912 151.81 203.008 151.338 203.8C150.874 204.584 150.07 204.976 148.926 204.976C147.782 204.976 146.974 204.584 146.502 203.8C146.038 203.008 145.806 201.912 145.806 200.512ZM150.702 200.512C150.702 199.864 150.658 199.316 150.57 198.868C150.49 198.42 150.322 198.056 150.066 197.776C149.81 197.488 149.43 197.344 148.926 197.344C148.422 197.344 148.042 197.488 147.786 197.776C147.53 198.056 147.358 198.42 147.27 198.868C147.19 199.316 147.15 199.864 147.15 200.512C147.15 201.184 147.19 201.748 147.27 202.204C147.35 202.66 147.518 203.028 147.774 203.308C148.038 203.588 148.422 203.728 148.926 203.728C149.43 203.728 149.81 203.588 150.066 203.308C150.33 203.028 150.502 202.66 150.582 202.204C150.662 201.748 150.702 201.184 150.702 200.512Z" fill="black"/>
<path d="M220.837 203.14C221.605 202.476 222.209 201.932 222.649 201.508C223.097 201.076 223.469 200.628 223.765 200.164C224.061 199.7 224.209 199.236 224.209 198.772C224.209 198.292 224.093 197.916 223.861 197.644C223.637 197.372 223.281 197.236 222.793 197.236C222.321 197.236 221.953 197.388 221.689 197.692C221.433 197.988 221.297 198.388 221.281 198.892H219.961C219.985 197.98 220.257 197.284 220.777 196.804C221.305 196.316 221.973 196.072 222.781 196.072C223.653 196.072 224.333 196.312 224.821 196.792C225.317 197.272 225.565 197.912 225.565 198.712C225.565 199.288 225.417 199.844 225.121 200.38C224.833 200.908 224.485 201.384 224.077 201.808C223.677 202.224 223.165 202.708 222.541 203.26L222.001 203.74H225.805V204.88H219.973V203.884L220.837 203.14ZM232.647 197.428H228.627V199.816C228.795 199.592 229.043 199.404 229.371 199.252C229.707 199.1 230.063 199.024 230.439 199.024C231.111 199.024 231.655 199.168 232.071 199.456C232.495 199.744 232.795 200.108 232.971 200.548C233.155 200.988 233.247 201.452 233.247 201.94C233.247 202.532 233.131 203.06 232.899 203.524C232.675 203.98 232.335 204.34 231.879 204.604C231.431 204.868 230.879 205 230.223 205C229.351 205 228.651 204.784 228.123 204.352C227.595 203.92 227.279 203.348 227.175 202.636H228.507C228.595 203.012 228.791 203.312 229.095 203.536C229.399 203.752 229.779 203.86 230.235 203.86C230.803 203.86 231.227 203.688 231.507 203.344C231.795 203 231.939 202.544 231.939 201.976C231.939 201.4 231.795 200.96 231.507 200.656C231.219 200.344 230.795 200.188 230.235 200.188C229.843 200.188 229.511 200.288 229.239 200.488C228.975 200.68 228.783 200.944 228.663 201.28H227.367V196.228H232.647V197.428ZM234.671 200.512C234.671 199.128 234.903 198.048 235.367 197.272C235.839 196.488 236.647 196.096 237.791 196.096C238.935 196.096 239.739 196.488 240.203 197.272C240.675 198.048 240.911 199.128 240.911 200.512C240.911 201.912 240.675 203.008 240.203 203.8C239.739 204.584 238.935 204.976 237.791 204.976C236.647 204.976 235.839 204.584 235.367 203.8C234.903 203.008 234.671 201.912 234.671 200.512ZM239.567 200.512C239.567 199.864 239.523 199.316 239.435 198.868C239.355 198.42 239.187 198.056 238.931 197.776C238.675 197.488 238.295 197.344 237.791 197.344C237.287 197.344 236.907 197.488 236.651 197.776C236.395 198.056 236.223 198.42 236.135 198.868C236.055 199.316 236.015 199.864 236.015 200.512C236.015 201.184 236.055 201.748 236.135 202.204C236.215 202.66 236.383 203.028 236.639 203.308C236.903 203.588 237.287 203.728 237.791 203.728C238.295 203.728 238.675 203.588 238.931 203.308C239.195 203.028 239.367 202.66 239.447 202.204C239.527 201.748 239.567 201.184 239.567 200.512Z" fill="black"/>
<path d="M305.958 198.412C306.006 197.668 306.29 197.088 306.81 196.672C307.338 196.256 308.01 196.048 308.826 196.048C309.386 196.048 309.87 196.148 310.278 196.348C310.686 196.548 310.994 196.82 311.202 197.164C311.41 197.508 311.514 197.896 311.514 198.328C311.514 198.824 311.382 199.248 311.118 199.6C310.854 199.952 310.538 200.188 310.17 200.308V200.356C310.642 200.5 311.01 200.764 311.274 201.148C311.538 201.524 311.67 202.008 311.67 202.6C311.67 203.072 311.562 203.492 311.346 203.86C311.13 204.228 310.81 204.52 310.386 204.736C309.962 204.944 309.454 205.048 308.862 205.048C307.998 205.048 307.286 204.828 306.726 204.388C306.174 203.94 305.878 203.3 305.838 202.468H307.158C307.19 202.892 307.354 203.24 307.65 203.512C307.946 203.776 308.346 203.908 308.85 203.908C309.338 203.908 309.714 203.776 309.978 203.512C310.242 203.24 310.374 202.892 310.374 202.468C310.374 201.908 310.194 201.512 309.834 201.28C309.482 201.04 308.938 200.92 308.202 200.92H307.89V199.792H308.214C308.862 199.784 309.354 199.676 309.69 199.468C310.034 199.26 310.206 198.932 310.206 198.484C310.206 198.1 310.082 197.796 309.834 197.572C309.586 197.34 309.234 197.224 308.778 197.224C308.33 197.224 307.982 197.34 307.734 197.572C307.486 197.796 307.338 198.076 307.29 198.412H305.958ZM318.747 197.428H314.727V199.816C314.895 199.592 315.143 199.404 315.471 199.252C315.807 199.1 316.163 199.024 316.539 199.024C317.211 199.024 317.755 199.168 318.171 199.456C318.595 199.744 318.895 200.108 319.071 200.548C319.255 200.988 319.347 201.452 319.347 201.94C319.347 202.532 319.231 203.06 318.999 203.524C318.775 203.98 318.435 204.34 317.979 204.604C317.531 204.868 316.979 205 316.323 205C315.451 205 314.751 204.784 314.223 204.352C313.695 203.92 313.379 203.348 313.275 202.636H314.607C314.695 203.012 314.891 203.312 315.195 203.536C315.499 203.752 315.879 203.86 316.335 203.86C316.903 203.86 317.327 203.688 317.607 203.344C317.895 203 318.039 202.544 318.039 201.976C318.039 201.4 317.895 200.96 317.607 200.656C317.319 200.344 316.895 200.188 316.335 200.188C315.943 200.188 315.611 200.288 315.339 200.488C315.075 200.68 314.883 200.944 314.763 201.28H313.467V196.228H318.747V197.428ZM320.771 200.512C320.771 199.128 321.003 198.048 321.467 197.272C321.939 196.488 322.747 196.096 323.891 196.096C325.035 196.096 325.839 196.488 326.303 197.272C326.775 198.048 327.011 199.128 327.011 200.512C327.011 201.912 326.775 203.008 326.303 203.8C325.839 204.584 325.035 204.976 323.891 204.976C322.747 204.976 321.939 204.584 321.467 203.8C321.003 203.008 320.771 201.912 320.771 200.512ZM325.667 200.512C325.667 199.864 325.623 199.316 325.535 198.868C325.455 198.42 325.287 198.056 325.031 197.776C324.775 197.488 324.395 197.344 323.891 197.344C323.387 197.344 323.007 197.488 322.751 197.776C322.495 198.056 322.323 198.42 322.235 198.868C322.155 199.316 322.115 199.864 322.115 200.512C322.115 201.184 322.155 201.748 322.235 202.204C322.315 202.66 322.483 203.028 322.739 203.308C323.003 203.588 323.387 203.728 323.891 203.728C324.395 203.728 324.775 203.588 325.031 203.308C325.295 203.028 325.467 202.66 325.547 202.204C325.627 201.748 325.667 201.184 325.667 200.512Z" fill="black"/>
<path d="M397.84 197.428H393.82V199.816C393.988 199.592 394.236 199.404 394.564 199.252C394.9 199.1 395.256 199.024 395.632 199.024C396.304 199.024 396.848 199.168 397.264 199.456C397.688 199.744 397.988 200.108 398.164 200.548C398.348 200.988 398.44 201.452 398.44 201.94C398.44 202.532 398.324 203.06 398.092 203.524C397.868 203.98 397.528 204.34 397.072 204.604C396.624 204.868 396.072 205 395.416 205C394.544 205 393.844 204.784 393.316 204.352C392.788 203.92 392.472 203.348 392.368 202.636H393.7C393.788 203.012 393.984 203.312 394.288 203.536C394.592 203.752 394.972 203.86 395.428 203.86C395.996 203.86 396.42 203.688 396.7 203.344C396.988 203 397.132 202.544 397.132 201.976C397.132 201.4 396.988 200.96 396.7 200.656C396.412 200.344 395.988 200.188 395.428 200.188C395.036 200.188 394.704 200.288 394.432 200.488C394.168 200.68 393.976 200.944 393.856 201.28H392.56V196.228H397.84V197.428ZM399.865 200.512C399.865 199.128 400.097 198.048 400.561 197.272C401.033 196.488 401.841 196.096 402.985 196.096C404.129 196.096 404.933 196.488 405.397 197.272C405.869 198.048 406.105 199.128 406.105 200.512C406.105 201.912 405.869 203.008 405.397 203.8C404.933 204.584 404.129 204.976 402.985 204.976C401.841 204.976 401.033 204.584 400.561 203.8C400.097 203.008 399.865 201.912 399.865 200.512ZM404.761 200.512C404.761 199.864 404.717 199.316 404.629 198.868C404.549 198.42 404.381 198.056 404.125 197.776C403.869 197.488 403.489 197.344 402.985 197.344C402.481 197.344 402.101 197.488 401.845 197.776C401.589 198.056 401.417 198.42 401.329 198.868C401.249 199.316 401.209 199.864 401.209 200.512C401.209 201.184 401.249 201.748 401.329 202.204C401.409 202.66 401.577 203.028 401.833 203.308C402.097 203.588 402.481 203.728 402.985 203.728C403.489 203.728 403.869 203.588 404.125 203.308C404.389 203.028 404.561 202.66 404.641 202.204C404.721 201.748 404.761 201.184 404.761 200.512ZM407.552 200.512C407.552 199.128 407.784 198.048 408.248 197.272C408.72 196.488 409.528 196.096 410.672 196.096C411.816 196.096 412.62 196.488 413.084 197.272C413.556 198.048 413.792 199.128 413.792 200.512C413.792 201.912 413.556 203.008 413.084 203.8C412.62 204.584 411.816 204.976 410.672 204.976C409.528 204.976 408.72 204.584 408.248 203.8C407.784 203.008 407.552 201.912 407.552 200.512ZM412.448 200.512C412.448 199.864 412.404 199.316 412.316 198.868C412.236 198.42 412.068 198.056 411.812 197.776C411.556 197.488 411.176 197.344 410.672 197.344C410.168 197.344 409.788 197.488 409.532 197.776C409.276 198.056 409.104 198.42 409.016 198.868C408.936 199.316 408.896 199.864 408.896 200.512C408.896 201.184 408.936 201.748 409.016 202.204C409.096 202.66 409.264 203.028 409.52 203.308C409.784 203.588 410.168 203.728 410.672 203.728C411.176 203.728 411.556 203.588 411.812 203.308C412.076 203.028 412.248 202.66 412.328 202.204C412.408 201.748 412.448 201.184 412.448 200.512Z" fill="black"/>
<path d="M4.43591 20.056C4.06257 20.056 3.72657 19.992 3.42791 19.864C3.12924 19.7307 2.89457 19.544 2.72391 19.304C2.55324 19.064 2.46791 18.784 2.46791 18.464H3.44391C3.46524 18.704 3.55857 18.9013 3.72391 19.056C3.89457 19.2107 4.13191 19.288 4.43591 19.288C4.75057 19.288 4.99591 19.2133 5.17191 19.064C5.34791 18.9093 5.43591 18.712 5.43591 18.472C5.43591 18.2853 5.37991 18.1333 5.26791 18.016C5.16124 17.8987 5.02524 17.808 4.85991 17.744C4.69991 17.68 4.47591 17.6107 4.18791 17.536C3.82524 17.44 3.52924 17.344 3.29991 17.248C3.07591 17.1467 2.88391 16.992 2.72391 16.784C2.56391 16.576 2.48391 16.2987 2.48391 15.952C2.48391 15.632 2.56391 15.352 2.72391 15.112C2.88391 14.872 3.10791 14.688 3.39591 14.56C3.68391 14.432 4.01724 14.368 4.39591 14.368C4.93457 14.368 5.37457 14.504 5.71591 14.776C6.06257 15.0427 6.25457 15.4107 6.29191 15.88H5.28391C5.26791 15.6773 5.17191 15.504 4.99591 15.36C4.81991 15.216 4.58791 15.144 4.29991 15.144C4.03857 15.144 3.82524 15.2107 3.65991 15.344C3.49457 15.4773 3.41191 15.6693 3.41191 15.92C3.41191 16.0907 3.46257 16.232 3.56391 16.344C3.67057 16.4507 3.80391 16.536 3.96391 16.6C4.12391 16.664 4.34257 16.7333 4.61991 16.808C4.98791 16.9093 5.28657 17.0107 5.51591 17.112C5.75057 17.2133 5.94791 17.3707 6.10791 17.584C6.27324 17.792 6.35591 18.072 6.35591 18.424C6.35591 18.7067 6.27857 18.9733 6.12391 19.224C5.97457 19.4747 5.75324 19.6773 5.45991 19.832C5.17191 19.9813 4.83057 20.056 4.43591 20.056ZM11.472 17.688C11.472 17.8533 11.4614 18.0027 11.44 18.136H8.07203C8.0987 18.488 8.22936 18.7707 8.46403 18.984C8.6987 19.1973 8.9867 19.304 9.32803 19.304C9.8187 19.304 10.1654 19.0987 10.368 18.688H11.352C11.2187 19.0933 10.976 19.4267 10.624 19.688C10.2774 19.944 9.84536 20.072 9.32803 20.072C8.9067 20.072 8.52803 19.9787 8.19203 19.792C7.86136 19.6 7.60003 19.3333 7.40803 18.992C7.22136 18.6453 7.12803 18.2453 7.12803 17.792C7.12803 17.3387 7.2187 16.9413 7.40003 16.6C7.5867 16.2533 7.84536 15.9867 8.17603 15.8C8.51203 15.6133 8.89603 15.52 9.32803 15.52C9.74403 15.52 10.1147 15.6107 10.44 15.792C10.7654 15.9733 11.0187 16.2293 11.2 16.56C11.3814 16.8853 11.472 17.2613 11.472 17.688ZM10.52 17.4C10.5147 17.064 10.3947 16.7947 10.16 16.592C9.92536 16.3893 9.6347 16.288 9.28803 16.288C8.97336 16.288 8.70403 16.3893 8.48003 16.592C8.25603 16.7893 8.1227 17.0587 8.08003 17.4H10.52ZM17.7055 15.52C18.0522 15.52 18.3615 15.592 18.6335 15.736C18.9109 15.88 19.1269 16.0933 19.2815 16.376C19.4415 16.6587 19.5215 17 19.5215 17.4V20H18.6175V17.536C18.6175 17.1413 18.5189 16.84 18.3215 16.632C18.1242 16.4187 17.8549 16.312 17.5135 16.312C17.1722 16.312 16.9002 16.4187 16.6975 16.632C16.5002 16.84 16.4015 17.1413 16.4015 17.536V20H15.4975V17.536C15.4975 17.1413 15.3989 16.84 15.2015 16.632C15.0042 16.4187 14.7349 16.312 14.3935 16.312C14.0522 16.312 13.7802 16.4187 13.5775 16.632C13.3802 16.84 13.2815 17.1413 13.2815 17.536V20H12.3695V15.592H13.2815V16.096C13.4309 15.9147 13.6202 15.7733 13.8495 15.672C14.0789 15.5707 14.3242 15.52 14.5855 15.52C14.9375 15.52 15.2522 15.5947 15.5295 15.744C15.8069 15.8933 16.0202 16.1093 16.1695 16.392C16.3029 16.1253 16.5109 15.9147 16.7935 15.76C17.0762 15.6 17.3802 15.52 17.7055 15.52ZM20.378 17.776C20.378 17.3333 20.4687 16.9413 20.65 16.6C20.8367 16.2587 21.0874 15.9947 21.402 15.808C21.722 15.616 22.074 15.52 22.458 15.52C22.8047 15.52 23.106 15.5893 23.362 15.728C23.6234 15.8613 23.8314 16.0293 23.986 16.232V15.592H24.906V20H23.986V19.344C23.8314 19.552 23.6207 19.7253 23.354 19.864C23.0874 20.0027 22.7834 20.072 22.442 20.072C22.0634 20.072 21.7167 19.976 21.402 19.784C21.0874 19.5867 20.8367 19.3147 20.65 18.968C20.4687 18.616 20.378 18.2187 20.378 17.776ZM23.986 17.792C23.986 17.488 23.922 17.224 23.794 17C23.6714 16.776 23.5087 16.6053 23.306 16.488C23.1034 16.3707 22.8847 16.312 22.65 16.312C22.4154 16.312 22.1967 16.3707 21.994 16.488C21.7914 16.6 21.626 16.768 21.498 16.992C21.3754 17.2107 21.314 17.472 21.314 17.776C21.314 18.08 21.3754 18.3467 21.498 18.576C21.626 18.8053 21.7914 18.9813 21.994 19.104C22.202 19.2213 22.4207 19.28 22.65 19.28C22.8847 19.28 23.1034 19.2213 23.306 19.104C23.5087 18.9867 23.6714 18.816 23.794 18.592C23.922 18.3627 23.986 18.096 23.986 17.792ZM28.3279 15.52C28.6746 15.52 28.9839 15.592 29.2559 15.736C29.5332 15.88 29.7492 16.0933 29.9039 16.376C30.0586 16.6587 30.1359 17 30.1359 17.4V20H29.2319V17.536C29.2319 17.1413 29.1332 16.84 28.9359 16.632C28.7386 16.4187 28.4692 16.312 28.1279 16.312C27.7866 16.312 27.5146 16.4187 27.3119 16.632C27.1146 16.84 27.0159 17.1413 27.0159 17.536V20H26.1039V15.592H27.0159V16.096C27.1652 15.9147 27.3546 15.7733 27.5839 15.672C27.8186 15.5707 28.0666 15.52 28.3279 15.52ZM30.9952 17.776C30.9952 17.3333 31.0859 16.9413 31.2672 16.6C31.4539 16.2587 31.7046 15.9947 32.0192 15.808C32.3392 15.616 32.6912 15.52 33.0752 15.52C33.4219 15.52 33.7232 15.5893 33.9792 15.728C34.2406 15.8613 34.4486 16.0293 34.6032 16.232V15.592H35.5232V20H34.6032V19.344C34.4486 19.552 34.2379 19.7253 33.9712 19.864C33.7046 20.0027 33.4006 20.072 33.0592 20.072C32.6806 20.072 32.3339 19.976 32.0192 19.784C31.7046 19.5867 31.4539 19.3147 31.2672 18.968C31.0859 18.616 30.9952 18.2187 30.9952 17.776ZM34.6032 17.792C34.6032 17.488 34.5392 17.224 34.4112 17C34.2886 16.776 34.1259 16.6053 33.9232 16.488C33.7206 16.3707 33.5019 16.312 33.2672 16.312C33.0326 16.312 32.8139 16.3707 32.6112 16.488C32.4086 16.6 32.2432 16.768 32.1152 16.992C31.9926 17.2107 31.9312 17.472 31.9312 17.776C31.9312 18.08 31.9926 18.3467 32.1152 18.576C32.2432 18.8053 32.4086 18.9813 32.6112 19.104C32.8192 19.2213 33.0379 19.28 33.2672 19.28C33.5019 19.28 33.7206 19.2213 33.9232 19.104C34.1259 18.9867 34.2886 18.816 34.4112 18.592C34.5392 18.3627 34.6032 18.096 34.6032 17.792ZM38.5592 15V14.168H40.2232V20H39.3032V15H38.5592Z" fill="black"/>
<path d="M3.52575 69.056C3.15242 69.056 2.81642 68.992 2.51775 68.864C2.21908 68.7307 1.98442 68.544 1.81375 68.304C1.64308 68.064 1.55775 67.784 1.55775 67.464H2.53375C2.55508 67.704 2.64842 67.9013 2.81375 68.056C2.98442 68.2107 3.22175 68.288 3.52575 68.288C3.84042 68.288 4.08575 68.2133 4.26175 68.064C4.43775 67.9093 4.52575 67.712 4.52575 67.472C4.52575 67.2853 4.46975 67.1333 4.35775 67.016C4.25108 66.8987 4.11508 66.808 3.94975 66.744C3.78975 66.68 3.56575 66.6107 3.27775 66.536C2.91508 66.44 2.61908 66.344 2.38975 66.248C2.16575 66.1467 1.97375 65.992 1.81375 65.784C1.65375 65.576 1.57375 65.2987 1.57375 64.952C1.57375 64.632 1.65375 64.352 1.81375 64.112C1.97375 63.872 2.19775 63.688 2.48575 63.56C2.77375 63.432 3.10708 63.368 3.48575 63.368C4.02442 63.368 4.46442 63.504 4.80575 63.776C5.15242 64.0427 5.34442 64.4107 5.38175 64.88H4.37375C4.35775 64.6773 4.26175 64.504 4.08575 64.36C3.90975 64.216 3.67775 64.144 3.38975 64.144C3.12842 64.144 2.91508 64.2107 2.74975 64.344C2.58442 64.4773 2.50175 64.6693 2.50175 64.92C2.50175 65.0907 2.55242 65.232 2.65375 65.344C2.76042 65.4507 2.89375 65.536 3.05375 65.6C3.21375 65.664 3.43242 65.7333 3.70975 65.808C4.07775 65.9093 4.37642 66.0107 4.60575 66.112C4.84042 66.2133 5.03775 66.3707 5.19775 66.584C5.36308 66.792 5.44575 67.072 5.44575 67.424C5.44575 67.7067 5.36842 67.9733 5.21375 68.224C5.06442 68.4747 4.84308 68.6773 4.54975 68.832C4.26175 68.9813 3.92042 69.056 3.52575 69.056ZM10.5619 66.688C10.5619 66.8533 10.5512 67.0027 10.5299 67.136H7.16188C7.18854 67.488 7.31921 67.7707 7.55388 67.984C7.78854 68.1973 8.07654 68.304 8.41788 68.304C8.90854 68.304 9.25521 68.0987 9.45788 67.688H10.4419C10.3085 68.0933 10.0659 68.4267 9.71388 68.688C9.36721 68.944 8.93521 69.072 8.41788 69.072C7.99654 69.072 7.61788 68.9787 7.28188 68.792C6.95121 68.6 6.68988 68.3333 6.49788 67.992C6.31121 67.6453 6.21788 67.2453 6.21788 66.792C6.21788 66.3387 6.30854 65.9413 6.48988 65.6C6.67654 65.2533 6.93521 64.9867 7.26588 64.8C7.60188 64.6133 7.98588 64.52 8.41788 64.52C8.83388 64.52 9.20454 64.6107 9.52988 64.792C9.85521 64.9733 10.1085 65.2293 10.2899 65.56C10.4712 65.8853 10.5619 66.2613 10.5619 66.688ZM9.60988 66.4C9.60454 66.064 9.48454 65.7947 9.24988 65.592C9.01521 65.3893 8.72454 65.288 8.37788 65.288C8.06321 65.288 7.79388 65.3893 7.56988 65.592C7.34588 65.7893 7.21254 66.0587 7.16988 66.4H9.60988ZM16.7954 64.52C17.142 64.52 17.4514 64.592 17.7234 64.736C18.0007 64.88 18.2167 65.0933 18.3714 65.376C18.5314 65.6587 18.6114 66 18.6114 66.4V69H17.7074V66.536C17.7074 66.1413 17.6087 65.84 17.4114 65.632C17.214 65.4187 16.9447 65.312 16.6034 65.312C16.262 65.312 15.99 65.4187 15.7874 65.632C15.59 65.84 15.4914 66.1413 15.4914 66.536V69H14.5874V66.536C14.5874 66.1413 14.4887 65.84 14.2914 65.632C14.094 65.4187 13.8247 65.312 13.4834 65.312C13.142 65.312 12.87 65.4187 12.6674 65.632C12.47 65.84 12.3714 66.1413 12.3714 66.536V69H11.4594V64.592H12.3714V65.096C12.5207 64.9147 12.71 64.7733 12.9394 64.672C13.1687 64.5707 13.414 64.52 13.6754 64.52C14.0274 64.52 14.342 64.5947 14.6194 64.744C14.8967 64.8933 15.11 65.1093 15.2594 65.392C15.3927 65.1253 15.6007 64.9147 15.8834 64.76C16.166 64.6 16.47 64.52 16.7954 64.52ZM19.4679 66.776C19.4679 66.3333 19.5585 65.9413 19.7399 65.6C19.9265 65.2587 20.1772 64.9947 20.4919 64.808C20.8119 64.616 21.1639 64.52 21.5479 64.52C21.8945 64.52 22.1959 64.5893 22.4519 64.728C22.7132 64.8613 22.9212 65.0293 23.0759 65.232V64.592H23.9959V69H23.0759V68.344C22.9212 68.552 22.7105 68.7253 22.4439 68.864C22.1772 69.0027 21.8732 69.072 21.5319 69.072C21.1532 69.072 20.8065 68.976 20.4919 68.784C20.1772 68.5867 19.9265 68.3147 19.7399 67.968C19.5585 67.616 19.4679 67.2187 19.4679 66.776ZM23.0759 66.792C23.0759 66.488 23.0119 66.224 22.8839 66C22.7612 65.776 22.5985 65.6053 22.3959 65.488C22.1932 65.3707 21.9745 65.312 21.7399 65.312C21.5052 65.312 21.2865 65.3707 21.0839 65.488C20.8812 65.6 20.7159 65.768 20.5879 65.992C20.4652 66.2107 20.4039 66.472 20.4039 66.776C20.4039 67.08 20.4652 67.3467 20.5879 67.576C20.7159 67.8053 20.8812 67.9813 21.0839 68.104C21.2919 68.2213 21.5105 68.28 21.7399 68.28C21.9745 68.28 22.1932 68.2213 22.3959 68.104C22.5985 67.9867 22.7612 67.816 22.8839 67.592C23.0119 67.3627 23.0759 67.096 23.0759 66.792ZM27.4178 64.52C27.7644 64.52 28.0738 64.592 28.3458 64.736C28.6231 64.88 28.8391 65.0933 28.9938 65.376C29.1484 65.6587 29.2258 66 29.2258 66.4V69H28.3218V66.536C28.3218 66.1413 28.2231 65.84 28.0258 65.632C27.8284 65.4187 27.5591 65.312 27.2178 65.312C26.8764 65.312 26.6044 65.4187 26.4018 65.632C26.2044 65.84 26.1058 66.1413 26.1058 66.536V69H25.1938V64.592H26.1058V65.096C26.2551 64.9147 26.4444 64.7733 26.6738 64.672C26.9084 64.5707 27.1564 64.52 27.4178 64.52ZM30.0851 66.776C30.0851 66.3333 30.1757 65.9413 30.3571 65.6C30.5437 65.2587 30.7944 64.9947 31.1091 64.808C31.4291 64.616 31.7811 64.52 32.1651 64.52C32.5117 64.52 32.8131 64.5893 33.0691 64.728C33.3304 64.8613 33.5384 65.0293 33.6931 65.232V64.592H34.6131V69H33.6931V68.344C33.5384 68.552 33.3277 68.7253 33.0611 68.864C32.7944 69.0027 32.4904 69.072 32.1491 69.072C31.7704 69.072 31.4237 68.976 31.1091 68.784C30.7944 68.5867 30.5437 68.3147 30.3571 67.968C30.1757 67.616 30.0851 67.2187 30.0851 66.776ZM33.6931 66.792C33.6931 66.488 33.6291 66.224 33.5011 66C33.3784 65.776 33.2157 65.6053 33.0131 65.488C32.8104 65.3707 32.5917 65.312 32.3571 65.312C32.1224 65.312 31.9037 65.3707 31.7011 65.488C31.4984 65.6 31.3331 65.768 31.2051 65.992C31.0824 66.2107 31.0211 66.472 31.0211 66.776C31.0211 67.08 31.0824 67.3467 31.2051 67.576C31.3331 67.8053 31.4984 67.9813 31.7011 68.104C31.9091 68.2213 32.1277 68.28 32.3571 68.28C32.5917 68.28 32.8104 68.2213 33.0131 68.104C33.2157 67.9867 33.3784 67.816 33.5011 67.592C33.6291 67.3627 33.6931 67.096 33.6931 66.792ZM38.2731 67.76C38.7851 67.3173 39.1877 66.9547 39.4811 66.672C39.7797 66.384 40.0277 66.0853 40.2251 65.776C40.4224 65.4667 40.5211 65.1573 40.5211 64.848C40.5211 64.528 40.4437 64.2773 40.2891 64.096C40.1397 63.9147 39.9024 63.824 39.5771 63.824C39.2624 63.824 39.0171 63.9253 38.8411 64.128C38.6704 64.3253 38.5797 64.592 38.5691 64.928H37.6891C37.7051 64.32 37.8864 63.856 38.2331 63.536C38.5851 63.2107 39.0304 63.048 39.5691 63.048C40.1504 63.048 40.6037 63.208 40.9291 63.528C41.2597 63.848 41.4251 64.2747 41.4251 64.808C41.4251 65.192 41.3264 65.5627 41.1291 65.92C40.9371 66.272 40.7051 66.5893 40.4331 66.872C40.1664 67.1493 39.8251 67.472 39.4091 67.84L39.0491 68.16H41.5851V68.92H37.6971V68.256L38.2731 67.76Z" fill="black"/>
<path d="M3.45934 118.056C3.08601 118.056 2.75001 117.992 2.45134 117.864C2.15268 117.731 1.91801 117.544 1.74734 117.304C1.57668 117.064 1.49134 116.784 1.49134 116.464H2.46734C2.48868 116.704 2.58201 116.901 2.74734 117.056C2.91801 117.211 3.15534 117.288 3.45934 117.288C3.77401 117.288 4.01934 117.213 4.19534 117.064C4.37134 116.909 4.45934 116.712 4.45934 116.472C4.45934 116.285 4.40334 116.133 4.29134 116.016C4.18468 115.899 4.04868 115.808 3.88334 115.744C3.72334 115.68 3.49934 115.611 3.21134 115.536C2.84868 115.44 2.55268 115.344 2.32334 115.248C2.09934 115.147 1.90734 114.992 1.74734 114.784C1.58734 114.576 1.50734 114.299 1.50734 113.952C1.50734 113.632 1.58734 113.352 1.74734 113.112C1.90734 112.872 2.13134 112.688 2.41934 112.56C2.70734 112.432 3.04068 112.368 3.41934 112.368C3.95801 112.368 4.39801 112.504 4.73934 112.776C5.08601 113.043 5.27801 113.411 5.31534 113.88H4.30734C4.29134 113.677 4.19534 113.504 4.01934 113.36C3.84334 113.216 3.61134 113.144 3.32334 113.144C3.06201 113.144 2.84868 113.211 2.68334 113.344C2.51801 113.477 2.43534 113.669 2.43534 113.92C2.43534 114.091 2.48601 114.232 2.58734 114.344C2.69401 114.451 2.82734 114.536 2.98734 114.6C3.14734 114.664 3.36601 114.733 3.64334 114.808C4.01134 114.909 4.31001 115.011 4.53934 115.112C4.77401 115.213 4.97134 115.371 5.13134 115.584C5.29668 115.792 5.37934 116.072 5.37934 116.424C5.37934 116.707 5.30201 116.973 5.14734 117.224C4.99801 117.475 4.77668 117.677 4.48334 117.832C4.19534 117.981 3.85401 118.056 3.45934 118.056ZM10.4955 115.688C10.4955 115.853 10.4848 116.003 10.4635 116.136H7.09547C7.12214 116.488 7.2528 116.771 7.48747 116.984C7.72214 117.197 8.01014 117.304 8.35147 117.304C8.84214 117.304 9.1888 117.099 9.39147 116.688H10.3755C10.2421 117.093 9.99947 117.427 9.64747 117.688C9.3008 117.944 8.8688 118.072 8.35147 118.072C7.93014 118.072 7.55147 117.979 7.21547 117.792C6.8848 117.6 6.62347 117.333 6.43147 116.992C6.2448 116.645 6.15147 116.245 6.15147 115.792C6.15147 115.339 6.24214 114.941 6.42347 114.6C6.61014 114.253 6.8688 113.987 7.19947 113.8C7.53547 113.613 7.91947 113.52 8.35147 113.52C8.76747 113.52 9.13814 113.611 9.46347 113.792C9.7888 113.973 10.0421 114.229 10.2235 114.56C10.4048 114.885 10.4955 115.261 10.4955 115.688ZM9.54347 115.4C9.53814 115.064 9.41814 114.795 9.18347 114.592C8.9488 114.389 8.65814 114.288 8.31147 114.288C7.9968 114.288 7.72747 114.389 7.50347 114.592C7.27947 114.789 7.14614 115.059 7.10347 115.4H9.54347ZM16.729 113.52C17.0756 113.52 17.385 113.592 17.657 113.736C17.9343 113.88 18.1503 114.093 18.305 114.376C18.465 114.659 18.545 115 18.545 115.4V118H17.641V115.536C17.641 115.141 17.5423 114.84 17.345 114.632C17.1476 114.419 16.8783 114.312 16.537 114.312C16.1956 114.312 15.9236 114.419 15.721 114.632C15.5236 114.84 15.425 115.141 15.425 115.536V118H14.521V115.536C14.521 115.141 14.4223 114.84 14.225 114.632C14.0276 114.419 13.7583 114.312 13.417 114.312C13.0756 114.312 12.8036 114.419 12.601 114.632C12.4036 114.84 12.305 115.141 12.305 115.536V118H11.393V113.592H12.305V114.096C12.4543 113.915 12.6436 113.773 12.873 113.672C13.1023 113.571 13.3476 113.52 13.609 113.52C13.961 113.52 14.2756 113.595 14.553 113.744C14.8303 113.893 15.0436 114.109 15.193 114.392C15.3263 114.125 15.5343 113.915 15.817 113.76C16.0996 113.6 16.4036 113.52 16.729 113.52ZM19.4015 115.776C19.4015 115.333 19.4921 114.941 19.6735 114.6C19.8601 114.259 20.1108 113.995 20.4255 113.808C20.7455 113.616 21.0975 113.52 21.4815 113.52C21.8281 113.52 22.1295 113.589 22.3855 113.728C22.6468 113.861 22.8548 114.029 23.0095 114.232V113.592H23.9295V118H23.0095V117.344C22.8548 117.552 22.6441 117.725 22.3775 117.864C22.1108 118.003 21.8068 118.072 21.4655 118.072C21.0868 118.072 20.7401 117.976 20.4255 117.784C20.1108 117.587 19.8601 117.315 19.6735 116.968C19.4921 116.616 19.4015 116.219 19.4015 115.776ZM23.0095 115.792C23.0095 115.488 22.9455 115.224 22.8175 115C22.6948 114.776 22.5321 114.605 22.3295 114.488C22.1268 114.371 21.9081 114.312 21.6735 114.312C21.4388 114.312 21.2201 114.371 21.0175 114.488C20.8148 114.6 20.6495 114.768 20.5215 114.992C20.3988 115.211 20.3375 115.472 20.3375 115.776C20.3375 116.08 20.3988 116.347 20.5215 116.576C20.6495 116.805 20.8148 116.981 21.0175 117.104C21.2255 117.221 21.4441 117.28 21.6735 117.28C21.9081 117.28 22.1268 117.221 22.3295 117.104C22.5321 116.987 22.6948 116.816 22.8175 116.592C22.9455 116.363 23.0095 116.096 23.0095 115.792ZM27.3513 113.52C27.698 113.52 28.0073 113.592 28.2793 113.736C28.5567 113.88 28.7727 114.093 28.9273 114.376C29.082 114.659 29.1593 115 29.1593 115.4V118H28.2553V115.536C28.2553 115.141 28.1567 114.84 27.9593 114.632C27.762 114.419 27.4927 114.312 27.1513 114.312C26.81 114.312 26.538 114.419 26.3353 114.632C26.138 114.84 26.0393 115.141 26.0393 115.536V118H25.1273V113.592H26.0393V114.096C26.1887 113.915 26.378 113.773 26.6073 113.672C26.842 113.571 27.09 113.52 27.3513 113.52ZM30.0187 115.776C30.0187 115.333 30.1093 114.941 30.2907 114.6C30.4773 114.259 30.728 113.995 31.0427 113.808C31.3627 113.616 31.7147 113.52 32.0987 113.52C32.4453 113.52 32.7467 113.589 33.0027 113.728C33.264 113.861 33.472 114.029 33.6267 114.232V113.592H34.5467V118H33.6267V117.344C33.472 117.552 33.2613 117.725 32.9947 117.864C32.728 118.003 32.424 118.072 32.0827 118.072C31.704 118.072 31.3573 117.976 31.0427 117.784C30.728 117.587 30.4773 117.315 30.2907 116.968C30.1093 116.616 30.0187 116.219 30.0187 115.776ZM33.6267 115.792C33.6267 115.488 33.5627 115.224 33.4347 115C33.312 114.776 33.1493 114.605 32.9467 114.488C32.744 114.371 32.5253 114.312 32.2907 114.312C32.056 114.312 31.8373 114.371 31.6347 114.488C31.432 114.6 31.2667 114.768 31.1387 114.992C31.016 115.211 30.9547 115.472 30.9547 115.776C30.9547 116.08 31.016 116.347 31.1387 116.576C31.2667 116.805 31.432 116.981 31.6347 117.104C31.8427 117.221 32.0613 117.28 32.2907 117.28C32.5253 117.28 32.744 117.221 32.9467 117.104C33.1493 116.987 33.312 116.816 33.4347 116.592C33.5627 116.363 33.6267 116.096 33.6267 115.792ZM37.6867 113.608C37.7187 113.112 37.908 112.725 38.2547 112.448C38.6067 112.171 39.0547 112.032 39.5987 112.032C39.972 112.032 40.2947 112.099 40.5667 112.232C40.8387 112.365 41.044 112.547 41.1827 112.776C41.3213 113.005 41.3907 113.264 41.3907 113.552C41.3907 113.883 41.3027 114.165 41.1267 114.4C40.9507 114.635 40.74 114.792 40.4947 114.872V114.904C40.8093 115 41.0547 115.176 41.2307 115.432C41.4067 115.683 41.4947 116.005 41.4947 116.4C41.4947 116.715 41.4227 116.995 41.2787 117.24C41.1347 117.485 40.9213 117.68 40.6387 117.824C40.356 117.963 40.0173 118.032 39.6227 118.032C39.0467 118.032 38.572 117.885 38.1987 117.592C37.8307 117.293 37.6333 116.867 37.6067 116.312H38.4867C38.508 116.595 38.6173 116.827 38.8147 117.008C39.012 117.184 39.2787 117.272 39.6147 117.272C39.94 117.272 40.1907 117.184 40.3667 117.008C40.5427 116.827 40.6307 116.595 40.6307 116.312C40.6307 115.939 40.5107 115.675 40.2707 115.52C40.036 115.36 39.6733 115.28 39.1827 115.28H38.9747V114.528H39.1907C39.6227 114.523 39.9507 114.451 40.1747 114.312C40.404 114.173 40.5187 113.955 40.5187 113.656C40.5187 113.4 40.436 113.197 40.2707 113.048C40.1053 112.893 39.8707 112.816 39.5667 112.816C39.268 112.816 39.036 112.893 38.8707 113.048C38.7053 113.197 38.6067 113.384 38.5747 113.608H37.6867Z" fill="black"/>
<path d="M2.7445 167.056C2.37117 167.056 2.03517 166.992 1.7365 166.864C1.43783 166.731 1.20317 166.544 1.0325 166.304C0.861833 166.064 0.7765 165.784 0.7765 165.464H1.7525C1.77383 165.704 1.86717 165.901 2.0325 166.056C2.20317 166.211 2.4405 166.288 2.7445 166.288C3.05917 166.288 3.3045 166.213 3.4805 166.064C3.6565 165.909 3.7445 165.712 3.7445 165.472C3.7445 165.285 3.6885 165.133 3.5765 165.016C3.46983 164.899 3.33383 164.808 3.1685 164.744C3.0085 164.68 2.7845 164.611 2.4965 164.536C2.13383 164.44 1.83783 164.344 1.6085 164.248C1.3845 164.147 1.1925 163.992 1.0325 163.784C0.8725 163.576 0.7925 163.299 0.7925 162.952C0.7925 162.632 0.8725 162.352 1.0325 162.112C1.1925 161.872 1.4165 161.688 1.7045 161.56C1.9925 161.432 2.32583 161.368 2.7045 161.368C3.24317 161.368 3.68317 161.504 4.0245 161.776C4.37117 162.043 4.56317 162.411 4.6005 162.88H3.5925C3.5765 162.677 3.4805 162.504 3.3045 162.36C3.1285 162.216 2.8965 162.144 2.6085 162.144C2.34717 162.144 2.13383 162.211 1.9685 162.344C1.80317 162.477 1.7205 162.669 1.7205 162.92C1.7205 163.091 1.77117 163.232 1.8725 163.344C1.97917 163.451 2.1125 163.536 2.2725 163.6C2.4325 163.664 2.65117 163.733 2.9285 163.808C3.2965 163.909 3.59517 164.011 3.8245 164.112C4.05917 164.213 4.2565 164.371 4.4165 164.584C4.58183 164.792 4.6645 165.072 4.6645 165.424C4.6645 165.707 4.58717 165.973 4.4325 166.224C4.28317 166.475 4.06183 166.677 3.7685 166.832C3.4805 166.981 3.13917 167.056 2.7445 167.056ZM9.78063 164.688C9.78063 164.853 9.76996 165.003 9.74863 165.136H6.38063C6.40729 165.488 6.53796 165.771 6.77263 165.984C7.00729 166.197 7.29529 166.304 7.63663 166.304C8.12729 166.304 8.47396 166.099 8.67663 165.688H9.66062C9.52729 166.093 9.28463 166.427 8.93263 166.688C8.58596 166.944 8.15396 167.072 7.63663 167.072C7.21529 167.072 6.83663 166.979 6.50063 166.792C6.16996 166.6 5.90863 166.333 5.71663 165.992C5.52996 165.645 5.43663 165.245 5.43663 164.792C5.43663 164.339 5.52729 163.941 5.70863 163.6C5.89529 163.253 6.15396 162.987 6.48463 162.8C6.82063 162.613 7.20463 162.52 7.63663 162.52C8.05263 162.52 8.42329 162.611 8.74863 162.792C9.07396 162.973 9.32729 163.229 9.50863 163.56C9.68996 163.885 9.78063 164.261 9.78063 164.688ZM8.82863 164.4C8.82329 164.064 8.70329 163.795 8.46863 163.592C8.23396 163.389 7.94329 163.288 7.59663 163.288C7.28196 163.288 7.01263 163.389 6.78863 163.592C6.56463 163.789 6.43129 164.059 6.38863 164.4H8.82863ZM16.0141 162.52C16.3608 162.52 16.6701 162.592 16.9421 162.736C17.2195 162.88 17.4355 163.093 17.5901 163.376C17.7501 163.659 17.8301 164 17.8301 164.4V167H16.9261V164.536C16.9261 164.141 16.8275 163.84 16.6301 163.632C16.4328 163.419 16.1635 163.312 15.8221 163.312C15.4808 163.312 15.2088 163.419 15.0061 163.632C14.8088 163.84 14.7101 164.141 14.7101 164.536V167H13.8061V164.536C13.8061 164.141 13.7075 163.84 13.5101 163.632C13.3128 163.419 13.0435 163.312 12.7021 163.312C12.3608 163.312 12.0888 163.419 11.8861 163.632C11.6888 163.84 11.5901 164.141 11.5901 164.536V167H10.6781V162.592H11.5901V163.096C11.7395 162.915 11.9288 162.773 12.1581 162.672C12.3875 162.571 12.6328 162.52 12.8941 162.52C13.2461 162.52 13.5608 162.595 13.8381 162.744C14.1155 162.893 14.3288 163.109 14.4781 163.392C14.6115 163.125 14.8195 162.915 15.1021 162.76C15.3848 162.6 15.6888 162.52 16.0141 162.52ZM18.6866 164.776C18.6866 164.333 18.7773 163.941 18.9586 163.6C19.1453 163.259 19.396 162.995 19.7106 162.808C20.0306 162.616 20.3826 162.52 20.7666 162.52C21.1133 162.52 21.4146 162.589 21.6706 162.728C21.932 162.861 22.14 163.029 22.2946 163.232V162.592H23.2146V167H22.2946V166.344C22.14 166.552 21.9293 166.725 21.6626 166.864C21.396 167.003 21.092 167.072 20.7506 167.072C20.372 167.072 20.0253 166.976 19.7106 166.784C19.396 166.587 19.1453 166.315 18.9586 165.968C18.7773 165.616 18.6866 165.219 18.6866 164.776ZM22.2946 164.792C22.2946 164.488 22.2306 164.224 22.1026 164C21.98 163.776 21.8173 163.605 21.6146 163.488C21.412 163.371 21.1933 163.312 20.9586 163.312C20.724 163.312 20.5053 163.371 20.3026 163.488C20.1 163.6 19.9346 163.768 19.8066 163.992C19.684 164.211 19.6226 164.472 19.6226 164.776C19.6226 165.08 19.684 165.347 19.8066 165.576C19.9346 165.805 20.1 165.981 20.3026 166.104C20.5106 166.221 20.7293 166.28 20.9586 166.28C21.1933 166.28 21.412 166.221 21.6146 166.104C21.8173 165.987 21.98 165.816 22.1026 165.592C22.2306 165.363 22.2946 165.096 22.2946 164.792ZM26.6365 162.52C26.9832 162.52 27.2925 162.592 27.5645 162.736C27.8418 162.88 28.0578 163.093 28.2125 163.376C28.3672 163.659 28.4445 164 28.4445 164.4V167H27.5405V164.536C27.5405 164.141 27.4418 163.84 27.2445 163.632C27.0472 163.419 26.7778 163.312 26.4365 163.312C26.0952 163.312 25.8232 163.419 25.6205 163.632C25.4232 163.84 25.3245 164.141 25.3245 164.536V167H24.4125V162.592H25.3245V163.096C25.4738 162.915 25.6632 162.773 25.8925 162.672C26.1272 162.571 26.3752 162.52 26.6365 162.52ZM29.3038 164.776C29.3038 164.333 29.3945 163.941 29.5758 163.6C29.7625 163.259 30.0131 162.995 30.3278 162.808C30.6478 162.616 30.9998 162.52 31.3838 162.52C31.7305 162.52 32.0318 162.589 32.2878 162.728C32.5491 162.861 32.7571 163.029 32.9118 163.232V162.592H33.8318V167H32.9118V166.344C32.7571 166.552 32.5465 166.725 32.2798 166.864C32.0131 167.003 31.7091 167.072 31.3678 167.072C30.9891 167.072 30.6425 166.976 30.3278 166.784C30.0131 166.587 29.7625 166.315 29.5758 165.968C29.3945 165.616 29.3038 165.219 29.3038 164.776ZM32.9118 164.792C32.9118 164.488 32.8478 164.224 32.7198 164C32.5971 163.776 32.4345 163.605 32.2318 163.488C32.0291 163.371 31.8105 163.312 31.5758 163.312C31.3411 163.312 31.1225 163.371 30.9198 163.488C30.7171 163.6 30.5518 163.768 30.4238 163.992C30.3011 164.211 30.2398 164.472 30.2398 164.776C30.2398 165.08 30.3011 165.347 30.4238 165.576C30.5518 165.805 30.7171 165.981 30.9198 166.104C31.1278 166.221 31.3465 166.28 31.5758 166.28C31.8105 166.28 32.0291 166.221 32.2318 166.104C32.4345 165.987 32.5971 165.816 32.7198 165.592C32.8478 165.363 32.9118 165.096 32.9118 164.792ZM36.8758 165.784V165.096L39.5638 161.24H40.6678V164.992H41.4118V165.784H40.6678V167H39.7718V165.784H36.8758ZM39.8118 162.168L37.9238 164.992H39.8118V162.168Z" fill="black"/>
</svg>