<svg width="463" height="277" viewBox="0 0 463 277" fill="none" xmlns="http://www.w3.org/2000/svg">
<path d="M381.886 150H380.409L384.682 138.364H386.136L390.409 150H388.932L385.455 140.205H385.364L381.886 150ZM382.432 145.455H388.386V146.705H382.432V145.455ZM393.381 138.364V150H392.04V138.364H393.381ZM401.337 146.432V141.273H402.678V150H401.337V148.523H401.246C401.041 148.966 400.723 149.343 400.291 149.653C399.859 149.96 399.314 150.114 398.655 150.114C398.109 150.114 397.625 149.994 397.2 149.756C396.776 149.513 396.443 149.15 396.2 148.665C395.958 148.176 395.837 147.561 395.837 146.818V141.273H397.178V146.727C397.178 147.364 397.356 147.871 397.712 148.25C398.071 148.629 398.53 148.818 399.087 148.818C399.42 148.818 399.759 148.733 400.104 148.562C400.452 148.392 400.744 148.131 400.979 147.778C401.217 147.426 401.337 146.977 401.337 146.432ZM408.656 153.455C408.009 153.455 407.452 153.371 406.986 153.205C406.52 153.042 406.132 152.826 405.821 152.557C405.514 152.292 405.27 152.008 405.088 151.705L406.156 150.955C406.277 151.114 406.431 151.295 406.616 151.5C406.802 151.708 407.056 151.888 407.378 152.04C407.704 152.195 408.13 152.273 408.656 152.273C409.361 152.273 409.942 152.102 410.401 151.761C410.859 151.42 411.088 150.886 411.088 150.159V148.386H410.974C410.876 148.545 410.736 148.742 410.554 148.977C410.376 149.208 410.118 149.415 409.781 149.597C409.448 149.775 408.997 149.864 408.429 149.864C407.724 149.864 407.092 149.697 406.531 149.364C405.974 149.03 405.533 148.545 405.207 147.909C404.885 147.273 404.724 146.5 404.724 145.591C404.724 144.697 404.882 143.919 405.196 143.256C405.51 142.589 405.948 142.074 406.509 141.71C407.069 141.343 407.717 141.159 408.452 141.159C409.02 141.159 409.471 141.254 409.804 141.443C410.141 141.629 410.399 141.841 410.577 142.08C410.759 142.314 410.899 142.508 410.997 142.659H411.134V141.273H412.429V150.25C412.429 151 412.259 151.61 411.918 152.08C411.58 152.553 411.126 152.9 410.554 153.119C409.986 153.343 409.353 153.455 408.656 153.455ZM408.611 148.659C409.149 148.659 409.603 148.536 409.974 148.29C410.346 148.044 410.628 147.689 410.821 147.227C411.014 146.765 411.111 146.212 411.111 145.568C411.111 144.939 411.016 144.384 410.827 143.903C410.637 143.422 410.357 143.045 409.986 142.773C409.615 142.5 409.156 142.364 408.611 142.364C408.043 142.364 407.569 142.508 407.19 142.795C406.815 143.083 406.533 143.47 406.344 143.955C406.158 144.439 406.065 144.977 406.065 145.568C406.065 146.174 406.16 146.71 406.349 147.176C406.543 147.638 406.827 148.002 407.202 148.267C407.58 148.528 408.05 148.659 408.611 148.659ZM420.384 146.432V141.273H421.724V150H420.384V148.523H420.293C420.088 148.966 419.77 149.343 419.338 149.653C418.906 149.96 418.361 150.114 417.702 150.114C417.156 150.114 416.671 149.994 416.247 149.756C415.823 149.513 415.49 149.15 415.247 148.665C415.005 148.176 414.884 147.561 414.884 146.818V141.273H416.224V146.727C416.224 147.364 416.402 147.871 416.759 148.25C417.118 148.629 417.577 148.818 418.134 148.818C418.467 148.818 418.806 148.733 419.151 148.562C419.499 148.392 419.791 148.131 420.026 147.778C420.264 147.426 420.384 146.977 420.384 146.432ZM427.839 150.182C426.999 150.182 426.273 149.996 425.663 149.625C425.057 149.25 424.589 148.727 424.26 148.057C423.934 147.383 423.771 146.598 423.771 145.705C423.771 144.811 423.934 144.023 424.26 143.341C424.589 142.655 425.048 142.121 425.635 141.739C426.226 141.352 426.915 141.159 427.703 141.159C428.158 141.159 428.607 141.235 429.05 141.386C429.493 141.538 429.896 141.784 430.26 142.125C430.624 142.462 430.913 142.909 431.129 143.466C431.345 144.023 431.453 144.708 431.453 145.523V146.091H424.726V144.932H430.089C430.089 144.439 429.991 144 429.794 143.614C429.601 143.227 429.324 142.922 428.964 142.699C428.608 142.475 428.188 142.364 427.703 142.364C427.169 142.364 426.707 142.496 426.317 142.761C425.93 143.023 425.633 143.364 425.425 143.784C425.216 144.205 425.112 144.655 425.112 145.136V145.909C425.112 146.568 425.226 147.127 425.453 147.585C425.684 148.04 426.004 148.386 426.413 148.625C426.822 148.86 427.298 148.977 427.839 148.977C428.192 148.977 428.51 148.928 428.794 148.83C429.082 148.727 429.33 148.576 429.538 148.375C429.747 148.17 429.908 147.917 430.021 147.614L431.317 147.977C431.18 148.417 430.951 148.803 430.629 149.136C430.307 149.466 429.91 149.723 429.436 149.909C428.963 150.091 428.43 150.182 427.839 150.182ZM434.834 138.364V150H433.493V138.364H434.834Z" fill="black"/>
<path d="M390.773 181H389.364C389.28 180.595 389.134 180.239 388.926 179.932C388.722 179.625 388.472 179.367 388.176 179.159C387.884 178.947 387.561 178.788 387.205 178.682C386.848 178.576 386.477 178.523 386.091 178.523C385.386 178.523 384.748 178.701 384.176 179.057C383.608 179.413 383.155 179.938 382.818 180.631C382.485 181.324 382.318 182.174 382.318 183.182C382.318 184.189 382.485 185.04 382.818 185.733C383.155 186.426 383.608 186.951 384.176 187.307C384.748 187.663 385.386 187.841 386.091 187.841C386.477 187.841 386.848 187.788 387.205 187.682C387.561 187.576 387.884 187.419 388.176 187.21C388.472 186.998 388.722 186.739 388.926 186.432C389.134 186.121 389.28 185.765 389.364 185.364H390.773C390.667 185.958 390.473 186.491 390.193 186.96C389.913 187.43 389.564 187.83 389.148 188.159C388.731 188.485 388.263 188.733 387.744 188.903C387.229 189.074 386.678 189.159 386.091 189.159C385.098 189.159 384.216 188.917 383.443 188.432C382.67 187.947 382.063 187.258 381.619 186.364C381.176 185.47 380.955 184.409 380.955 183.182C380.955 181.955 381.176 180.894 381.619 180C382.063 179.106 382.67 178.417 383.443 177.932C384.216 177.447 385.098 177.205 386.091 177.205C386.678 177.205 387.229 177.29 387.744 177.46C388.263 177.631 388.731 177.881 389.148 178.21C389.564 178.536 389.913 178.934 390.193 179.403C390.473 179.869 390.667 180.402 390.773 181ZM396.413 189.182C395.625 189.182 394.934 188.994 394.339 188.619C393.749 188.244 393.286 187.72 392.953 187.045C392.624 186.371 392.459 185.583 392.459 184.682C392.459 183.773 392.624 182.979 392.953 182.301C393.286 181.623 393.749 181.097 394.339 180.722C394.934 180.347 395.625 180.159 396.413 180.159C397.201 180.159 397.891 180.347 398.482 180.722C399.076 181.097 399.538 181.623 399.868 182.301C400.201 182.979 400.368 183.773 400.368 184.682C400.368 185.583 400.201 186.371 399.868 187.045C399.538 187.72 399.076 188.244 398.482 188.619C397.891 188.994 397.201 189.182 396.413 189.182ZM396.413 187.977C397.012 187.977 397.504 187.824 397.891 187.517C398.277 187.21 398.563 186.807 398.749 186.307C398.934 185.807 399.027 185.265 399.027 184.682C399.027 184.098 398.934 183.555 398.749 183.051C398.563 182.547 398.277 182.14 397.891 181.83C397.504 181.519 397.012 181.364 396.413 181.364C395.815 181.364 395.322 181.519 394.936 181.83C394.55 182.14 394.264 182.547 394.078 183.051C393.893 183.555 393.8 184.098 393.8 184.682C393.8 185.265 393.893 185.807 394.078 186.307C394.264 186.807 394.55 187.21 394.936 187.517C395.322 187.824 395.815 187.977 396.413 187.977ZM403.756 183.75V189H402.415V180.273H403.71V181.636H403.824C404.028 181.193 404.339 180.837 404.756 180.568C405.172 180.295 405.71 180.159 406.369 180.159C406.96 180.159 407.477 180.28 407.92 180.523C408.364 180.761 408.708 181.125 408.955 181.614C409.201 182.098 409.324 182.712 409.324 183.455V189H407.983V183.545C407.983 182.86 407.805 182.326 407.449 181.943C407.093 181.557 406.604 181.364 405.983 181.364C405.555 181.364 405.172 181.456 404.835 181.642C404.502 181.828 404.239 182.098 404.045 182.455C403.852 182.811 403.756 183.242 403.756 183.75ZM415.57 180.273V181.409H411.047V180.273H415.57ZM412.365 178.182H413.706V186.5C413.706 186.879 413.761 187.163 413.871 187.352C413.984 187.538 414.128 187.663 414.303 187.727C414.481 187.788 414.668 187.818 414.865 187.818C415.013 187.818 415.134 187.811 415.229 187.795C415.323 187.777 415.399 187.761 415.456 187.75L415.729 188.955C415.638 188.989 415.511 189.023 415.348 189.057C415.185 189.095 414.979 189.114 414.729 189.114C414.35 189.114 413.979 189.032 413.615 188.869C413.255 188.706 412.956 188.458 412.717 188.125C412.482 187.792 412.365 187.371 412.365 186.864V178.182ZM420.155 189.205C419.602 189.205 419.1 189.1 418.649 188.892C418.198 188.68 417.84 188.375 417.575 187.977C417.31 187.576 417.178 187.091 417.178 186.523C417.178 186.023 417.276 185.617 417.473 185.307C417.67 184.992 417.933 184.746 418.263 184.568C418.592 184.39 418.956 184.258 419.354 184.17C419.755 184.08 420.159 184.008 420.564 183.955C421.094 183.886 421.524 183.835 421.854 183.801C422.187 183.763 422.429 183.701 422.581 183.614C422.736 183.527 422.814 183.375 422.814 183.159V183.114C422.814 182.553 422.661 182.117 422.354 181.807C422.051 181.496 421.59 181.341 420.973 181.341C420.333 181.341 419.831 181.481 419.467 181.761C419.104 182.042 418.848 182.341 418.7 182.659L417.428 182.205C417.655 181.674 417.958 181.261 418.337 180.966C418.719 180.667 419.136 180.458 419.587 180.341C420.041 180.22 420.488 180.159 420.928 180.159C421.208 180.159 421.53 180.193 421.893 180.261C422.261 180.326 422.615 180.46 422.956 180.665C423.301 180.869 423.587 181.178 423.814 181.591C424.041 182.004 424.155 182.557 424.155 183.25V189H422.814V187.818H422.746C422.655 188.008 422.503 188.21 422.291 188.426C422.079 188.642 421.797 188.826 421.445 188.977C421.092 189.129 420.662 189.205 420.155 189.205ZM420.359 188C420.89 188 421.337 187.896 421.7 187.688C422.068 187.479 422.344 187.21 422.53 186.881C422.719 186.551 422.814 186.205 422.814 185.841V184.614C422.757 184.682 422.632 184.744 422.439 184.801C422.25 184.854 422.03 184.902 421.78 184.943C421.534 184.981 421.293 185.015 421.058 185.045C420.827 185.072 420.64 185.095 420.496 185.114C420.147 185.159 419.821 185.233 419.518 185.335C419.219 185.434 418.977 185.583 418.791 185.784C418.609 185.981 418.518 186.25 418.518 186.591C418.518 187.057 418.691 187.409 419.036 187.648C419.384 187.883 419.825 188 420.359 188ZM432.784 182.227L431.58 182.568C431.504 182.367 431.392 182.172 431.244 181.983C431.1 181.79 430.903 181.631 430.653 181.506C430.403 181.381 430.083 181.318 429.693 181.318C429.159 181.318 428.714 181.441 428.358 181.688C428.006 181.93 427.83 182.239 427.83 182.614C427.83 182.947 427.951 183.21 428.193 183.403C428.436 183.597 428.814 183.758 429.33 183.886L430.625 184.205C431.405 184.394 431.987 184.684 432.369 185.074C432.752 185.46 432.943 185.958 432.943 186.568C432.943 187.068 432.799 187.515 432.511 187.909C432.227 188.303 431.83 188.614 431.318 188.841C430.807 189.068 430.212 189.182 429.534 189.182C428.644 189.182 427.907 188.989 427.324 188.602C426.741 188.216 426.371 187.652 426.216 186.909L427.489 186.591C427.61 187.061 427.839 187.413 428.176 187.648C428.517 187.883 428.962 188 429.511 188C430.136 188 430.633 187.867 431 187.602C431.371 187.333 431.557 187.011 431.557 186.636C431.557 186.333 431.451 186.08 431.239 185.875C431.027 185.667 430.701 185.511 430.261 185.409L428.807 185.068C428.008 184.879 427.42 184.585 427.045 184.188C426.674 183.786 426.489 183.284 426.489 182.682C426.489 182.189 426.627 181.754 426.903 181.375C427.184 180.996 427.564 180.699 428.045 180.483C428.53 180.267 429.08 180.159 429.693 180.159C430.557 180.159 431.235 180.348 431.727 180.727C432.223 181.106 432.576 181.606 432.784 182.227Z" fill="black"/>
<path d="M380.773 216.614V215.364H389.5V216.614H385.841V227H384.432V216.614H380.773ZM390.587 227V218.273H391.882V219.591H391.973C392.132 219.159 392.42 218.809 392.837 218.54C393.253 218.271 393.723 218.136 394.246 218.136C394.344 218.136 394.467 218.138 394.615 218.142C394.763 218.146 394.875 218.152 394.95 218.159V219.523C394.905 219.511 394.801 219.494 394.638 219.472C394.479 219.445 394.31 219.432 394.132 219.432C393.708 219.432 393.329 219.521 392.996 219.699C392.666 219.873 392.405 220.116 392.212 220.426C392.022 220.733 391.928 221.083 391.928 221.477V227H390.587ZM399.108 227.205C398.555 227.205 398.053 227.1 397.602 226.892C397.152 226.68 396.794 226.375 396.528 225.977C396.263 225.576 396.131 225.091 396.131 224.523C396.131 224.023 396.229 223.617 396.426 223.307C396.623 222.992 396.886 222.746 397.216 222.568C397.545 222.39 397.909 222.258 398.307 222.17C398.708 222.08 399.112 222.008 399.517 221.955C400.047 221.886 400.477 221.835 400.807 221.801C401.14 221.763 401.383 221.701 401.534 221.614C401.689 221.527 401.767 221.375 401.767 221.159V221.114C401.767 220.553 401.614 220.117 401.307 219.807C401.004 219.496 400.544 219.341 399.926 219.341C399.286 219.341 398.784 219.481 398.42 219.761C398.057 220.042 397.801 220.341 397.653 220.659L396.381 220.205C396.608 219.674 396.911 219.261 397.29 218.966C397.672 218.667 398.089 218.458 398.54 218.341C398.994 218.22 399.441 218.159 399.881 218.159C400.161 218.159 400.483 218.193 400.847 218.261C401.214 218.326 401.568 218.46 401.909 218.665C402.254 218.869 402.54 219.178 402.767 219.591C402.994 220.004 403.108 220.557 403.108 221.25V227H401.767V225.818H401.699C401.608 226.008 401.456 226.21 401.244 226.426C401.032 226.642 400.75 226.826 400.398 226.977C400.045 227.129 399.616 227.205 399.108 227.205ZM399.312 226C399.843 226 400.29 225.896 400.653 225.688C401.021 225.479 401.297 225.21 401.483 224.881C401.672 224.551 401.767 224.205 401.767 223.841V222.614C401.71 222.682 401.585 222.744 401.392 222.801C401.203 222.854 400.983 222.902 400.733 222.943C400.487 222.981 400.246 223.015 400.011 223.045C399.78 223.072 399.593 223.095 399.449 223.114C399.1 223.159 398.775 223.233 398.472 223.335C398.172 223.434 397.93 223.583 397.744 223.784C397.563 223.981 397.472 224.25 397.472 224.591C397.472 225.057 397.644 225.409 397.989 225.648C398.337 225.883 398.778 226 399.312 226ZM406.896 221.75V227H405.555V218.273H406.851V219.636H406.964C407.169 219.193 407.48 218.837 407.896 218.568C408.313 218.295 408.851 218.159 409.51 218.159C410.101 218.159 410.618 218.28 411.061 218.523C411.504 218.761 411.849 219.125 412.095 219.614C412.341 220.098 412.464 220.712 412.464 221.455V227H411.124V221.545C411.124 220.86 410.946 220.326 410.589 219.943C410.233 219.557 409.745 219.364 409.124 219.364C408.696 219.364 408.313 219.456 407.976 219.642C407.643 219.828 407.379 220.098 407.186 220.455C406.993 220.811 406.896 221.242 406.896 221.75ZM421.097 220.227L419.892 220.568C419.816 220.367 419.705 220.172 419.557 219.983C419.413 219.79 419.216 219.631 418.966 219.506C418.716 219.381 418.396 219.318 418.006 219.318C417.472 219.318 417.027 219.441 416.67 219.688C416.318 219.93 416.142 220.239 416.142 220.614C416.142 220.947 416.263 221.21 416.506 221.403C416.748 221.597 417.127 221.758 417.642 221.886L418.938 222.205C419.718 222.394 420.299 222.684 420.682 223.074C421.064 223.46 421.256 223.958 421.256 224.568C421.256 225.068 421.112 225.515 420.824 225.909C420.54 226.303 420.142 226.614 419.631 226.841C419.119 227.068 418.525 227.182 417.847 227.182C416.956 227.182 416.22 226.989 415.636 226.602C415.053 226.216 414.684 225.652 414.528 224.909L415.801 224.591C415.922 225.061 416.152 225.413 416.489 225.648C416.83 225.883 417.275 226 417.824 226C418.449 226 418.945 225.867 419.312 225.602C419.684 225.333 419.869 225.011 419.869 224.636C419.869 224.333 419.763 224.08 419.551 223.875C419.339 223.667 419.013 223.511 418.574 223.409L417.119 223.068C416.32 222.879 415.733 222.585 415.358 222.188C414.987 221.786 414.801 221.284 414.801 220.682C414.801 220.189 414.939 219.754 415.216 219.375C415.496 218.996 415.877 218.699 416.358 218.483C416.843 218.267 417.392 218.159 418.006 218.159C418.869 218.159 419.547 218.348 420.04 218.727C420.536 219.106 420.888 219.606 421.097 220.227ZM423.274 230.273V218.273H424.57V219.659H424.729C424.827 219.508 424.964 219.314 425.138 219.08C425.316 218.841 425.57 218.629 425.899 218.443C426.232 218.254 426.683 218.159 427.251 218.159C427.986 218.159 428.634 218.343 429.195 218.71C429.755 219.078 430.193 219.598 430.507 220.273C430.821 220.947 430.979 221.742 430.979 222.659C430.979 223.583 430.821 224.384 430.507 225.062C430.193 225.737 429.757 226.259 429.2 226.631C428.643 226.998 428.001 227.182 427.274 227.182C426.714 227.182 426.265 227.089 425.928 226.903C425.59 226.714 425.331 226.5 425.149 226.261C424.967 226.019 424.827 225.818 424.729 225.659H424.615V230.273H423.274ZM424.592 222.636C424.592 223.295 424.689 223.877 424.882 224.381C425.075 224.881 425.357 225.273 425.729 225.557C426.1 225.837 426.554 225.977 427.092 225.977C427.653 225.977 428.121 225.83 428.496 225.534C428.875 225.235 429.159 224.833 429.348 224.33C429.541 223.822 429.638 223.258 429.638 222.636C429.638 222.023 429.543 221.47 429.354 220.977C429.168 220.481 428.886 220.089 428.507 219.801C428.132 219.509 427.661 219.364 427.092 219.364C426.547 219.364 426.089 219.502 425.717 219.778C425.346 220.051 425.066 220.434 424.876 220.926C424.687 221.415 424.592 221.985 424.592 222.636ZM436.57 227.182C435.782 227.182 435.09 226.994 434.496 226.619C433.905 226.244 433.443 225.72 433.109 225.045C432.78 224.371 432.615 223.583 432.615 222.682C432.615 221.773 432.78 220.979 433.109 220.301C433.443 219.623 433.905 219.097 434.496 218.722C435.09 218.347 435.782 218.159 436.57 218.159C437.357 218.159 438.047 218.347 438.638 218.722C439.232 219.097 439.695 219.623 440.024 220.301C440.357 220.979 440.524 221.773 440.524 222.682C440.524 223.583 440.357 224.371 440.024 225.045C439.695 225.72 439.232 226.244 438.638 226.619C438.047 226.994 437.357 227.182 436.57 227.182ZM436.57 225.977C437.168 225.977 437.661 225.824 438.047 225.517C438.433 225.21 438.719 224.807 438.905 224.307C439.09 223.807 439.183 223.265 439.183 222.682C439.183 222.098 439.09 221.555 438.905 221.051C438.719 220.547 438.433 220.14 438.047 219.83C437.661 219.519 437.168 219.364 436.57 219.364C435.971 219.364 435.479 219.519 435.092 219.83C434.706 220.14 434.42 220.547 434.234 221.051C434.049 221.555 433.956 222.098 433.956 222.682C433.956 223.265 434.049 223.807 434.234 224.307C434.42 224.807 434.706 225.21 435.092 225.517C435.479 225.824 435.971 225.977 436.57 225.977ZM442.571 227V218.273H443.866V219.591H443.957C444.116 219.159 444.404 218.809 444.821 218.54C445.238 218.271 445.707 218.136 446.23 218.136C446.329 218.136 446.452 218.138 446.599 218.142C446.747 218.146 446.859 218.152 446.935 218.159V219.523C446.889 219.511 446.785 219.494 446.622 219.472C446.463 219.445 446.295 219.432 446.116 219.432C445.692 219.432 445.313 219.521 444.98 219.699C444.651 219.873 444.389 220.116 444.196 220.426C444.007 220.733 443.912 221.083 443.912 221.477V227H442.571ZM452.866 218.273V219.409H448.344V218.273H452.866ZM449.662 216.182H451.003V224.5C451.003 224.879 451.058 225.163 451.168 225.352C451.281 225.538 451.425 225.663 451.599 225.727C451.777 225.788 451.965 225.818 452.162 225.818C452.31 225.818 452.431 225.811 452.526 225.795C452.62 225.777 452.696 225.761 452.753 225.75L453.026 226.955C452.935 226.989 452.808 227.023 452.645 227.057C452.482 227.095 452.276 227.114 452.026 227.114C451.647 227.114 451.276 227.032 450.912 226.869C450.552 226.706 450.253 226.458 450.014 226.125C449.779 225.792 449.662 225.371 449.662 224.864V216.182ZM458.449 227.182C457.608 227.182 456.883 226.996 456.273 226.625C455.667 226.25 455.199 225.727 454.869 225.057C454.544 224.383 454.381 223.598 454.381 222.705C454.381 221.811 454.544 221.023 454.869 220.341C455.199 219.655 455.657 219.121 456.244 218.739C456.835 218.352 457.525 218.159 458.312 218.159C458.767 218.159 459.216 218.235 459.659 218.386C460.102 218.538 460.506 218.784 460.869 219.125C461.233 219.462 461.523 219.909 461.739 220.466C461.955 221.023 462.062 221.708 462.062 222.523V223.091H455.335V221.932H460.699C460.699 221.439 460.6 221 460.403 220.614C460.21 220.227 459.934 219.922 459.574 219.699C459.218 219.475 458.797 219.364 458.312 219.364C457.778 219.364 457.316 219.496 456.926 219.761C456.54 220.023 456.242 220.364 456.034 220.784C455.826 221.205 455.722 221.655 455.722 222.136V222.909C455.722 223.568 455.835 224.127 456.062 224.585C456.294 225.04 456.614 225.386 457.023 225.625C457.432 225.86 457.907 225.977 458.449 225.977C458.801 225.977 459.119 225.928 459.403 225.83C459.691 225.727 459.939 225.576 460.148 225.375C460.356 225.17 460.517 224.917 460.631 224.614L461.926 224.977C461.79 225.417 461.561 225.803 461.239 226.136C460.917 226.466 460.519 226.723 460.045 226.909C459.572 227.091 459.04 227.182 458.449 227.182Z" fill="black"/>
<path d="M387.773 63.2727C387.705 62.697 387.428 62.25 386.943 61.9318C386.458 61.6136 385.864 61.4545 385.159 61.4545C384.644 61.4545 384.193 61.5379 383.807 61.7045C383.424 61.8712 383.125 62.1004 382.909 62.392C382.697 62.6837 382.591 63.0152 382.591 63.3864C382.591 63.697 382.665 63.964 382.812 64.1875C382.964 64.4072 383.157 64.5909 383.392 64.7386C383.627 64.8826 383.873 65.0019 384.131 65.0966C384.388 65.1875 384.625 65.2614 384.841 65.3182L386.023 65.6364C386.326 65.7159 386.663 65.8258 387.034 65.9659C387.409 66.1061 387.767 66.2973 388.108 66.5398C388.453 66.7784 388.737 67.0852 388.96 67.4602C389.184 67.8352 389.295 68.2955 389.295 68.8409C389.295 69.4697 389.131 70.0379 388.801 70.5455C388.475 71.053 387.998 71.4564 387.369 71.7557C386.744 72.0549 385.985 72.2045 385.091 72.2045C384.258 72.2045 383.536 72.0701 382.926 71.8011C382.32 71.5322 381.843 71.1572 381.494 70.6761C381.15 70.1951 380.955 69.6364 380.909 69H382.364C382.402 69.4394 382.549 69.803 382.807 70.0909C383.068 70.375 383.398 70.5871 383.795 70.7273C384.197 70.8636 384.629 70.9318 385.091 70.9318C385.629 70.9318 386.112 70.8447 386.54 70.6705C386.968 70.4924 387.307 70.2462 387.557 69.9318C387.807 69.6136 387.932 69.2424 387.932 68.8182C387.932 68.4318 387.824 68.1174 387.608 67.875C387.392 67.6326 387.108 67.4356 386.756 67.2841C386.403 67.1326 386.023 67 385.614 66.8864L384.182 66.4773C383.273 66.2159 382.553 65.8428 382.023 65.358C381.492 64.8731 381.227 64.2386 381.227 63.4545C381.227 62.803 381.403 62.2348 381.756 61.75C382.112 61.2614 382.589 60.8826 383.188 60.6136C383.79 60.3409 384.462 60.2045 385.205 60.2045C385.955 60.2045 386.621 60.339 387.205 60.608C387.788 60.8731 388.25 61.2367 388.591 61.6989C388.936 62.161 389.117 62.6856 389.136 63.2727H387.773ZM393.999 72.2045C393.446 72.2045 392.944 72.1004 392.493 71.892C392.042 71.6799 391.684 71.375 391.419 70.9773C391.154 70.5758 391.021 70.0909 391.021 69.5227C391.021 69.0227 391.12 68.6174 391.317 68.3068C391.514 67.9924 391.777 67.7462 392.107 67.5682C392.436 67.3902 392.8 67.2576 393.197 67.1705C393.599 67.0795 394.002 67.0076 394.408 66.9545C394.938 66.8864 395.368 66.8352 395.697 66.8011C396.031 66.7633 396.273 66.7008 396.425 66.6136C396.58 66.5265 396.658 66.375 396.658 66.1591V66.1136C396.658 65.553 396.504 65.1174 396.197 64.8068C395.894 64.4962 395.434 64.3409 394.817 64.3409C394.177 64.3409 393.675 64.4811 393.311 64.7614C392.947 65.0417 392.692 65.3409 392.544 65.6591L391.271 65.2045C391.499 64.6742 391.802 64.2614 392.18 63.9659C392.563 63.6667 392.98 63.4583 393.43 63.3409C393.885 63.2197 394.332 63.1591 394.771 63.1591C395.052 63.1591 395.374 63.1932 395.737 63.2614C396.105 63.3258 396.459 63.4602 396.8 63.6648C397.144 63.8693 397.43 64.178 397.658 64.5909C397.885 65.0038 397.999 65.5568 397.999 66.25V72H396.658V70.8182H396.589C396.499 71.0076 396.347 71.2102 396.135 71.4261C395.923 71.642 395.641 71.8258 395.288 71.9773C394.936 72.1288 394.506 72.2045 393.999 72.2045ZM394.203 71C394.733 71 395.18 70.8958 395.544 70.6875C395.911 70.4792 396.188 70.2102 396.374 69.8807C396.563 69.5511 396.658 69.2045 396.658 68.8409V67.6136C396.601 67.6818 396.476 67.7443 396.283 67.8011C396.093 67.8542 395.874 67.9015 395.624 67.9432C395.377 67.9811 395.137 68.0152 394.902 68.0455C394.671 68.072 394.483 68.0947 394.339 68.1136C393.991 68.1591 393.665 68.233 393.362 68.3352C393.063 68.4337 392.821 68.5833 392.635 68.7841C392.453 68.9811 392.362 69.25 392.362 69.5909C392.362 70.0568 392.535 70.4091 392.879 70.6477C393.228 70.8826 393.669 71 394.203 71ZM401.787 60.3636V72H400.446V60.3636H401.787ZM406.811 72.2045C406.258 72.2045 405.756 72.1004 405.305 71.892C404.855 71.6799 404.497 71.375 404.232 70.9773C403.966 70.5758 403.834 70.0909 403.834 69.5227C403.834 69.0227 403.932 68.6174 404.129 68.3068C404.326 67.9924 404.589 67.7462 404.919 67.5682C405.249 67.3902 405.612 67.2576 406.01 67.1705C406.411 67.0795 406.815 67.0076 407.22 66.9545C407.75 66.8864 408.18 66.8352 408.51 66.8011C408.843 66.7633 409.086 66.7008 409.237 66.6136C409.393 66.5265 409.47 66.375 409.47 66.1591V66.1136C409.47 65.553 409.317 65.1174 409.01 64.8068C408.707 64.4962 408.247 64.3409 407.629 64.3409C406.989 64.3409 406.487 64.4811 406.124 64.7614C405.76 65.0417 405.504 65.3409 405.357 65.6591L404.084 65.2045C404.311 64.6742 404.614 64.2614 404.993 63.9659C405.375 63.6667 405.792 63.4583 406.243 63.3409C406.697 63.2197 407.144 63.1591 407.584 63.1591C407.864 63.1591 408.186 63.1932 408.55 63.2614C408.917 63.3258 409.271 63.4602 409.612 63.6648C409.957 63.8693 410.243 64.178 410.47 64.5909C410.697 65.0038 410.811 65.5568 410.811 66.25V72H409.47V70.8182H409.402C409.311 71.0076 409.16 71.2102 408.947 71.4261C408.735 71.642 408.453 71.8258 408.101 71.9773C407.749 72.1288 407.319 72.2045 406.811 72.2045ZM407.016 71C407.546 71 407.993 70.8958 408.357 70.6875C408.724 70.4792 409 70.2102 409.186 69.8807C409.375 69.5511 409.47 69.2045 409.47 68.8409V67.6136C409.413 67.6818 409.288 67.7443 409.095 67.8011C408.906 67.8542 408.686 67.9015 408.436 67.9432C408.19 67.9811 407.949 68.0152 407.714 68.0455C407.483 68.072 407.296 68.0947 407.152 68.1136C406.804 68.1591 406.478 68.233 406.175 68.3352C405.875 68.4337 405.633 68.5833 405.447 68.7841C405.266 68.9811 405.175 69.25 405.175 69.5909C405.175 70.0568 405.347 70.4091 405.692 70.6477C406.04 70.8826 406.482 71 407.016 71ZM407.061 62.0909L408.447 59.4545H410.016L408.243 62.0909H407.061ZM413.259 72V63.2727H414.554V64.5909H414.645C414.804 64.1591 415.092 63.8087 415.509 63.5398C415.925 63.2708 416.395 63.1364 416.918 63.1364C417.016 63.1364 417.139 63.1383 417.287 63.142C417.435 63.1458 417.546 63.1515 417.622 63.1591V64.5227C417.577 64.5114 417.473 64.4943 417.31 64.4716C417.151 64.4451 416.982 64.4318 416.804 64.4318C416.38 64.4318 416.001 64.5208 415.668 64.6989C415.338 64.8731 415.077 65.1155 414.884 65.4261C414.694 65.733 414.599 66.0833 414.599 66.4773V72H413.259ZM419.212 72V63.2727H420.553V72H419.212ZM419.893 61.8182C419.632 61.8182 419.407 61.7292 419.217 61.5511C419.032 61.3731 418.939 61.1591 418.939 60.9091C418.939 60.6591 419.032 60.4451 419.217 60.267C419.407 60.089 419.632 60 419.893 60C420.155 60 420.378 60.089 420.564 60.267C420.753 60.4451 420.848 60.6591 420.848 60.9091C420.848 61.1591 420.753 61.3731 420.564 61.5511C420.378 61.7292 420.155 61.8182 419.893 61.8182ZM426.554 72.1818C425.766 72.1818 425.075 71.9943 424.48 71.6193C423.889 71.2443 423.427 70.7197 423.094 70.0455C422.764 69.3712 422.599 68.5833 422.599 67.6818C422.599 66.7727 422.764 65.9792 423.094 65.3011C423.427 64.6231 423.889 64.0966 424.48 63.7216C425.075 63.3466 425.766 63.1591 426.554 63.1591C427.342 63.1591 428.031 63.3466 428.622 63.7216C429.217 64.0966 429.679 64.6231 430.009 65.3011C430.342 65.9792 430.509 66.7727 430.509 67.6818C430.509 68.5833 430.342 69.3712 430.009 70.0455C429.679 70.7197 429.217 71.2443 428.622 71.6193C428.031 71.9943 427.342 72.1818 426.554 72.1818ZM426.554 70.9773C427.152 70.9773 427.645 70.8239 428.031 70.517C428.418 70.2102 428.704 69.8068 428.889 69.3068C429.075 68.8068 429.168 68.2652 429.168 67.6818C429.168 67.0985 429.075 66.5549 428.889 66.0511C428.704 65.5473 428.418 65.1402 428.031 64.8295C427.645 64.5189 427.152 64.3636 426.554 64.3636C425.955 64.3636 425.463 64.5189 425.077 64.8295C424.69 65.1402 424.404 65.5473 424.219 66.0511C424.033 66.5549 423.94 67.0985 423.94 67.6818C423.94 68.2652 424.033 68.8068 424.219 69.3068C424.404 69.8068 424.69 70.2102 425.077 70.517C425.463 70.8239 425.955 70.9773 426.554 70.9773ZM438.737 65.2273L437.533 65.5682C437.457 65.3674 437.345 65.1723 437.197 64.983C437.054 64.7898 436.857 64.6307 436.607 64.5057C436.357 64.3807 436.036 64.3182 435.646 64.3182C435.112 64.3182 434.667 64.4413 434.311 64.6875C433.959 64.9299 433.783 65.2386 433.783 65.6136C433.783 65.947 433.904 66.2102 434.146 66.4034C434.389 66.5966 434.768 66.7576 435.283 66.8864L436.578 67.2045C437.358 67.3939 437.94 67.6837 438.322 68.0739C438.705 68.4602 438.896 68.9583 438.896 69.5682C438.896 70.0682 438.752 70.5152 438.464 70.9091C438.18 71.303 437.783 71.6136 437.271 71.8409C436.76 72.0682 436.165 72.1818 435.487 72.1818C434.597 72.1818 433.86 71.9886 433.277 71.6023C432.694 71.2159 432.324 70.6515 432.169 69.9091L433.442 69.5909C433.563 70.0606 433.792 70.4129 434.129 70.6477C434.47 70.8826 434.915 71 435.464 71C436.089 71 436.586 70.8674 436.953 70.6023C437.324 70.3333 437.51 70.0114 437.51 69.6364C437.51 69.3333 437.404 69.0795 437.192 68.875C436.98 68.6667 436.654 68.5114 436.214 68.4091L434.76 68.0682C433.961 67.8788 433.374 67.5852 432.999 67.1875C432.627 66.786 432.442 66.2841 432.442 65.6818C432.442 65.1894 432.58 64.7538 432.857 64.375C433.137 63.9962 433.518 63.6989 433.999 63.483C434.483 63.267 435.033 63.1591 435.646 63.1591C436.51 63.1591 437.188 63.3485 437.68 63.7273C438.177 64.1061 438.529 64.6061 438.737 65.2273Z" fill="black"/>
<path d="M381.409 111V99.3636H388.432V100.614H382.818V104.545H388.068V105.795H382.818V109.75H388.523V111H381.409ZM396.972 104.227L395.767 104.568C395.691 104.367 395.58 104.172 395.432 103.983C395.288 103.79 395.091 103.631 394.841 103.506C394.591 103.381 394.271 103.318 393.881 103.318C393.347 103.318 392.902 103.441 392.545 103.688C392.193 103.93 392.017 104.239 392.017 104.614C392.017 104.947 392.138 105.21 392.381 105.403C392.623 105.597 393.002 105.758 393.517 105.886L394.812 106.205C395.593 106.394 396.174 106.684 396.557 107.074C396.939 107.46 397.131 107.958 397.131 108.568C397.131 109.068 396.987 109.515 396.699 109.909C396.415 110.303 396.017 110.614 395.506 110.841C394.994 111.068 394.4 111.182 393.722 111.182C392.831 111.182 392.095 110.989 391.511 110.602C390.928 110.216 390.559 109.652 390.403 108.909L391.676 108.591C391.797 109.061 392.027 109.413 392.364 109.648C392.705 109.883 393.15 110 393.699 110C394.324 110 394.82 109.867 395.188 109.602C395.559 109.333 395.744 109.011 395.744 108.636C395.744 108.333 395.638 108.08 395.426 107.875C395.214 107.667 394.888 107.511 394.449 107.409L392.994 107.068C392.195 106.879 391.608 106.585 391.233 106.188C390.862 105.786 390.676 105.284 390.676 104.682C390.676 104.189 390.814 103.754 391.091 103.375C391.371 102.996 391.752 102.699 392.233 102.483C392.718 102.267 393.267 102.159 393.881 102.159C394.744 102.159 395.422 102.348 395.915 102.727C396.411 103.106 396.763 103.606 396.972 104.227ZM402.945 102.273V103.409H398.422V102.273H402.945ZM399.74 100.182H401.081V108.5C401.081 108.879 401.136 109.163 401.246 109.352C401.359 109.538 401.503 109.663 401.678 109.727C401.856 109.788 402.043 109.818 402.24 109.818C402.388 109.818 402.509 109.811 402.604 109.795C402.698 109.777 402.774 109.761 402.831 109.75L403.104 110.955C403.013 110.989 402.886 111.023 402.723 111.057C402.56 111.095 402.354 111.114 402.104 111.114C401.725 111.114 401.354 111.032 400.99 110.869C400.63 110.706 400.331 110.458 400.092 110.125C399.857 109.792 399.74 109.371 399.74 108.864V100.182ZM408.413 111.182C407.625 111.182 406.934 110.994 406.339 110.619C405.749 110.244 405.286 109.72 404.953 109.045C404.624 108.371 404.459 107.583 404.459 106.682C404.459 105.773 404.624 104.979 404.953 104.301C405.286 103.623 405.749 103.097 406.339 102.722C406.934 102.347 407.625 102.159 408.413 102.159C409.201 102.159 409.891 102.347 410.482 102.722C411.076 103.097 411.538 103.623 411.868 104.301C412.201 104.979 412.368 105.773 412.368 106.682C412.368 107.583 412.201 108.371 411.868 109.045C411.538 109.72 411.076 110.244 410.482 110.619C409.891 110.994 409.201 111.182 408.413 111.182ZM408.413 109.977C409.012 109.977 409.504 109.824 409.891 109.517C410.277 109.21 410.563 108.807 410.749 108.307C410.934 107.807 411.027 107.265 411.027 106.682C411.027 106.098 410.934 105.555 410.749 105.051C410.563 104.547 410.277 104.14 409.891 103.83C409.504 103.519 409.012 103.364 408.413 103.364C407.815 103.364 407.322 103.519 406.936 103.83C406.55 104.14 406.264 104.547 406.078 105.051C405.893 105.555 405.8 106.098 405.8 106.682C405.8 107.265 405.893 107.807 406.078 108.307C406.264 108.807 406.55 109.21 406.936 109.517C407.322 109.824 407.815 109.977 408.413 109.977ZM420.369 114.273V109.659H420.256C420.157 109.818 420.017 110.019 419.835 110.261C419.653 110.5 419.394 110.714 419.057 110.903C418.72 111.089 418.271 111.182 417.71 111.182C416.983 111.182 416.341 110.998 415.784 110.631C415.227 110.259 414.792 109.737 414.477 109.062C414.163 108.384 414.006 107.583 414.006 106.659C414.006 105.742 414.163 104.947 414.477 104.273C414.792 103.598 415.229 103.078 415.79 102.71C416.35 102.343 416.998 102.159 417.733 102.159C418.301 102.159 418.75 102.254 419.08 102.443C419.413 102.629 419.667 102.841 419.841 103.08C420.019 103.314 420.157 103.508 420.256 103.659H420.415V102.273H421.71V114.273H420.369ZM417.892 109.977C418.43 109.977 418.884 109.837 419.256 109.557C419.627 109.273 419.909 108.881 420.102 108.381C420.295 107.877 420.392 107.295 420.392 106.636C420.392 105.985 420.297 105.415 420.108 104.926C419.919 104.434 419.638 104.051 419.267 103.778C418.896 103.502 418.438 103.364 417.892 103.364C417.324 103.364 416.85 103.509 416.472 103.801C416.097 104.089 415.814 104.481 415.625 104.977C415.439 105.47 415.347 106.023 415.347 106.636C415.347 107.258 415.441 107.822 415.631 108.33C415.824 108.833 416.108 109.235 416.483 109.534C416.862 109.83 417.331 109.977 417.892 109.977ZM429.665 107.432V102.273H431.006V111H429.665V109.523H429.574C429.369 109.966 429.051 110.343 428.619 110.653C428.188 110.96 427.642 111.114 426.983 111.114C426.438 111.114 425.953 110.994 425.528 110.756C425.104 110.513 424.771 110.15 424.528 109.665C424.286 109.176 424.165 108.561 424.165 107.818V102.273H425.506V107.727C425.506 108.364 425.684 108.871 426.04 109.25C426.4 109.629 426.858 109.818 427.415 109.818C427.748 109.818 428.087 109.733 428.432 109.562C428.78 109.392 429.072 109.131 429.307 108.778C429.545 108.426 429.665 107.977 429.665 107.432ZM437.121 111.182C436.28 111.182 435.554 110.996 434.945 110.625C434.339 110.25 433.871 109.727 433.541 109.057C433.215 108.383 433.053 107.598 433.053 106.705C433.053 105.811 433.215 105.023 433.541 104.341C433.871 103.655 434.329 103.121 434.916 102.739C435.507 102.352 436.196 102.159 436.984 102.159C437.439 102.159 437.888 102.235 438.331 102.386C438.774 102.538 439.178 102.784 439.541 103.125C439.905 103.462 440.195 103.909 440.411 104.466C440.626 105.023 440.734 105.708 440.734 106.523V107.091H434.007V105.932H439.371C439.371 105.439 439.272 105 439.075 104.614C438.882 104.227 438.606 103.922 438.246 103.699C437.89 103.475 437.469 103.364 436.984 103.364C436.45 103.364 435.988 103.496 435.598 103.761C435.212 104.023 434.914 104.364 434.706 104.784C434.498 105.205 434.393 105.655 434.393 106.136V106.909C434.393 107.568 434.507 108.127 434.734 108.585C434.965 109.04 435.286 109.386 435.695 109.625C436.104 109.86 436.579 109.977 437.121 109.977C437.473 109.977 437.791 109.928 438.075 109.83C438.363 109.727 438.611 109.576 438.82 109.375C439.028 109.17 439.189 108.917 439.303 108.614L440.598 108.977C440.462 109.417 440.232 109.803 439.911 110.136C439.589 110.466 439.191 110.723 438.717 110.909C438.244 111.091 437.712 111.182 437.121 111.182Z" fill="black"/>
<path d="M363 52H336V80H363V52Z" fill="#84111E"/>
<path d="M363 91H336V119H363V91Z" fill="#FF001B"/>
<path d="M363 130H336V158H363V130Z" fill="#B2323F"/>
<path d="M363 169H336V197H363V169Z" fill="#E73B3B"/>
<path d="M363 208H336V236H363V208Z" fill="#E27F7F"/>
<rect width="265" height="277" fill="white"/>
<path d="M151.852 195.119C151.29 195.119 150.788 195.023 150.348 194.83C149.911 194.636 149.563 194.368 149.304 194.024C149.048 193.678 148.909 193.276 148.886 192.818H149.96C149.983 193.099 150.08 193.342 150.25 193.547C150.42 193.749 150.643 193.905 150.919 194.016C151.195 194.126 151.5 194.182 151.835 194.182C152.21 194.182 152.543 194.116 152.832 193.986C153.122 193.855 153.349 193.673 153.514 193.44C153.679 193.207 153.761 192.938 153.761 192.631C153.761 192.31 153.682 192.027 153.523 191.783C153.364 191.536 153.131 191.342 152.824 191.203C152.517 191.064 152.142 190.994 151.699 190.994H151V190.057H151.699C152.045 190.057 152.349 189.994 152.611 189.869C152.875 189.744 153.081 189.568 153.229 189.341C153.379 189.114 153.455 188.847 153.455 188.54C153.455 188.244 153.389 187.987 153.259 187.768C153.128 187.55 152.943 187.379 152.705 187.257C152.469 187.135 152.19 187.074 151.869 187.074C151.568 187.074 151.284 187.129 151.017 187.24C150.753 187.348 150.537 187.506 150.369 187.713C150.202 187.918 150.111 188.165 150.097 188.455H149.074C149.091 187.997 149.229 187.597 149.487 187.253C149.746 186.906 150.084 186.636 150.501 186.443C150.922 186.25 151.384 186.153 151.886 186.153C152.426 186.153 152.889 186.263 153.276 186.482C153.662 186.697 153.959 186.983 154.166 187.338C154.374 187.693 154.477 188.077 154.477 188.489C154.477 188.98 154.348 189.399 154.089 189.746C153.834 190.092 153.486 190.332 153.045 190.466V190.534C153.597 190.625 154.027 190.859 154.337 191.237C154.646 191.612 154.801 192.077 154.801 192.631C154.801 193.105 154.672 193.531 154.413 193.909C154.158 194.284 153.808 194.58 153.365 194.795C152.922 195.011 152.418 195.119 151.852 195.119ZM159.271 195.119C158.771 195.119 158.321 195.02 157.92 194.821C157.52 194.622 157.199 194.349 156.957 194.003C156.716 193.656 156.584 193.261 156.561 192.818H157.584C157.624 193.213 157.803 193.54 158.121 193.798C158.442 194.054 158.825 194.182 159.271 194.182C159.629 194.182 159.947 194.098 160.226 193.93C160.507 193.763 160.727 193.533 160.886 193.24C161.048 192.945 161.129 192.611 161.129 192.239C161.129 191.858 161.045 191.518 160.878 191.22C160.713 190.919 160.486 190.682 160.196 190.509C159.906 190.335 159.575 190.247 159.203 190.244C158.936 190.241 158.662 190.283 158.381 190.368C158.099 190.45 157.868 190.557 157.686 190.688L156.697 190.568L157.226 186.273H161.76V187.21H158.112L157.805 189.784H157.857C158.036 189.642 158.26 189.524 158.53 189.43C158.8 189.337 159.081 189.29 159.374 189.29C159.908 189.29 160.384 189.418 160.801 189.673C161.222 189.926 161.551 190.273 161.79 190.713C162.031 191.153 162.152 191.656 162.152 192.222C162.152 192.778 162.027 193.276 161.777 193.713C161.53 194.148 161.189 194.491 160.754 194.744C160.32 194.994 159.825 195.119 159.271 195.119ZM168.294 193.364V192.903C168.294 192.585 168.359 192.294 168.49 192.03C168.623 191.763 168.816 191.55 169.069 191.391C169.325 191.229 169.635 191.148 169.998 191.148C170.368 191.148 170.677 191.229 170.927 191.391C171.177 191.55 171.366 191.763 171.494 192.03C171.622 192.294 171.686 192.585 171.686 192.903V193.364C171.686 193.682 171.62 193.974 171.49 194.241C171.362 194.506 171.172 194.719 170.919 194.881C170.669 195.04 170.362 195.119 169.998 195.119C169.629 195.119 169.318 195.04 169.065 194.881C168.812 194.719 168.62 194.506 168.49 194.241C168.359 193.974 168.294 193.682 168.294 193.364ZM169.163 192.903V193.364C169.163 193.628 169.225 193.865 169.35 194.075C169.475 194.283 169.691 194.386 169.998 194.386C170.297 194.386 170.507 194.283 170.629 194.075C170.754 193.865 170.816 193.628 170.816 193.364V192.903C170.816 192.639 170.757 192.403 170.637 192.196C170.518 191.986 170.305 191.881 169.998 191.881C169.7 191.881 169.485 191.986 169.355 192.196C169.227 192.403 169.163 192.639 169.163 192.903ZM163.947 188.369V187.909C163.947 187.591 164.012 187.3 164.143 187.036C164.277 186.768 164.47 186.555 164.723 186.396C164.978 186.234 165.288 186.153 165.652 186.153C166.021 186.153 166.331 186.234 166.581 186.396C166.831 186.555 167.02 186.768 167.147 187.036C167.275 187.3 167.339 187.591 167.339 187.909V188.369C167.339 188.687 167.274 188.98 167.143 189.247C167.015 189.511 166.825 189.724 166.572 189.886C166.322 190.045 166.015 190.125 165.652 190.125C165.282 190.125 164.971 190.045 164.718 189.886C164.466 189.724 164.274 189.511 164.143 189.247C164.012 188.98 163.947 188.687 163.947 188.369ZM164.816 187.909V188.369C164.816 188.634 164.879 188.871 165.004 189.081C165.129 189.288 165.345 189.392 165.652 189.392C165.95 189.392 166.16 189.288 166.282 189.081C166.407 188.871 166.47 188.634 166.47 188.369V187.909C166.47 187.645 166.41 187.409 166.291 187.202C166.172 186.991 165.958 186.886 165.652 186.886C165.353 186.886 165.139 186.991 165.008 187.202C164.88 187.409 164.816 187.645 164.816 187.909ZM164.271 195L170.271 186.273H171.243L165.243 195H164.271Z" fill="white"/>
<path d="M86.9034 83V82.233L89.7841 79.0795C90.1222 78.7102 90.4006 78.3892 90.6193 78.1165C90.8381 77.8409 91 77.5824 91.1051 77.3409C91.2131 77.0966 91.267 76.8409 91.267 76.5739C91.267 76.267 91.1932 76.0014 91.0455 75.777C90.9006 75.5526 90.7017 75.3793 90.4489 75.2571C90.196 75.1349 89.9119 75.0739 89.5966 75.0739C89.2614 75.0739 88.9688 75.1435 88.7188 75.2827C88.4716 75.419 88.2798 75.6108 88.1435 75.858C88.0099 76.1051 87.9432 76.3949 87.9432 76.7273H86.9375C86.9375 76.2159 87.0554 75.767 87.2912 75.3807C87.527 74.9943 87.848 74.6932 88.2543 74.4773C88.6634 74.2614 89.1222 74.1534 89.6307 74.1534C90.142 74.1534 90.5952 74.2614 90.9901 74.4773C91.3849 74.6932 91.6946 74.9844 91.919 75.3509C92.1435 75.7173 92.2557 76.125 92.2557 76.5739C92.2557 76.8949 92.1974 77.2088 92.081 77.5156C91.9673 77.8196 91.7685 78.1591 91.4844 78.5341C91.2031 78.9062 90.8125 79.3608 90.3125 79.8977L88.3523 81.9943V82.0625H92.4091V83H86.9034ZM97.0156 83.1193C96.3736 83.1193 95.8267 82.9446 95.375 82.5952C94.9233 82.2429 94.5781 81.733 94.3395 81.0653C94.1009 80.3949 93.9815 79.5852 93.9815 78.6364C93.9815 77.6932 94.1009 76.8878 94.3395 76.2202C94.581 75.5497 94.9276 75.0384 95.3793 74.6861C95.8338 74.331 96.3793 74.1534 97.0156 74.1534C97.652 74.1534 98.196 74.331 98.6477 74.6861C99.1023 75.0384 99.4489 75.5497 99.6875 76.2202C99.929 76.8878 100.05 77.6932 100.05 78.6364C100.05 79.5852 99.9304 80.3949 99.6918 81.0653C99.4531 81.733 99.108 82.2429 98.6562 82.5952C98.2045 82.9446 97.6577 83.1193 97.0156 83.1193ZM97.0156 82.1818C97.652 82.1818 98.1463 81.875 98.4986 81.2614C98.8509 80.6477 99.027 79.7727 99.027 78.6364C99.027 77.8807 98.946 77.2372 98.7841 76.706C98.625 76.1747 98.3949 75.7699 98.0938 75.4915C97.7955 75.2131 97.4361 75.0739 97.0156 75.0739C96.3849 75.0739 95.892 75.3849 95.5369 76.0071C95.1818 76.6264 95.0043 77.5028 95.0043 78.6364C95.0043 79.392 95.0838 80.0341 95.2429 80.5625C95.402 81.0909 95.6307 81.4929 95.929 81.7685C96.2301 82.044 96.5923 82.1818 97.0156 82.1818ZM106.118 81.3636V80.9034C106.118 80.5852 106.183 80.294 106.314 80.0298C106.447 79.7628 106.641 79.5497 106.893 79.3906C107.149 79.2287 107.459 79.1477 107.822 79.1477C108.192 79.1477 108.501 79.2287 108.751 79.3906C109.001 79.5497 109.19 79.7628 109.318 80.0298C109.446 80.294 109.51 80.5852 109.51 80.9034V81.3636C109.51 81.6818 109.445 81.9744 109.314 82.2415C109.186 82.5057 108.996 82.7187 108.743 82.8807C108.493 83.0398 108.186 83.1193 107.822 83.1193C107.453 83.1193 107.142 83.0398 106.889 82.8807C106.636 82.7187 106.445 82.5057 106.314 82.2415C106.183 81.9744 106.118 81.6818 106.118 81.3636ZM106.987 80.9034V81.3636C106.987 81.6278 107.05 81.8651 107.175 82.0753C107.3 82.2827 107.516 82.3864 107.822 82.3864C108.121 82.3864 108.331 82.2827 108.453 82.0753C108.578 81.8651 108.641 81.6278 108.641 81.3636V80.9034C108.641 80.6392 108.581 80.4034 108.462 80.196C108.342 79.9858 108.129 79.8807 107.822 79.8807C107.524 79.8807 107.31 79.9858 107.179 80.196C107.051 80.4034 106.987 80.6392 106.987 80.9034ZM101.771 76.3693V75.9091C101.771 75.5909 101.837 75.2997 101.967 75.0355C102.101 74.7685 102.294 74.5554 102.547 74.3963C102.803 74.2344 103.112 74.1534 103.476 74.1534C103.845 74.1534 104.155 74.2344 104.405 74.3963C104.655 74.5554 104.844 74.7685 104.972 75.0355C105.099 75.2997 105.163 75.5909 105.163 75.9091V76.3693C105.163 76.6875 105.098 76.9801 104.967 77.2472C104.839 77.5114 104.649 77.7244 104.396 77.8864C104.146 78.0455 103.839 78.125 103.476 78.125C103.107 78.125 102.795 78.0455 102.543 77.8864C102.29 77.7244 102.098 77.5114 101.967 77.2472C101.837 76.9801 101.771 76.6875 101.771 76.3693ZM102.641 75.9091V76.3693C102.641 76.6335 102.703 76.8707 102.828 77.081C102.953 77.2884 103.169 77.392 103.476 77.392C103.774 77.392 103.984 77.2884 104.107 77.081C104.232 76.8707 104.294 76.6335 104.294 76.3693V75.9091C104.294 75.6449 104.234 75.4091 104.115 75.2017C103.996 74.9915 103.783 74.8864 103.476 74.8864C103.178 74.8864 102.963 74.9915 102.832 75.2017C102.705 75.4091 102.641 75.6449 102.641 75.9091ZM102.095 83L108.095 74.2727H109.067L103.067 83H102.095Z" fill="white"/>
<path d="M152.699 83.1193C152.114 83.1193 151.597 83.0156 151.148 82.8082C150.702 82.598 150.354 82.3097 150.104 81.9432C149.854 81.5739 149.73 81.1534 149.733 80.6818C149.73 80.3125 149.803 79.9716 149.95 79.6591C150.098 79.3437 150.3 79.081 150.555 78.8707C150.814 78.6577 151.102 78.5227 151.42 78.4659V78.4148C151.003 78.3068 150.67 78.0724 150.423 77.7116C150.176 77.348 150.054 76.9347 150.057 76.4716C150.054 76.0284 150.166 75.6321 150.393 75.2827C150.621 74.9332 150.933 74.6577 151.331 74.456C151.732 74.2543 152.188 74.1534 152.699 74.1534C153.205 74.1534 153.656 74.2543 154.054 74.456C154.452 74.6577 154.764 74.9332 154.991 75.2827C155.222 75.6321 155.338 76.0284 155.341 76.4716C155.338 76.9347 155.212 77.348 154.962 77.7116C154.714 78.0724 154.386 78.3068 153.977 78.4148V78.4659C154.293 78.5227 154.577 78.6577 154.83 78.8707C155.082 79.081 155.284 79.3437 155.435 79.6591C155.585 79.9716 155.662 80.3125 155.665 80.6818C155.662 81.1534 155.534 81.5739 155.281 81.9432C155.031 82.3097 154.683 82.598 154.237 82.8082C153.794 83.0156 153.281 83.1193 152.699 83.1193ZM152.699 82.1818C153.094 82.1818 153.435 82.1179 153.722 81.9901C154.009 81.8622 154.23 81.6818 154.386 81.4489C154.543 81.2159 154.622 80.9432 154.625 80.6307C154.622 80.3011 154.537 80.0099 154.369 79.7571C154.202 79.5043 153.973 79.3054 153.683 79.1605C153.396 79.0156 153.068 78.9432 152.699 78.9432C152.327 78.9432 151.994 79.0156 151.702 79.1605C151.412 79.3054 151.183 79.5043 151.016 79.7571C150.851 80.0099 150.77 80.3011 150.773 80.6307C150.77 80.9432 150.845 81.2159 150.999 81.4489C151.155 81.6818 151.378 81.8622 151.668 81.9901C151.957 82.1179 152.301 82.1818 152.699 82.1818ZM152.699 78.0398C153.011 78.0398 153.288 77.9773 153.53 77.8523C153.774 77.7273 153.966 77.5526 154.105 77.3281C154.244 77.1037 154.315 76.8409 154.318 76.5398C154.315 76.2443 154.246 75.9872 154.109 75.7685C153.973 75.5469 153.784 75.3764 153.543 75.2571C153.301 75.1349 153.02 75.0739 152.699 75.0739C152.372 75.0739 152.087 75.1349 151.842 75.2571C151.598 75.3764 151.409 75.5469 151.276 75.7685C151.142 75.9872 151.077 76.2443 151.08 76.5398C151.077 76.8409 151.143 77.1037 151.28 77.3281C151.419 77.5526 151.611 77.7273 151.855 77.8523C152.099 77.9773 152.381 78.0398 152.699 78.0398ZM161.747 81.3636V80.9034C161.747 80.5852 161.812 80.294 161.943 80.0298C162.076 79.7628 162.27 79.5497 162.522 79.3906C162.778 79.2287 163.088 79.1477 163.451 79.1477C163.821 79.1477 164.13 79.2287 164.38 79.3906C164.63 79.5497 164.819 79.7628 164.947 80.0298C165.075 80.294 165.139 80.5852 165.139 80.9034V81.3636C165.139 81.6818 165.074 81.9744 164.943 82.2415C164.815 82.5057 164.625 82.7187 164.372 82.8807C164.122 83.0398 163.815 83.1193 163.451 83.1193C163.082 83.1193 162.771 83.0398 162.518 82.8807C162.265 82.7187 162.074 82.5057 161.943 82.2415C161.812 81.9744 161.747 81.6818 161.747 81.3636ZM162.616 80.9034V81.3636C162.616 81.6278 162.679 81.8651 162.804 82.0753C162.929 82.2827 163.145 82.3864 163.451 82.3864C163.75 82.3864 163.96 82.2827 164.082 82.0753C164.207 81.8651 164.27 81.6278 164.27 81.3636V80.9034C164.27 80.6392 164.21 80.4034 164.091 80.196C163.971 79.9858 163.758 79.8807 163.451 79.8807C163.153 79.8807 162.939 79.9858 162.808 80.196C162.68 80.4034 162.616 80.6392 162.616 80.9034ZM157.4 76.3693V75.9091C157.4 75.5909 157.466 75.2997 157.596 75.0355C157.73 74.7685 157.923 74.5554 158.176 74.3963C158.431 74.2344 158.741 74.1534 159.105 74.1534C159.474 74.1534 159.784 74.2344 160.034 74.3963C160.284 74.5554 160.473 74.7685 160.6 75.0355C160.728 75.2997 160.792 75.5909 160.792 75.9091V76.3693C160.792 76.6875 160.727 76.9801 160.596 77.2472C160.468 77.5114 160.278 77.7244 160.025 77.8864C159.775 78.0455 159.468 78.125 159.105 78.125C158.735 78.125 158.424 78.0455 158.172 77.8864C157.919 77.7244 157.727 77.5114 157.596 77.2472C157.466 76.9801 157.4 76.6875 157.4 76.3693ZM158.27 75.9091V76.3693C158.27 76.6335 158.332 76.8707 158.457 77.081C158.582 77.2884 158.798 77.392 159.105 77.392C159.403 77.392 159.613 77.2884 159.735 77.081C159.86 76.8707 159.923 76.6335 159.923 76.3693V75.9091C159.923 75.6449 159.863 75.4091 159.744 75.2017C159.625 74.9915 159.412 74.8864 159.105 74.8864C158.806 74.8864 158.592 74.9915 158.461 75.2017C158.333 75.4091 158.27 75.6449 158.27 75.9091ZM157.724 83L163.724 74.2727H164.696L158.696 83H157.724Z" fill="white"/>
<path d="M130.154 139H241C241 159.471 235.347 179.543 224.666 196.997C213.985 214.452 198.691 228.608 180.477 237.902C162.262 247.195 141.836 251.264 121.457 249.658C101.077 248.052 81.5383 240.833 65 228.801L130.154 139Z" fill="#84111E"/>
<path d="M130 138.5L64.7558 229C50.5843 218.624 39.0508 205.014 31.0983 189.285C23.1457 173.556 19 156.153 19 138.5C19 120.847 23.1457 103.444 31.0983 87.7147C39.0508 71.9855 50.5843 58.3764 64.7558 48L130 138.5Z" fill="#FF001B"/>
<path d="M130 139L65 48.3901C83.8931 34.4878 106.647 27 130 27C153.353 27 176.107 34.4878 195 48.3901L130 139Z" fill="#B2323F"/>
<path d="M130 139L195.512 48C214.553 61.9622 228.727 81.6498 236 104.241L130 139Z" fill="#E73B3B"/>
<path d="M130 139L235.567 104C239.167 115.304 241 127.115 241 139H130Z" fill="#E27F7F"/>
<path d="M147.494 195.139C146.838 195.139 146.253 195.027 145.739 194.801C145.229 194.576 144.823 194.263 144.521 193.862C144.223 193.457 144.061 192.988 144.034 192.455H145.287C145.313 192.783 145.426 193.066 145.625 193.305C145.824 193.54 146.084 193.722 146.406 193.852C146.727 193.981 147.083 194.045 147.474 194.045C147.912 194.045 148.3 193.969 148.638 193.817C148.976 193.664 149.241 193.452 149.433 193.18C149.625 192.909 149.722 192.594 149.722 192.236C149.722 191.861 149.629 191.531 149.443 191.246C149.258 190.958 148.986 190.733 148.628 190.57C148.27 190.408 147.832 190.327 147.315 190.327H146.5V189.233H147.315C147.72 189.233 148.074 189.16 148.379 189.014C148.688 188.868 148.928 188.663 149.1 188.398C149.276 188.133 149.364 187.821 149.364 187.463C149.364 187.118 149.287 186.818 149.135 186.563C148.982 186.308 148.767 186.109 148.489 185.967C148.214 185.824 147.889 185.753 147.514 185.753C147.163 185.753 146.831 185.817 146.52 185.947C146.212 186.073 145.96 186.257 145.764 186.499C145.569 186.737 145.463 187.026 145.446 187.364H144.253C144.273 186.83 144.433 186.363 144.735 185.962C145.037 185.557 145.431 185.242 145.918 185.017C146.409 184.792 146.947 184.679 147.534 184.679C148.164 184.679 148.704 184.807 149.155 185.062C149.606 185.314 149.952 185.647 150.194 186.061C150.436 186.475 150.557 186.923 150.557 187.403C150.557 187.977 150.406 188.466 150.104 188.87C149.806 189.274 149.4 189.554 148.886 189.71V189.79C149.529 189.896 150.031 190.169 150.393 190.61C150.754 191.048 150.935 191.589 150.935 192.236C150.935 192.789 150.784 193.286 150.482 193.727C150.184 194.165 149.776 194.509 149.259 194.761C148.742 195.013 148.154 195.139 147.494 195.139ZM156.15 195.139C155.567 195.139 155.041 195.023 154.574 194.791C154.107 194.559 153.732 194.241 153.45 193.837C153.169 193.432 153.014 192.972 152.988 192.455H154.181C154.228 192.915 154.436 193.296 154.808 193.598C155.182 193.896 155.629 194.045 156.15 194.045C156.567 194.045 156.939 193.948 157.263 193.752C157.592 193.557 157.848 193.288 158.034 192.947C158.223 192.602 158.317 192.213 158.317 191.778C158.317 191.334 158.22 190.938 158.024 190.59C157.832 190.239 157.567 189.962 157.229 189.76C156.891 189.558 156.504 189.455 156.07 189.452C155.759 189.448 155.439 189.496 155.111 189.596C154.783 189.692 154.513 189.816 154.3 189.969L153.147 189.83L153.763 184.818H159.053V185.912H154.798L154.44 188.915H154.499C154.708 188.749 154.97 188.612 155.285 188.502C155.6 188.393 155.928 188.338 156.269 188.338C156.892 188.338 157.447 188.487 157.935 188.786C158.425 189.08 158.81 189.485 159.088 189.999C159.37 190.512 159.511 191.099 159.511 191.759C159.511 192.408 159.365 192.988 159.073 193.499C158.785 194.006 158.387 194.407 157.88 194.702C157.373 194.993 156.796 195.139 156.15 195.139ZM166.676 193.091V192.554C166.676 192.183 166.752 191.843 166.905 191.535C167.06 191.223 167.286 190.975 167.581 190.789C167.879 190.6 168.24 190.506 168.665 190.506C169.095 190.506 169.457 190.6 169.748 190.789C170.04 190.975 170.26 191.223 170.41 191.535C170.559 191.843 170.633 192.183 170.633 192.554V193.091C170.633 193.462 170.557 193.804 170.405 194.115C170.256 194.423 170.033 194.672 169.738 194.861C169.447 195.046 169.089 195.139 168.665 195.139C168.234 195.139 167.871 195.046 167.576 194.861C167.281 194.672 167.057 194.423 166.905 194.115C166.752 193.804 166.676 193.462 166.676 193.091ZM167.69 192.554V193.091C167.69 193.399 167.763 193.676 167.909 193.921C168.055 194.163 168.307 194.284 168.665 194.284C169.013 194.284 169.258 194.163 169.4 193.921C169.546 193.676 169.619 193.399 169.619 193.091V192.554C169.619 192.246 169.55 191.971 169.41 191.729C169.271 191.483 169.023 191.361 168.665 191.361C168.317 191.361 168.066 191.483 167.914 191.729C167.765 191.971 167.69 192.246 167.69 192.554ZM161.605 187.264V186.727C161.605 186.356 161.681 186.016 161.834 185.708C161.989 185.397 162.215 185.148 162.51 184.962C162.808 184.773 163.169 184.679 163.594 184.679C164.024 184.679 164.386 184.773 164.677 184.962C164.969 185.148 165.189 185.397 165.339 185.708C165.488 186.016 165.562 186.356 165.562 186.727V187.264C165.562 187.635 165.486 187.977 165.334 188.288C165.184 188.597 164.962 188.845 164.667 189.034C164.376 189.22 164.018 189.312 163.594 189.312C163.163 189.312 162.8 189.22 162.505 189.034C162.21 188.845 161.986 188.597 161.834 188.288C161.681 187.977 161.605 187.635 161.605 187.264ZM162.619 186.727V187.264C162.619 187.572 162.692 187.849 162.838 188.094C162.984 188.336 163.236 188.457 163.594 188.457C163.942 188.457 164.187 188.336 164.329 188.094C164.475 187.849 164.548 187.572 164.548 187.264V186.727C164.548 186.419 164.479 186.144 164.339 185.902C164.2 185.657 163.952 185.534 163.594 185.534C163.246 185.534 162.995 185.657 162.843 185.902C162.694 186.144 162.619 186.419 162.619 186.727ZM161.983 195L168.983 184.818H170.116L163.116 195H161.983Z" fill="white"/>
<path d="M54.4943 144.139C53.8381 144.139 53.2531 144.027 52.7393 143.801C52.2289 143.576 51.8229 143.263 51.5213 142.862C51.223 142.457 51.0606 141.988 51.0341 141.455H52.2869C52.3134 141.783 52.4261 142.066 52.625 142.305C52.8239 142.54 53.084 142.722 53.4055 142.852C53.727 142.981 54.0833 143.045 54.4744 143.045C54.9119 143.045 55.2997 142.969 55.6378 142.817C55.9759 142.664 56.241 142.452 56.4332 142.18C56.6255 141.909 56.7216 141.594 56.7216 141.236C56.7216 140.861 56.6288 140.531 56.4432 140.246C56.2576 139.958 55.9858 139.733 55.6278 139.57C55.2699 139.408 54.8324 139.327 54.3153 139.327H53.5V138.233H54.3153C54.7197 138.233 55.0743 138.16 55.3793 138.014C55.6875 137.868 55.9278 137.663 56.1001 137.398C56.2758 137.133 56.3636 136.821 56.3636 136.463C56.3636 136.118 56.2874 135.818 56.1349 135.563C55.9825 135.308 55.767 135.109 55.4886 134.967C55.2135 134.824 54.8887 134.753 54.5142 134.753C54.1629 134.753 53.8314 134.817 53.5199 134.947C53.2116 135.073 52.9598 135.257 52.7642 135.499C52.5687 135.737 52.4626 136.026 52.446 136.364H51.2528C51.2727 135.83 51.4335 135.363 51.7351 134.962C52.0367 134.557 52.4311 134.242 52.9183 134.017C53.4089 133.792 53.9474 133.679 54.5341 133.679C55.1638 133.679 55.7041 133.807 56.1548 134.062C56.6056 134.314 56.9519 134.647 57.1939 135.061C57.4358 135.475 57.5568 135.923 57.5568 136.403C57.5568 136.977 57.406 137.466 57.1044 137.87C56.8061 138.274 56.4001 138.554 55.8864 138.71V138.79C56.5294 138.896 57.0315 139.169 57.3928 139.61C57.754 140.048 57.9347 140.589 57.9347 141.236C57.9347 141.789 57.7839 142.286 57.4822 142.727C57.1839 143.165 56.7763 143.509 56.2592 143.761C55.7422 144.013 55.1539 144.139 54.4943 144.139ZM63.2891 144.139C62.54 144.139 61.902 143.935 61.375 143.528C60.848 143.117 60.4453 142.522 60.1669 141.743C59.8885 140.961 59.7493 140.016 59.7493 138.909C59.7493 137.809 59.8885 136.869 60.1669 136.09C60.4486 135.308 60.853 134.711 61.38 134.3C61.9103 133.886 62.5466 133.679 63.2891 133.679C64.0315 133.679 64.6662 133.886 65.1932 134.3C65.7235 134.711 66.1278 135.308 66.4062 136.09C66.688 136.869 66.8288 137.809 66.8288 138.909C66.8288 140.016 66.6896 140.961 66.4112 141.743C66.1328 142.522 65.7301 143.117 65.2031 143.528C64.6761 143.935 64.0381 144.139 63.2891 144.139ZM63.2891 143.045C64.0315 143.045 64.6082 142.687 65.0192 141.972C65.4302 141.256 65.6357 140.235 65.6357 138.909C65.6357 138.027 65.5412 137.277 65.3523 136.657C65.1667 136.037 64.8982 135.565 64.5469 135.24C64.1989 134.915 63.7796 134.753 63.2891 134.753C62.5533 134.753 61.9782 135.116 61.5639 135.842C61.1496 136.564 60.9425 137.587 60.9425 138.909C60.9425 139.791 61.0353 140.54 61.2209 141.156C61.4065 141.773 61.6733 142.242 62.0213 142.563C62.3726 142.885 62.7952 143.045 63.2891 143.045ZM73.9084 142.091V141.554C73.9084 141.183 73.9846 140.843 74.1371 140.535C74.2929 140.223 74.5182 139.975 74.8132 139.789C75.1115 139.6 75.4728 139.506 75.897 139.506C76.3279 139.506 76.6892 139.6 76.9808 139.789C77.2725 139.975 77.4929 140.223 77.642 140.535C77.7912 140.843 77.8658 141.183 77.8658 141.554V142.091C77.8658 142.462 77.7895 142.804 77.6371 143.115C77.4879 143.423 77.2659 143.672 76.9709 143.861C76.6792 144.046 76.3213 144.139 75.897 144.139C75.4661 144.139 75.1032 144.046 74.8082 143.861C74.5133 143.672 74.2895 143.423 74.1371 143.115C73.9846 142.804 73.9084 142.462 73.9084 142.091ZM74.9226 141.554V142.091C74.9226 142.399 74.9955 142.676 75.1413 142.921C75.2872 143.163 75.5391 143.284 75.897 143.284C76.245 143.284 76.4903 143.163 76.6328 142.921C76.7786 142.676 76.8516 142.399 76.8516 142.091V141.554C76.8516 141.246 76.782 140.971 76.6428 140.729C76.5036 140.483 76.255 140.361 75.897 140.361C75.549 140.361 75.2988 140.483 75.1463 140.729C74.9972 140.971 74.9226 141.246 74.9226 141.554ZM68.8374 136.264V135.727C68.8374 135.356 68.9136 135.016 69.0661 134.708C69.2218 134.397 69.4472 134.148 69.7422 133.962C70.0405 133.773 70.4018 133.679 70.826 133.679C71.2569 133.679 71.6181 133.773 71.9098 133.962C72.2015 134.148 72.4219 134.397 72.571 134.708C72.7202 135.016 72.7947 135.356 72.7947 135.727V136.264C72.7947 136.635 72.7185 136.977 72.5661 137.288C72.4169 137.597 72.1948 137.845 71.8999 138.034C71.6082 138.22 71.2502 138.312 70.826 138.312C70.3951 138.312 70.0322 138.22 69.7372 138.034C69.4422 137.845 69.2185 137.597 69.0661 137.288C68.9136 136.977 68.8374 136.635 68.8374 136.264ZM69.8516 135.727V136.264C69.8516 136.572 69.9245 136.849 70.0703 137.094C70.2161 137.336 70.468 137.457 70.826 137.457C71.174 137.457 71.4193 137.336 71.5618 137.094C71.7076 136.849 71.7805 136.572 71.7805 136.264V135.727C71.7805 135.419 71.7109 135.144 71.5717 134.902C71.4325 134.657 71.1839 134.534 70.826 134.534C70.478 134.534 70.2277 134.657 70.0753 134.902C69.9261 135.144 69.8516 135.419 69.8516 135.727ZM69.2152 144L76.2152 133.818H77.3487L70.3487 144H69.2152Z" fill="white"/>
<path d="M116.054 71V70.1051L119.415 66.4261C119.809 65.9953 120.134 65.6207 120.389 65.3026C120.644 64.9811 120.833 64.6795 120.956 64.3977C121.082 64.1127 121.145 63.8144 121.145 63.5028C121.145 63.1449 121.059 62.835 120.886 62.5732C120.717 62.3113 120.485 62.1091 120.19 61.9666C119.895 61.8241 119.564 61.7528 119.196 61.7528C118.805 61.7528 118.464 61.834 118.172 61.9964C117.884 62.1555 117.66 62.3793 117.501 62.6676C117.345 62.956 117.267 63.294 117.267 63.6818H116.094C116.094 63.0852 116.231 62.5616 116.506 62.1108C116.781 61.66 117.156 61.3087 117.63 61.0568C118.107 60.8049 118.643 60.679 119.236 60.679C119.832 60.679 120.361 60.8049 120.822 61.0568C121.282 61.3087 121.644 61.6484 121.906 62.076C122.167 62.5036 122.298 62.9792 122.298 63.5028C122.298 63.8774 122.23 64.2436 122.094 64.6016C121.962 64.9562 121.73 65.3523 121.398 65.7898C121.07 66.224 120.615 66.7543 120.031 67.3807L117.744 69.8267V69.9062H122.477V71H116.054ZM127.852 71.1392C127.103 71.1392 126.464 70.9354 125.938 70.5277C125.411 70.1167 125.008 69.5218 124.729 68.7429C124.451 67.9607 124.312 67.0161 124.312 65.9091C124.312 64.8087 124.451 63.8691 124.729 63.0902C125.011 62.308 125.415 61.7114 125.942 61.3004C126.473 60.8861 127.109 60.679 127.852 60.679C128.594 60.679 129.229 60.8861 129.756 61.3004C130.286 61.7114 130.69 62.308 130.969 63.0902C131.25 63.8691 131.391 64.8087 131.391 65.9091C131.391 67.0161 131.252 67.9607 130.974 68.7429C130.695 69.5218 130.293 70.1167 129.766 70.5277C129.239 70.9354 128.601 71.1392 127.852 71.1392ZM127.852 70.0455C128.594 70.0455 129.171 69.6875 129.582 68.9716C129.993 68.2557 130.198 67.2348 130.198 65.9091C130.198 65.0275 130.104 64.2768 129.915 63.657C129.729 63.0372 129.461 62.5649 129.109 62.2401C128.761 61.9152 128.342 61.7528 127.852 61.7528C127.116 61.7528 126.541 62.1158 126.126 62.8416C125.712 63.5642 125.505 64.5866 125.505 65.9091C125.505 66.7907 125.598 67.5398 125.783 68.1562C125.969 68.7727 126.236 69.2417 126.584 69.5632C126.935 69.8847 127.358 70.0455 127.852 70.0455ZM138.471 69.0909V68.554C138.471 68.1828 138.547 67.843 138.7 67.5348C138.855 67.2232 139.081 66.9747 139.376 66.7891C139.674 66.6001 140.035 66.5057 140.46 66.5057C140.89 66.5057 141.252 66.6001 141.543 66.7891C141.835 66.9747 142.055 67.2232 142.205 67.5348C142.354 67.843 142.428 68.1828 142.428 68.554V69.0909C142.428 69.4621 142.352 69.8035 142.2 70.1151C142.05 70.4233 141.828 70.6719 141.533 70.8608C141.242 71.0464 140.884 71.1392 140.46 71.1392C140.029 71.1392 139.666 71.0464 139.371 70.8608C139.076 70.6719 138.852 70.4233 138.7 70.1151C138.547 69.8035 138.471 69.4621 138.471 69.0909ZM139.485 68.554V69.0909C139.485 69.3991 139.558 69.6759 139.704 69.9212C139.85 70.1631 140.102 70.2841 140.46 70.2841C140.808 70.2841 141.053 70.1631 141.195 69.9212C141.341 69.6759 141.414 69.3991 141.414 69.0909V68.554C141.414 68.2457 141.344 67.9706 141.205 67.7287C141.066 67.4834 140.817 67.3608 140.46 67.3608C140.112 67.3608 139.861 67.4834 139.709 67.7287C139.56 67.9706 139.485 68.2457 139.485 68.554ZM133.4 63.2642V62.7273C133.4 62.3561 133.476 62.0163 133.629 61.7081C133.784 61.3965 134.01 61.148 134.305 60.9624C134.603 60.7734 134.964 60.679 135.388 60.679C135.819 60.679 136.181 60.7734 136.472 60.9624C136.764 61.148 136.984 61.3965 137.134 61.7081C137.283 62.0163 137.357 62.3561 137.357 62.7273V63.2642C137.357 63.6354 137.281 63.9768 137.129 64.2884C136.979 64.5966 136.757 64.8452 136.462 65.0341C136.171 65.2197 135.813 65.3125 135.388 65.3125C134.958 65.3125 134.595 65.2197 134.3 65.0341C134.005 64.8452 133.781 64.5966 133.629 64.2884C133.476 63.9768 133.4 63.6354 133.4 63.2642ZM134.414 62.7273V63.2642C134.414 63.5724 134.487 63.8492 134.633 64.0945C134.779 64.3364 135.031 64.4574 135.388 64.4574C135.737 64.4574 135.982 64.3364 136.124 64.0945C136.27 63.8492 136.343 63.5724 136.343 63.2642V62.7273C136.343 62.419 136.273 62.1439 136.134 61.902C135.995 61.6567 135.746 61.5341 135.388 61.5341C135.04 61.5341 134.79 61.6567 134.638 61.902C134.489 62.1439 134.414 62.419 134.414 62.7273ZM133.778 71L140.778 60.8182H141.911L134.911 71H133.778Z" fill="white"/>
<path d="M179.634 93.8182V104H178.401V95.1108H178.341L175.855 96.7614V95.5085L178.401 93.8182H179.634ZM185.883 104.139C185.134 104.139 184.496 103.935 183.969 103.528C183.442 103.117 183.039 102.522 182.761 101.743C182.482 100.961 182.343 100.016 182.343 98.9091C182.343 97.8087 182.482 96.8691 182.761 96.0902C183.042 95.308 183.447 94.7114 183.974 94.3004C184.504 93.8861 185.14 93.679 185.883 93.679C186.625 93.679 187.26 93.8861 187.787 94.3004C188.317 94.7114 188.722 95.308 189 96.0902C189.282 96.8691 189.423 97.8087 189.423 98.9091C189.423 100.016 189.283 100.961 189.005 101.743C188.727 102.522 188.324 103.117 187.797 103.528C187.27 103.935 186.632 104.139 185.883 104.139ZM185.883 103.045C186.625 103.045 187.202 102.687 187.613 101.972C188.024 101.256 188.229 100.235 188.229 98.9091C188.229 98.0275 188.135 97.2768 187.946 96.657C187.76 96.0372 187.492 95.5649 187.141 95.2401C186.793 94.9152 186.373 94.7528 185.883 94.7528C185.147 94.7528 184.572 95.1158 184.158 95.8416C183.743 96.5642 183.536 97.5866 183.536 98.9091C183.536 99.7907 183.629 100.54 183.815 101.156C184 101.773 184.267 102.242 184.615 102.563C184.966 102.885 185.389 103.045 185.883 103.045ZM196.502 102.091V101.554C196.502 101.183 196.578 100.843 196.731 100.535C196.887 100.223 197.112 99.9747 197.407 99.7891C197.705 99.6001 198.067 99.5057 198.491 99.5057C198.922 99.5057 199.283 99.6001 199.575 99.7891C199.866 99.9747 200.087 100.223 200.236 100.535C200.385 100.843 200.46 101.183 200.46 101.554V102.091C200.46 102.462 200.383 102.804 200.231 103.115C200.082 103.423 199.86 103.672 199.565 103.861C199.273 104.046 198.915 104.139 198.491 104.139C198.06 104.139 197.697 104.046 197.402 103.861C197.107 103.672 196.883 103.423 196.731 103.115C196.578 102.804 196.502 102.462 196.502 102.091ZM197.516 101.554V102.091C197.516 102.399 197.589 102.676 197.735 102.921C197.881 103.163 198.133 103.284 198.491 103.284C198.839 103.284 199.084 103.163 199.227 102.921C199.372 102.676 199.445 102.399 199.445 102.091V101.554C199.445 101.246 199.376 100.971 199.237 100.729C199.097 100.483 198.849 100.361 198.491 100.361C198.143 100.361 197.893 100.483 197.74 100.729C197.591 100.971 197.516 101.246 197.516 101.554ZM191.431 96.2642V95.7273C191.431 95.3561 191.507 95.0163 191.66 94.7081C191.816 94.3965 192.041 94.148 192.336 93.9624C192.634 93.7734 192.996 93.679 193.42 93.679C193.851 93.679 194.212 93.7734 194.504 93.9624C194.795 94.148 195.016 94.3965 195.165 94.7081C195.314 95.0163 195.388 95.3561 195.388 95.7273V96.2642C195.388 96.6354 195.312 96.9768 195.16 97.2884C195.011 97.5966 194.789 97.8452 194.494 98.0341C194.202 98.2197 193.844 98.3125 193.42 98.3125C192.989 98.3125 192.626 98.2197 192.331 98.0341C192.036 97.8452 191.812 97.5966 191.66 97.2884C191.507 96.9768 191.431 96.6354 191.431 96.2642ZM192.445 95.7273V96.2642C192.445 96.5724 192.518 96.8492 192.664 97.0945C192.81 97.3364 193.062 97.4574 193.42 97.4574C193.768 97.4574 194.013 97.3364 194.156 97.0945C194.301 96.8492 194.374 96.5724 194.374 96.2642V95.7273C194.374 95.419 194.305 95.1439 194.165 94.902C194.026 94.6567 193.778 94.5341 193.42 94.5341C193.072 94.5341 192.821 94.6567 192.669 94.902C192.52 95.1439 192.445 95.419 192.445 95.7273ZM191.809 104L198.809 93.8182H199.942L192.942 104H191.809Z" fill="white"/>
<path d="M195.236 133.139C194.652 133.139 194.127 133.023 193.66 132.791C193.192 132.559 192.818 132.241 192.536 131.837C192.254 131.432 192.1 130.972 192.074 130.455H193.267C193.313 130.915 193.522 131.296 193.893 131.598C194.268 131.896 194.715 132.045 195.236 132.045C195.653 132.045 196.025 131.948 196.349 131.752C196.678 131.557 196.934 131.288 197.12 130.947C197.309 130.602 197.403 130.213 197.403 129.778C197.403 129.334 197.306 128.938 197.11 128.59C196.918 128.239 196.653 127.962 196.315 127.76C195.977 127.558 195.59 127.455 195.156 127.452C194.845 127.448 194.525 127.496 194.197 127.596C193.869 127.692 193.598 127.816 193.386 127.969L192.233 127.83L192.849 122.818H198.139V123.912H193.884L193.526 126.915H193.585C193.794 126.749 194.056 126.612 194.371 126.502C194.686 126.393 195.014 126.338 195.355 126.338C195.978 126.338 196.533 126.487 197.021 126.786C197.511 127.08 197.896 127.485 198.174 127.999C198.456 128.512 198.597 129.099 198.597 129.759C198.597 130.408 198.451 130.988 198.159 131.499C197.871 132.006 197.473 132.407 196.966 132.702C196.459 132.993 195.882 133.139 195.236 133.139ZM205.762 131.091V130.554C205.762 130.183 205.838 129.843 205.991 129.535C206.146 129.223 206.372 128.975 206.667 128.789C206.965 128.6 207.326 128.506 207.751 128.506C208.181 128.506 208.543 128.6 208.834 128.789C209.126 128.975 209.346 129.223 209.496 129.535C209.645 129.843 209.719 130.183 209.719 130.554V131.091C209.719 131.462 209.643 131.804 209.491 132.115C209.341 132.423 209.119 132.672 208.824 132.861C208.533 133.046 208.175 133.139 207.751 133.139C207.32 133.139 206.957 133.046 206.662 132.861C206.367 132.672 206.143 132.423 205.991 132.115C205.838 131.804 205.762 131.462 205.762 131.091ZM206.776 130.554V131.091C206.776 131.399 206.849 131.676 206.995 131.921C207.141 132.163 207.393 132.284 207.751 132.284C208.099 132.284 208.344 132.163 208.486 131.921C208.632 131.676 208.705 131.399 208.705 131.091V130.554C208.705 130.246 208.635 129.971 208.496 129.729C208.357 129.483 208.108 129.361 207.751 129.361C207.403 129.361 207.152 129.483 207 129.729C206.851 129.971 206.776 130.246 206.776 130.554ZM200.691 125.264V124.727C200.691 124.356 200.767 124.016 200.92 123.708C201.075 123.397 201.301 123.148 201.596 122.962C201.894 122.773 202.255 122.679 202.68 122.679C203.11 122.679 203.472 122.773 203.763 122.962C204.055 123.148 204.275 123.397 204.425 123.708C204.574 124.016 204.648 124.356 204.648 124.727V125.264C204.648 125.635 204.572 125.977 204.42 126.288C204.27 126.597 204.048 126.845 203.753 127.034C203.462 127.22 203.104 127.312 202.68 127.312C202.249 127.312 201.886 127.22 201.591 127.034C201.296 126.845 201.072 126.597 200.92 126.288C200.767 125.977 200.691 125.635 200.691 125.264ZM201.705 124.727V125.264C201.705 125.572 201.778 125.849 201.924 126.094C202.07 126.336 202.322 126.457 202.68 126.457C203.028 126.457 203.273 126.336 203.415 126.094C203.561 125.849 203.634 125.572 203.634 125.264V124.727C203.634 124.419 203.564 124.144 203.425 123.902C203.286 123.657 203.037 123.534 202.68 123.534C202.331 123.534 202.081 123.657 201.929 123.902C201.78 124.144 201.705 124.419 201.705 124.727ZM201.069 133L208.069 122.818H209.202L202.202 133H201.069Z" fill="white"/>
</svg>