<svg width="478" height="257" viewBox="0 0 478 257" fill="none" xmlns="http://www.w3.org/2000/svg">
<rect width="386" height="257" fill="white"/>
<path d="M128.667 128.5H240.178C240.178 147.851 235.129 166.868 225.529 183.678C215.929 200.487 202.108 214.507 185.43 224.358C168.752 234.209 149.792 239.549 130.418 239.853C111.044 240.157 91.9254 235.414 74.9458 226.091L128.667 128.5Z" fill="#FF001D"/>
<path d="M128.667 128.5L74.9458 226.091C61.5964 218.762 49.8924 208.779 40.5556 196.757C31.2188 184.736 24.4473 170.932 20.6588 156.196C16.8704 141.46 16.1453 126.105 18.5284 111.078C20.9115 96.0518 26.3521 81.6723 34.5147 68.8268L128.667 128.5Z" fill="#CD031B"/>
<path d="M128.667 128.5L34.5146 68.8267C44.579 52.9884 58.4862 39.9456 74.9457 30.9086C91.4052 21.8717 109.884 17.1333 128.667 17.1333V128.5Z" fill="#A20113"/>
<path d="M128.667 128.5V17.1333C145.081 17.1333 161.293 20.7525 176.146 27.7324C190.998 34.7124 204.124 44.8809 214.588 57.5122L128.667 128.5Z" fill="#DC1B32"/>
<path d="M128.667 128.5L214.588 57.5122C231.128 77.4804 240.178 102.585 240.178 128.5H128.667Z" fill="#76000D"/>
<path d="M144.84 177.426C144.905 176.567 145.237 175.895 145.834 175.41C146.431 174.925 147.206 174.682 148.158 174.682C148.793 174.682 149.339 174.799 149.796 175.032C150.263 175.256 150.613 175.564 150.846 175.956C151.089 176.348 151.21 176.791 151.21 177.286C151.21 177.865 151.042 178.364 150.706 178.784C150.379 179.204 149.95 179.475 149.418 179.596V179.666C150.025 179.815 150.505 180.109 150.86 180.548C151.215 180.987 151.392 181.561 151.392 182.27C151.392 182.802 151.271 183.283 151.028 183.712C150.785 184.132 150.421 184.463 149.936 184.706C149.451 184.949 148.867 185.07 148.186 185.07C147.197 185.07 146.385 184.813 145.75 184.3C145.115 183.777 144.761 183.04 144.686 182.088H145.918C145.983 182.648 146.212 183.105 146.604 183.46C146.996 183.815 147.519 183.992 148.172 183.992C148.825 183.992 149.32 183.824 149.656 183.488C150.001 183.143 150.174 182.699 150.174 182.158C150.174 181.458 149.941 180.954 149.474 180.646C149.007 180.338 148.303 180.184 147.36 180.184H147.038V179.12H147.374C148.233 179.111 148.881 178.971 149.32 178.7C149.759 178.42 149.978 177.991 149.978 177.412C149.978 176.917 149.815 176.521 149.488 176.222C149.171 175.923 148.713 175.774 148.116 175.774C147.537 175.774 147.071 175.923 146.716 176.222C146.361 176.521 146.151 176.922 146.086 177.426H144.84ZM153.084 177.426C153.149 176.567 153.481 175.895 154.078 175.41C154.675 174.925 155.45 174.682 156.402 174.682C157.037 174.682 157.583 174.799 158.04 175.032C158.507 175.256 158.857 175.564 159.09 175.956C159.333 176.348 159.454 176.791 159.454 177.286C159.454 177.865 159.286 178.364 158.95 178.784C158.623 179.204 158.194 179.475 157.662 179.596V179.666C158.269 179.815 158.749 180.109 159.104 180.548C159.459 180.987 159.636 181.561 159.636 182.27C159.636 182.802 159.515 183.283 159.272 183.712C159.029 184.132 158.665 184.463 158.18 184.706C157.695 184.949 157.111 185.07 156.43 185.07C155.441 185.07 154.629 184.813 153.994 184.3C153.359 183.777 153.005 183.04 152.93 182.088H154.162C154.227 182.648 154.456 183.105 154.848 183.46C155.24 183.815 155.763 183.992 156.416 183.992C157.069 183.992 157.564 183.824 157.9 183.488C158.245 183.143 158.418 182.699 158.418 182.158C158.418 181.458 158.185 180.954 157.718 180.646C157.251 180.338 156.547 180.184 155.604 180.184H155.282V179.12H155.618C156.477 179.111 157.125 178.971 157.564 178.7C158.003 178.42 158.222 177.991 158.222 177.412C158.222 176.917 158.059 176.521 157.732 176.222C157.415 175.923 156.957 175.774 156.36 175.774C155.781 175.774 155.315 175.923 154.96 176.222C154.605 176.521 154.395 176.922 154.33 177.426H153.084ZM161.076 177.16C161.076 176.525 161.268 176.021 161.65 175.648C162.033 175.265 162.523 175.074 163.12 175.074C163.718 175.074 164.208 175.265 164.59 175.648C164.973 176.021 165.164 176.525 165.164 177.16C165.164 177.804 164.973 178.317 164.59 178.7C164.208 179.073 163.718 179.26 163.12 179.26C162.523 179.26 162.033 179.073 161.65 178.7C161.268 178.317 161.076 177.804 161.076 177.16ZM169.252 175.228L163.582 185H162.322L167.992 175.228H169.252ZM163.12 175.858C162.803 175.858 162.551 175.97 162.364 176.194C162.187 176.409 162.098 176.731 162.098 177.16C162.098 177.589 162.187 177.916 162.364 178.14C162.551 178.364 162.803 178.476 163.12 178.476C163.438 178.476 163.69 178.364 163.876 178.14C164.063 177.907 164.156 177.58 164.156 177.16C164.156 176.731 164.063 176.409 163.876 176.194C163.69 175.97 163.438 175.858 163.12 175.858ZM166.438 183.068C166.438 182.424 166.63 181.915 167.012 181.542C167.395 181.159 167.885 180.968 168.482 180.968C169.08 180.968 169.565 181.159 169.938 181.542C170.321 181.915 170.512 182.424 170.512 183.068C170.512 183.703 170.321 184.211 169.938 184.594C169.565 184.977 169.08 185.168 168.482 185.168C167.885 185.168 167.395 184.981 167.012 184.608C166.63 184.225 166.438 183.712 166.438 183.068ZM168.468 181.766C168.151 181.766 167.899 181.878 167.712 182.102C167.526 182.317 167.432 182.639 167.432 183.068C167.432 183.488 167.526 183.81 167.712 184.034C167.899 184.249 168.151 184.356 168.468 184.356C168.786 184.356 169.038 184.249 169.224 184.034C169.411 183.81 169.504 183.488 169.504 183.068C169.504 182.639 169.411 182.317 169.224 182.102C169.038 181.878 168.786 181.766 168.468 181.766Z" fill="white"/>
<path d="M52.714 145.978C53.8993 145.026 54.828 144.247 55.5 143.64C56.172 143.024 56.7367 142.385 57.194 141.722C57.6607 141.05 57.894 140.392 57.894 139.748C57.894 139.141 57.7447 138.665 57.446 138.32C57.1567 137.965 56.6853 137.788 56.032 137.788C55.3973 137.788 54.9027 137.989 54.548 138.39C54.2027 138.782 54.016 139.309 53.988 139.972H52.756C52.7933 138.927 53.1107 138.119 53.708 137.55C54.3053 136.981 55.0753 136.696 56.018 136.696C56.9793 136.696 57.74 136.962 58.3 137.494C58.8693 138.026 59.154 138.759 59.154 139.692C59.154 140.467 58.9207 141.223 58.454 141.96C57.9967 142.688 57.474 143.332 56.886 143.892C56.298 144.443 55.5467 145.087 54.632 145.824H59.448V146.888H52.714V145.978ZM66.5627 139.286C66.3574 138.25 65.7181 137.732 64.6447 137.732C63.8141 137.732 63.1934 138.054 62.7827 138.698C62.3721 139.333 62.1714 140.383 62.1807 141.848C62.3954 141.363 62.7501 140.985 63.2447 140.714C63.7487 140.434 64.3087 140.294 64.9247 140.294C65.8861 140.294 66.6514 140.593 67.2207 141.19C67.7994 141.787 68.0887 142.613 68.0887 143.668C68.0887 144.303 67.9627 144.872 67.7107 145.376C67.4681 145.88 67.0947 146.281 66.5907 146.58C66.0961 146.879 65.4941 147.028 64.7847 147.028C63.8234 147.028 63.0721 146.813 62.5307 146.384C61.9894 145.955 61.6114 145.362 61.3967 144.606C61.1821 143.85 61.0747 142.917 61.0747 141.806C61.0747 138.381 62.2694 136.668 64.6587 136.668C65.5734 136.668 66.2921 136.915 66.8147 137.41C67.3374 137.905 67.6454 138.53 67.7387 139.286H66.5627ZM64.6587 141.372C64.2574 141.372 63.8794 141.456 63.5247 141.624C63.1701 141.783 62.8807 142.03 62.6567 142.366C62.4421 142.693 62.3347 143.094 62.3347 143.57C62.3347 144.279 62.5401 144.858 62.9507 145.306C63.3614 145.745 63.9494 145.964 64.7147 145.964C65.3681 145.964 65.8861 145.763 66.2687 145.362C66.6607 144.951 66.8567 144.401 66.8567 143.71C66.8567 142.982 66.6701 142.413 66.2967 142.002C65.9234 141.582 65.3774 141.372 64.6587 141.372ZM69.5275 139.16C69.5275 138.525 69.7188 138.021 70.1015 137.648C70.4841 137.265 70.9741 137.074 71.5715 137.074C72.1688 137.074 72.6588 137.265 73.0415 137.648C73.4241 138.021 73.6155 138.525 73.6155 139.16C73.6155 139.804 73.4241 140.317 73.0415 140.7C72.6588 141.073 72.1688 141.26 71.5715 141.26C70.9741 141.26 70.4841 141.073 70.1015 140.7C69.7188 140.317 69.5275 139.804 69.5275 139.16ZM77.7035 137.228L72.0335 147H70.7735L76.4435 137.228H77.7035ZM71.5715 137.858C71.2541 137.858 71.0021 137.97 70.8155 138.194C70.6381 138.409 70.5495 138.731 70.5495 139.16C70.5495 139.589 70.6381 139.916 70.8155 140.14C71.0021 140.364 71.2541 140.476 71.5715 140.476C71.8888 140.476 72.1408 140.364 72.3275 140.14C72.5141 139.907 72.6075 139.58 72.6075 139.16C72.6075 138.731 72.5141 138.409 72.3275 138.194C72.1408 137.97 71.8888 137.858 71.5715 137.858ZM74.8895 145.068C74.8895 144.424 75.0808 143.915 75.4635 143.542C75.8461 143.159 76.3361 142.968 76.9335 142.968C77.5308 142.968 78.0161 143.159 78.3895 143.542C78.7721 143.915 78.9635 144.424 78.9635 145.068C78.9635 145.703 78.7721 146.211 78.3895 146.594C78.0161 146.977 77.5308 147.168 76.9335 147.168C76.3361 147.168 75.8461 146.981 75.4635 146.608C75.0808 146.225 74.8895 145.712 74.8895 145.068ZM76.9195 143.766C76.6021 143.766 76.3501 143.878 76.1635 144.102C75.9768 144.317 75.8835 144.639 75.8835 145.068C75.8835 145.488 75.9768 145.81 76.1635 146.034C76.3501 146.249 76.6021 146.356 76.9195 146.356C77.2368 146.356 77.4888 146.249 77.6755 146.034C77.8621 145.81 77.9555 145.488 77.9555 145.068C77.9555 144.639 77.8621 144.317 77.6755 144.102C77.4888 143.878 77.2368 143.766 76.9195 143.766Z" fill="white"/>
<path d="M79.532 64.04V62.878H82.164V73H80.876V64.04H79.532ZM89.9944 65.286C89.789 64.25 89.1497 63.732 88.0764 63.732C87.2457 63.732 86.625 64.054 86.2144 64.698C85.8037 65.3327 85.603 66.3827 85.6124 67.848C85.827 67.3627 86.1817 66.9847 86.6764 66.714C87.1804 66.434 87.7404 66.294 88.3564 66.294C89.3177 66.294 90.083 66.5927 90.6524 67.19C91.231 67.7873 91.5204 68.6133 91.5204 69.668C91.5204 70.3027 91.3944 70.872 91.1424 71.376C90.8997 71.88 90.5264 72.2813 90.0224 72.58C89.5277 72.8787 88.9257 73.028 88.2164 73.028C87.255 73.028 86.5037 72.8133 85.9624 72.384C85.421 71.9547 85.043 71.362 84.8284 70.606C84.6137 69.85 84.5064 68.9167 84.5064 67.806C84.5064 64.3807 85.701 62.668 88.0904 62.668C89.005 62.668 89.7237 62.9153 90.2464 63.41C90.769 63.9047 91.077 64.53 91.1704 65.286H89.9944ZM88.0904 67.372C87.689 67.372 87.311 67.456 86.9564 67.624C86.6017 67.7827 86.3124 68.03 86.0884 68.366C85.8737 68.6927 85.7664 69.094 85.7664 69.57C85.7664 70.2793 85.9717 70.858 86.3824 71.306C86.793 71.7447 87.381 71.964 88.1464 71.964C88.7997 71.964 89.3177 71.7633 89.7004 71.362C90.0924 70.9513 90.2884 70.4007 90.2884 69.71C90.2884 68.982 90.1017 68.4127 89.7284 68.002C89.355 67.582 88.809 67.372 88.0904 67.372ZM92.9591 65.16C92.9591 64.5253 93.1504 64.0213 93.5331 63.648C93.9158 63.2653 94.4058 63.074 95.0031 63.074C95.6004 63.074 96.0904 63.2653 96.4731 63.648C96.8558 64.0213 97.0471 64.5253 97.0471 65.16C97.0471 65.804 96.8558 66.3173 96.4731 66.7C96.0904 67.0733 95.6004 67.26 95.0031 67.26C94.4058 67.26 93.9158 67.0733 93.5331 66.7C93.1504 66.3173 92.9591 65.804 92.9591 65.16ZM101.135 63.228L95.4651 73H94.2051L99.8751 63.228H101.135ZM95.0031 63.858C94.6858 63.858 94.4338 63.97 94.2471 64.194C94.0698 64.4087 93.9811 64.7307 93.9811 65.16C93.9811 65.5893 94.0698 65.916 94.2471 66.14C94.4338 66.364 94.6858 66.476 95.0031 66.476C95.3204 66.476 95.5724 66.364 95.7591 66.14C95.9458 65.9067 96.0391 65.58 96.0391 65.16C96.0391 64.7307 95.9458 64.4087 95.7591 64.194C95.5724 63.97 95.3204 63.858 95.0031 63.858ZM98.3211 71.068C98.3211 70.424 98.5124 69.9153 98.8951 69.542C99.2778 69.1593 99.7678 68.968 100.365 68.968C100.962 68.968 101.448 69.1593 101.821 69.542C102.204 69.9153 102.395 70.424 102.395 71.068C102.395 71.7027 102.204 72.2113 101.821 72.594C101.448 72.9767 100.962 73.168 100.365 73.168C99.7678 73.168 99.2778 72.9813 98.8951 72.608C98.5124 72.2253 98.3211 71.712 98.3211 71.068ZM100.351 69.766C100.034 69.766 99.7818 69.878 99.5951 70.102C99.4084 70.3167 99.3151 70.6387 99.3151 71.068C99.3151 71.488 99.4084 71.81 99.5951 72.034C99.7818 72.2487 100.034 72.356 100.351 72.356C100.668 72.356 100.92 72.2487 101.107 72.034C101.294 71.81 101.387 71.488 101.387 71.068C101.387 70.6387 101.294 70.3167 101.107 70.102C100.92 69.878 100.668 69.766 100.351 69.766Z" fill="white"/>
<path d="M145.532 64.04V62.878H148.164V73H146.876V64.04H145.532ZM150.044 70.746V69.78L154.958 62.976H156.484V69.64H157.884V70.746H156.484V73H155.224V70.746H150.044ZM155.28 64.306L151.514 69.64H155.28V64.306ZM158.877 65.16C158.877 64.5253 159.068 64.0213 159.451 63.648C159.834 63.2653 160.324 63.074 160.921 63.074C161.518 63.074 162.008 63.2653 162.391 63.648C162.774 64.0213 162.965 64.5253 162.965 65.16C162.965 65.804 162.774 66.3173 162.391 66.7C162.008 67.0733 161.518 67.26 160.921 67.26C160.324 67.26 159.834 67.0733 159.451 66.7C159.068 66.3173 158.877 65.804 158.877 65.16ZM167.053 63.228L161.383 73H160.123L165.793 63.228H167.053ZM160.921 63.858C160.604 63.858 160.352 63.97 160.165 64.194C159.988 64.4087 159.899 64.7307 159.899 65.16C159.899 65.5893 159.988 65.916 160.165 66.14C160.352 66.364 160.604 66.476 160.921 66.476C161.238 66.476 161.49 66.364 161.677 66.14C161.864 65.9067 161.957 65.58 161.957 65.16C161.957 64.7307 161.864 64.4087 161.677 64.194C161.49 63.97 161.238 63.858 160.921 63.858ZM164.239 71.068C164.239 70.424 164.43 69.9153 164.813 69.542C165.196 69.1593 165.686 68.968 166.283 68.968C166.88 68.968 167.366 69.1593 167.739 69.542C168.122 69.9153 168.313 70.424 168.313 71.068C168.313 71.7027 168.122 72.2113 167.739 72.594C167.366 72.9767 166.88 73.168 166.283 73.168C165.686 73.168 165.196 72.9813 164.813 72.608C164.43 72.2253 164.239 71.712 164.239 71.068ZM166.269 69.766C165.952 69.766 165.7 69.878 165.513 70.102C165.326 70.3167 165.233 70.6387 165.233 71.068C165.233 71.488 165.326 71.81 165.513 72.034C165.7 72.2487 165.952 72.356 166.269 72.356C166.586 72.356 166.838 72.2487 167.025 72.034C167.212 71.81 167.305 71.488 167.305 71.068C167.305 70.6387 167.212 70.3167 167.025 70.102C166.838 69.878 166.586 69.766 166.269 69.766Z" fill="white"/>
<path d="M182.532 103.04V101.878H185.164V112H183.876V103.04H182.532ZM187.016 103.04V101.878H189.648V112H188.36V103.04H187.016ZM191.557 104.16C191.557 103.525 191.748 103.021 192.131 102.648C192.513 102.265 193.003 102.074 193.601 102.074C194.198 102.074 194.688 102.265 195.071 102.648C195.453 103.021 195.645 103.525 195.645 104.16C195.645 104.804 195.453 105.317 195.071 105.7C194.688 106.073 194.198 106.26 193.601 106.26C193.003 106.26 192.513 106.073 192.131 105.7C191.748 105.317 191.557 104.804 191.557 104.16ZM199.733 102.228L194.063 112H192.803L198.473 102.228H199.733ZM193.601 102.858C193.283 102.858 193.031 102.97 192.845 103.194C192.667 103.409 192.579 103.731 192.579 104.16C192.579 104.589 192.667 104.916 192.845 105.14C193.031 105.364 193.283 105.476 193.601 105.476C193.918 105.476 194.17 105.364 194.357 105.14C194.543 104.907 194.637 104.58 194.637 104.16C194.637 103.731 194.543 103.409 194.357 103.194C194.17 102.97 193.918 102.858 193.601 102.858ZM196.919 110.068C196.919 109.424 197.11 108.915 197.493 108.542C197.875 108.159 198.365 107.968 198.963 107.968C199.56 107.968 200.045 108.159 200.419 108.542C200.801 108.915 200.993 109.424 200.993 110.068C200.993 110.703 200.801 111.211 200.419 111.594C200.045 111.977 199.56 112.168 198.963 112.168C198.365 112.168 197.875 111.981 197.493 111.608C197.11 111.225 196.919 110.712 196.919 110.068ZM198.949 108.766C198.631 108.766 198.379 108.878 198.193 109.102C198.006 109.317 197.913 109.639 197.913 110.068C197.913 110.488 198.006 110.81 198.193 111.034C198.379 111.249 198.631 111.356 198.949 111.356C199.266 111.356 199.518 111.249 199.705 111.034C199.891 110.81 199.985 110.488 199.985 110.068C199.985 109.639 199.891 109.317 199.705 109.102C199.518 108.878 199.266 108.766 198.949 108.766Z" fill="white"/>
<rect x="335" y="39" width="27" height="28" fill="#FF001D"/>
<rect x="335" y="75" width="27" height="28" fill="#CD031B"/>
<rect x="335" y="110" width="27" height="29" fill="#A10113"/>
<rect x="335" y="146" width="27" height="28" fill="#DC1B32"/>
<rect x="335" y="182" width="27" height="28" fill="#76000D"/>
<path d="M384.976 48.312V58H383.702V50.776L380.482 58H379.586L376.352 50.762V58H375.078V48.312H376.45L380.034 56.32L383.618 48.312H384.976ZM394.137 53.87C394.137 54.1127 394.123 54.3693 394.095 54.64H387.963C388.009 55.396 388.266 55.9887 388.733 56.418C389.209 56.838 389.783 57.048 390.455 57.048C391.005 57.048 391.463 56.922 391.827 56.67C392.2 56.4087 392.461 56.0633 392.611 55.634H393.983C393.777 56.3713 393.367 56.9733 392.751 57.44C392.135 57.8973 391.369 58.126 390.455 58.126C389.727 58.126 389.073 57.9627 388.495 57.636C387.925 57.3093 387.477 56.8473 387.151 56.25C386.824 55.6433 386.661 54.9433 386.661 54.15C386.661 53.3567 386.819 52.6613 387.137 52.064C387.454 51.4667 387.897 51.0093 388.467 50.692C389.045 50.3653 389.708 50.202 390.455 50.202C391.183 50.202 391.827 50.3607 392.387 50.678C392.947 50.9953 393.376 51.434 393.675 51.994C393.983 52.5447 394.137 53.17 394.137 53.87ZM392.821 53.604C392.821 53.1187 392.713 52.7033 392.499 52.358C392.284 52.0033 391.99 51.7373 391.617 51.56C391.253 51.3733 390.847 51.28 390.399 51.28C389.755 51.28 389.204 51.4853 388.747 51.896C388.299 52.3067 388.042 52.876 387.977 53.604H392.821ZM399.556 50.188C400.49 50.188 401.246 50.4727 401.824 51.042C402.403 51.602 402.692 52.414 402.692 53.478V58H401.432V53.66C401.432 52.8947 401.241 52.3113 400.858 51.91C400.476 51.4993 399.953 51.294 399.29 51.294C398.618 51.294 398.082 51.504 397.68 51.924C397.288 52.344 397.092 52.9553 397.092 53.758V58H395.818V50.328H397.092V51.42C397.344 51.028 397.685 50.7247 398.114 50.51C398.553 50.2953 399.034 50.188 399.556 50.188ZM411.577 50.328V58H410.303V56.866C410.061 57.258 409.72 57.566 409.281 57.79C408.852 58.0047 408.376 58.112 407.853 58.112C407.256 58.112 406.719 57.9907 406.243 57.748C405.767 57.496 405.389 57.1227 405.109 56.628C404.839 56.1333 404.703 55.5313 404.703 54.822V50.328H405.963V54.654C405.963 55.41 406.155 55.9933 406.537 56.404C406.92 56.8053 407.443 57.006 408.105 57.006C408.787 57.006 409.323 56.796 409.715 56.376C410.107 55.956 410.303 55.3447 410.303 54.542V50.328H411.577ZM418.735 51.742C418.987 51.3033 419.36 50.9393 419.855 50.65C420.359 50.3513 420.942 50.202 421.605 50.202C422.286 50.202 422.902 50.3653 423.453 50.692C424.013 51.0187 424.451 51.4807 424.769 52.078C425.086 52.666 425.245 53.352 425.245 54.136C425.245 54.9107 425.086 55.6013 424.769 56.208C424.451 56.8147 424.013 57.286 423.453 57.622C422.902 57.958 422.286 58.126 421.605 58.126C420.951 58.126 420.373 57.9813 419.869 57.692C419.374 57.3933 418.996 57.0247 418.735 56.586V61.64H417.461V50.328H418.735V51.742ZM423.943 54.136C423.943 53.5573 423.826 53.0533 423.593 52.624C423.359 52.1947 423.042 51.868 422.641 51.644C422.249 51.42 421.815 51.308 421.339 51.308C420.872 51.308 420.438 51.4247 420.037 51.658C419.645 51.882 419.327 52.2133 419.085 52.652C418.851 53.0813 418.735 53.5807 418.735 54.15C418.735 54.7287 418.851 55.2373 419.085 55.676C419.327 56.1053 419.645 56.4367 420.037 56.67C420.438 56.894 420.872 57.006 421.339 57.006C421.815 57.006 422.249 56.894 422.641 56.67C423.042 56.4367 423.359 56.1053 423.593 55.676C423.826 55.2373 423.943 54.724 423.943 54.136ZM428.196 51.574C428.42 51.1353 428.737 50.7947 429.148 50.552C429.568 50.3093 430.076 50.188 430.674 50.188V51.504H430.338C428.91 51.504 428.196 52.2787 428.196 53.828V58H426.922V50.328H428.196V51.574ZM432.802 49.082C432.56 49.082 432.354 48.998 432.186 48.83C432.018 48.662 431.934 48.4567 431.934 48.214C431.934 47.9713 432.018 47.766 432.186 47.598C432.354 47.43 432.56 47.346 432.802 47.346C433.036 47.346 433.232 47.43 433.39 47.598C433.558 47.766 433.642 47.9713 433.642 48.214C433.642 48.4567 433.558 48.662 433.39 48.83C433.232 48.998 433.036 49.082 432.802 49.082ZM433.418 50.328V58H432.144V50.328H433.418ZM439.328 50.188C440.261 50.188 441.017 50.4727 441.596 51.042C442.174 51.602 442.464 52.414 442.464 53.478V58H441.204V53.66C441.204 52.8947 441.012 52.3113 440.63 51.91C440.247 51.4993 439.724 51.294 439.062 51.294C438.39 51.294 437.853 51.504 437.452 51.924C437.06 52.344 436.864 52.9553 436.864 53.758V58H435.59V50.328H436.864V51.42C437.116 51.028 437.456 50.7247 437.886 50.51C438.324 50.2953 438.805 50.188 439.328 50.188ZM444.069 54.15C444.069 53.3567 444.227 52.666 444.545 52.078C444.862 51.4807 445.301 51.0187 445.861 50.692C446.43 50.3653 447.079 50.202 447.807 50.202C448.749 50.202 449.524 50.4307 450.131 50.888C450.747 51.3453 451.153 51.98 451.349 52.792H449.977C449.846 52.3253 449.589 51.9567 449.207 51.686C448.833 51.4153 448.367 51.28 447.807 51.28C447.079 51.28 446.491 51.532 446.043 52.036C445.595 52.5307 445.371 53.2353 445.371 54.15C445.371 55.074 445.595 55.788 446.043 56.292C446.491 56.796 447.079 57.048 447.807 57.048C448.367 57.048 448.833 56.9173 449.207 56.656C449.58 56.3947 449.837 56.0213 449.977 55.536H451.349C451.143 56.32 450.733 56.95 450.117 57.426C449.501 57.8927 448.731 58.126 447.807 58.126C447.079 58.126 446.43 57.9627 445.861 57.636C445.301 57.3093 444.862 56.8473 444.545 56.25C444.227 55.6527 444.069 54.9527 444.069 54.15ZM453.707 49.082C453.464 49.082 453.259 48.998 453.091 48.83C452.923 48.662 452.839 48.4567 452.839 48.214C452.839 47.9713 452.923 47.766 453.091 47.598C453.259 47.43 453.464 47.346 453.707 47.346C453.94 47.346 454.136 47.43 454.295 47.598C454.463 47.766 454.547 47.9713 454.547 48.214C454.547 48.4567 454.463 48.662 454.295 48.83C454.136 48.998 453.94 49.082 453.707 49.082ZM454.323 50.328V58H453.049V50.328H454.323ZM457.768 51.742C458.02 51.3033 458.393 50.9393 458.888 50.65C459.392 50.3513 459.975 50.202 460.638 50.202C461.319 50.202 461.935 50.3653 462.486 50.692C463.046 51.0187 463.485 51.4807 463.802 52.078C464.119 52.666 464.278 53.352 464.278 54.136C464.278 54.9107 464.119 55.6013 463.802 56.208C463.485 56.8147 463.046 57.286 462.486 57.622C461.935 57.958 461.319 58.126 460.638 58.126C459.985 58.126 459.406 57.9813 458.902 57.692C458.407 57.3933 458.029 57.0247 457.768 56.586V61.64H456.494V50.328H457.768V51.742ZM462.976 54.136C462.976 53.5573 462.859 53.0533 462.626 52.624C462.393 52.1947 462.075 51.868 461.674 51.644C461.282 51.42 460.848 51.308 460.372 51.308C459.905 51.308 459.471 51.4247 459.07 51.658C458.678 51.882 458.361 52.2133 458.118 52.652C457.885 53.0813 457.768 53.5807 457.768 54.15C457.768 54.7287 457.885 55.2373 458.118 55.676C458.361 56.1053 458.678 56.4367 459.07 56.67C459.471 56.894 459.905 57.006 460.372 57.006C460.848 57.006 461.282 56.894 461.674 56.67C462.075 56.4367 462.393 56.1053 462.626 55.676C462.859 55.2373 462.976 54.724 462.976 54.136ZM465.479 54.136C465.479 53.352 465.638 52.666 465.955 52.078C466.272 51.4807 466.706 51.0187 467.257 50.692C467.817 50.3653 468.438 50.202 469.119 50.202C469.791 50.202 470.374 50.3467 470.869 50.636C471.364 50.9253 471.732 51.2893 471.975 51.728V50.328H473.263V58H471.975V56.572C471.723 57.02 471.345 57.3933 470.841 57.692C470.346 57.9813 469.768 58.126 469.105 58.126C468.424 58.126 467.808 57.958 467.257 57.622C466.706 57.286 466.272 56.8147 465.955 56.208C465.638 55.6013 465.479 54.9107 465.479 54.136ZM471.975 54.15C471.975 53.5713 471.858 53.0673 471.625 52.638C471.392 52.2087 471.074 51.882 470.673 51.658C470.281 51.4247 469.847 51.308 469.371 51.308C468.895 51.308 468.461 51.42 468.069 51.644C467.677 51.868 467.364 52.1947 467.131 52.624C466.898 53.0533 466.781 53.5573 466.781 54.136C466.781 54.724 466.898 55.2373 467.131 55.676C467.364 56.1053 467.677 56.4367 468.069 56.67C468.461 56.894 468.895 57.006 469.371 57.006C469.847 57.006 470.281 56.894 470.673 56.67C471.074 56.4367 471.392 56.1053 471.625 55.676C471.858 55.2373 471.975 54.7287 471.975 54.15ZM476.69 47.64V58H475.416V47.64H476.69Z" fill="black"/>
<path d="M376.352 92.964H379.768V94H375.078V84.242H376.352V92.964ZM387.925 86.328V94H386.651V92.866C386.408 93.258 386.068 93.566 385.629 93.79C385.2 94.0047 384.724 94.112 384.201 94.112C383.604 94.112 383.067 93.9907 382.591 93.748C382.115 93.496 381.737 93.1227 381.457 92.628C381.186 92.1333 381.051 91.5313 381.051 90.822V86.328H382.311V90.654C382.311 91.41 382.502 91.9933 382.885 92.404C383.268 92.8053 383.79 93.006 384.453 93.006C385.134 93.006 385.671 92.796 386.063 92.376C386.455 91.956 386.651 91.3447 386.651 90.542V86.328H387.925ZM393.814 86.188C394.747 86.188 395.503 86.4727 396.082 87.042C396.661 87.602 396.95 88.414 396.95 89.478V94H395.69V89.66C395.69 88.8947 395.499 88.3113 395.116 87.91C394.733 87.4993 394.211 87.294 393.548 87.294C392.876 87.294 392.339 87.504 391.938 87.924C391.546 88.344 391.35 88.9553 391.35 89.758V94H390.076V86.328H391.35V87.42C391.602 87.028 391.943 86.7247 392.372 86.51C392.811 86.2953 393.291 86.188 393.814 86.188ZM398.555 90.15C398.555 89.3567 398.714 88.666 399.031 88.078C399.348 87.4807 399.787 87.0187 400.347 86.692C400.916 86.3653 401.565 86.202 402.293 86.202C403.236 86.202 404.01 86.4307 404.617 86.888C405.233 87.3453 405.639 87.98 405.835 88.792H404.463C404.332 88.3253 404.076 87.9567 403.693 87.686C403.32 87.4153 402.853 87.28 402.293 87.28C401.565 87.28 400.977 87.532 400.529 88.036C400.081 88.5307 399.857 89.2353 399.857 90.15C399.857 91.074 400.081 91.788 400.529 92.292C400.977 92.796 401.565 93.048 402.293 93.048C402.853 93.048 403.32 92.9173 403.693 92.656C404.066 92.3947 404.323 92.0213 404.463 91.536H405.835C405.63 92.32 405.219 92.95 404.603 93.426C403.987 93.8927 403.217 94.126 402.293 94.126C401.565 94.126 400.916 93.9627 400.347 93.636C399.787 93.3093 399.348 92.8473 399.031 92.25C398.714 91.6527 398.555 90.9527 398.555 90.15ZM411.343 86.188C411.922 86.188 412.444 86.314 412.911 86.566C413.378 86.8087 413.742 87.1773 414.003 87.672C414.274 88.1667 414.409 88.7687 414.409 89.478V94H413.149V89.66C413.149 88.8947 412.958 88.3113 412.575 87.91C412.192 87.4993 411.67 87.294 411.007 87.294C410.335 87.294 409.798 87.504 409.397 87.924C409.005 88.344 408.809 88.9553 408.809 89.758V94H407.535V83.64H408.809V87.42C409.061 87.028 409.406 86.7247 409.845 86.51C410.293 86.2953 410.792 86.188 411.343 86.188ZM429.449 86.188C430.046 86.188 430.578 86.314 431.045 86.566C431.511 86.8087 431.88 87.1773 432.151 87.672C432.421 88.1667 432.557 88.7687 432.557 89.478V94H431.297V89.66C431.297 88.8947 431.105 88.3113 430.723 87.91C430.349 87.4993 429.841 87.294 429.197 87.294C428.534 87.294 428.007 87.5087 427.615 87.938C427.223 88.358 427.027 88.9693 427.027 89.772V94H425.767V89.66C425.767 88.8947 425.575 88.3113 425.193 87.91C424.819 87.4993 424.311 87.294 423.667 87.294C423.004 87.294 422.477 87.5087 422.085 87.938C421.693 88.358 421.497 88.9693 421.497 89.772V94H420.223V86.328H421.497V87.434C421.749 87.0327 422.085 86.7247 422.505 86.51C422.934 86.2953 423.405 86.188 423.919 86.188C424.563 86.188 425.132 86.3327 425.627 86.622C426.121 86.9113 426.49 87.336 426.733 87.896C426.947 87.3547 427.302 86.9347 427.797 86.636C428.291 86.3373 428.842 86.188 429.449 86.188ZM441.646 89.87C441.646 90.1127 441.632 90.3693 441.604 90.64H435.472C435.519 91.396 435.776 91.9887 436.242 92.418C436.718 92.838 437.292 93.048 437.964 93.048C438.515 93.048 438.972 92.922 439.336 92.67C439.71 92.4087 439.971 92.0633 440.12 91.634H441.492C441.287 92.3713 440.876 92.9733 440.26 93.44C439.644 93.8973 438.879 94.126 437.964 94.126C437.236 94.126 436.583 93.9627 436.004 93.636C435.435 93.3093 434.987 92.8473 434.66 92.25C434.334 91.6433 434.17 90.9433 434.17 90.15C434.17 89.3567 434.329 88.6613 434.646 88.064C434.964 87.4667 435.407 87.0093 435.976 86.692C436.555 86.3653 437.218 86.202 437.964 86.202C438.692 86.202 439.336 86.3607 439.896 86.678C440.456 86.9953 440.886 87.434 441.184 87.994C441.492 88.5447 441.646 89.17 441.646 89.87ZM440.33 89.604C440.33 89.1187 440.223 88.7033 440.008 88.358C439.794 88.0033 439.5 87.7373 439.126 87.56C438.762 87.3733 438.356 87.28 437.908 87.28C437.264 87.28 436.714 87.4853 436.256 87.896C435.808 88.3067 435.552 88.876 435.486 89.604H440.33ZM447.066 86.188C447.999 86.188 448.755 86.4727 449.334 87.042C449.913 87.602 450.202 88.414 450.202 89.478V94H448.942V89.66C448.942 88.8947 448.751 88.3113 448.368 87.91C447.985 87.4993 447.463 87.294 446.8 87.294C446.128 87.294 445.591 87.504 445.19 87.924C444.798 88.344 444.602 88.9553 444.602 89.758V94H443.328V86.328H444.602V87.42C444.854 87.028 445.195 86.7247 445.624 86.51C446.063 86.2953 446.543 86.188 447.066 86.188ZM459.087 86.328V94H457.813V92.866C457.57 93.258 457.23 93.566 456.791 93.79C456.362 94.0047 455.886 94.112 455.363 94.112C454.766 94.112 454.229 93.9907 453.753 93.748C453.277 93.496 452.899 93.1227 452.619 92.628C452.348 92.1333 452.213 91.5313 452.213 90.822V86.328H453.473V90.654C453.473 91.41 453.664 91.9933 454.047 92.404C454.43 92.8053 454.952 93.006 455.615 93.006C456.296 93.006 456.833 92.796 457.225 92.376C457.617 91.956 457.813 91.3447 457.813 90.542V86.328H459.087Z" fill="black"/>
<path d="M380.964 123.974C381.319 124.03 381.641 124.175 381.93 124.408C382.229 124.641 382.462 124.931 382.63 125.276C382.807 125.621 382.896 125.99 382.896 126.382C382.896 126.877 382.77 127.325 382.518 127.726C382.266 128.118 381.897 128.431 381.412 128.664C380.936 128.888 380.371 129 379.718 129H376.078V119.242H379.578C380.241 119.242 380.805 119.354 381.272 119.578C381.739 119.793 382.089 120.087 382.322 120.46C382.555 120.833 382.672 121.253 382.672 121.72C382.672 122.299 382.513 122.779 382.196 123.162C381.888 123.535 381.477 123.806 380.964 123.974ZM377.352 123.456H379.494C380.091 123.456 380.553 123.316 380.88 123.036C381.207 122.756 381.37 122.369 381.37 121.874C381.37 121.379 381.207 120.992 380.88 120.712C380.553 120.432 380.082 120.292 379.466 120.292H377.352V123.456ZM379.606 127.95C380.241 127.95 380.735 127.801 381.09 127.502C381.445 127.203 381.622 126.788 381.622 126.256C381.622 125.715 381.435 125.29 381.062 124.982C380.689 124.665 380.189 124.506 379.564 124.506H377.352V127.95H379.606ZM391.664 124.87C391.664 125.113 391.65 125.369 391.622 125.64H385.49C385.537 126.396 385.793 126.989 386.26 127.418C386.736 127.838 387.31 128.048 387.982 128.048C388.533 128.048 388.99 127.922 389.354 127.67C389.727 127.409 389.989 127.063 390.138 126.634H391.51C391.305 127.371 390.894 127.973 390.278 128.44C389.662 128.897 388.897 129.126 387.982 129.126C387.254 129.126 386.601 128.963 386.022 128.636C385.453 128.309 385.005 127.847 384.678 127.25C384.351 126.643 384.188 125.943 384.188 125.15C384.188 124.357 384.347 123.661 384.664 123.064C384.981 122.467 385.425 122.009 385.994 121.692C386.573 121.365 387.235 121.202 387.982 121.202C388.71 121.202 389.354 121.361 389.914 121.678C390.474 121.995 390.903 122.434 391.202 122.994C391.51 123.545 391.664 124.17 391.664 124.87ZM390.348 124.604C390.348 124.119 390.241 123.703 390.026 123.358C389.811 123.003 389.517 122.737 389.144 122.56C388.78 122.373 388.374 122.28 387.926 122.28C387.282 122.28 386.731 122.485 386.274 122.896C385.826 123.307 385.569 123.876 385.504 124.604H390.348ZM394.62 122.756C394.881 122.299 395.264 121.925 395.768 121.636C396.272 121.347 396.846 121.202 397.49 121.202C398.18 121.202 398.801 121.365 399.352 121.692C399.902 122.019 400.336 122.481 400.654 123.078C400.971 123.666 401.13 124.352 401.13 125.136C401.13 125.911 400.971 126.601 400.654 127.208C400.336 127.815 399.898 128.286 399.338 128.622C398.787 128.958 398.171 129.126 397.49 129.126C396.827 129.126 396.244 128.981 395.74 128.692C395.245 128.403 394.872 128.034 394.62 127.586V129H393.346V118.64H394.62V122.756ZM399.828 125.136C399.828 124.557 399.711 124.053 399.478 123.624C399.244 123.195 398.927 122.868 398.526 122.644C398.134 122.42 397.7 122.308 397.224 122.308C396.757 122.308 396.323 122.425 395.922 122.658C395.53 122.882 395.212 123.213 394.97 123.652C394.736 124.081 394.62 124.581 394.62 125.15C394.62 125.729 394.736 126.237 394.97 126.676C395.212 127.105 395.53 127.437 395.922 127.67C396.323 127.894 396.757 128.006 397.224 128.006C397.7 128.006 398.134 127.894 398.526 127.67C398.927 127.437 399.244 127.105 399.478 126.676C399.711 126.237 399.828 125.724 399.828 125.136ZM403.465 120.082C403.222 120.082 403.017 119.998 402.849 119.83C402.681 119.662 402.597 119.457 402.597 119.214C402.597 118.971 402.681 118.766 402.849 118.598C403.017 118.43 403.222 118.346 403.465 118.346C403.698 118.346 403.894 118.43 404.053 118.598C404.221 118.766 404.305 118.971 404.305 119.214C404.305 119.457 404.221 119.662 404.053 119.83C403.894 119.998 403.698 120.082 403.465 120.082ZM404.081 121.328V129H402.807V121.328H404.081ZM405.776 125.136C405.776 124.352 405.934 123.666 406.252 123.078C406.569 122.481 407.003 122.019 407.554 121.692C408.114 121.365 408.739 121.202 409.43 121.202C410.027 121.202 410.582 121.342 411.096 121.622C411.609 121.893 412.001 122.252 412.272 122.7V118.64H413.56V129H412.272V127.558C412.02 128.015 411.646 128.393 411.152 128.692C410.657 128.981 410.078 129.126 409.416 129.126C408.734 129.126 408.114 128.958 407.554 128.622C407.003 128.286 406.569 127.815 406.252 127.208C405.934 126.601 405.776 125.911 405.776 125.136ZM412.272 125.15C412.272 124.571 412.155 124.067 411.922 123.638C411.688 123.209 411.371 122.882 410.97 122.658C410.578 122.425 410.144 122.308 409.668 122.308C409.192 122.308 408.758 122.42 408.366 122.644C407.974 122.868 407.661 123.195 407.428 123.624C407.194 124.053 407.078 124.557 407.078 125.136C407.078 125.724 407.194 126.237 407.428 126.676C407.661 127.105 407.974 127.437 408.366 127.67C408.758 127.894 409.192 128.006 409.668 128.006C410.144 128.006 410.578 127.894 410.97 127.67C411.371 127.437 411.688 127.105 411.922 126.676C412.155 126.237 412.272 125.729 412.272 125.15ZM415.237 125.136C415.237 124.352 415.395 123.666 415.713 123.078C416.03 122.481 416.464 122.019 417.015 121.692C417.575 121.365 418.195 121.202 418.877 121.202C419.549 121.202 420.132 121.347 420.627 121.636C421.121 121.925 421.49 122.289 421.733 122.728V121.328H423.021V129H421.733V127.572C421.481 128.02 421.103 128.393 420.599 128.692C420.104 128.981 419.525 129.126 418.863 129.126C418.181 129.126 417.565 128.958 417.015 128.622C416.464 128.286 416.03 127.815 415.713 127.208C415.395 126.601 415.237 125.911 415.237 125.136ZM421.733 125.15C421.733 124.571 421.616 124.067 421.383 123.638C421.149 123.209 420.832 122.882 420.431 122.658C420.039 122.425 419.605 122.308 419.129 122.308C418.653 122.308 418.219 122.42 417.827 122.644C417.435 122.868 417.122 123.195 416.889 123.624C416.655 124.053 416.539 124.557 416.539 125.136C416.539 125.724 416.655 126.237 416.889 126.676C417.122 127.105 417.435 127.437 417.827 127.67C418.219 127.894 418.653 128.006 419.129 128.006C419.605 128.006 420.039 127.894 420.431 127.67C420.832 127.437 421.149 127.105 421.383 126.676C421.616 126.237 421.733 125.729 421.733 125.15ZM427.89 129.126C427.302 129.126 426.774 129.028 426.308 128.832C425.841 128.627 425.472 128.347 425.202 127.992C424.931 127.628 424.782 127.213 424.754 126.746H426.07C426.107 127.129 426.284 127.441 426.602 127.684C426.928 127.927 427.353 128.048 427.876 128.048C428.361 128.048 428.744 127.941 429.024 127.726C429.304 127.511 429.444 127.241 429.444 126.914C429.444 126.578 429.294 126.331 428.996 126.172C428.697 126.004 428.235 125.841 427.61 125.682C427.04 125.533 426.574 125.383 426.21 125.234C425.855 125.075 425.547 124.847 425.286 124.548C425.034 124.24 424.908 123.839 424.908 123.344C424.908 122.952 425.024 122.593 425.258 122.266C425.491 121.939 425.822 121.683 426.252 121.496C426.681 121.3 427.171 121.202 427.722 121.202C428.571 121.202 429.257 121.417 429.78 121.846C430.302 122.275 430.582 122.863 430.62 123.61H429.346C429.318 123.209 429.154 122.887 428.856 122.644C428.566 122.401 428.174 122.28 427.68 122.28C427.222 122.28 426.858 122.378 426.588 122.574C426.317 122.77 426.182 123.027 426.182 123.344C426.182 123.596 426.261 123.806 426.42 123.974C426.588 124.133 426.793 124.263 427.036 124.366C427.288 124.459 427.633 124.567 428.072 124.688C428.622 124.837 429.07 124.987 429.416 125.136C429.761 125.276 430.055 125.491 430.298 125.78C430.55 126.069 430.68 126.447 430.69 126.914C430.69 127.334 430.573 127.712 430.34 128.048C430.106 128.384 429.775 128.65 429.346 128.846C428.926 129.033 428.44 129.126 427.89 129.126Z" fill="black"/>
<path d="M379.964 158.974C380.319 159.03 380.641 159.175 380.93 159.408C381.229 159.641 381.462 159.931 381.63 160.276C381.807 160.621 381.896 160.99 381.896 161.382C381.896 161.877 381.77 162.325 381.518 162.726C381.266 163.118 380.897 163.431 380.412 163.664C379.936 163.888 379.371 164 378.718 164H375.078V154.242H378.578C379.241 154.242 379.805 154.354 380.272 154.578C380.739 154.793 381.089 155.087 381.322 155.46C381.555 155.833 381.672 156.253 381.672 156.72C381.672 157.299 381.513 157.779 381.196 158.162C380.888 158.535 380.477 158.806 379.964 158.974ZM376.352 158.456H378.494C379.091 158.456 379.553 158.316 379.88 158.036C380.207 157.756 380.37 157.369 380.37 156.874C380.37 156.379 380.207 155.992 379.88 155.712C379.553 155.432 379.082 155.292 378.466 155.292H376.352V158.456ZM378.606 162.95C379.241 162.95 379.735 162.801 380.09 162.502C380.445 162.203 380.622 161.788 380.622 161.256C380.622 160.715 380.435 160.29 380.062 159.982C379.689 159.665 379.189 159.506 378.564 159.506H376.352V162.95H378.606ZM384.322 155.082C384.079 155.082 383.874 154.998 383.706 154.83C383.538 154.662 383.454 154.457 383.454 154.214C383.454 153.971 383.538 153.766 383.706 153.598C383.874 153.43 384.079 153.346 384.322 153.346C384.555 153.346 384.751 153.43 384.91 153.598C385.078 153.766 385.162 153.971 385.162 154.214C385.162 154.457 385.078 154.662 384.91 154.83C384.751 154.998 384.555 155.082 384.322 155.082ZM384.938 156.328V164H383.664V156.328H384.938ZM388.383 153.64V164H387.109V153.64H388.383ZM391.829 153.64V164H390.555V153.64H391.829ZM393.524 160.136C393.524 159.352 393.683 158.666 394 158.078C394.317 157.481 394.751 157.019 395.302 156.692C395.862 156.365 396.483 156.202 397.164 156.202C397.836 156.202 398.419 156.347 398.914 156.636C399.409 156.925 399.777 157.289 400.02 157.728V156.328H401.308V164H400.02V162.572C399.768 163.02 399.39 163.393 398.886 163.692C398.391 163.981 397.813 164.126 397.15 164.126C396.469 164.126 395.853 163.958 395.302 163.622C394.751 163.286 394.317 162.815 394 162.208C393.683 161.601 393.524 160.911 393.524 160.136ZM400.02 160.15C400.02 159.571 399.903 159.067 399.67 158.638C399.437 158.209 399.119 157.882 398.718 157.658C398.326 157.425 397.892 157.308 397.416 157.308C396.94 157.308 396.506 157.42 396.114 157.644C395.722 157.868 395.409 158.195 395.176 158.624C394.943 159.053 394.826 159.557 394.826 160.136C394.826 160.724 394.943 161.237 395.176 161.676C395.409 162.105 395.722 162.437 396.114 162.67C396.506 162.894 396.94 163.006 397.416 163.006C397.892 163.006 398.326 162.894 398.718 162.67C399.119 162.437 399.437 162.105 399.67 161.676C399.903 161.237 400.02 160.729 400.02 160.15ZM404.735 157.756C404.996 157.299 405.379 156.925 405.883 156.636C406.387 156.347 406.961 156.202 407.605 156.202C408.295 156.202 408.916 156.365 409.467 156.692C410.017 157.019 410.451 157.481 410.769 158.078C411.086 158.666 411.245 159.352 411.245 160.136C411.245 160.911 411.086 161.601 410.769 162.208C410.451 162.815 410.013 163.286 409.453 163.622C408.902 163.958 408.286 164.126 407.605 164.126C406.942 164.126 406.359 163.981 405.855 163.692C405.36 163.403 404.987 163.034 404.735 162.586V164H403.461V153.64H404.735V157.756ZM409.943 160.136C409.943 159.557 409.826 159.053 409.593 158.624C409.359 158.195 409.042 157.868 408.641 157.644C408.249 157.42 407.815 157.308 407.339 157.308C406.872 157.308 406.438 157.425 406.037 157.658C405.645 157.882 405.327 158.213 405.085 158.652C404.851 159.081 404.735 159.581 404.735 160.15C404.735 160.729 404.851 161.237 405.085 161.676C405.327 162.105 405.645 162.437 406.037 162.67C406.438 162.894 406.872 163.006 407.339 163.006C407.815 163.006 408.249 162.894 408.641 162.67C409.042 162.437 409.359 162.105 409.593 161.676C409.826 161.237 409.943 160.724 409.943 160.136ZM416.268 164.126C415.549 164.126 414.896 163.963 414.308 163.636C413.729 163.309 413.272 162.847 412.936 162.25C412.609 161.643 412.446 160.943 412.446 160.15C412.446 159.366 412.614 158.675 412.95 158.078C413.295 157.471 413.762 157.009 414.35 156.692C414.938 156.365 415.596 156.202 416.324 156.202C417.052 156.202 417.71 156.365 418.298 156.692C418.886 157.009 419.348 157.467 419.684 158.064C420.029 158.661 420.202 159.357 420.202 160.15C420.202 160.943 420.024 161.643 419.67 162.25C419.324 162.847 418.853 163.309 418.256 163.636C417.658 163.963 416.996 164.126 416.268 164.126ZM416.268 163.006C416.725 163.006 417.154 162.899 417.556 162.684C417.957 162.469 418.279 162.147 418.522 161.718C418.774 161.289 418.9 160.766 418.9 160.15C418.9 159.534 418.778 159.011 418.536 158.582C418.293 158.153 417.976 157.835 417.584 157.63C417.192 157.415 416.767 157.308 416.31 157.308C415.843 157.308 415.414 157.415 415.022 157.63C414.639 157.835 414.331 158.153 414.098 158.582C413.864 159.011 413.748 159.534 413.748 160.15C413.748 160.775 413.86 161.303 414.084 161.732C414.317 162.161 414.625 162.483 415.008 162.698C415.39 162.903 415.81 163.006 416.268 163.006ZM425.615 156.188C426.548 156.188 427.304 156.473 427.883 157.042C428.461 157.602 428.751 158.414 428.751 159.478V164H427.491V159.66C427.491 158.895 427.299 158.311 426.917 157.91C426.534 157.499 426.011 157.294 425.349 157.294C424.677 157.294 424.14 157.504 423.739 157.924C423.347 158.344 423.151 158.955 423.151 159.758V164H421.877V156.328H423.151V157.42C423.403 157.028 423.743 156.725 424.173 156.51C424.611 156.295 425.092 156.188 425.615 156.188ZM433.996 156.202C434.659 156.202 435.237 156.347 435.732 156.636C436.236 156.925 436.609 157.289 436.852 157.728V156.328H438.14V164.168C438.14 164.868 437.991 165.489 437.692 166.03C437.393 166.581 436.964 167.01 436.404 167.318C435.853 167.626 435.209 167.78 434.472 167.78C433.464 167.78 432.624 167.542 431.952 167.066C431.28 166.59 430.883 165.941 430.762 165.12H432.022C432.162 165.587 432.451 165.96 432.89 166.24C433.329 166.529 433.856 166.674 434.472 166.674C435.172 166.674 435.741 166.455 436.18 166.016C436.628 165.577 436.852 164.961 436.852 164.168V162.558C436.6 163.006 436.227 163.379 435.732 163.678C435.237 163.977 434.659 164.126 433.996 164.126C433.315 164.126 432.694 163.958 432.134 163.622C431.583 163.286 431.149 162.815 430.832 162.208C430.515 161.601 430.356 160.911 430.356 160.136C430.356 159.352 430.515 158.666 430.832 158.078C431.149 157.481 431.583 157.019 432.134 156.692C432.694 156.365 433.315 156.202 433.996 156.202ZM436.852 160.15C436.852 159.571 436.735 159.067 436.502 158.638C436.269 158.209 435.951 157.882 435.55 157.658C435.158 157.425 434.724 157.308 434.248 157.308C433.772 157.308 433.338 157.42 432.946 157.644C432.554 157.868 432.241 158.195 432.008 158.624C431.775 159.053 431.658 159.557 431.658 160.136C431.658 160.724 431.775 161.237 432.008 161.676C432.241 162.105 432.554 162.437 432.946 162.67C433.338 162.894 433.772 163.006 434.248 163.006C434.724 163.006 435.158 162.894 435.55 162.67C435.951 162.437 436.269 162.105 436.502 161.676C436.735 161.237 436.852 160.729 436.852 160.15ZM447.833 156.188C448.412 156.188 448.935 156.314 449.401 156.566C449.868 156.809 450.232 157.177 450.493 157.672C450.764 158.167 450.899 158.769 450.899 159.478V164H449.639V159.66C449.639 158.895 449.448 158.311 449.065 157.91C448.683 157.499 448.16 157.294 447.497 157.294C446.825 157.294 446.289 157.504 445.887 157.924C445.495 158.344 445.299 158.955 445.299 159.758V164H444.025V153.64H445.299V157.42C445.551 157.028 445.897 156.725 446.335 156.51C446.783 156.295 447.283 156.188 447.833 156.188ZM456.326 164.126C455.608 164.126 454.954 163.963 454.366 163.636C453.788 163.309 453.33 162.847 452.994 162.25C452.668 161.643 452.504 160.943 452.504 160.15C452.504 159.366 452.672 158.675 453.008 158.078C453.354 157.471 453.82 157.009 454.408 156.692C454.996 156.365 455.654 156.202 456.382 156.202C457.11 156.202 457.768 156.365 458.356 156.692C458.944 157.009 459.406 157.467 459.742 158.064C460.088 158.661 460.26 159.357 460.26 160.15C460.26 160.943 460.083 161.643 459.728 162.25C459.383 162.847 458.912 163.309 458.314 163.636C457.717 163.963 457.054 164.126 456.326 164.126ZM456.326 163.006C456.784 163.006 457.213 162.899 457.614 162.684C458.016 162.469 458.338 162.147 458.58 161.718C458.832 161.289 458.958 160.766 458.958 160.15C458.958 159.534 458.837 159.011 458.594 158.582C458.352 158.153 458.034 157.835 457.642 157.63C457.25 157.415 456.826 157.308 456.368 157.308C455.902 157.308 455.472 157.415 455.08 157.63C454.698 157.835 454.39 158.153 454.156 158.582C453.923 159.011 453.806 159.534 453.806 160.15C453.806 160.775 453.918 161.303 454.142 161.732C454.376 162.161 454.684 162.483 455.066 162.698C455.449 162.903 455.869 163.006 456.326 163.006ZM468.739 156.328V164H467.465V162.866C467.223 163.258 466.882 163.566 466.443 163.79C466.014 164.005 465.538 164.112 465.015 164.112C464.418 164.112 463.881 163.991 463.405 163.748C462.929 163.496 462.551 163.123 462.271 162.628C462.001 162.133 461.865 161.531 461.865 160.822V156.328H463.125V160.654C463.125 161.41 463.317 161.993 463.699 162.404C464.082 162.805 464.605 163.006 465.267 163.006C465.949 163.006 466.485 162.796 466.877 162.376C467.269 161.956 467.465 161.345 467.465 160.542V156.328H468.739ZM472.165 157.574C472.389 157.135 472.706 156.795 473.117 156.552C473.537 156.309 474.045 156.188 474.643 156.188V157.504H474.307C472.879 157.504 472.165 158.279 472.165 159.828V164H470.891V156.328H472.165V157.574Z" fill="black"/>
<path d="M378.172 200.098C377.528 200.098 376.949 199.986 376.436 199.762C375.932 199.529 375.535 199.211 375.246 198.81C374.957 198.399 374.807 197.928 374.798 197.396H376.156C376.203 197.853 376.389 198.241 376.716 198.558C377.052 198.866 377.537 199.02 378.172 199.02C378.779 199.02 379.255 198.871 379.6 198.572C379.955 198.264 380.132 197.872 380.132 197.396C380.132 197.023 380.029 196.719 379.824 196.486C379.619 196.253 379.362 196.075 379.054 195.954C378.746 195.833 378.331 195.702 377.808 195.562C377.164 195.394 376.646 195.226 376.254 195.058C375.871 194.89 375.54 194.629 375.26 194.274C374.989 193.91 374.854 193.425 374.854 192.818C374.854 192.286 374.989 191.815 375.26 191.404C375.531 190.993 375.909 190.676 376.394 190.452C376.889 190.228 377.453 190.116 378.088 190.116C379.003 190.116 379.749 190.345 380.328 190.802C380.916 191.259 381.247 191.866 381.322 192.622H379.922C379.875 192.249 379.679 191.922 379.334 191.642C378.989 191.353 378.531 191.208 377.962 191.208C377.43 191.208 376.996 191.348 376.66 191.628C376.324 191.899 376.156 192.281 376.156 192.776C376.156 193.131 376.254 193.42 376.45 193.644C376.655 193.868 376.903 194.041 377.192 194.162C377.491 194.274 377.906 194.405 378.438 194.554C379.082 194.731 379.6 194.909 379.992 195.086C380.384 195.254 380.72 195.52 381 195.884C381.28 196.239 381.42 196.724 381.42 197.34C381.42 197.816 381.294 198.264 381.042 198.684C380.79 199.104 380.417 199.445 379.922 199.706C379.427 199.967 378.844 200.098 378.172 200.098ZM386.641 200.126C385.922 200.126 385.269 199.963 384.681 199.636C384.102 199.309 383.645 198.847 383.309 198.25C382.982 197.643 382.819 196.943 382.819 196.15C382.819 195.366 382.987 194.675 383.323 194.078C383.668 193.471 384.135 193.009 384.723 192.692C385.311 192.365 385.969 192.202 386.697 192.202C387.425 192.202 388.083 192.365 388.671 192.692C389.259 193.009 389.721 193.467 390.057 194.064C390.402 194.661 390.575 195.357 390.575 196.15C390.575 196.943 390.397 197.643 390.043 198.25C389.697 198.847 389.226 199.309 388.629 199.636C388.031 199.963 387.369 200.126 386.641 200.126ZM386.641 199.006C387.098 199.006 387.527 198.899 387.929 198.684C388.33 198.469 388.652 198.147 388.895 197.718C389.147 197.289 389.273 196.766 389.273 196.15C389.273 195.534 389.151 195.011 388.909 194.582C388.666 194.153 388.349 193.835 387.957 193.63C387.565 193.415 387.14 193.308 386.683 193.308C386.216 193.308 385.787 193.415 385.395 193.63C385.012 193.835 384.704 194.153 384.471 194.582C384.237 195.011 384.121 195.534 384.121 196.15C384.121 196.775 384.233 197.303 384.457 197.732C384.69 198.161 384.998 198.483 385.381 198.698C385.763 198.903 386.183 199.006 386.641 199.006ZM393.524 193.756C393.785 193.299 394.168 192.925 394.672 192.636C395.176 192.347 395.75 192.202 396.394 192.202C397.085 192.202 397.705 192.365 398.256 192.692C398.807 193.019 399.241 193.481 399.558 194.078C399.875 194.666 400.034 195.352 400.034 196.136C400.034 196.911 399.875 197.601 399.558 198.208C399.241 198.815 398.802 199.286 398.242 199.622C397.691 199.958 397.075 200.126 396.394 200.126C395.731 200.126 395.148 199.981 394.644 199.692C394.149 199.403 393.776 199.034 393.524 198.586V200H392.25V189.64H393.524V193.756ZM398.732 196.136C398.732 195.557 398.615 195.053 398.382 194.624C398.149 194.195 397.831 193.868 397.43 193.644C397.038 193.42 396.604 193.308 396.128 193.308C395.661 193.308 395.227 193.425 394.826 193.658C394.434 193.882 394.117 194.213 393.874 194.652C393.641 195.081 393.524 195.581 393.524 196.15C393.524 196.729 393.641 197.237 393.874 197.676C394.117 198.105 394.434 198.437 394.826 198.67C395.227 198.894 395.661 199.006 396.128 199.006C396.604 199.006 397.038 198.894 397.43 198.67C397.831 198.437 398.149 198.105 398.382 197.676C398.615 197.237 398.732 196.724 398.732 196.136ZM402.985 193.574C403.209 193.135 403.526 192.795 403.937 192.552C404.357 192.309 404.865 192.188 405.463 192.188V193.504H405.127C403.699 193.504 402.985 194.279 402.985 195.828V200H401.711V192.328H402.985V193.574ZM413.933 195.87C413.933 196.113 413.919 196.369 413.891 196.64H407.759C407.806 197.396 408.063 197.989 408.529 198.418C409.005 198.838 409.579 199.048 410.251 199.048C410.802 199.048 411.259 198.922 411.623 198.67C411.997 198.409 412.258 198.063 412.407 197.634H413.779C413.574 198.371 413.163 198.973 412.547 199.44C411.931 199.897 411.166 200.126 410.251 200.126C409.523 200.126 408.87 199.963 408.291 199.636C407.722 199.309 407.274 198.847 406.947 198.25C406.621 197.643 406.457 196.943 406.457 196.15C406.457 195.357 406.616 194.661 406.933 194.064C407.251 193.467 407.694 193.009 408.263 192.692C408.842 192.365 409.505 192.202 410.251 192.202C410.979 192.202 411.623 192.361 412.183 192.678C412.743 192.995 413.173 193.434 413.471 193.994C413.779 194.545 413.933 195.17 413.933 195.87ZM412.617 195.604C412.617 195.119 412.51 194.703 412.295 194.358C412.081 194.003 411.787 193.737 411.413 193.56C411.049 193.373 410.643 193.28 410.195 193.28C409.551 193.28 409.001 193.485 408.543 193.896C408.095 194.307 407.839 194.876 407.773 195.604H412.617ZM424.841 192.188C425.438 192.188 425.97 192.314 426.437 192.566C426.904 192.809 427.272 193.177 427.543 193.672C427.814 194.167 427.949 194.769 427.949 195.478V200H426.689V195.66C426.689 194.895 426.498 194.311 426.115 193.91C425.742 193.499 425.233 193.294 424.589 193.294C423.926 193.294 423.399 193.509 423.007 193.938C422.615 194.358 422.419 194.969 422.419 195.772V200H421.159V195.66C421.159 194.895 420.968 194.311 420.585 193.91C420.212 193.499 419.703 193.294 419.059 193.294C418.396 193.294 417.869 193.509 417.477 193.938C417.085 194.358 416.889 194.969 416.889 195.772V200H415.615V192.328H416.889V193.434C417.141 193.033 417.477 192.725 417.897 192.51C418.326 192.295 418.798 192.188 419.311 192.188C419.955 192.188 420.524 192.333 421.019 192.622C421.514 192.911 421.882 193.336 422.125 193.896C422.34 193.355 422.694 192.935 423.189 192.636C423.684 192.337 424.234 192.188 424.841 192.188ZM437.039 195.87C437.039 196.113 437.025 196.369 436.997 196.64H430.865C430.912 197.396 431.168 197.989 431.635 198.418C432.111 198.838 432.685 199.048 433.357 199.048C433.908 199.048 434.365 198.922 434.729 198.67C435.102 198.409 435.364 198.063 435.513 197.634H436.885C436.68 198.371 436.269 198.973 435.653 199.44C435.037 199.897 434.272 200.126 433.357 200.126C432.629 200.126 431.976 199.963 431.397 199.636C430.828 199.309 430.38 198.847 430.053 198.25C429.726 197.643 429.563 196.943 429.563 196.15C429.563 195.357 429.722 194.661 430.039 194.064C430.356 193.467 430.8 193.009 431.369 192.692C431.948 192.365 432.61 192.202 433.357 192.202C434.085 192.202 434.729 192.361 435.289 192.678C435.849 192.995 436.278 193.434 436.577 193.994C436.885 194.545 437.039 195.17 437.039 195.87ZM435.723 195.604C435.723 195.119 435.616 194.703 435.401 194.358C435.186 194.003 434.892 193.737 434.519 193.56C434.155 193.373 433.749 193.28 433.301 193.28C432.657 193.28 432.106 193.485 431.649 193.896C431.201 194.307 430.944 194.876 430.879 195.604H435.723ZM441.437 200.126C440.849 200.126 440.321 200.028 439.855 199.832C439.388 199.627 439.019 199.347 438.749 198.992C438.478 198.628 438.329 198.213 438.301 197.746H439.617C439.654 198.129 439.831 198.441 440.149 198.684C440.475 198.927 440.9 199.048 441.423 199.048C441.908 199.048 442.291 198.941 442.571 198.726C442.851 198.511 442.991 198.241 442.991 197.914C442.991 197.578 442.841 197.331 442.543 197.172C442.244 197.004 441.782 196.841 441.157 196.682C440.587 196.533 440.121 196.383 439.757 196.234C439.402 196.075 439.094 195.847 438.833 195.548C438.581 195.24 438.455 194.839 438.455 194.344C438.455 193.952 438.571 193.593 438.805 193.266C439.038 192.939 439.369 192.683 439.799 192.496C440.228 192.3 440.718 192.202 441.269 192.202C442.118 192.202 442.804 192.417 443.327 192.846C443.849 193.275 444.129 193.863 444.167 194.61H442.893C442.865 194.209 442.701 193.887 442.403 193.644C442.113 193.401 441.721 193.28 441.227 193.28C440.769 193.28 440.405 193.378 440.135 193.574C439.864 193.77 439.729 194.027 439.729 194.344C439.729 194.596 439.808 194.806 439.967 194.974C440.135 195.133 440.34 195.263 440.583 195.366C440.835 195.459 441.18 195.567 441.619 195.688C442.169 195.837 442.617 195.987 442.963 196.136C443.308 196.276 443.602 196.491 443.845 196.78C444.097 197.069 444.227 197.447 444.237 197.914C444.237 198.334 444.12 198.712 443.887 199.048C443.653 199.384 443.322 199.65 442.893 199.846C442.473 200.033 441.987 200.126 441.437 200.126ZM445.559 196.136C445.559 195.352 445.718 194.666 446.035 194.078C446.352 193.481 446.786 193.019 447.337 192.692C447.897 192.365 448.518 192.202 449.199 192.202C449.871 192.202 450.454 192.347 450.949 192.636C451.444 192.925 451.812 193.289 452.055 193.728V192.328H453.343V200H452.055V198.572C451.803 199.02 451.425 199.393 450.921 199.692C450.426 199.981 449.848 200.126 449.185 200.126C448.504 200.126 447.888 199.958 447.337 199.622C446.786 199.286 446.352 198.815 446.035 198.208C445.718 197.601 445.559 196.911 445.559 196.136ZM452.055 196.15C452.055 195.571 451.938 195.067 451.705 194.638C451.472 194.209 451.154 193.882 450.753 193.658C450.361 193.425 449.927 193.308 449.451 193.308C448.975 193.308 448.541 193.42 448.149 193.644C447.757 193.868 447.444 194.195 447.211 194.624C446.978 195.053 446.861 195.557 446.861 196.136C446.861 196.724 446.978 197.237 447.211 197.676C447.444 198.105 447.757 198.437 448.149 198.67C448.541 198.894 448.975 199.006 449.451 199.006C449.927 199.006 450.361 198.894 450.753 198.67C451.154 198.437 451.472 198.105 451.705 197.676C451.938 197.237 452.055 196.729 452.055 196.15ZM458.212 200.126C457.624 200.126 457.097 200.028 456.63 199.832C456.163 199.627 455.795 199.347 455.524 198.992C455.253 198.628 455.104 198.213 455.076 197.746H456.392C456.429 198.129 456.607 198.441 456.924 198.684C457.251 198.927 457.675 199.048 458.198 199.048C458.683 199.048 459.066 198.941 459.346 198.726C459.626 198.511 459.766 198.241 459.766 197.914C459.766 197.578 459.617 197.331 459.318 197.172C459.019 197.004 458.557 196.841 457.932 196.682C457.363 196.533 456.896 196.383 456.532 196.234C456.177 196.075 455.869 195.847 455.608 195.548C455.356 195.24 455.23 194.839 455.23 194.344C455.23 193.952 455.347 193.593 455.58 193.266C455.813 192.939 456.145 192.683 456.574 192.496C457.003 192.3 457.493 192.202 458.044 192.202C458.893 192.202 459.579 192.417 460.102 192.846C460.625 193.275 460.905 193.863 460.942 194.61H459.668C459.64 194.209 459.477 193.887 459.178 193.644C458.889 193.401 458.497 193.28 458.002 193.28C457.545 193.28 457.181 193.378 456.91 193.574C456.639 193.77 456.504 194.027 456.504 194.344C456.504 194.596 456.583 194.806 456.742 194.974C456.91 195.133 457.115 195.263 457.358 195.366C457.61 195.459 457.955 195.567 458.394 195.688C458.945 195.837 459.393 195.987 459.738 196.136C460.083 196.276 460.377 196.491 460.62 196.78C460.872 197.069 461.003 197.447 461.012 197.914C461.012 198.334 460.895 198.712 460.662 199.048C460.429 199.384 460.097 199.65 459.668 199.846C459.248 200.033 458.763 200.126 458.212 200.126Z" fill="black"/>
</svg>
