<svg width="493" height="237" viewBox="0 0 493 237" fill="none" xmlns="http://www.w3.org/2000/svg">
<g clip-path="url(#clip0_231_955)">
<rect width="493" height="237" fill="white"/>
<path d="M49.7158 -7.1228V183.544" stroke="#E0E0E0"/>
<path d="M111.156 -7.1228V183.544" stroke="#E0E0E0"/>
<path d="M172.596 -7.1228V183.544" stroke="#E0E0E0"/>
<path d="M234.036 -7.1228V183.544" stroke="#E0E0E0"/>
<path d="M295.476 -7.1228V183.544" stroke="#E0E0E0"/>
<path d="M356.916 -7.1228V183.544" stroke="#E0E0E0"/>
<path d="M418.356 -7.1228V183.544" stroke="#E0E0E0"/>
<path d="M479.796 -7.1228V183.544" stroke="#E0E0E0"/>
<path d="M93.6015 20.3333H49.7158V183.544H93.6015V20.3333Z" fill="#FF001D"/>
<path d="M157.967 55.4159H114.082V183.544H157.967V55.4159Z" fill="#FF001D"/>
<path d="M222.333 -7.1228H178.447V183.544H222.333V-7.1228Z" fill="#FF001D"/>
<path d="M286.699 46.0732H242.813V183.544H286.699V46.0732Z" fill="#FF001D"/>
<path d="M351.064 81.3466H307.179V183.544H351.064V81.3466Z" fill="#FF001D"/>
<path d="M415.43 4.12653H371.544V183.544H415.43V4.12653Z" fill="#FF001D"/>
<path d="M479.796 61.8986H435.91V183.544H479.796V61.8986Z" fill="#FF001D"/>
<path d="M49.7158 183.544H479.796" stroke="black" stroke-width="2"/>
<path d="M49.7158 -7.1228V183.544" stroke="black" stroke-width="2"/>
<path d="M53.5605 209H51.3162V201.727H53.66C54.3655 201.727 54.9692 201.873 55.4711 202.164C55.973 202.453 56.3577 202.868 56.6252 203.411C56.8927 203.95 57.0265 204.597 57.0265 205.349C57.0265 206.107 56.8915 206.759 56.6216 207.306C56.3517 207.851 55.9587 208.27 55.4426 208.563C54.9266 208.854 54.2992 209 53.5605 209ZM52.1969 208.219H53.5037C54.1051 208.219 54.6034 208.103 54.9988 207.871C55.3941 207.639 55.6889 207.308 55.883 206.88C56.0771 206.451 56.1742 205.941 56.1742 205.349C56.1742 204.762 56.0783 204.257 55.8865 203.833C55.6948 203.407 55.4083 203.08 55.0272 202.853C54.646 202.623 54.1713 202.509 53.6032 202.509H52.1969V208.219ZM60.606 209.114C60.1136 209.114 59.6815 208.996 59.3098 208.762C58.9405 208.528 58.6517 208.2 58.4434 207.778C58.2374 207.357 58.1344 206.865 58.1344 206.301C58.1344 205.733 58.2374 205.237 58.4434 204.813C58.6517 204.389 58.9405 204.06 59.3098 203.826C59.6815 203.592 60.1136 203.474 60.606 203.474C61.0984 203.474 61.5293 203.592 61.8986 203.826C62.2703 204.06 62.5591 204.389 62.7651 204.813C62.9734 205.237 63.0776 205.733 63.0776 206.301C63.0776 206.865 62.9734 207.357 62.7651 207.778C62.5591 208.2 62.2703 208.528 61.8986 208.762C61.5293 208.996 61.0984 209.114 60.606 209.114ZM60.606 208.361C60.9801 208.361 61.2878 208.265 61.5293 208.073C61.7708 207.881 61.9495 207.629 62.0655 207.317C62.1815 207.004 62.2395 206.666 62.2395 206.301C62.2395 205.937 62.1815 205.597 62.0655 205.282C61.9495 204.967 61.7708 204.713 61.5293 204.518C61.2878 204.324 60.9801 204.227 60.606 204.227C60.2319 204.227 59.9242 204.324 59.6827 204.518C59.4412 204.713 59.2625 204.967 59.1465 205.282C59.0305 205.597 58.9725 205.937 58.9725 206.301C58.9725 206.666 59.0305 207.004 59.1465 207.317C59.2625 207.629 59.4412 207.881 59.6827 208.073C59.9242 208.265 60.2319 208.361 60.606 208.361ZM64.3569 209V203.545H65.1665V204.398H65.2376C65.3512 204.107 65.5347 203.88 65.788 203.719C66.0413 203.556 66.3455 203.474 66.7006 203.474C67.0605 203.474 67.36 203.556 67.5991 203.719C67.8406 203.88 68.0288 204.107 68.1637 204.398H68.2205C68.3602 204.116 68.5697 203.892 68.8491 203.727C69.1284 203.558 69.4634 203.474 69.854 203.474C70.3417 203.474 70.7406 203.627 71.0508 203.933C71.3609 204.236 71.516 204.708 71.516 205.349V209H70.6779V205.349C70.6779 204.947 70.5678 204.659 70.3477 204.487C70.1275 204.314 69.8683 204.227 69.57 204.227C69.1864 204.227 68.8893 204.343 68.6786 204.575C68.4679 204.805 68.3626 205.096 68.3626 205.449V209H67.5103V205.264C67.5103 204.954 67.4097 204.704 67.2085 204.515C67.0072 204.323 66.748 204.227 66.4308 204.227C66.2129 204.227 66.0094 204.285 65.82 204.401C65.6329 204.517 65.4814 204.678 65.3654 204.884C65.2518 205.088 65.195 205.323 65.195 205.591V209H64.3569ZM73.0483 209V203.545H73.8864V209H73.0483ZM73.4744 202.636C73.3111 202.636 73.1702 202.581 73.0518 202.469C72.9358 202.358 72.8778 202.224 72.8778 202.068C72.8778 201.912 72.9358 201.778 73.0518 201.667C73.1702 201.556 73.3111 201.5 73.4744 201.5C73.6378 201.5 73.7775 201.556 73.8935 201.667C74.0118 201.778 74.071 201.912 74.071 202.068C74.071 202.224 74.0118 202.358 73.8935 202.469C73.7775 202.581 73.6378 202.636 73.4744 202.636ZM76.2594 205.719V209H75.4213V203.545H76.231V204.398H76.302C76.4299 204.121 76.624 203.898 76.8844 203.73C77.1448 203.56 77.481 203.474 77.8929 203.474C78.2623 203.474 78.5854 203.55 78.8624 203.702C79.1394 203.851 79.3548 204.078 79.5087 204.384C79.6626 204.687 79.7395 205.07 79.7395 205.534V209H78.9015V205.591C78.9015 205.162 78.7902 204.829 78.5676 204.589C78.3451 204.348 78.0397 204.227 77.6515 204.227C77.3839 204.227 77.1448 204.285 76.9341 204.401C76.7258 204.517 76.5613 204.687 76.4405 204.909C76.3198 205.132 76.2594 205.402 76.2594 205.719ZM83.4727 211.159C83.0678 211.159 82.7198 211.107 82.4286 211.003C82.1374 210.901 81.8948 210.766 81.7006 210.598C81.5089 210.432 81.3562 210.255 81.2425 210.065L81.9102 209.597C81.9859 209.696 82.0818 209.81 82.1978 209.938C82.3138 210.068 82.4724 210.18 82.6737 210.275C82.8772 210.372 83.1436 210.42 83.4727 210.42C83.913 210.42 84.2764 210.314 84.5629 210.101C84.8493 209.888 84.9925 209.554 84.9925 209.099V207.991H84.9215C84.86 208.091 84.7724 208.214 84.6587 208.361C84.5475 208.505 84.3865 208.634 84.1758 208.748C83.9674 208.859 83.6857 208.915 83.3306 208.915C82.8903 208.915 82.4949 208.811 82.1445 208.602C81.7965 208.394 81.5207 208.091 81.3171 207.693C81.1159 207.295 81.0153 206.812 81.0153 206.244C81.0153 205.686 81.1135 205.199 81.31 204.785C81.5065 204.368 81.7799 204.046 82.1303 203.819C82.4807 203.589 82.8855 203.474 83.3448 203.474C83.6999 203.474 83.9817 203.534 84.19 203.652C84.4007 203.768 84.5617 203.901 84.6729 204.05C84.7866 204.196 84.8742 204.317 84.9357 204.412H85.021V203.545H85.8306V209.156C85.8306 209.625 85.7241 210.006 85.511 210.3C85.3003 210.596 85.0162 210.812 84.6587 210.95C84.3036 211.089 83.9083 211.159 83.4727 211.159ZM83.4442 208.162C83.7804 208.162 84.0645 208.085 84.2965 207.931C84.5285 207.777 84.7049 207.556 84.8256 207.267C84.9464 206.978 85.0067 206.633 85.0067 206.23C85.0067 205.837 84.9476 205.49 84.8292 205.19C84.7108 204.889 84.5356 204.653 84.3036 204.483C84.0716 204.312 83.7852 204.227 83.4442 204.227C83.0891 204.227 82.7932 204.317 82.5565 204.497C82.3221 204.677 82.1457 204.919 82.0273 205.222C81.9113 205.525 81.8533 205.861 81.8533 206.23C81.8533 206.609 81.9125 206.944 82.0309 207.235C82.1516 207.524 82.3292 207.751 82.5636 207.917C82.8003 208.08 83.0939 208.162 83.4442 208.162ZM89.5806 209.114C89.0882 209.114 88.6561 208.996 88.2844 208.762C87.9151 208.528 87.6263 208.2 87.418 207.778C87.212 207.357 87.109 206.865 87.109 206.301C87.109 205.733 87.212 205.237 87.418 204.813C87.6263 204.389 87.9151 204.06 88.2844 203.826C88.6561 203.592 89.0882 203.474 89.5806 203.474C90.073 203.474 90.5039 203.592 90.8732 203.826C91.2449 204.06 91.5337 204.389 91.7397 204.813C91.948 205.237 92.0522 205.733 92.0522 206.301C92.0522 206.865 91.948 207.357 91.7397 207.778C91.5337 208.2 91.2449 208.528 90.8732 208.762C90.5039 208.996 90.073 209.114 89.5806 209.114ZM89.5806 208.361C89.9547 208.361 90.2624 208.265 90.5039 208.073C90.7454 207.881 90.9241 207.629 91.0401 207.317C91.1561 207.004 91.2141 206.666 91.2141 206.301C91.2141 205.937 91.1561 205.597 91.0401 205.282C90.9241 204.967 90.7454 204.713 90.5039 204.518C90.2624 204.324 89.9547 204.227 89.5806 204.227C89.2066 204.227 88.8988 204.324 88.6573 204.518C88.4158 204.713 88.2371 204.967 88.1211 205.282C88.0051 205.597 87.9471 205.937 87.9471 206.301C87.9471 206.666 88.0051 207.004 88.1211 207.317C88.2371 207.629 88.4158 207.881 88.6573 208.073C88.8988 208.265 89.2066 208.361 89.5806 208.361Z" fill="black"/>
<path d="M118.96 203.545C118.917 203.186 118.744 202.906 118.441 202.707C118.138 202.509 117.766 202.409 117.326 202.409C117.004 202.409 116.722 202.461 116.481 202.565C116.242 202.67 116.055 202.813 115.92 202.995C115.787 203.177 115.721 203.384 115.721 203.616C115.721 203.811 115.767 203.978 115.859 204.117C115.954 204.254 116.075 204.369 116.222 204.462C116.368 204.552 116.522 204.626 116.683 204.685C116.844 204.742 116.992 204.788 117.127 204.824L117.866 205.023C118.055 205.072 118.266 205.141 118.498 205.229C118.732 205.316 118.956 205.436 119.169 205.587C119.384 205.737 119.562 205.928 119.702 206.163C119.841 206.397 119.911 206.685 119.911 207.026C119.911 207.419 119.808 207.774 119.602 208.091C119.399 208.408 119.1 208.66 118.707 208.847C118.317 209.034 117.842 209.128 117.283 209.128C116.763 209.128 116.312 209.044 115.93 208.876C115.552 208.708 115.253 208.473 115.036 208.173C114.82 207.872 114.698 207.523 114.67 207.125H115.579C115.603 207.4 115.695 207.627 115.856 207.807C116.019 207.984 116.225 208.117 116.474 208.205C116.725 208.29 116.995 208.332 117.283 208.332C117.62 208.332 117.921 208.278 118.189 208.169C118.456 208.058 118.668 207.904 118.825 207.707C118.981 207.509 119.059 207.277 119.059 207.011C119.059 206.77 118.991 206.573 118.857 206.422C118.722 206.27 118.544 206.147 118.324 206.053C118.104 205.958 117.866 205.875 117.61 205.804L116.715 205.548C116.147 205.385 115.697 205.152 115.366 204.849C115.034 204.546 114.869 204.149 114.869 203.659C114.869 203.252 114.979 202.897 115.199 202.594C115.421 202.288 115.72 202.052 116.094 201.884C116.47 201.713 116.89 201.628 117.354 201.628C117.823 201.628 118.24 201.712 118.604 201.88C118.969 202.046 119.258 202.273 119.471 202.562C119.686 202.851 119.8 203.179 119.812 203.545H118.96ZM123.532 209.114C123.007 209.114 122.554 208.998 122.172 208.766C121.794 208.531 121.501 208.205 121.295 207.786C121.092 207.364 120.99 206.874 120.99 206.315C120.99 205.757 121.092 205.264 121.295 204.838C121.501 204.41 121.788 204.076 122.155 203.837C122.524 203.595 122.955 203.474 123.447 203.474C123.731 203.474 124.012 203.522 124.289 203.616C124.566 203.711 124.818 203.865 125.045 204.078C125.273 204.289 125.454 204.568 125.589 204.916C125.724 205.264 125.791 205.693 125.791 206.202V206.557H121.586V205.832H124.939C124.939 205.525 124.877 205.25 124.754 205.009C124.633 204.767 124.461 204.576 124.236 204.437C124.013 204.297 123.75 204.227 123.447 204.227C123.113 204.227 122.825 204.31 122.581 204.476C122.339 204.639 122.153 204.852 122.023 205.115C121.893 205.378 121.828 205.66 121.828 205.96V206.443C121.828 206.855 121.899 207.204 122.041 207.491C122.185 207.775 122.385 207.991 122.641 208.141C122.897 208.287 123.194 208.361 123.532 208.361C123.753 208.361 123.952 208.33 124.129 208.268C124.309 208.205 124.464 208.11 124.594 207.984C124.724 207.857 124.825 207.698 124.896 207.509L125.706 207.736C125.621 208.01 125.477 208.252 125.276 208.46C125.075 208.666 124.826 208.827 124.53 208.943C124.234 209.057 123.902 209.114 123.532 209.114ZM129.268 211.159C128.863 211.159 128.515 211.107 128.224 211.003C127.932 210.901 127.69 210.766 127.496 210.598C127.304 210.432 127.151 210.255 127.037 210.065L127.705 209.597C127.781 209.696 127.877 209.81 127.993 209.938C128.109 210.068 128.267 210.18 128.469 210.275C128.672 210.372 128.939 210.42 129.268 210.42C129.708 210.42 130.071 210.314 130.358 210.101C130.644 209.888 130.787 209.554 130.787 209.099V207.991H130.716C130.655 208.091 130.567 208.214 130.454 208.361C130.342 208.505 130.181 208.634 129.971 208.748C129.762 208.859 129.481 208.915 129.126 208.915C128.685 208.915 128.29 208.811 127.939 208.602C127.591 208.394 127.316 208.091 127.112 207.693C126.911 207.295 126.81 206.812 126.81 206.244C126.81 205.686 126.908 205.199 127.105 204.785C127.301 204.368 127.575 204.046 127.925 203.819C128.276 203.589 128.68 203.474 129.14 203.474C129.495 203.474 129.777 203.534 129.985 203.652C130.196 203.768 130.357 203.901 130.468 204.05C130.581 204.196 130.669 204.317 130.731 204.412H130.816V203.545H131.626V209.156C131.626 209.625 131.519 210.006 131.306 210.3C131.095 210.596 130.811 210.812 130.454 210.95C130.099 211.089 129.703 211.159 129.268 211.159ZM129.239 208.162C129.575 208.162 129.859 208.085 130.091 207.931C130.323 207.777 130.5 207.556 130.621 207.267C130.741 206.978 130.802 206.633 130.802 206.23C130.802 205.837 130.742 205.49 130.624 205.19C130.506 204.889 130.331 204.653 130.099 204.483C129.867 204.312 129.58 204.227 129.239 204.227C128.884 204.227 128.588 204.317 128.351 204.497C128.117 204.677 127.941 204.919 127.822 205.222C127.706 205.525 127.648 205.861 127.648 206.23C127.648 206.609 127.707 206.944 127.826 207.235C127.947 207.524 128.124 207.751 128.358 207.917C128.595 208.08 128.889 208.162 129.239 208.162ZM136.597 206.77V203.545H137.435V209H136.597V208.077H136.54C136.412 208.354 136.214 208.589 135.944 208.783C135.674 208.975 135.333 209.071 134.921 209.071C134.58 209.071 134.277 208.996 134.012 208.847C133.747 208.696 133.538 208.469 133.387 208.165C133.235 207.86 133.16 207.475 133.16 207.011V203.545H133.998V206.955C133.998 207.352 134.109 207.67 134.331 207.906C134.556 208.143 134.843 208.261 135.191 208.261C135.399 208.261 135.611 208.208 135.827 208.102C136.044 207.995 136.227 207.832 136.373 207.612C136.523 207.391 136.597 207.111 136.597 206.77ZM139.808 205.719V209H138.97V203.545H139.78V204.398H139.851C139.979 204.121 140.173 203.898 140.433 203.73C140.694 203.56 141.03 203.474 141.442 203.474C141.811 203.474 142.134 203.55 142.411 203.702C142.688 203.851 142.904 204.078 143.058 204.384C143.211 204.687 143.288 205.07 143.288 205.534V209H142.45V205.591C142.45 205.162 142.339 204.829 142.116 204.589C141.894 204.348 141.589 204.227 141.2 204.227C140.933 204.227 140.694 204.285 140.483 204.401C140.275 204.517 140.11 204.687 139.989 204.909C139.869 205.132 139.808 205.402 139.808 205.719ZM146.879 209.114C146.425 209.114 146.024 208.999 145.676 208.769C145.328 208.537 145.055 208.21 144.859 207.789C144.662 207.365 144.564 206.865 144.564 206.287C144.564 205.714 144.662 205.217 144.859 204.795C145.055 204.374 145.329 204.049 145.679 203.819C146.03 203.589 146.434 203.474 146.894 203.474C147.249 203.474 147.529 203.534 147.735 203.652C147.944 203.768 148.102 203.901 148.211 204.05C148.322 204.196 148.409 204.317 148.47 204.412H148.541V201.727H149.379V209H148.57V208.162H148.47C148.409 208.261 148.321 208.387 148.208 208.538C148.094 208.687 147.932 208.821 147.721 208.94C147.51 209.056 147.23 209.114 146.879 209.114ZM146.993 208.361C147.329 208.361 147.613 208.273 147.845 208.098C148.077 207.92 148.254 207.675 148.374 207.363C148.495 207.048 148.556 206.685 148.556 206.273C148.556 205.866 148.496 205.509 148.378 205.204C148.26 204.896 148.084 204.657 147.852 204.487C147.62 204.314 147.334 204.227 146.993 204.227C146.638 204.227 146.342 204.318 146.105 204.501C145.871 204.681 145.695 204.926 145.576 205.236C145.46 205.544 145.402 205.889 145.402 206.273C145.402 206.661 145.461 207.014 145.58 207.331C145.7 207.646 145.878 207.897 146.112 208.084C146.349 208.268 146.643 208.361 146.993 208.361ZM152.636 209.128C152.29 209.128 151.977 209.063 151.695 208.933C151.413 208.8 151.189 208.609 151.024 208.361C150.858 208.11 150.775 207.807 150.775 207.452C150.775 207.139 150.837 206.886 150.96 206.692C151.083 206.495 151.247 206.341 151.453 206.23C151.659 206.119 151.887 206.036 152.135 205.982C152.386 205.925 152.638 205.88 152.892 205.847C153.223 205.804 153.492 205.772 153.698 205.751C153.906 205.727 154.057 205.688 154.152 205.634C154.249 205.579 154.298 205.484 154.298 205.349V205.321C154.298 204.971 154.202 204.698 154.01 204.504C153.821 204.31 153.533 204.213 153.147 204.213C152.747 204.213 152.433 204.301 152.206 204.476C151.979 204.651 151.819 204.838 151.727 205.037L150.931 204.753C151.073 204.421 151.263 204.163 151.499 203.979C151.739 203.792 151.999 203.661 152.281 203.588C152.565 203.512 152.844 203.474 153.119 203.474C153.294 203.474 153.495 203.496 153.722 203.538C153.952 203.579 154.173 203.663 154.387 203.79C154.602 203.918 154.781 204.111 154.923 204.369C155.065 204.627 155.136 204.973 155.136 205.406V209H154.298V208.261H154.255C154.198 208.38 154.104 208.506 153.971 208.641C153.838 208.776 153.662 208.891 153.442 208.986C153.222 209.08 152.953 209.128 152.636 209.128ZM152.764 208.375C153.095 208.375 153.374 208.31 153.602 208.18C153.831 208.049 154.004 207.881 154.12 207.675C154.239 207.469 154.298 207.253 154.298 207.026V206.259C154.262 206.301 154.184 206.34 154.063 206.376C153.945 206.409 153.808 206.438 153.651 206.464C153.498 206.488 153.347 206.509 153.2 206.528C153.056 206.545 152.939 206.559 152.849 206.571C152.631 206.599 152.427 206.646 152.238 206.71C152.051 206.771 151.9 206.865 151.784 206.99C151.67 207.113 151.613 207.281 151.613 207.494C151.613 207.786 151.721 208.006 151.936 208.155C152.154 208.302 152.43 208.375 152.764 208.375Z" fill="black"/>
<path d="M187.873 202.509V201.727H193.327V202.509H191.04V209H190.16V202.509H187.873ZM196.069 209.114C195.543 209.114 195.09 208.998 194.709 208.766C194.33 208.531 194.037 208.205 193.831 207.786C193.628 207.364 193.526 206.874 193.526 206.315C193.526 205.757 193.628 205.264 193.831 204.838C194.037 204.41 194.324 204.076 194.691 203.837C195.06 203.595 195.491 203.474 195.983 203.474C196.267 203.474 196.548 203.522 196.825 203.616C197.102 203.711 197.354 203.865 197.581 204.078C197.809 204.289 197.99 204.568 198.125 204.916C198.26 205.264 198.327 205.693 198.327 206.202V206.557H194.123V205.832H197.475C197.475 205.525 197.413 205.25 197.29 205.009C197.169 204.767 196.997 204.576 196.772 204.437C196.549 204.297 196.286 204.227 195.983 204.227C195.65 204.227 195.361 204.31 195.117 204.476C194.875 204.639 194.69 204.852 194.559 205.115C194.429 205.378 194.364 205.66 194.364 205.96V206.443C194.364 206.855 194.435 207.204 194.577 207.491C194.722 207.775 194.922 207.991 195.177 208.141C195.433 208.287 195.73 208.361 196.069 208.361C196.289 208.361 196.488 208.33 196.665 208.268C196.845 208.205 197 208.11 197.13 207.984C197.261 207.857 197.361 207.698 197.432 207.509L198.242 207.736C198.157 208.01 198.013 208.252 197.812 208.46C197.611 208.666 197.362 208.827 197.066 208.943C196.771 209.057 196.438 209.114 196.069 209.114ZM199.602 209V203.545H200.412V204.369H200.468C200.568 204.099 200.748 203.88 201.008 203.712C201.269 203.544 201.562 203.46 201.889 203.46C201.95 203.46 202.027 203.461 202.12 203.464C202.212 203.466 202.282 203.47 202.329 203.474V204.327C202.301 204.32 202.236 204.309 202.134 204.295C202.035 204.278 201.929 204.27 201.818 204.27C201.553 204.27 201.316 204.326 201.108 204.437C200.902 204.546 200.738 204.697 200.618 204.891C200.499 205.083 200.44 205.302 200.44 205.548V209H199.602ZM205.373 209.114C204.861 209.114 204.421 208.993 204.052 208.751C203.682 208.51 203.398 208.177 203.199 207.754C203 207.33 202.901 206.846 202.901 206.301C202.901 205.747 203.003 205.258 203.206 204.835C203.412 204.408 203.699 204.076 204.066 203.837C204.435 203.595 204.866 203.474 205.358 203.474C205.742 203.474 206.088 203.545 206.395 203.688C206.703 203.83 206.955 204.028 207.152 204.284C207.348 204.54 207.47 204.838 207.517 205.179H206.679C206.616 204.93 206.473 204.71 206.253 204.518C206.035 204.324 205.742 204.227 205.373 204.227C205.046 204.227 204.759 204.312 204.513 204.483C204.269 204.651 204.079 204.889 203.941 205.197C203.807 205.502 203.739 205.861 203.739 206.273C203.739 206.694 203.805 207.061 203.938 207.374C204.073 207.686 204.262 207.929 204.506 208.102C204.752 208.274 205.041 208.361 205.373 208.361C205.59 208.361 205.788 208.323 205.966 208.247C206.143 208.171 206.294 208.062 206.417 207.92C206.54 207.778 206.627 207.608 206.679 207.409H207.517C207.47 207.731 207.353 208.021 207.166 208.279C206.981 208.535 206.736 208.738 206.431 208.89C206.128 209.039 205.775 209.114 205.373 209.114ZM204.975 208.972H205.671L205.614 209.256C205.799 209.284 205.968 209.361 206.122 209.487C206.276 209.614 206.353 209.817 206.353 210.094C206.353 210.399 206.226 210.648 205.973 210.839C205.722 211.034 205.351 211.131 204.861 211.131L204.833 210.577C205.053 210.577 205.235 210.541 205.38 210.47C205.526 210.402 205.6 210.286 205.6 210.122C205.6 209.959 205.54 209.848 205.419 209.788C205.298 209.729 205.103 209.689 204.833 209.668L204.975 208.972ZM210.348 209.128C210.002 209.128 209.688 209.063 209.407 208.933C209.125 208.8 208.901 208.609 208.736 208.361C208.57 208.11 208.487 207.807 208.487 207.452C208.487 207.139 208.549 206.886 208.672 206.692C208.795 206.495 208.959 206.341 209.165 206.23C209.371 206.119 209.598 206.036 209.847 205.982C210.098 205.925 210.35 205.88 210.603 205.847C210.935 205.804 211.204 205.772 211.41 205.751C211.618 205.727 211.769 205.688 211.864 205.634C211.961 205.579 212.01 205.484 212.01 205.349V205.321C212.01 204.971 211.914 204.698 211.722 204.504C211.533 204.31 211.245 204.213 210.859 204.213C210.459 204.213 210.145 204.301 209.918 204.476C209.691 204.651 209.531 204.838 209.439 205.037L208.643 204.753C208.785 204.421 208.975 204.163 209.211 203.979C209.45 203.792 209.711 203.661 209.993 203.588C210.277 203.512 210.556 203.474 210.831 203.474C211.006 203.474 211.207 203.496 211.434 203.538C211.664 203.579 211.885 203.663 212.098 203.79C212.314 203.918 212.493 204.111 212.635 204.369C212.777 204.627 212.848 204.973 212.848 205.406V209H212.01V208.261H211.967C211.91 208.38 211.816 208.506 211.683 208.641C211.55 208.776 211.374 208.891 211.154 208.986C210.934 209.08 210.665 209.128 210.348 209.128ZM210.476 208.375C210.807 208.375 211.086 208.31 211.314 208.18C211.543 208.049 211.716 207.881 211.832 207.675C211.95 207.469 212.01 207.253 212.01 207.026V206.259C211.974 206.301 211.896 206.34 211.775 206.376C211.657 206.409 211.52 206.438 211.363 206.464C211.209 206.488 211.059 206.509 210.912 206.528C210.768 206.545 210.651 206.559 210.561 206.571C210.343 206.599 210.139 206.646 209.95 206.71C209.763 206.771 209.611 206.865 209.495 206.99C209.382 207.113 209.325 207.281 209.325 207.494C209.325 207.786 209.433 208.006 209.648 208.155C209.866 208.302 210.142 208.375 210.476 208.375Z" fill="black"/>
<path d="M251.826 206.727H252.792L253.602 207.793L253.815 208.077L255.022 209.682H254.057L253.261 208.616L253.062 208.347L251.826 206.727ZM255.321 205.364C255.321 206.131 255.182 206.794 254.905 207.352C254.628 207.911 254.248 208.342 253.765 208.645C253.282 208.948 252.731 209.099 252.111 209.099C251.49 209.099 250.939 208.948 250.456 208.645C249.973 208.342 249.593 207.911 249.316 207.352C249.039 206.794 248.9 206.131 248.9 205.364C248.9 204.597 249.039 203.934 249.316 203.375C249.593 202.816 249.973 202.385 250.456 202.082C250.939 201.779 251.49 201.628 252.111 201.628C252.731 201.628 253.282 201.779 253.765 202.082C254.248 202.385 254.628 202.816 254.905 203.375C255.182 203.934 255.321 204.597 255.321 205.364ZM254.468 205.364C254.468 204.734 254.363 204.202 254.152 203.769C253.944 203.336 253.661 203.008 253.304 202.786C252.949 202.563 252.551 202.452 252.111 202.452C251.67 202.452 251.271 202.563 250.914 202.786C250.559 203.008 250.276 203.336 250.065 203.769C249.857 204.202 249.753 204.734 249.753 205.364C249.753 205.993 249.857 206.525 250.065 206.958C250.276 207.391 250.559 207.719 250.914 207.942C251.271 208.164 251.67 208.276 252.111 208.276C252.551 208.276 252.949 208.164 253.304 207.942C253.661 207.719 253.944 207.391 254.152 206.958C254.363 206.525 254.468 205.993 254.468 205.364ZM260.125 206.77V203.545H260.964V209H260.125V208.077H260.069C259.941 208.354 259.742 208.589 259.472 208.783C259.202 208.975 258.861 209.071 258.449 209.071C258.108 209.071 257.805 208.996 257.54 208.847C257.275 208.696 257.067 208.469 256.915 208.165C256.764 207.86 256.688 207.475 256.688 207.011V203.545H257.526V206.955C257.526 207.352 257.637 207.67 257.86 207.906C258.085 208.143 258.371 208.261 258.719 208.261C258.928 208.261 259.139 208.208 259.355 208.102C259.573 207.995 259.755 207.832 259.902 207.612C260.051 207.391 260.125 207.111 260.125 206.77ZM264.104 209.128C263.758 209.128 263.444 209.063 263.163 208.933C262.881 208.8 262.657 208.609 262.491 208.361C262.326 208.11 262.243 207.807 262.243 207.452C262.243 207.139 262.304 206.886 262.427 206.692C262.551 206.495 262.715 206.341 262.921 206.23C263.127 206.119 263.354 206.036 263.603 205.982C263.854 205.925 264.106 205.88 264.359 205.847C264.691 205.804 264.959 205.772 265.165 205.751C265.374 205.727 265.525 205.688 265.62 205.634C265.717 205.579 265.766 205.484 265.766 205.349V205.321C265.766 204.971 265.67 204.698 265.478 204.504C265.289 204.31 265.001 204.213 264.615 204.213C264.215 204.213 263.901 204.301 263.674 204.476C263.447 204.651 263.287 204.838 263.195 205.037L262.399 204.753C262.541 204.421 262.73 204.163 262.967 203.979C263.206 203.792 263.467 203.661 263.748 203.588C264.033 203.512 264.312 203.474 264.587 203.474C264.762 203.474 264.963 203.496 265.19 203.538C265.42 203.579 265.641 203.663 265.854 203.79C266.07 203.918 266.248 204.111 266.391 204.369C266.533 204.627 266.604 204.973 266.604 205.406V209H265.766V208.261H265.723C265.666 208.38 265.571 208.506 265.439 208.641C265.306 208.776 265.13 208.891 264.91 208.986C264.69 209.08 264.421 209.128 264.104 209.128ZM264.231 208.375C264.563 208.375 264.842 208.31 265.07 208.18C265.299 208.049 265.472 207.881 265.588 207.675C265.706 207.469 265.766 207.253 265.766 207.026V206.259C265.73 206.301 265.652 206.34 265.531 206.376C265.413 206.409 265.275 206.438 265.119 206.464C264.965 206.488 264.815 206.509 264.668 206.528C264.524 206.545 264.407 206.559 264.317 206.571C264.099 206.599 263.895 206.646 263.706 206.71C263.519 206.771 263.367 206.865 263.251 206.99C263.138 207.113 263.081 207.281 263.081 207.494C263.081 207.786 263.189 208.006 263.404 208.155C263.622 208.302 263.898 208.375 264.231 208.375ZM268.133 209V203.545H268.943V204.369H269C269.099 204.099 269.279 203.88 269.54 203.712C269.8 203.544 270.093 203.46 270.42 203.46C270.482 203.46 270.559 203.461 270.651 203.464C270.743 203.466 270.813 203.47 270.861 203.474V204.327C270.832 204.32 270.767 204.309 270.665 204.295C270.566 204.278 270.46 204.27 270.349 204.27C270.084 204.27 269.847 204.326 269.639 204.437C269.433 204.546 269.27 204.697 269.149 204.891C269.031 205.083 268.971 205.302 268.971 205.548V209H268.133ZM274.568 203.545V204.256H271.741V203.545H274.568ZM272.565 202.239H273.403V207.438C273.403 207.674 273.437 207.852 273.506 207.97C273.577 208.086 273.667 208.164 273.776 208.205C273.887 208.242 274.004 208.261 274.128 208.261C274.22 208.261 274.296 208.257 274.355 208.247C274.414 208.235 274.461 208.226 274.497 208.219L274.667 208.972C274.611 208.993 274.531 209.014 274.429 209.036C274.328 209.059 274.199 209.071 274.042 209.071C273.806 209.071 273.574 209.02 273.346 208.918C273.121 208.817 272.934 208.661 272.785 208.453C272.638 208.245 272.565 207.982 272.565 207.665V202.239ZM277.434 209.128C277.088 209.128 276.774 209.063 276.493 208.933C276.211 208.8 275.987 208.609 275.821 208.361C275.656 208.11 275.573 207.807 275.573 207.452C275.573 207.139 275.634 206.886 275.758 206.692C275.881 206.495 276.045 206.341 276.251 206.23C276.457 206.119 276.684 206.036 276.933 205.982C277.184 205.925 277.436 205.88 277.689 205.847C278.021 205.804 278.29 205.772 278.495 205.751C278.704 205.727 278.855 205.688 278.95 205.634C279.047 205.579 279.096 205.484 279.096 205.349V205.321C279.096 204.971 279 204.698 278.808 204.504C278.619 204.31 278.331 204.213 277.945 204.213C277.545 204.213 277.231 204.301 277.004 204.476C276.777 204.651 276.617 204.838 276.525 205.037L275.729 204.753C275.871 204.421 276.061 204.163 276.297 203.979C276.536 203.792 276.797 203.661 277.079 203.588C277.363 203.512 277.642 203.474 277.917 203.474C278.092 203.474 278.293 203.496 278.52 203.538C278.75 203.579 278.971 203.663 279.184 203.79C279.4 203.918 279.579 204.111 279.721 204.369C279.863 204.627 279.934 204.973 279.934 205.406V209H279.096V208.261H279.053C278.996 208.38 278.901 208.506 278.769 208.641C278.636 208.776 278.46 208.891 278.24 208.986C278.02 209.08 277.751 209.128 277.434 209.128ZM277.562 208.375C277.893 208.375 278.172 208.31 278.4 208.18C278.629 208.049 278.802 207.881 278.918 207.675C279.036 207.469 279.096 207.253 279.096 207.026V206.259C279.06 206.301 278.982 206.34 278.861 206.376C278.743 206.409 278.606 206.438 278.449 206.464C278.295 206.488 278.145 206.509 277.998 206.528C277.854 206.545 277.737 206.559 277.647 206.571C277.429 206.599 277.225 206.646 277.036 206.71C276.849 206.771 276.697 206.865 276.581 206.99C276.468 207.113 276.411 207.281 276.411 207.494C276.411 207.786 276.519 208.006 276.734 208.155C276.952 208.302 277.228 208.375 277.562 208.375Z" fill="black"/>
<path d="M316.564 206.727H317.53L318.339 207.793L318.552 208.077L319.76 209.682H318.794L317.998 208.616L317.8 208.347L316.564 206.727ZM320.058 205.364C320.058 206.131 319.92 206.794 319.643 207.352C319.366 207.911 318.986 208.342 318.503 208.645C318.02 208.948 317.468 209.099 316.848 209.099C316.228 209.099 315.676 208.948 315.193 208.645C314.71 208.342 314.33 207.911 314.053 207.352C313.776 206.794 313.638 206.131 313.638 205.364C313.638 204.597 313.776 203.934 314.053 203.375C314.33 202.816 314.71 202.385 315.193 202.082C315.676 201.779 316.228 201.628 316.848 201.628C317.468 201.628 318.02 201.779 318.503 202.082C318.986 202.385 319.366 202.816 319.643 203.375C319.92 203.934 320.058 204.597 320.058 205.364ZM319.206 205.364C319.206 204.734 319.1 204.202 318.89 203.769C318.681 203.336 318.398 203.008 318.041 202.786C317.686 202.563 317.288 202.452 316.848 202.452C316.407 202.452 316.009 202.563 315.651 202.786C315.296 203.008 315.013 203.336 314.802 203.769C314.594 204.202 314.49 204.734 314.49 205.364C314.49 205.993 314.594 206.525 314.802 206.958C315.013 207.391 315.296 207.719 315.651 207.942C316.009 208.164 316.407 208.276 316.848 208.276C317.288 208.276 317.686 208.164 318.041 207.942C318.398 207.719 318.681 207.391 318.89 206.958C319.1 206.525 319.206 205.993 319.206 205.364ZM324.863 206.77V203.545H325.701V209H324.863V208.077H324.806C324.678 208.354 324.479 208.589 324.209 208.783C323.939 208.975 323.599 209.071 323.187 209.071C322.846 209.071 322.543 208.996 322.278 208.847C322.012 208.696 321.804 208.469 321.653 208.165C321.501 207.86 321.425 207.475 321.425 207.011V203.545H322.263V206.955C322.263 207.352 322.375 207.67 322.597 207.906C322.822 208.143 323.108 208.261 323.456 208.261C323.665 208.261 323.877 208.208 324.092 208.102C324.31 207.995 324.492 207.832 324.639 207.612C324.788 207.391 324.863 207.111 324.863 206.77ZM327.236 209V203.545H328.074V209H327.236ZM327.662 202.636C327.499 202.636 327.358 202.581 327.239 202.469C327.123 202.358 327.065 202.224 327.065 202.068C327.065 201.912 327.123 201.778 327.239 201.667C327.358 201.556 327.499 201.5 327.662 201.5C327.825 201.5 327.965 201.556 328.081 201.667C328.199 201.778 328.259 201.912 328.259 202.068C328.259 202.224 328.199 202.358 328.081 202.469C327.965 202.581 327.825 202.636 327.662 202.636ZM330.447 205.719V209H329.609V203.545H330.419V204.398H330.49C330.617 204.121 330.811 203.898 331.072 203.73C331.332 203.56 331.669 203.474 332.08 203.474C332.45 203.474 332.773 203.55 333.05 203.702C333.327 203.851 333.542 204.078 333.696 204.384C333.85 204.687 333.927 205.07 333.927 205.534V209H333.089V205.591C333.089 205.162 332.978 204.829 332.755 204.589C332.533 204.348 332.227 204.227 331.839 204.227C331.571 204.227 331.332 204.285 331.122 204.401C330.913 204.517 330.749 204.687 330.628 204.909C330.507 205.132 330.447 205.402 330.447 205.719ZM337.831 203.545V204.256H335.004V203.545H337.831ZM335.828 202.239H336.666V207.438C336.666 207.674 336.7 207.852 336.769 207.97C336.84 208.086 336.93 208.164 337.039 208.205C337.15 208.242 337.267 208.261 337.39 208.261C337.483 208.261 337.558 208.257 337.618 208.247C337.677 208.235 337.724 208.226 337.76 208.219L337.93 208.972C337.873 208.993 337.794 209.014 337.692 209.036C337.59 209.059 337.461 209.071 337.305 209.071C337.068 209.071 336.836 209.02 336.609 208.918C336.384 208.817 336.197 208.661 336.048 208.453C335.901 208.245 335.828 207.982 335.828 207.665V202.239ZM340.696 209.128C340.351 209.128 340.037 209.063 339.755 208.933C339.474 208.8 339.25 208.609 339.084 208.361C338.918 208.11 338.836 207.807 338.836 207.452C338.836 207.139 338.897 206.886 339.02 206.692C339.143 206.495 339.308 206.341 339.514 206.23C339.72 206.119 339.947 206.036 340.196 205.982C340.447 205.925 340.699 205.88 340.952 205.847C341.283 205.804 341.552 205.772 341.758 205.751C341.967 205.727 342.118 205.688 342.213 205.634C342.31 205.579 342.358 205.484 342.358 205.349V205.321C342.358 204.971 342.262 204.698 342.071 204.504C341.881 204.31 341.594 204.213 341.208 204.213C340.808 204.213 340.494 204.301 340.267 204.476C340.039 204.651 339.88 204.838 339.787 205.037L338.992 204.753C339.134 204.421 339.323 204.163 339.56 203.979C339.799 203.792 340.06 203.661 340.341 203.588C340.625 203.512 340.905 203.474 341.179 203.474C341.355 203.474 341.556 203.496 341.783 203.538C342.013 203.579 342.234 203.663 342.447 203.79C342.663 203.918 342.841 204.111 342.983 204.369C343.125 204.627 343.196 204.973 343.196 205.406V209H342.358V208.261H342.316C342.259 208.38 342.164 208.506 342.032 208.641C341.899 208.776 341.723 208.891 341.502 208.986C341.282 209.08 341.014 209.128 340.696 209.128ZM340.824 208.375C341.156 208.375 341.435 208.31 341.662 208.18C341.892 208.049 342.065 207.881 342.181 207.675C342.299 207.469 342.358 207.253 342.358 207.026V206.259C342.323 206.301 342.245 206.34 342.124 206.376C342.006 206.409 341.868 206.438 341.712 206.464C341.558 206.488 341.408 206.509 341.261 206.528C341.117 206.545 340.999 206.559 340.909 206.571C340.692 206.599 340.488 206.646 340.299 206.71C340.112 206.771 339.96 206.865 339.844 206.99C339.73 207.113 339.674 207.281 339.674 207.494C339.674 207.786 339.781 208.006 339.997 208.155C340.215 208.302 340.49 208.375 340.824 208.375Z" fill="black"/>
<path d="M383.999 203.545C383.956 203.186 383.783 202.906 383.48 202.707C383.177 202.509 382.805 202.409 382.365 202.409C382.043 202.409 381.761 202.461 381.52 202.565C381.281 202.67 381.094 202.813 380.959 202.995C380.826 203.177 380.76 203.384 380.76 203.616C380.76 203.811 380.806 203.978 380.898 204.117C380.993 204.254 381.114 204.369 381.261 204.462C381.407 204.552 381.561 204.626 381.722 204.685C381.883 204.742 382.031 204.788 382.166 204.824L382.905 205.023C383.094 205.072 383.305 205.141 383.537 205.229C383.771 205.316 383.995 205.436 384.208 205.587C384.424 205.737 384.601 205.928 384.741 206.163C384.88 206.397 384.95 206.685 384.95 207.026C384.95 207.419 384.847 207.774 384.641 208.091C384.438 208.408 384.139 208.66 383.746 208.847C383.356 209.034 382.881 209.128 382.322 209.128C381.802 209.128 381.351 209.044 380.969 208.876C380.591 208.708 380.292 208.473 380.075 208.173C379.859 207.872 379.737 207.523 379.709 207.125H380.618C380.642 207.4 380.734 207.627 380.895 207.807C381.058 207.984 381.264 208.117 381.513 208.205C381.764 208.29 382.034 208.332 382.322 208.332C382.659 208.332 382.96 208.278 383.228 208.169C383.496 208.058 383.707 207.904 383.864 207.707C384.02 207.509 384.098 207.277 384.098 207.011C384.098 206.77 384.031 206.573 383.896 206.422C383.761 206.27 383.583 206.147 383.363 206.053C383.143 205.958 382.905 205.875 382.649 205.804L381.754 205.548C381.186 205.385 380.736 205.152 380.405 204.849C380.073 204.546 379.908 204.149 379.908 203.659C379.908 203.252 380.018 202.897 380.238 202.594C380.46 202.288 380.759 202.052 381.133 201.884C381.509 201.713 381.929 201.628 382.393 201.628C382.862 201.628 383.279 201.712 383.643 201.88C384.008 202.046 384.297 202.273 384.51 202.562C384.725 202.851 384.839 203.179 384.851 203.545H383.999ZM388.572 209.114C388.046 209.114 387.593 208.998 387.211 208.766C386.833 208.531 386.54 208.205 386.334 207.786C386.131 207.364 386.029 206.874 386.029 206.315C386.029 205.757 386.131 205.264 386.334 204.838C386.54 204.41 386.827 204.076 387.194 203.837C387.563 203.595 387.994 203.474 388.486 203.474C388.77 203.474 389.051 203.522 389.328 203.616C389.605 203.711 389.857 203.865 390.084 204.078C390.312 204.289 390.493 204.568 390.628 204.916C390.763 205.264 390.83 205.693 390.83 206.202V206.557H386.626V205.832H389.978C389.978 205.525 389.916 205.25 389.793 205.009C389.672 204.767 389.5 204.576 389.275 204.437C389.052 204.297 388.789 204.227 388.486 204.227C388.153 204.227 387.864 204.31 387.62 204.476C387.378 204.639 387.193 204.852 387.062 205.115C386.932 205.378 386.867 205.66 386.867 205.96V206.443C386.867 206.855 386.938 207.204 387.08 207.491C387.224 207.775 387.425 207.991 387.68 208.141C387.936 208.287 388.233 208.361 388.572 208.361C388.792 208.361 388.991 208.33 389.168 208.268C389.348 208.205 389.503 208.11 389.633 207.984C389.764 207.857 389.864 207.698 389.935 207.509L390.745 207.736C390.66 208.01 390.516 208.252 390.315 208.46C390.114 208.666 389.865 208.827 389.569 208.943C389.273 209.057 388.941 209.114 388.572 209.114ZM392.583 203.545L393.89 205.776L395.197 203.545H396.163L394.402 206.273L396.163 209H395.197L393.89 206.884L392.583 209H391.618L393.35 206.273L391.618 203.545H392.583ZM399.731 203.545V204.256H396.904V203.545H399.731ZM397.728 202.239H398.566V207.438C398.566 207.674 398.601 207.852 398.669 207.97C398.74 208.086 398.83 208.164 398.939 208.205C399.05 208.242 399.168 208.261 399.291 208.261C399.383 208.261 399.459 208.257 399.518 208.247C399.577 208.235 399.624 208.226 399.66 208.219L399.83 208.972C399.774 208.993 399.694 209.014 399.593 209.036C399.491 209.059 399.362 209.071 399.205 209.071C398.969 209.071 398.737 209.02 398.509 208.918C398.285 208.817 398.097 208.661 397.948 208.453C397.802 208.245 397.728 207.982 397.728 207.665V202.239ZM402.597 209.128C402.251 209.128 401.937 209.063 401.656 208.933C401.374 208.8 401.15 208.609 400.985 208.361C400.819 208.11 400.736 207.807 400.736 207.452C400.736 207.139 400.798 206.886 400.921 206.692C401.044 206.495 401.208 206.341 401.414 206.23C401.62 206.119 401.847 206.036 402.096 205.982C402.347 205.925 402.599 205.88 402.852 205.847C403.184 205.804 403.453 205.772 403.659 205.751C403.867 205.727 404.018 205.688 404.113 205.634C404.21 205.579 404.259 205.484 404.259 205.349V205.321C404.259 204.971 404.163 204.698 403.971 204.504C403.782 204.31 403.494 204.213 403.108 204.213C402.708 204.213 402.394 204.301 402.167 204.476C401.94 204.651 401.78 204.838 401.688 205.037L400.892 204.753C401.034 204.421 401.224 204.163 401.46 203.979C401.7 203.792 401.96 203.661 402.242 203.588C402.526 203.512 402.805 203.474 403.08 203.474C403.255 203.474 403.456 203.496 403.683 203.538C403.913 203.579 404.134 203.663 404.347 203.79C404.563 203.918 404.742 204.111 404.884 204.369C405.026 204.627 405.097 204.973 405.097 205.406V209H404.259V208.261H404.216C404.159 208.38 404.065 208.506 403.932 208.641C403.799 208.776 403.623 208.891 403.403 208.986C403.183 209.08 402.914 209.128 402.597 209.128ZM402.725 208.375C403.056 208.375 403.335 208.31 403.563 208.18C403.792 208.049 403.965 207.881 404.081 207.675C404.2 207.469 404.259 207.253 404.259 207.026V206.259C404.223 206.301 404.145 206.34 404.024 206.376C403.906 206.409 403.769 206.438 403.612 206.464C403.459 206.488 403.308 206.509 403.161 206.528C403.017 206.545 402.9 206.559 402.81 206.571C402.592 206.599 402.388 206.646 402.199 206.71C402.012 206.771 401.86 206.865 401.744 206.99C401.631 207.113 401.574 207.281 401.574 207.494C401.574 207.786 401.682 208.006 401.897 208.155C402.115 208.302 402.391 208.375 402.725 208.375Z" fill="black"/>
<path d="M444.34 203.545C444.298 203.186 444.125 202.906 443.822 202.707C443.519 202.509 443.147 202.409 442.707 202.409C442.385 202.409 442.103 202.461 441.862 202.565C441.623 202.67 441.436 202.813 441.301 202.995C441.168 203.177 441.102 203.384 441.102 203.616C441.102 203.811 441.148 203.978 441.24 204.117C441.335 204.254 441.456 204.369 441.602 204.462C441.749 204.552 441.903 204.626 442.064 204.685C442.225 204.742 442.373 204.788 442.508 204.824L443.247 205.023C443.436 205.072 443.647 205.141 443.879 205.229C444.113 205.316 444.337 205.436 444.55 205.587C444.765 205.737 444.943 205.928 445.083 206.163C445.222 206.397 445.292 206.685 445.292 207.026C445.292 207.419 445.189 207.774 444.983 208.091C444.78 208.408 444.481 208.66 444.088 208.847C443.698 209.034 443.223 209.128 442.664 209.128C442.143 209.128 441.692 209.044 441.311 208.876C440.932 208.708 440.634 208.473 440.416 208.173C440.201 207.872 440.079 207.523 440.051 207.125H440.96C440.983 207.4 441.076 207.627 441.237 207.807C441.4 207.984 441.606 208.117 441.855 208.205C442.106 208.29 442.375 208.332 442.664 208.332C443 208.332 443.302 208.278 443.57 208.169C443.837 208.058 444.049 207.904 444.205 207.707C444.362 207.509 444.44 207.277 444.44 207.011C444.44 206.77 444.372 206.573 444.237 206.422C444.102 206.27 443.925 206.147 443.705 206.053C443.485 205.958 443.247 205.875 442.991 205.804L442.096 205.548C441.528 205.385 441.078 205.152 440.747 204.849C440.415 204.546 440.249 204.149 440.249 203.659C440.249 203.252 440.36 202.897 440.58 202.594C440.802 202.288 441.101 202.052 441.475 201.884C441.851 201.713 442.271 201.628 442.735 201.628C443.204 201.628 443.621 201.712 443.985 201.88C444.35 202.046 444.639 202.273 444.852 202.562C445.067 202.851 445.181 203.179 445.193 203.545H444.34ZM448.232 209.128C447.886 209.128 447.572 209.063 447.29 208.933C447.009 208.8 446.785 208.609 446.619 208.361C446.454 208.11 446.371 207.807 446.371 207.452C446.371 207.139 446.432 206.886 446.555 206.692C446.679 206.495 446.843 206.341 447.049 206.23C447.255 206.119 447.482 206.036 447.731 205.982C447.982 205.925 448.234 205.88 448.487 205.847C448.819 205.804 449.087 205.772 449.293 205.751C449.502 205.727 449.653 205.688 449.748 205.634C449.845 205.579 449.893 205.484 449.893 205.349V205.321C449.893 204.971 449.798 204.698 449.606 204.504C449.416 204.31 449.129 204.213 448.743 204.213C448.343 204.213 448.029 204.301 447.802 204.476C447.575 204.651 447.415 204.838 447.322 205.037L446.527 204.753C446.669 204.421 446.858 204.163 447.095 203.979C447.334 203.792 447.595 203.661 447.876 203.588C448.161 203.512 448.44 203.474 448.714 203.474C448.89 203.474 449.091 203.496 449.318 203.538C449.548 203.579 449.769 203.663 449.982 203.79C450.198 203.918 450.376 204.111 450.518 204.369C450.661 204.627 450.732 204.973 450.732 205.406V209H449.893V208.261H449.851C449.794 208.38 449.699 208.506 449.567 208.641C449.434 208.776 449.258 208.891 449.038 208.986C448.817 209.08 448.549 209.128 448.232 209.128ZM448.359 208.375C448.691 208.375 448.97 208.31 449.197 208.18C449.427 208.049 449.6 207.881 449.716 207.675C449.834 207.469 449.893 207.253 449.893 207.026V206.259C449.858 206.301 449.78 206.34 449.659 206.376C449.541 206.409 449.403 206.438 449.247 206.464C449.093 206.488 448.943 206.509 448.796 206.528C448.652 206.545 448.535 206.559 448.445 206.571C448.227 206.599 448.023 206.646 447.834 206.71C447.647 206.771 447.495 206.865 447.379 206.99C447.266 207.113 447.209 207.281 447.209 207.494C447.209 207.786 447.317 208.006 447.532 208.155C447.75 208.302 448.026 208.375 448.359 208.375ZM448.388 202.807L449.254 201.159H450.234L449.126 202.807H448.388ZM452.375 209V201.727H453.213V204.412H453.284C453.345 204.317 453.431 204.196 453.54 204.05C453.651 203.901 453.809 203.768 454.015 203.652C454.224 203.534 454.506 203.474 454.861 203.474C455.32 203.474 455.725 203.589 456.075 203.819C456.425 204.049 456.699 204.374 456.895 204.795C457.092 205.217 457.19 205.714 457.19 206.287C457.19 206.865 457.092 207.365 456.895 207.789C456.699 208.21 456.427 208.537 456.079 208.769C455.731 208.999 455.329 209.114 454.875 209.114C454.524 209.114 454.244 209.056 454.033 208.94C453.823 208.821 453.66 208.687 453.547 208.538C453.433 208.387 453.345 208.261 453.284 208.162H453.184V209H452.375ZM453.199 206.273C453.199 206.685 453.259 207.048 453.38 207.363C453.501 207.675 453.677 207.92 453.909 208.098C454.141 208.273 454.425 208.361 454.761 208.361C455.112 208.361 455.404 208.268 455.638 208.084C455.875 207.897 456.053 207.646 456.171 207.331C456.292 207.014 456.352 206.661 456.352 206.273C456.352 205.889 456.293 205.544 456.175 205.236C456.059 204.926 455.882 204.681 455.645 204.501C455.411 204.318 455.116 204.227 454.761 204.227C454.42 204.227 454.134 204.314 453.902 204.487C453.67 204.657 453.495 204.896 453.376 205.204C453.258 205.509 453.199 205.866 453.199 206.273ZM460.077 209.128C459.732 209.128 459.418 209.063 459.136 208.933C458.854 208.8 458.631 208.609 458.465 208.361C458.299 208.11 458.216 207.807 458.216 207.452C458.216 207.139 458.278 206.886 458.401 206.692C458.524 206.495 458.689 206.341 458.895 206.23C459.101 206.119 459.328 206.036 459.577 205.982C459.827 205.925 460.08 205.88 460.333 205.847C460.664 205.804 460.933 205.772 461.139 205.751C461.347 205.727 461.499 205.688 461.594 205.634C461.691 205.579 461.739 205.484 461.739 205.349V205.321C461.739 204.971 461.643 204.698 461.452 204.504C461.262 204.31 460.974 204.213 460.589 204.213C460.189 204.213 459.875 204.301 459.648 204.476C459.42 204.651 459.26 204.838 459.168 205.037L458.373 204.753C458.515 204.421 458.704 204.163 458.941 203.979C459.18 203.792 459.44 203.661 459.722 203.588C460.006 203.512 460.286 203.474 460.56 203.474C460.735 203.474 460.937 203.496 461.164 203.538C461.394 203.579 461.615 203.663 461.828 203.79C462.043 203.918 462.222 204.111 462.364 204.369C462.506 204.627 462.577 204.973 462.577 205.406V209H461.739V208.261H461.697C461.64 208.38 461.545 208.506 461.412 208.641C461.28 208.776 461.104 208.891 460.883 208.986C460.663 209.08 460.394 209.128 460.077 209.128ZM460.205 208.375C460.537 208.375 460.816 208.31 461.043 208.18C461.273 208.049 461.446 207.881 461.562 207.675C461.68 207.469 461.739 207.253 461.739 207.026V206.259C461.704 206.301 461.626 206.34 461.505 206.376C461.386 206.409 461.249 206.438 461.093 206.464C460.939 206.488 460.789 206.509 460.642 206.528C460.497 206.545 460.38 206.559 460.29 206.571C460.073 206.599 459.869 206.646 459.68 206.71C459.492 206.771 459.341 206.865 459.225 206.99C459.111 207.113 459.055 207.281 459.055 207.494C459.055 207.786 459.162 208.006 459.378 208.155C459.595 208.302 459.871 208.375 460.205 208.375ZM466.167 209.114C465.712 209.114 465.311 208.999 464.963 208.769C464.615 208.537 464.342 208.21 464.146 207.789C463.949 207.365 463.851 206.865 463.851 206.287C463.851 205.714 463.949 205.217 464.146 204.795C464.342 204.374 464.616 204.049 464.966 203.819C465.317 203.589 465.721 203.474 466.181 203.474C466.536 203.474 466.816 203.534 467.022 203.652C467.231 203.768 467.389 203.901 467.498 204.05C467.609 204.196 467.696 204.317 467.757 204.412H467.828V201.727H468.667V209H467.857V208.162H467.757C467.696 208.261 467.608 208.387 467.495 208.538C467.381 208.687 467.219 208.821 467.008 208.94C466.797 209.056 466.517 209.114 466.167 209.114ZM466.28 208.361C466.616 208.361 466.9 208.273 467.132 208.098C467.364 207.92 467.541 207.675 467.662 207.363C467.782 207.048 467.843 206.685 467.843 206.273C467.843 205.866 467.783 205.509 467.665 205.204C467.547 204.896 467.372 204.657 467.14 204.487C466.908 204.314 466.621 204.227 466.28 204.227C465.925 204.227 465.629 204.318 465.392 204.501C465.158 204.681 464.982 204.926 464.863 205.236C464.747 205.544 464.689 205.889 464.689 206.273C464.689 206.661 464.748 207.014 464.867 207.331C464.988 207.646 465.165 207.897 465.4 208.084C465.636 208.268 465.93 208.361 466.28 208.361ZM472.534 209.114C472.041 209.114 471.609 208.996 471.238 208.762C470.868 208.528 470.579 208.2 470.371 207.778C470.165 207.357 470.062 206.865 470.062 206.301C470.062 205.733 470.165 205.237 470.371 204.813C470.579 204.389 470.868 204.06 471.238 203.826C471.609 203.592 472.041 203.474 472.534 203.474C473.026 203.474 473.457 203.592 473.826 203.826C474.198 204.06 474.487 204.389 474.693 204.813C474.901 205.237 475.005 205.733 475.005 206.301C475.005 206.865 474.901 207.357 474.693 207.778C474.487 208.2 474.198 208.528 473.826 208.762C473.457 208.996 473.026 209.114 472.534 209.114ZM472.534 208.361C472.908 208.361 473.216 208.265 473.457 208.073C473.699 207.881 473.877 207.629 473.993 207.317C474.109 207.004 474.167 206.666 474.167 206.301C474.167 205.937 474.109 205.597 473.993 205.282C473.877 204.967 473.699 204.713 473.457 204.518C473.216 204.324 472.908 204.227 472.534 204.227C472.16 204.227 471.852 204.324 471.61 204.518C471.369 204.713 471.19 204.967 471.074 205.282C470.958 205.597 470.9 205.937 470.9 206.301C470.9 206.666 470.958 207.004 471.074 207.317C471.19 207.629 471.369 207.881 471.61 208.073C471.852 208.265 472.16 208.361 472.534 208.361Z" fill="black"/>
<path d="M15.8935 0.272727V9H14.8366V1.38068H14.7855L12.6548 2.79545V1.72159L14.8366 0.272727H15.8935ZM21.25 9.11932C20.608 9.11932 20.0611 8.9446 19.6094 8.59517C19.1577 8.2429 18.8125 7.73295 18.5739 7.06534C18.3352 6.39489 18.2159 5.58523 18.2159 4.63636C18.2159 3.69318 18.3352 2.88778 18.5739 2.22017C18.8153 1.54972 19.1619 1.03835 19.6136 0.686079C20.0682 0.330966 20.6136 0.153409 21.25 0.153409C21.8864 0.153409 22.4304 0.330966 22.8821 0.686079C23.3366 1.03835 23.6832 1.54972 23.9219 2.22017C24.1634 2.88778 24.2841 3.69318 24.2841 4.63636C24.2841 5.58523 24.1648 6.39489 23.9261 7.06534C23.6875 7.73295 23.3423 8.2429 22.8906 8.59517C22.4389 8.9446 21.892 9.11932 21.25 9.11932ZM21.25 8.18182C21.8864 8.18182 22.3807 7.875 22.733 7.26136C23.0852 6.64773 23.2614 5.77273 23.2614 4.63636C23.2614 3.88068 23.1804 3.23722 23.0185 2.70597C22.8594 2.17472 22.6293 1.76989 22.3281 1.49148C22.0298 1.21307 21.6705 1.07386 21.25 1.07386C20.6193 1.07386 20.1264 1.38494 19.7713 2.0071C19.4162 2.62642 19.2386 3.50284 19.2386 4.63636C19.2386 5.39205 19.3182 6.03409 19.4773 6.5625C19.6364 7.09091 19.8651 7.4929 20.1634 7.76847C20.4645 8.04403 20.8267 8.18182 21.25 8.18182ZM28.75 9.11932C28.108 9.11932 27.5611 8.9446 27.1094 8.59517C26.6577 8.2429 26.3125 7.73295 26.0739 7.06534C25.8352 6.39489 25.7159 5.58523 25.7159 4.63636C25.7159 3.69318 25.8352 2.88778 26.0739 2.22017C26.3153 1.54972 26.6619 1.03835 27.1136 0.686079C27.5682 0.330966 28.1136 0.153409 28.75 0.153409C29.3864 0.153409 29.9304 0.330966 30.3821 0.686079C30.8366 1.03835 31.1832 1.54972 31.4219 2.22017C31.6634 2.88778 31.7841 3.69318 31.7841 4.63636C31.7841 5.58523 31.6648 6.39489 31.4261 7.06534C31.1875 7.73295 30.8423 8.2429 30.3906 8.59517C29.9389 8.9446 29.392 9.11932 28.75 9.11932ZM28.75 8.18182C29.3864 8.18182 29.8807 7.875 30.233 7.26136C30.5852 6.64773 30.7614 5.77273 30.7614 4.63636C30.7614 3.88068 30.6804 3.23722 30.5185 2.70597C30.3594 2.17472 30.1293 1.76989 29.8281 1.49148C29.5298 1.21307 29.1705 1.07386 28.75 1.07386C28.1193 1.07386 27.6264 1.38494 27.2713 2.0071C26.9162 2.62642 26.7386 3.50284 26.7386 4.63636C26.7386 5.39205 26.8182 6.03409 26.9773 6.5625C27.1364 7.09091 27.3651 7.4929 27.6634 7.76847C27.9645 8.04403 28.3267 8.18182 28.75 8.18182ZM36.25 9.11932C35.608 9.11932 35.0611 8.9446 34.6094 8.59517C34.1577 8.2429 33.8125 7.73295 33.5739 7.06534C33.3352 6.39489 33.2159 5.58523 33.2159 4.63636C33.2159 3.69318 33.3352 2.88778 33.5739 2.22017C33.8153 1.54972 34.1619 1.03835 34.6136 0.686079C35.0682 0.330966 35.6136 0.153409 36.25 0.153409C36.8864 0.153409 37.4304 0.330966 37.8821 0.686079C38.3366 1.03835 38.6832 1.54972 38.9219 2.22017C39.1634 2.88778 39.2841 3.69318 39.2841 4.63636C39.2841 5.58523 39.1648 6.39489 38.9261 7.06534C38.6875 7.73295 38.3423 8.2429 37.8906 8.59517C37.4389 8.9446 36.892 9.11932 36.25 9.11932ZM36.25 8.18182C36.8864 8.18182 37.3807 7.875 37.733 7.26136C38.0852 6.64773 38.2614 5.77273 38.2614 4.63636C38.2614 3.88068 38.1804 3.23722 38.0185 2.70597C37.8594 2.17472 37.6293 1.76989 37.3281 1.49148C37.0298 1.21307 36.6705 1.07386 36.25 1.07386C35.6193 1.07386 35.1264 1.38494 34.7713 2.0071C34.4162 2.62642 34.2386 3.50284 34.2386 4.63636C34.2386 5.39205 34.3182 6.03409 34.4773 6.5625C34.6364 7.09091 34.8651 7.4929 35.1634 7.76847C35.4645 8.04403 35.8267 8.18182 36.25 8.18182ZM21.1935 18.1534C21.5515 18.1562 21.9094 18.2244 22.2674 18.358C22.6254 18.4915 22.9521 18.7131 23.2475 19.0227C23.543 19.3295 23.7802 19.7486 23.9592 20.2798C24.1381 20.8111 24.2276 21.4773 24.2276 22.2784C24.2276 23.054 24.1538 23.7429 24.006 24.3452C23.8612 24.9446 23.6509 25.4503 23.3754 25.8622C23.1026 26.2741 22.7702 26.5866 22.3782 26.7997C21.989 27.0128 21.5487 27.1193 21.0572 27.1193C20.5685 27.1193 20.1325 27.0227 19.7489 26.8295C19.3683 26.6335 19.0558 26.3622 18.8114 26.0156C18.57 25.6662 18.4151 25.2614 18.3469 24.8011H19.3867C19.4805 25.2017 19.6665 25.5327 19.945 25.794C20.2262 26.0526 20.5969 26.1818 21.0572 26.1818C21.7305 26.1818 22.2617 25.8878 22.6509 25.2997C23.043 24.7116 23.239 23.8807 23.239 22.8068H23.1708C23.0117 23.0455 22.8228 23.2514 22.604 23.4247C22.3853 23.598 22.1424 23.7315 21.8754 23.8253C21.6083 23.919 21.3242 23.9659 21.0231 23.9659C20.5231 23.9659 20.0643 23.8423 19.6467 23.5952C19.2319 23.3452 18.8995 23.0028 18.6495 22.5682C18.4023 22.1307 18.2788 21.6307 18.2788 21.0682C18.2788 20.5341 18.3981 20.0455 18.6367 19.6023C18.8782 19.1562 19.2163 18.8011 19.6509 18.5369C20.0884 18.2727 20.6026 18.1449 21.1935 18.1534ZM21.1935 19.0909C20.8356 19.0909 20.5131 19.1804 20.2262 19.3594C19.9421 19.5355 19.7163 19.7741 19.5487 20.0753C19.3839 20.3736 19.3015 20.7045 19.3015 21.0682C19.3015 21.4318 19.381 21.7628 19.5401 22.0611C19.7021 22.3565 19.9222 22.5923 20.2006 22.7685C20.4819 22.9418 20.8015 23.0284 21.1594 23.0284C21.4293 23.0284 21.6808 22.9759 21.9137 22.8707C22.1467 22.7628 22.3498 22.6165 22.5231 22.4318C22.6992 22.2443 22.837 22.0327 22.9364 21.7969C23.0359 21.5582 23.0856 21.3097 23.0856 21.0511C23.0856 20.7102 23.0032 20.3906 22.8384 20.0923C22.6765 19.794 22.4521 19.5526 22.1651 19.3679C21.881 19.1832 21.5572 19.0909 21.1935 19.0909ZM28.75 27.1193C28.108 27.1193 27.5611 26.9446 27.1094 26.5952C26.6577 26.2429 26.3125 25.733 26.0739 25.0653C25.8352 24.3949 25.7159 23.5852 25.7159 22.6364C25.7159 21.6932 25.8352 20.8878 26.0739 20.2202C26.3153 19.5497 26.6619 19.0384 27.1136 18.6861C27.5682 18.331 28.1136 18.1534 28.75 18.1534C29.3864 18.1534 29.9304 18.331 30.3821 18.6861C30.8366 19.0384 31.1832 19.5497 31.4219 20.2202C31.6634 20.8878 31.7841 21.6932 31.7841 22.6364C31.7841 23.5852 31.6648 24.3949 31.4261 25.0653C31.1875 25.733 30.8423 26.2429 30.3906 26.5952C29.9389 26.9446 29.392 27.1193 28.75 27.1193ZM28.75 26.1818C29.3864 26.1818 29.8807 25.875 30.233 25.2614C30.5852 24.6477 30.7614 23.7727 30.7614 22.6364C30.7614 21.8807 30.6804 21.2372 30.5185 20.706C30.3594 20.1747 30.1293 19.7699 29.8281 19.4915C29.5298 19.2131 29.1705 19.0739 28.75 19.0739C28.1193 19.0739 27.6264 19.3849 27.2713 20.0071C26.9162 20.6264 26.7386 21.5028 26.7386 22.6364C26.7386 23.392 26.8182 24.0341 26.9773 24.5625C27.1364 25.0909 27.3651 25.4929 27.6634 25.7685C27.9645 26.044 28.3267 26.1818 28.75 26.1818ZM36.25 27.1193C35.608 27.1193 35.0611 26.9446 34.6094 26.5952C34.1577 26.2429 33.8125 25.733 33.5739 25.0653C33.3352 24.3949 33.2159 23.5852 33.2159 22.6364C33.2159 21.6932 33.3352 20.8878 33.5739 20.2202C33.8153 19.5497 34.1619 19.0384 34.6136 18.6861C35.0682 18.331 35.6136 18.1534 36.25 18.1534C36.8864 18.1534 37.4304 18.331 37.8821 18.6861C38.3366 19.0384 38.6832 19.5497 38.9219 20.2202C39.1634 20.8878 39.2841 21.6932 39.2841 22.6364C39.2841 23.5852 39.1648 24.3949 38.9261 25.0653C38.6875 25.733 38.3423 26.2429 37.8906 26.5952C37.4389 26.9446 36.892 27.1193 36.25 27.1193ZM36.25 26.1818C36.8864 26.1818 37.3807 25.875 37.733 25.2614C38.0852 24.6477 38.2614 23.7727 38.2614 22.6364C38.2614 21.8807 38.1804 21.2372 38.0185 20.706C37.8594 20.1747 37.6293 19.7699 37.3281 19.4915C37.0298 19.2131 36.6705 19.0739 36.25 19.0739C35.6193 19.0739 35.1264 19.3849 34.7713 20.0071C34.4162 20.6264 34.2386 21.5028 34.2386 22.6364C34.2386 23.392 34.3182 24.0341 34.4773 24.5625C34.6364 25.0909 34.8651 25.4929 35.1634 25.7685C35.4645 26.044 35.8267 26.1818 36.25 26.1818ZM21.3043 45.1193C20.7191 45.1193 20.2021 45.0156 19.7532 44.8082C19.3072 44.598 18.9592 44.3097 18.7092 43.9432C18.4592 43.5739 18.3356 43.1534 18.3384 42.6818C18.3356 42.3125 18.408 41.9716 18.5558 41.6591C18.7035 41.3437 18.9052 41.081 19.1609 40.8707C19.4194 40.6577 19.7077 40.5227 20.0259 40.4659V40.4148C19.6083 40.3068 19.2759 40.0724 19.0288 39.7116C18.7816 39.348 18.6594 38.9347 18.6623 38.4716C18.6594 38.0284 18.7717 37.6321 18.9989 37.2827C19.2262 36.9332 19.5387 36.6577 19.9364 36.456C20.337 36.2543 20.793 36.1534 21.3043 36.1534C21.81 36.1534 22.2617 36.2543 22.6594 36.456C23.0572 36.6577 23.3697 36.9332 23.5969 37.2827C23.8271 37.6321 23.9435 38.0284 23.9464 38.4716C23.9435 38.9347 23.8171 39.348 23.5671 39.7116C23.32 40.0724 22.9918 40.3068 22.5827 40.4148V40.4659C22.8981 40.5227 23.1822 40.6577 23.435 40.8707C23.6879 41.081 23.8896 41.3437 24.0401 41.6591C24.1907 41.9716 24.2674 42.3125 24.2702 42.6818C24.2674 43.1534 24.1396 43.5739 23.8867 43.9432C23.6367 44.3097 23.2887 44.598 22.8427 44.8082C22.3995 45.0156 21.8867 45.1193 21.3043 45.1193ZM21.3043 44.1818C21.6992 44.1818 22.0401 44.1179 22.3271 43.9901C22.614 43.8622 22.8356 43.6818 22.9918 43.4489C23.1481 43.2159 23.2276 42.9432 23.2305 42.6307C23.2276 42.3011 23.1424 42.0099 22.9748 41.7571C22.8072 41.5043 22.5785 41.3054 22.2887 41.1605C22.0018 41.0156 21.6737 40.9432 21.3043 40.9432C20.9322 40.9432 20.5998 41.0156 20.3072 41.1605C20.0174 41.3054 19.7887 41.5043 19.6211 41.7571C19.4563 42.0099 19.3754 42.3011 19.3782 42.6307C19.3754 42.9432 19.4506 43.2159 19.604 43.4489C19.7603 43.6818 19.9833 43.8622 20.2731 43.9901C20.5629 44.1179 20.9066 44.1818 21.3043 44.1818ZM21.3043 40.0398C21.6168 40.0398 21.8938 39.9773 22.1353 39.8523C22.3796 39.7273 22.5714 39.5526 22.7106 39.3281C22.8498 39.1037 22.9208 38.8409 22.9237 38.5398C22.9208 38.2443 22.8512 37.9872 22.7148 37.7685C22.5785 37.5469 22.3896 37.3764 22.1481 37.2571C21.9066 37.1349 21.6254 37.0739 21.3043 37.0739C20.9776 37.0739 20.6921 37.1349 20.4478 37.2571C20.2035 37.3764 20.0146 37.5469 19.881 37.7685C19.7475 37.9872 19.6822 38.2443 19.685 38.5398C19.6822 38.8409 19.7489 39.1037 19.8853 39.3281C20.0245 39.5526 20.2163 39.7273 20.4606 39.8523C20.7049 39.9773 20.9862 40.0398 21.3043 40.0398ZM28.75 45.1193C28.108 45.1193 27.5611 44.9446 27.1094 44.5952C26.6577 44.2429 26.3125 43.733 26.0739 43.0653C25.8352 42.3949 25.7159 41.5852 25.7159 40.6364C25.7159 39.6932 25.8352 38.8878 26.0739 38.2202C26.3153 37.5497 26.6619 37.0384 27.1136 36.6861C27.5682 36.331 28.1136 36.1534 28.75 36.1534C29.3864 36.1534 29.9304 36.331 30.3821 36.6861C30.8366 37.0384 31.1832 37.5497 31.4219 38.2202C31.6634 38.8878 31.7841 39.6932 31.7841 40.6364C31.7841 41.5852 31.6648 42.3949 31.4261 43.0653C31.1875 43.733 30.8423 44.2429 30.3906 44.5952C29.9389 44.9446 29.392 45.1193 28.75 45.1193ZM28.75 44.1818C29.3864 44.1818 29.8807 43.875 30.233 43.2614C30.5852 42.6477 30.7614 41.7727 30.7614 40.6364C30.7614 39.8807 30.6804 39.2372 30.5185 38.706C30.3594 38.1747 30.1293 37.7699 29.8281 37.4915C29.5298 37.2131 29.1705 37.0739 28.75 37.0739C28.1193 37.0739 27.6264 37.3849 27.2713 38.0071C26.9162 38.6264 26.7386 39.5028 26.7386 40.6364C26.7386 41.392 26.8182 42.0341 26.9773 42.5625C27.1364 43.0909 27.3651 43.4929 27.6634 43.7685C27.9645 44.044 28.3267 44.1818 28.75 44.1818ZM36.25 45.1193C35.608 45.1193 35.0611 44.9446 34.6094 44.5952C34.1577 44.2429 33.8125 43.733 33.5739 43.0653C33.3352 42.3949 33.2159 41.5852 33.2159 40.6364C33.2159 39.6932 33.3352 38.8878 33.5739 38.2202C33.8153 37.5497 34.1619 37.0384 34.6136 36.6861C35.0682 36.331 35.6136 36.1534 36.25 36.1534C36.8864 36.1534 37.4304 36.331 37.8821 36.6861C38.3366 37.0384 38.6832 37.5497 38.9219 38.2202C39.1634 38.8878 39.2841 39.6932 39.2841 40.6364C39.2841 41.5852 39.1648 42.3949 38.9261 43.0653C38.6875 43.733 38.3423 44.2429 37.8906 44.5952C37.4389 44.9446 36.892 45.1193 36.25 45.1193ZM36.25 44.1818C36.8864 44.1818 37.3807 43.875 37.733 43.2614C38.0852 42.6477 38.2614 41.7727 38.2614 40.6364C38.2614 39.8807 38.1804 39.2372 38.0185 38.706C37.8594 38.1747 37.6293 37.7699 37.3281 37.4915C37.0298 37.2131 36.6705 37.0739 36.25 37.0739C35.6193 37.0739 35.1264 37.3849 34.7713 38.0071C34.4162 38.6264 34.2386 39.5028 34.2386 40.6364C34.2386 41.392 34.3182 42.0341 34.4773 42.5625C34.6364 43.0909 34.8651 43.4929 35.1634 43.7685C35.4645 44.044 35.8267 44.1818 36.25 44.1818ZM19.5082 63L23.4116 55.2784V55.2102H18.9116V54.2727H24.5025V55.2614L20.6161 63H19.5082ZM28.75 63.1193C28.108 63.1193 27.5611 62.9446 27.1094 62.5952C26.6577 62.2429 26.3125 61.733 26.0739 61.0653C25.8352 60.3949 25.7159 59.5852 25.7159 58.6364C25.7159 57.6932 25.8352 56.8878 26.0739 56.2202C26.3153 55.5497 26.6619 55.0384 27.1136 54.6861C27.5682 54.331 28.1136 54.1534 28.75 54.1534C29.3864 54.1534 29.9304 54.331 30.3821 54.6861C30.8366 55.0384 31.1832 55.5497 31.4219 56.2202C31.6634 56.8878 31.7841 57.6932 31.7841 58.6364C31.7841 59.5852 31.6648 60.3949 31.4261 61.0653C31.1875 61.733 30.8423 62.2429 30.3906 62.5952C29.9389 62.9446 29.392 63.1193 28.75 63.1193ZM28.75 62.1818C29.3864 62.1818 29.8807 61.875 30.233 61.2614C30.5852 60.6477 30.7614 59.7727 30.7614 58.6364C30.7614 57.8807 30.6804 57.2372 30.5185 56.706C30.3594 56.1747 30.1293 55.7699 29.8281 55.4915C29.5298 55.2131 29.1705 55.0739 28.75 55.0739C28.1193 55.0739 27.6264 55.3849 27.2713 56.0071C26.9162 56.6264 26.7386 57.5028 26.7386 58.6364C26.7386 59.392 26.8182 60.0341 26.9773 60.5625C27.1364 61.0909 27.3651 61.4929 27.6634 61.7685C27.9645 62.044 28.3267 62.1818 28.75 62.1818ZM36.25 63.1193C35.608 63.1193 35.0611 62.9446 34.6094 62.5952C34.1577 62.2429 33.8125 61.733 33.5739 61.0653C33.3352 60.3949 33.2159 59.5852 33.2159 58.6364C33.2159 57.6932 33.3352 56.8878 33.5739 56.2202C33.8153 55.5497 34.1619 55.0384 34.6136 54.6861C35.0682 54.331 35.6136 54.1534 36.25 54.1534C36.8864 54.1534 37.4304 54.331 37.8821 54.6861C38.3366 55.0384 38.6832 55.5497 38.9219 56.2202C39.1634 56.8878 39.2841 57.6932 39.2841 58.6364C39.2841 59.5852 39.1648 60.3949 38.9261 61.0653C38.6875 61.733 38.3423 62.2429 37.8906 62.5952C37.4389 62.9446 36.892 63.1193 36.25 63.1193ZM36.25 62.1818C36.8864 62.1818 37.3807 61.875 37.733 61.2614C38.0852 60.6477 38.2614 59.7727 38.2614 58.6364C38.2614 57.8807 38.1804 57.2372 38.0185 56.706C37.8594 56.1747 37.6293 55.7699 37.3281 55.4915C37.0298 55.2131 36.6705 55.0739 36.25 55.0739C35.6193 55.0739 35.1264 55.3849 34.7713 56.0071C34.4162 56.6264 34.2386 57.5028 34.2386 58.6364C34.2386 59.392 34.3182 60.0341 34.4773 60.5625C34.6364 61.0909 34.8651 61.4929 35.1634 61.7685C35.4645 62.044 35.8267 62.1818 36.25 62.1818ZM21.3129 81.1193C20.9549 81.1136 20.5969 81.0455 20.239 80.9148C19.881 80.7841 19.5543 80.5639 19.2589 80.2543C18.9634 79.9418 18.7262 79.5199 18.5472 78.9886C18.3683 78.4545 18.2788 77.7841 18.2788 76.9773C18.2788 76.2045 18.3512 75.5199 18.4961 74.9233C18.641 74.3239 18.8512 73.8196 19.1268 73.4105C19.4023 72.9986 19.7347 72.6861 20.1239 72.473C20.516 72.2599 20.9577 72.1534 21.4492 72.1534C21.9379 72.1534 22.3725 72.2514 22.7532 72.4474C23.1367 72.6406 23.4492 72.9105 23.6907 73.2571C23.9322 73.6037 24.0884 74.0028 24.1594 74.4545H23.1197C23.0231 74.0625 22.8356 73.7372 22.5572 73.4787C22.2788 73.2202 21.9094 73.0909 21.4492 73.0909C20.7731 73.0909 20.2404 73.3849 19.8512 73.973C19.4648 74.5611 19.2702 75.3864 19.2674 76.4489H19.3356C19.4947 76.2074 19.6836 76.0014 19.9023 75.831C20.1239 75.6577 20.3683 75.5241 20.6353 75.4304C20.9023 75.3366 21.185 75.2898 21.4833 75.2898C21.9833 75.2898 22.4407 75.4148 22.8555 75.6648C23.2702 75.9119 23.6026 76.2543 23.8526 76.6918C24.1026 77.1264 24.2276 77.625 24.2276 78.1875C24.2276 78.7273 24.1069 79.2216 23.8654 79.6705C23.6239 80.1165 23.2844 80.4716 22.8469 80.7358C22.4123 80.9972 21.9009 81.125 21.3129 81.1193ZM21.3129 80.1818C21.6708 80.1818 21.9918 80.0923 22.2759 79.9134C22.5629 79.7344 22.7887 79.4943 22.9535 79.1932C23.1211 78.892 23.2049 78.5568 23.2049 78.1875C23.2049 77.8267 23.1239 77.4986 22.962 77.2031C22.8029 76.9048 22.5827 76.6676 22.3015 76.4915C22.0231 76.3153 21.7049 76.2273 21.3469 76.2273C21.0771 76.2273 20.8256 76.2812 20.5927 76.3892C20.3597 76.4943 20.1552 76.6392 19.979 76.8239C19.8058 77.0085 19.6694 77.2202 19.57 77.4588C19.4705 77.6946 19.4208 77.9432 19.4208 78.2045C19.4208 78.5511 19.5018 78.875 19.6637 79.1761C19.8285 79.4773 20.0529 79.7202 20.337 79.9048C20.6239 80.0895 20.9492 80.1818 21.3129 80.1818ZM28.75 81.1193C28.108 81.1193 27.5611 80.9446 27.1094 80.5952C26.6577 80.2429 26.3125 79.733 26.0739 79.0653C25.8352 78.3949 25.7159 77.5852 25.7159 76.6364C25.7159 75.6932 25.8352 74.8878 26.0739 74.2202C26.3153 73.5497 26.6619 73.0384 27.1136 72.6861C27.5682 72.331 28.1136 72.1534 28.75 72.1534C29.3864 72.1534 29.9304 72.331 30.3821 72.6861C30.8366 73.0384 31.1832 73.5497 31.4219 74.2202C31.6634 74.8878 31.7841 75.6932 31.7841 76.6364C31.7841 77.5852 31.6648 78.3949 31.4261 79.0653C31.1875 79.733 30.8423 80.2429 30.3906 80.5952C29.9389 80.9446 29.392 81.1193 28.75 81.1193ZM28.75 80.1818C29.3864 80.1818 29.8807 79.875 30.233 79.2614C30.5852 78.6477 30.7614 77.7727 30.7614 76.6364C30.7614 75.8807 30.6804 75.2372 30.5185 74.706C30.3594 74.1747 30.1293 73.7699 29.8281 73.4915C29.5298 73.2131 29.1705 73.0739 28.75 73.0739C28.1193 73.0739 27.6264 73.3849 27.2713 74.0071C26.9162 74.6264 26.7386 75.5028 26.7386 76.6364C26.7386 77.392 26.8182 78.0341 26.9773 78.5625C27.1364 79.0909 27.3651 79.4929 27.6634 79.7685C27.9645 80.044 28.3267 80.1818 28.75 80.1818ZM36.25 81.1193C35.608 81.1193 35.0611 80.9446 34.6094 80.5952C34.1577 80.2429 33.8125 79.733 33.5739 79.0653C33.3352 78.3949 33.2159 77.5852 33.2159 76.6364C33.2159 75.6932 33.3352 74.8878 33.5739 74.2202C33.8153 73.5497 34.1619 73.0384 34.6136 72.6861C35.0682 72.331 35.6136 72.1534 36.25 72.1534C36.8864 72.1534 37.4304 72.331 37.8821 72.6861C38.3366 73.0384 38.6832 73.5497 38.9219 74.2202C39.1634 74.8878 39.2841 75.6932 39.2841 76.6364C39.2841 77.5852 39.1648 78.3949 38.9261 79.0653C38.6875 79.733 38.3423 80.2429 37.8906 80.5952C37.4389 80.9446 36.892 81.1193 36.25 81.1193ZM36.25 80.1818C36.8864 80.1818 37.3807 79.875 37.733 79.2614C38.0852 78.6477 38.2614 77.7727 38.2614 76.6364C38.2614 75.8807 38.1804 75.2372 38.0185 74.706C37.8594 74.1747 37.6293 73.7699 37.3281 73.4915C37.0298 73.2131 36.6705 73.0739 36.25 73.0739C35.6193 73.0739 35.1264 73.3849 34.7713 74.0071C34.4162 74.6264 34.2386 75.5028 34.2386 76.6364C34.2386 77.392 34.3182 78.0341 34.4773 78.5625C34.6364 79.0909 34.8651 79.4929 35.1634 79.7685C35.4645 80.044 35.8267 80.1818 36.25 80.1818ZM21.3299 99.1193C20.8299 99.1193 20.3796 99.0199 19.979 98.821C19.5785 98.6222 19.2575 98.3494 19.016 98.0028C18.7745 97.6562 18.6424 97.2614 18.6197 96.8182H19.6424C19.6822 97.2131 19.8612 97.5398 20.1793 97.7983C20.5004 98.054 20.8839 98.1818 21.3299 98.1818C21.6879 98.1818 22.006 98.098 22.2844 97.9304C22.5657 97.7628 22.7859 97.5327 22.945 97.2401C23.1069 96.9446 23.1879 96.6108 23.1879 96.2386C23.1879 95.858 23.104 95.5185 22.9364 95.2202C22.7717 94.919 22.5444 94.6818 22.2546 94.5085C21.9648 94.3352 21.6339 94.2472 21.2617 94.2443C20.9947 94.2415 20.7205 94.2827 20.4393 94.3679C20.158 94.4503 19.9265 94.5568 19.7447 94.6875L18.756 94.5682L19.2844 90.2727H23.8185V91.2102H20.1708L19.864 93.7841H19.9151C20.0941 93.642 20.3185 93.5241 20.5884 93.4304C20.8583 93.3366 21.1396 93.2898 21.4322 93.2898C21.9663 93.2898 22.4421 93.4176 22.8597 93.6733C23.2802 93.9261 23.6097 94.2727 23.8484 94.7131C24.0898 95.1534 24.2106 95.6562 24.2106 96.2216C24.2106 96.7784 24.0856 97.2756 23.8356 97.7131C23.5884 98.1477 23.2475 98.4915 22.8129 98.7443C22.3782 98.9943 21.8839 99.1193 21.3299 99.1193ZM28.75 99.1193C28.108 99.1193 27.5611 98.9446 27.1094 98.5952C26.6577 98.2429 26.3125 97.733 26.0739 97.0653C25.8352 96.3949 25.7159 95.5852 25.7159 94.6364C25.7159 93.6932 25.8352 92.8878 26.0739 92.2202C26.3153 91.5497 26.6619 91.0384 27.1136 90.6861C27.5682 90.331 28.1136 90.1534 28.75 90.1534C29.3864 90.1534 29.9304 90.331 30.3821 90.6861C30.8366 91.0384 31.1832 91.5497 31.4219 92.2202C31.6634 92.8878 31.7841 93.6932 31.7841 94.6364C31.7841 95.5852 31.6648 96.3949 31.4261 97.0653C31.1875 97.733 30.8423 98.2429 30.3906 98.5952C29.9389 98.9446 29.392 99.1193 28.75 99.1193ZM28.75 98.1818C29.3864 98.1818 29.8807 97.875 30.233 97.2614C30.5852 96.6477 30.7614 95.7727 30.7614 94.6364C30.7614 93.8807 30.6804 93.2372 30.5185 92.706C30.3594 92.1747 30.1293 91.7699 29.8281 91.4915C29.5298 91.2131 29.1705 91.0739 28.75 91.0739C28.1193 91.0739 27.6264 91.3849 27.2713 92.0071C26.9162 92.6264 26.7386 93.5028 26.7386 94.6364C26.7386 95.392 26.8182 96.0341 26.9773 96.5625C27.1364 97.0909 27.3651 97.4929 27.6634 97.7685C27.9645 98.044 28.3267 98.1818 28.75 98.1818ZM36.25 99.1193C35.608 99.1193 35.0611 98.9446 34.6094 98.5952C34.1577 98.2429 33.8125 97.733 33.5739 97.0653C33.3352 96.3949 33.2159 95.5852 33.2159 94.6364C33.2159 93.6932 33.3352 92.8878 33.5739 92.2202C33.8153 91.5497 34.1619 91.0384 34.6136 90.6861C35.0682 90.331 35.6136 90.1534 36.25 90.1534C36.8864 90.1534 37.4304 90.331 37.8821 90.6861C38.3366 91.0384 38.6832 91.5497 38.9219 92.2202C39.1634 92.8878 39.2841 93.6932 39.2841 94.6364C39.2841 95.5852 39.1648 96.3949 38.9261 97.0653C38.6875 97.733 38.3423 98.2429 37.8906 98.5952C37.4389 98.9446 36.892 99.1193 36.25 99.1193ZM36.25 98.1818C36.8864 98.1818 37.3807 97.875 37.733 97.2614C38.0852 96.6477 38.2614 95.7727 38.2614 94.6364C38.2614 93.8807 38.1804 93.2372 38.0185 92.706C37.8594 92.1747 37.6293 91.7699 37.3281 91.4915C37.0298 91.2131 36.6705 91.0739 36.25 91.0739C35.6193 91.0739 35.1264 91.3849 34.7713 92.0071C34.4162 92.6264 34.2386 93.5028 34.2386 94.6364C34.2386 95.392 34.3182 96.0341 34.4773 96.5625C34.6364 97.0909 34.8651 97.4929 35.1634 97.7685C35.4645 98.044 35.8267 98.1818 36.25 98.1818ZM17.9996 115.21V114.341L21.8349 108.273H22.4656V109.619H22.0394L19.1417 114.205V114.273H24.3065V115.21H17.9996ZM22.1076 117V114.946V114.541V108.273H23.1133V117H22.1076ZM28.75 117.119C28.108 117.119 27.5611 116.945 27.1094 116.595C26.6577 116.243 26.3125 115.733 26.0739 115.065C25.8352 114.395 25.7159 113.585 25.7159 112.636C25.7159 111.693 25.8352 110.888 26.0739 110.22C26.3153 109.55 26.6619 109.038 27.1136 108.686C27.5682 108.331 28.1136 108.153 28.75 108.153C29.3864 108.153 29.9304 108.331 30.3821 108.686C30.8366 109.038 31.1832 109.55 31.4219 110.22C31.6634 110.888 31.7841 111.693 31.7841 112.636C31.7841 113.585 31.6648 114.395 31.4261 115.065C31.1875 115.733 30.8423 116.243 30.3906 116.595C29.9389 116.945 29.392 117.119 28.75 117.119ZM28.75 116.182C29.3864 116.182 29.8807 115.875 30.233 115.261C30.5852 114.648 30.7614 113.773 30.7614 112.636C30.7614 111.881 30.6804 111.237 30.5185 110.706C30.3594 110.175 30.1293 109.77 29.8281 109.491C29.5298 109.213 29.1705 109.074 28.75 109.074C28.1193 109.074 27.6264 109.385 27.2713 110.007C26.9162 110.626 26.7386 111.503 26.7386 112.636C26.7386 113.392 26.8182 114.034 26.9773 114.562C27.1364 115.091 27.3651 115.493 27.6634 115.768C27.9645 116.044 28.3267 116.182 28.75 116.182ZM36.25 117.119C35.608 117.119 35.0611 116.945 34.6094 116.595C34.1577 116.243 33.8125 115.733 33.5739 115.065C33.3352 114.395 33.2159 113.585 33.2159 112.636C33.2159 111.693 33.3352 110.888 33.5739 110.22C33.8153 109.55 34.1619 109.038 34.6136 108.686C35.0682 108.331 35.6136 108.153 36.25 108.153C36.8864 108.153 37.4304 108.331 37.8821 108.686C38.3366 109.038 38.6832 109.55 38.9219 110.22C39.1634 110.888 39.2841 111.693 39.2841 112.636C39.2841 113.585 39.1648 114.395 38.9261 115.065C38.6875 115.733 38.3423 116.243 37.8906 116.595C37.4389 116.945 36.892 117.119 36.25 117.119ZM36.25 116.182C36.8864 116.182 37.3807 115.875 37.733 115.261C38.0852 114.648 38.2614 113.773 38.2614 112.636C38.2614 111.881 38.1804 111.237 38.0185 110.706C37.8594 110.175 37.6293 109.77 37.3281 109.491C37.0298 109.213 36.6705 109.074 36.25 109.074C35.6193 109.074 35.1264 109.385 34.7713 110.007C34.4162 110.626 34.2386 111.503 34.2386 112.636C34.2386 113.392 34.3182 114.034 34.4773 114.562C34.6364 115.091 34.8651 115.493 35.1634 115.768C35.4645 116.044 35.8267 116.182 36.25 116.182ZM21.2116 135.119C20.6491 135.119 20.1477 135.023 19.7074 134.83C19.2699 134.636 18.9219 134.368 18.6634 134.024C18.4077 133.678 18.2685 133.276 18.2457 132.818H19.3196C19.3423 133.099 19.4389 133.342 19.6094 133.547C19.7798 133.749 20.0028 133.905 20.2784 134.016C20.554 134.126 20.8594 134.182 21.1946 134.182C21.5696 134.182 21.902 134.116 22.1918 133.986C22.4815 133.855 22.7088 133.673 22.8736 133.44C23.0384 133.207 23.1207 132.938 23.1207 132.631C23.1207 132.31 23.0412 132.027 22.8821 131.783C22.723 131.536 22.4901 131.342 22.1832 131.203C21.8764 131.064 21.5014 130.994 21.0582 130.994H20.3594V130.057H21.0582C21.4048 130.057 21.7088 129.994 21.9702 129.869C22.2344 129.744 22.4403 129.568 22.5881 129.341C22.7386 129.114 22.8139 128.847 22.8139 128.54C22.8139 128.244 22.7486 127.987 22.6179 127.768C22.4872 127.55 22.3026 127.379 22.0639 127.257C21.8281 127.135 21.5497 127.074 21.2287 127.074C20.9276 127.074 20.6435 127.129 20.3764 127.24C20.1122 127.348 19.8963 127.506 19.7287 127.713C19.5611 127.918 19.4702 128.165 19.456 128.455H18.4332C18.4503 127.997 18.5881 127.597 18.8466 127.253C19.1051 126.906 19.4432 126.636 19.8608 126.443C20.2813 126.25 20.7429 126.153 21.2457 126.153C21.7855 126.153 22.2486 126.263 22.6349 126.482C23.0213 126.697 23.3182 126.983 23.5256 127.338C23.733 127.693 23.8366 128.077 23.8366 128.489C23.8366 128.98 23.7074 129.399 23.4489 129.746C23.1932 130.092 22.8452 130.332 22.4048 130.466V130.534C22.956 130.625 23.3864 130.859 23.696 131.237C24.0057 131.612 24.1605 132.077 24.1605 132.631C24.1605 133.105 24.0313 133.531 23.7727 133.909C23.517 134.284 23.1676 134.58 22.7244 134.795C22.2813 135.011 21.777 135.119 21.2116 135.119ZM28.75 135.119C28.108 135.119 27.5611 134.945 27.1094 134.595C26.6577 134.243 26.3125 133.733 26.0739 133.065C25.8352 132.395 25.7159 131.585 25.7159 130.636C25.7159 129.693 25.8352 128.888 26.0739 128.22C26.3153 127.55 26.6619 127.038 27.1136 126.686C27.5682 126.331 28.1136 126.153 28.75 126.153C29.3864 126.153 29.9304 126.331 30.3821 126.686C30.8366 127.038 31.1832 127.55 31.4219 128.22C31.6634 128.888 31.7841 129.693 31.7841 130.636C31.7841 131.585 31.6648 132.395 31.4261 133.065C31.1875 133.733 30.8423 134.243 30.3906 134.595C29.9389 134.945 29.392 135.119 28.75 135.119ZM28.75 134.182C29.3864 134.182 29.8807 133.875 30.233 133.261C30.5852 132.648 30.7614 131.773 30.7614 130.636C30.7614 129.881 30.6804 129.237 30.5185 128.706C30.3594 128.175 30.1293 127.77 29.8281 127.491C29.5298 127.213 29.1705 127.074 28.75 127.074C28.1193 127.074 27.6264 127.385 27.2713 128.007C26.9162 128.626 26.7386 129.503 26.7386 130.636C26.7386 131.392 26.8182 132.034 26.9773 132.562C27.1364 133.091 27.3651 133.493 27.6634 133.768C27.9645 134.044 28.3267 134.182 28.75 134.182ZM36.25 135.119C35.608 135.119 35.0611 134.945 34.6094 134.595C34.1577 134.243 33.8125 133.733 33.5739 133.065C33.3352 132.395 33.2159 131.585 33.2159 130.636C33.2159 129.693 33.3352 128.888 33.5739 128.22C33.8153 127.55 34.1619 127.038 34.6136 126.686C35.0682 126.331 35.6136 126.153 36.25 126.153C36.8864 126.153 37.4304 126.331 37.8821 126.686C38.3366 127.038 38.6832 127.55 38.9219 128.22C39.1634 128.888 39.2841 129.693 39.2841 130.636C39.2841 131.585 39.1648 132.395 38.9261 133.065C38.6875 133.733 38.3423 134.243 37.8906 134.595C37.4389 134.945 36.892 135.119 36.25 135.119ZM36.25 134.182C36.8864 134.182 37.3807 133.875 37.733 133.261C38.0852 132.648 38.2614 131.773 38.2614 130.636C38.2614 129.881 38.1804 129.237 38.0185 128.706C37.8594 128.175 37.6293 127.77 37.3281 127.491C37.0298 127.213 36.6705 127.074 36.25 127.074C35.6193 127.074 35.1264 127.385 34.7713 128.007C34.4162 128.626 34.2386 129.503 34.2386 130.636C34.2386 131.392 34.3182 132.034 34.4773 132.562C34.6364 133.091 34.8651 133.493 35.1634 133.768C35.4645 134.044 35.8267 134.182 36.25 134.182ZM18.6378 153V152.233L21.5185 149.08C21.8565 148.71 22.1349 148.389 22.3537 148.116C22.5724 147.841 22.7344 147.582 22.8395 147.341C22.9474 147.097 23.0014 146.841 23.0014 146.574C23.0014 146.267 22.9276 146.001 22.7798 145.777C22.6349 145.553 22.4361 145.379 22.1832 145.257C21.9304 145.135 21.6463 145.074 21.331 145.074C20.9957 145.074 20.7031 145.143 20.4531 145.283C20.206 145.419 20.0142 145.611 19.8778 145.858C19.7443 146.105 19.6776 146.395 19.6776 146.727H18.6719C18.6719 146.216 18.7898 145.767 19.0256 145.381C19.2614 144.994 19.5824 144.693 19.9886 144.477C20.3977 144.261 20.8565 144.153 21.3651 144.153C21.8764 144.153 22.3295 144.261 22.7244 144.477C23.1193 144.693 23.429 144.984 23.6534 145.351C23.8778 145.717 23.9901 146.125 23.9901 146.574C23.9901 146.895 23.9318 147.209 23.8153 147.516C23.7017 147.82 23.5028 148.159 23.2188 148.534C22.9375 148.906 22.5469 149.361 22.0469 149.898L20.0866 151.994V152.062H24.1435V153H18.6378ZM28.75 153.119C28.108 153.119 27.5611 152.945 27.1094 152.595C26.6577 152.243 26.3125 151.733 26.0739 151.065C25.8352 150.395 25.7159 149.585 25.7159 148.636C25.7159 147.693 25.8352 146.888 26.0739 146.22C26.3153 145.55 26.6619 145.038 27.1136 144.686C27.5682 144.331 28.1136 144.153 28.75 144.153C29.3864 144.153 29.9304 144.331 30.3821 144.686C30.8366 145.038 31.1832 145.55 31.4219 146.22C31.6634 146.888 31.7841 147.693 31.7841 148.636C31.7841 149.585 31.6648 150.395 31.4261 151.065C31.1875 151.733 30.8423 152.243 30.3906 152.595C29.9389 152.945 29.392 153.119 28.75 153.119ZM28.75 152.182C29.3864 152.182 29.8807 151.875 30.233 151.261C30.5852 150.648 30.7614 149.773 30.7614 148.636C30.7614 147.881 30.6804 147.237 30.5185 146.706C30.3594 146.175 30.1293 145.77 29.8281 145.491C29.5298 145.213 29.1705 145.074 28.75 145.074C28.1193 145.074 27.6264 145.385 27.2713 146.007C26.9162 146.626 26.7386 147.503 26.7386 148.636C26.7386 149.392 26.8182 150.034 26.9773 150.562C27.1364 151.091 27.3651 151.493 27.6634 151.768C27.9645 152.044 28.3267 152.182 28.75 152.182ZM36.25 153.119C35.608 153.119 35.0611 152.945 34.6094 152.595C34.1577 152.243 33.8125 151.733 33.5739 151.065C33.3352 150.395 33.2159 149.585 33.2159 148.636C33.2159 147.693 33.3352 146.888 33.5739 146.22C33.8153 145.55 34.1619 145.038 34.6136 144.686C35.0682 144.331 35.6136 144.153 36.25 144.153C36.8864 144.153 37.4304 144.331 37.8821 144.686C38.3366 145.038 38.6832 145.55 38.9219 146.22C39.1634 146.888 39.2841 147.693 39.2841 148.636C39.2841 149.585 39.1648 150.395 38.9261 151.065C38.6875 151.733 38.3423 152.243 37.8906 152.595C37.4389 152.945 36.892 153.119 36.25 153.119ZM36.25 152.182C36.8864 152.182 37.3807 151.875 37.733 151.261C38.0852 150.648 38.2614 149.773 38.2614 148.636C38.2614 147.881 38.1804 147.237 38.0185 146.706C37.8594 146.175 37.6293 145.77 37.3281 145.491C37.0298 145.213 36.6705 145.074 36.25 145.074C35.6193 145.074 35.1264 145.385 34.7713 146.007C34.4162 146.626 34.2386 147.503 34.2386 148.636C34.2386 149.392 34.3182 150.034 34.4773 150.562C34.6364 151.091 34.8651 151.493 35.1634 151.768C35.4645 152.044 35.8267 152.182 36.25 152.182ZM23.3935 162.273V171H22.3366V163.381H22.2855L20.1548 164.795V163.722L22.3366 162.273H23.3935ZM28.75 171.119C28.108 171.119 27.5611 170.945 27.1094 170.595C26.6577 170.243 26.3125 169.733 26.0739 169.065C25.8352 168.395 25.7159 167.585 25.7159 166.636C25.7159 165.693 25.8352 164.888 26.0739 164.22C26.3153 163.55 26.6619 163.038 27.1136 162.686C27.5682 162.331 28.1136 162.153 28.75 162.153C29.3864 162.153 29.9304 162.331 30.3821 162.686C30.8366 163.038 31.1832 163.55 31.4219 164.22C31.6634 164.888 31.7841 165.693 31.7841 166.636C31.7841 167.585 31.6648 168.395 31.4261 169.065C31.1875 169.733 30.8423 170.243 30.3906 170.595C29.9389 170.945 29.392 171.119 28.75 171.119ZM28.75 170.182C29.3864 170.182 29.8807 169.875 30.233 169.261C30.5852 168.648 30.7614 167.773 30.7614 166.636C30.7614 165.881 30.6804 165.237 30.5185 164.706C30.3594 164.175 30.1293 163.77 29.8281 163.491C29.5298 163.213 29.1705 163.074 28.75 163.074C28.1193 163.074 27.6264 163.385 27.2713 164.007C26.9162 164.626 26.7386 165.503 26.7386 166.636C26.7386 167.392 26.8182 168.034 26.9773 168.562C27.1364 169.091 27.3651 169.493 27.6634 169.768C27.9645 170.044 28.3267 170.182 28.75 170.182ZM36.25 171.119C35.608 171.119 35.0611 170.945 34.6094 170.595C34.1577 170.243 33.8125 169.733 33.5739 169.065C33.3352 168.395 33.2159 167.585 33.2159 166.636C33.2159 165.693 33.3352 164.888 33.5739 164.22C33.8153 163.55 34.1619 163.038 34.6136 162.686C35.0682 162.331 35.6136 162.153 36.25 162.153C36.8864 162.153 37.4304 162.331 37.8821 162.686C38.3366 163.038 38.6832 163.55 38.9219 164.22C39.1634 164.888 39.2841 165.693 39.2841 166.636C39.2841 167.585 39.1648 168.395 38.9261 169.065C38.6875 169.733 38.3423 170.243 37.8906 170.595C37.4389 170.945 36.892 171.119 36.25 171.119ZM36.25 170.182C36.8864 170.182 37.3807 169.875 37.733 169.261C38.0852 168.648 38.2614 167.773 38.2614 166.636C38.2614 165.881 38.1804 165.237 38.0185 164.706C37.8594 164.175 37.6293 163.77 37.3281 163.491C37.0298 163.213 36.6705 163.074 36.25 163.074C35.6193 163.074 35.1264 163.385 34.7713 164.007C34.4162 164.626 34.2386 165.503 34.2386 166.636C34.2386 167.392 34.3182 168.034 34.4773 168.562C34.6364 169.091 34.8651 169.493 35.1634 169.768C35.4645 170.044 35.8267 170.182 36.25 170.182ZM36.25 189.119C35.608 189.119 35.0611 188.945 34.6094 188.595C34.1577 188.243 33.8125 187.733 33.5739 187.065C33.3352 186.395 33.2159 185.585 33.2159 184.636C33.2159 183.693 33.3352 182.888 33.5739 182.22C33.8153 181.55 34.1619 181.038 34.6136 180.686C35.0682 180.331 35.6136 180.153 36.25 180.153C36.8864 180.153 37.4304 180.331 37.8821 180.686C38.3366 181.038 38.6832 181.55 38.9219 182.22C39.1634 182.888 39.2841 183.693 39.2841 184.636C39.2841 185.585 39.1648 186.395 38.9261 187.065C38.6875 187.733 38.3423 188.243 37.8906 188.595C37.4389 188.945 36.892 189.119 36.25 189.119ZM36.25 188.182C36.8864 188.182 37.3807 187.875 37.733 187.261C38.0852 186.648 38.2614 185.773 38.2614 184.636C38.2614 183.881 38.1804 183.237 38.0185 182.706C37.8594 182.175 37.6293 181.77 37.3281 181.491C37.0298 181.213 36.6705 181.074 36.25 181.074C35.6193 181.074 35.1264 181.385 34.7713 182.007C34.4162 182.626 34.2386 183.503 34.2386 184.636C34.2386 185.392 34.3182 186.034 34.4773 186.562C34.6364 187.091 34.8651 187.493 35.1634 187.768C35.4645 188.044 35.8267 188.182 36.25 188.182Z" fill="black"/>
</g>
<defs>
<clipPath id="clip0_231_955">
<rect width="493" height="237" fill="white"/>
</clipPath>
</defs>
</svg>